<?xml version="1.0" encoding="utf-8"?>
<!-- Generator: Adobe Illustrator 24.2.2, SVG Export Plug-In . SVG Version: 6.00 Build 0)  -->
<svg version="1.1" id="Calque_1" xmlns="http://www.w3.org/2000/svg" xmlns:xlink="http://www.w3.org/1999/xlink" x="0px" y="0px"
	 viewBox="0 0 1000 622.4" enable-background="new 0 0 1000 622.4" xml:space="preserve">
<g id="Calque_2_2_">
	<g id="Calque_1-2_1_">
		<path d="M582.1,328.9l-0.4-0.9h11l-0.3,0.9c-0.7,2.9-1.1,5.8-1,8.8v17.6h4.6c3,0.1,6-0.2,8.9-0.9l1.1-0.4l-0.8,8.7h-23.4l0.4-0.9
			c0.8-2.8,1.1-5.8,1-8.7v-15.3c0-1.1,0-2.8-0.2-4.6C582.9,331.7,582.6,330.2,582.1,328.9"/>
		<path d="M667.2,354.3l1.1-0.4l-0.8,8.7h-27.6l0.4-0.9c0.7-2.8,1.1-5.8,1-8.7v-15.3c0.1-3-0.3-5.9-1-8.8l-0.4-0.9h26.2l0.8,8.7
			l-1.1-0.5c-2.9-0.7-5.9-1.1-8.9-1h-7.4v6.4h4.9c3,0.1,6-0.2,8.9-0.9l1-0.4v10l-1-0.4c-2.9-0.7-5.9-1.1-8.9-1h-4.9v6.3h8.8
			c2.4,0,4.7-0.1,7-0.5C666,354.7,666.6,354.5,667.2,354.3"/>
		<path d="M718.1,352.9c0-0.8-0.7-1.6-2.2-2.3c-1.4-0.7-3.5-1.6-5.6-2.5c-4.1-1.8-8.6-4.6-8.6-10c0-7.2,6.4-10.2,13.2-10.2
			c2.9,0,5.8,0.4,8.5,1.3l0.5,0.1v8.4l-1.1-0.6c-2.4-1.3-5.1-2-7.9-2c-1.4,0-5,0.4-5,2.3c0,0.8,0.7,1.7,2.3,2.5
			c4.4,2.5,14.2,4.6,14.2,13.7c0,6.6-6.9,9.5-13,9.5c-3.5-0.1-6.9-0.8-10.1-2.2l-0.4-0.2v-9.5l1.2,1c2.6,2.1,5.8,3.3,9.1,3.5
			c1.1,0,2.3-0.2,3.3-0.6C717.5,354.8,718.1,353.9,718.1,352.9"/>
		<path d="M572,501.3c0.2,4.5-2.6,8.6-6.8,10.1c1.1,1.7,2.4,3.9,3.9,6c1.4,2.2,3.1,4.3,5.1,6.1l1.4,1.1h-13.5V524
			c-0.3-2.2-1.1-4.2-2.3-6.1c-1.2-2.1-2.7-4.2-3.5-5.6h-0.9v2.7c-0.1,2.9,0.2,5.9,1,8.7l0.3,0.9h-11l0.4-0.9c0.7-2.8,1.1-5.8,1-8.7
			v-15.3c0.1-2.9-0.3-5.9-1-8.7l-0.4-0.9h13.9c3.3-0.1,6.5,0.9,9,3C570.9,495.2,572.2,498.2,572,501.3 M559.7,497.4h-4.3v7.7h4.3
			c2,0.2,3.9-1.2,4.1-3.2c0-0.2,0-0.4,0-0.6c0.1-2.1-1.5-3.8-3.5-3.9C560.1,497.3,559.9,497.4,559.7,497.4"/>
		<path d="M631.7,507.1c2.5,1.6,4,4.5,3.9,7.5c0,6.7-4.8,10.1-11.8,10.1h-15.2l0.4-0.9c0.8-2.8,1.1-5.8,1-8.7v-15.3
			c0.1-3-0.3-5.9-1-8.8l-0.4-0.9h15c7,0,11.4,3.2,11.4,9.8C635,502.7,633.8,505.3,631.7,507.1 M618.2,503.7h3.9
			c2.8,0,4.6-0.8,4.6-3.1c0-2.3-1.8-3.2-4.6-3.2h-3.9V503.7z M618.2,511.1v6.3h4.6c2.8,0,4.6-0.7,4.6-3.1c0-2.4-1.8-3.1-4.6-3.1
			L618.2,511.1z"/>
		<path d="M679.2,524.7h-11.7l0.8-1c1.6-2.8,2.8-5.7,3.6-8.8l4.6-15.3c0.9-2.8,1.5-5.7,1.6-8.7l-0.1-0.7h14.1v0.7
			c0.1,3,0.7,5.9,1.6,8.7l4.6,15.3c0.8,3.1,2,6,3.6,8.8l0.8,1h-11.7l0.1-0.7c0-2.3-0.3-4.6-0.9-6.8h-10.1c-0.6,2.2-0.9,4.5-0.8,6.8
			L679.2,524.7z M688.1,509.9c-1-3.8-1.9-7.6-3.1-11.4c-1.1,3.8-2,7.6-3.1,11.4H688.1z"/>
		<path d="M736.9,515.1v-15.3c0.1-2.9-0.3-5.9-1-8.7l-0.4-0.9h11l-0.3,0.9c-0.7,2.9-1.1,5.8-1,8.7v15.3c-0.1,2.9,0.2,5.9,1,8.7
			l0.3,0.9h-11l0.4-0.9c0.5-1.4,0.7-2.8,0.8-4.3C736.9,517.9,736.9,516.2,736.9,515.1"/>
		<path d="M814.4,523.8l0.4,0.9h-12.3L790,502.9v12.2c-0.1,2.9,0.3,5.9,1,8.7l0.3,0.9h-10.9l0.4-0.9c0.8-2.8,1.1-5.8,1-8.7v-15.3
			c0.1-3-0.3-5.9-1-8.8l-0.4-0.9h12.4l12.5,21.8v-12.2c0.1-3-0.3-5.9-1-8.8l-0.4-0.9h10.9l-0.4,0.9c-0.7,2.9-1,5.8-0.9,8.8v15.3
			c0,1.5,0,2.9,0.2,4.4C813.7,521,814,522.4,814.4,523.8"/>
		<path d="M876.1,516.4l1.1-0.4l-0.8,8.7h-27.6l0.4-0.9c0.7-2.8,1.1-5.8,1-8.7v-15.3c0.1-2.9-0.3-5.9-1-8.7l-0.4-0.9H875l0.8,8.7
			l-1.1-0.4c-2.9-0.7-5.9-1.1-8.9-1h-7.4v6.4h4.9c3,0.1,6-0.2,8.9-0.9l1-0.4v10l-1-0.4c-2.9-0.7-5.9-1.1-8.9-1h-4.9v6.3h8.7
			c2.4,0,4.7-0.2,7-0.6C874.9,516.7,875.5,516.5,876.1,516.4"/>
		<path d="M927,514.9c0-0.8-0.8-1.6-2.2-2.3c-1.4-0.7-3.5-1.6-5.6-2.6c-4.1-1.8-8.5-4.6-8.5-10c0-7.2,6.4-10.2,13.2-10.2
			c2.9,0,5.8,0.4,8.5,1.3l0.5,0.1v8.4l-1.1-0.6c-2.4-1.3-5.1-2-7.9-2c-1.4,0-5,0.5-5,2.3c0,0.8,0.8,1.7,2.3,2.5
			c4.4,2.5,14.1,4.6,14.1,13.7c0,6.6-6.8,9.5-13,9.5c-3.5-0.1-6.9-0.9-10.1-2.3l-0.3-0.2v-9.5l1.2,1c2.6,2.1,5.8,3.3,9.1,3.5
			c1.1,0,2.3-0.2,3.3-0.6C926.3,516.7,926.9,515.8,927,514.9"/>
		<path d="M458.2,471.2c-30.7,0-43-19.9-42.9-44.8c0-24,14.8-44.7,44-44.6c5.4,0,10.8,0.8,15.9,2.3c1.1,0.4,2.3,0.6,3.4,0.5
			c1,0.1,2.1-0.1,3.1-0.4l2.5-1v29.3l-3.2-3.4c-5.8-5.8-13.6-9-21.8-9.1c-16.2,0-22.7,12.7-22.8,26.4c0,15.1,6.5,26.6,23.4,26.6
			c9.2-0.2,18.1-3.4,25.2-9.3l3.2-2.9v23.7l-0.9,0.4c-2.2,1.1-4.5,2-6.8,2.8c-7.3,2.3-14.9,3.5-22.5,3.5"/>
		<path d="M526,469.5h-29.1l1.8-2.6c3.7-5,7.1-15.5,9.1-21.8l11.4-38.2c1.6-5.3,4.7-16.8,4.1-21.6l-0.3-1.8h34.9l-0.3,1.7
			c0.3,7.4,1.7,14.7,4,21.8l11.4,38.2c2,6.2,5.1,16.6,8.9,21.8l2,2.6h-29.2l0.4-1.8c-0.1-5.7-0.9-11.3-2.3-16.8h-25
			c-1,4.9-2.7,12.8-2.1,16.8L526,469.5z M548.1,432.8c-2.4-9.4-4.8-18.8-7.6-28.3c-2.8,9.4-5.2,18.8-7.7,28.3H548.1z"/>
		<path d="M650.1,425.7c6.3,4,10,11.1,9.7,18.6c0,16.6-12.2,25.2-29.4,25.2h-37.8l1-2.3c2-4.9,2.6-15.9,2.6-21.6v-38.1
			c0-5.6-0.6-16.9-2.5-21.8l-1-2.3h37.3c17.5,0,28.1,8,28.1,24.5C658.4,414.8,655.4,421.3,650.1,425.7 M616.6,435.6v15.7h11.5
			c6.8,0,11.3-1.8,11.3-7.8s-4.4-7.9-11.3-7.9L616.6,435.6z M616.6,417.4h9.8c6.8,0,11.2-2,11.2-7.8c0-5.9-4.4-7.9-11.2-7.9h-9.8
			V417.4z"/>
		<path d="M695,469.6h-29.1l1.8-2.6c3.7-5,7.1-15.5,9.1-21.8l11.4-38.2c1.6-5.3,4.6-16.8,4.1-21.6l-0.3-1.8h34.9l-0.3,1.7
			c0.3,7.4,1.7,14.7,4,21.8l11.4,38.2c2,6.2,5.1,16.6,8.9,21.8l2,2.6h-29.2l0.4-1.8c-0.1-5.7-0.9-11.3-2.3-16.8h-25
			c-1,4.9-2.7,12.9-2.1,16.8L695,469.6z M717.1,432.9c-2.4-9.4-4.8-18.8-7.6-28.3c-2.8,9.4-5.1,18.8-7.7,28.3H717.1z"/>
		<path d="M846.3,467.5l1,2.3h-30.7l-30.9-54.2v30.4c0,5.5,0.5,16.8,2.4,21.6l0.8,2.3h-27.3l1-2.3c2-4.9,2.6-16,2.6-21.7v-38.3
			c0-5.6-0.6-16.9-2.5-21.8l-1-2.3h30.9l31.1,54.2v-30.1c0-5.6-0.5-16.9-2.4-21.8l-1-2.3h27.2l-1,2.3c-2,4.8-2.3,16.2-2.3,21.8v38.2
			c-0.1,3.7,0.1,7.3,0.5,11C844.7,460.5,845.3,464,846.3,467.5"/>
		<path d="M926.3,449.2l2.7-1l-2.1,21.5h-68.6l1-2.3c2-4.9,2.6-16,2.6-21.7v-38.1c0-5.6-0.6-16.9-2.5-21.8l-1-2.3h65.3l2.1,21.7
			l-2.8-1.1c-5-2-16.4-2.5-22.3-2.5h-18.3v15.8h12.2c5.6,0,17.1-0.3,22-2.3l2.5-1v25l-2.6-1c-5-2-16.3-2.5-22-2.5h-12.2v15.7H904
			c5.9,0,11.7-0.4,17.5-1.2C923.2,450.1,924.8,449.8,926.3,449.2"/>
		<path d="M979.4,445.6c0-2.1-1.8-4.1-5.4-5.9s-8.7-4-13.9-6.4c-10.2-4.6-21.3-11.4-21.3-25c0-17.9,15.9-25.5,32.8-25.4
			c7.2-0.1,14.3,1,21.2,3.3l1.1,0.4v21l-2.7-1.5c-6.1-3.1-12.8-4.8-19.6-5c-3.4,0-12.4,1.1-12.4,5.9c0,2.1,1.8,4.2,5.5,6.3
			c10.9,6.1,35.2,11.4,35.2,33.8c0,16.5-17.3,23.7-32.5,23.7c-8.7-0.1-17.2-2-25.2-5.4l-0.8-0.5v-23.6l2.9,2.4
			c6.5,5.3,14.5,8.4,22.9,8.8c2.9,0.1,5.7-0.5,8.3-1.6C977.9,450,979.4,447.9,979.4,445.6"/>
		<path d="M510.3,511.4c0,8-5.2,14-14.5,14c-9.3,0-14.4-5.9-14.4-14v-11.7c0.1-2.9-0.3-5.9-1-8.7l-0.4-0.9h11l-0.4,0.9
			c-0.7,2.9-1,5.8-0.9,8.7v11.7c0,4.1,1.7,6.6,6.2,6.6c4.5,0,6.3-2.6,6.3-6.6v-11.7c0.1-2.9-0.2-5.9-0.9-8.7l-0.4-0.9h10.9l-0.4,0.9
			c-0.8,2.8-1.1,5.8-1,8.7V511.4z"/>
		<path d="M348.5,75.9h0.4c1.1,0,2.1-0.8,2.3-1.9l2.6-17.1c0.4-1.2-0.2-2.5-1.4-2.9c-1.2-0.4-2.5,0.2-2.9,1.4
			c-0.1,0.3-0.1,0.6-0.1,0.8l-2.7,17C346.5,74.4,347.3,75.6,348.5,75.9"/>
		<path d="M419.4,98.9c1.1,0.5,2.4,0.1,3-1l7.9-15.3c0.8-1,0.6-2.4-0.4-3.2c-1-0.8-2.4-0.6-3.2,0.4c-0.2,0.2-0.3,0.5-0.4,0.8
			l-7.8,15.3C417.9,97,418.4,98.3,419.4,98.9"/>
		<path d="M481.3,143.4c0.6,0,1.1-0.2,1.6-0.6l12.2-12.2c0.7-1.1,0.3-2.5-0.7-3.1c-0.7-0.5-1.7-0.5-2.4,0l-12.2,12.2
			c-0.9,0.9-0.9,2.3,0,3.2C480.1,143.2,480.7,143.5,481.3,143.4"/>
		<path d="M539.9,192.2l-15.3,7.8c-1.1,0.6-1.5,1.9-1,3c0.6,1.1,1.9,1.5,3,1l15.3-7.8c1.2-0.3,1.9-1.6,1.6-2.8
			c-0.3-1.2-1.6-1.9-2.8-1.6C540.3,191.9,540,192,539.9,192.2"/>
		<path d="M565.5,268.6l-17,2.7c-1.3,0.1-2.2,1.2-2.1,2.5s1.2,2.2,2.5,2.1h0.3l17-2.7c1.3,0,2.3-0.9,2.4-2.2c0-1.3-0.9-2.3-2.2-2.4
			c-0.3,0-0.6,0-0.9,0.1"/>
		<path d="M348.5,546.6c-1.2,0.2-2,1.3-1.8,2.5l2.7,17c0.2,1.1,1.2,1.9,2.3,1.9h0.3c1.2-0.2,2-1.3,1.9-2.5l-2.7-17
			C350.9,547.2,349.8,546.4,348.5,546.6"/>
		<path d="M274,546.6c-1.2-0.2-2.4,0.6-2.6,1.8l-2.8,17c-0.2,1.2,0.6,2.3,1.8,2.5h0.4c1.1,0,2.1-0.8,2.3-1.9l2.7-17
			C276,547.9,275.2,546.8,274,546.6"/>
		<path d="M203.1,523.6c-1.1-0.5-2.4-0.1-3,1l-7.8,15.3c-0.5,1.1-0.1,2.4,1,3c0.3,0.2,0.7,0.2,1,0.3c0.8,0,1.6-0.5,2-1.2l7.8-15.3
			C204.6,525.5,204.1,524.2,203.1,523.6"/>
		<path d="M139.6,479.7l-12.1,12.2c-0.9,0.9-0.8,2.4,0.1,3.2c0.4,0.4,0.9,0.6,1.5,0.6c0.6,0,1.2-0.2,1.6-0.7l12.2-12.2
			c0.7-1,0.4-2.5-0.6-3.2C141.5,479.2,140.4,479.2,139.6,479.7"/>
		<path d="M98.9,419.4c-0.6-1.1-1.9-1.5-3-1l-15.3,7.8c-1.1,0.6-1.4,2-0.8,3.1c0.4,0.6,1.1,1.1,1.8,1.1c0.4,0,0.7-0.1,1-0.3
			l15.3-7.8C99,421.8,99.4,420.5,98.9,419.4"/>
		<path d="M73.3,346.6l-17,2.7c-1.3,0.1-2.2,1.2-2.1,2.5c0.1,1.3,1.2,2.2,2.5,2.1h0.3l17-2.7c1.3-0.2,2.1-1.4,1.9-2.6
			C75.7,347.3,74.5,346.5,73.3,346.6"/>
		<path d="M54.5,270.5c-0.2,1.2,0.6,2.4,1.8,2.6l17,2.7h0.4c1.3,0.1,2.4-0.8,2.4-2.1c0.1-1.3-0.8-2.4-2.1-2.4l-17.1-2.6
			C55.7,268.5,54.6,269.3,54.5,270.5"/>
		<path d="M80.6,196.2l15.3,7.8c1.2,0.3,2.5-0.4,2.8-1.7c0.2-0.9-0.1-1.8-0.8-2.3l-15.3-7.8c-1.2-0.4-2.5,0.3-2.8,1.5
			C79.4,194.6,79.7,195.6,80.6,196.2"/>
		<path d="M139.6,142.7c0.4,0.4,1,0.7,1.6,0.7c1.3-0.1,2.2-1.1,2.2-2.4c0-0.5-0.2-1-0.6-1.4l-12.2-12.1c-1.1-0.6-2.5-0.2-3.1,1
			c-0.3,0.7-0.3,1.5,0,2.1L139.6,142.7z"/>
		<path d="M200,97.9c0.4,0.7,1.2,1.2,2,1.2c0.3,0,0.7-0.1,1-0.2c1.1-0.6,1.5-1.9,1-3l-7.8-15.3c-0.7-1-2.2-1.2-3.2-0.5
			c-0.8,0.6-1.1,1.6-0.8,2.5L200,97.9z"/>
		<path d="M273.6,75.9h0.4c1.2-0.2,2-1.4,1.8-2.6l-2.6-17c-0.2-1.2-1.4-2-2.6-1.9c-1.2,0.2-2.1,1.3-2,2.5l2.7,17
			C271.5,75,272.5,75.8,273.6,75.9"/>
		<path d="M311.2,13.7c1.3,0,2.3-1,2.3-2.3V2.9c0-1.3-1-2.3-2.3-2.3c-1.3,0-2.3,1-2.3,2.3v8.6c0,1.3,1,2.3,2.3,2.3"/>
		<path d="M311.2,53.5c1.3,0,2.3-1,2.3-2.3V38c0-1.3-1-2.3-2.3-2.3c-1.3,0-2.3,1-2.3,2.3v13.3C309,52.6,310,53.6,311.2,53.5"/>
		<path d="M403.2,28.3c0.2,0.1,0.5,0.1,0.7,0.1c1,0,1.8-0.6,2.1-1.5l2.7-8.2c0.2-1.2-0.7-2.4-2-2.6c-0.9-0.1-1.9,0.3-2.3,1.2
			l-2.7,8.2C401.4,26.6,402,27.9,403.2,28.3"/>
		<path d="M390.9,66.1c0.2,0.1,0.5,0.1,0.7,0.1c1,0,1.8-0.6,2.1-1.5l4.1-12.6c0.2-1.2-0.7-2.4-2-2.5c-0.9-0.1-1.8,0.4-2.3,1.2
			l-4.1,12.6C389.1,64.5,389.7,65.7,390.9,66.1"/>
		<path d="M487.4,71c0.7,0,1.4-0.4,1.8-0.9l5.1-7c0.5-1.1,0.1-2.5-1.1-3c-0.9-0.4-1.9-0.3-2.6,0.4l-5.1,7c-0.7,1-0.5,2.4,0.5,3.1
			C486.5,70.8,486.9,71,487.4,71"/>
		<path d="M464,103.2c0.7,0,1.4-0.3,1.8-0.9l7.7-10.7c0.9-0.9,1-2.3,0.1-3.2c-0.9-0.9-2.3-1-3.2-0.1c-0.2,0.2-0.4,0.4-0.5,0.7
			l-7.8,10.7c-0.7,1-0.5,2.4,0.5,3.1C463,103,463.5,103.2,464,103.2"/>
		<path d="M553.7,137.3c0.5,0,0.9-0.1,1.3-0.4l7-5.1c1.1-0.5,1.6-1.9,1.1-3c-0.5-1.1-1.9-1.6-3-1.1c-0.3,0.1-0.5,0.3-0.7,0.5l-7,5.1
			c-1,0.8-1.1,2.2-0.4,3.2C552.5,136.9,553.1,137.2,553.7,137.3"/>
		<path d="M521.5,160.7c0.5,0,0.9-0.1,1.3-0.4l10.7-7.7c1.1-0.5,1.6-1.9,1.1-3c-0.5-1.1-1.9-1.6-3-1.1c-0.2,0.1-0.5,0.3-0.7,0.5
			l-10.7,7.7c-1,0.8-1.1,2.2-0.4,3.2C520.2,160.3,520.9,160.6,521.5,160.7"/>
		<path d="M606.6,215.2c-0.4-1.2-1.6-1.8-2.8-1.4l-8.2,2.7c-1.2,0.4-1.8,1.6-1.4,2.8c0.3,0.9,1.2,1.5,2.1,1.5c0.2,0,0.5,0,0.7-0.1
			l8.2-2.7C606.3,217.7,607,216.4,606.6,215.2"/>
		<path d="M570.3,224.7l-12.6,4.1c-1.2,0.5-1.7,1.8-1.2,3c0.3,0.8,1.1,1.3,1.9,1.4c0.2,0,0.5,0,0.7,0l12.6-4.1
			c1.2-0.4,1.8-1.6,1.4-2.8c-0.4-1.2-1.6-1.8-2.8-1.4"/>
		<path d="M406,595.6c-0.4-1.2-1.6-1.8-2.8-1.4c-1.2,0.4-1.8,1.6-1.4,2.8l2.7,8.2c0.3,0.9,1.2,1.5,2.1,1.5c0.2,0,0.5,0,0.7-0.1
			c1.2-0.4,1.8-1.6,1.4-2.8L406,595.6z"/>
		<path d="M393.7,557.7c-0.4-1.1-1.6-1.8-2.8-1.4c-1.2,0.4-1.8,1.6-1.5,2.8l4.1,12.6c0.3,0.9,1.2,1.5,2.1,1.5c0.2,0,0.5,0,0.7,0
			c1.2-0.4,1.8-1.6,1.4-2.8L393.7,557.7z"/>
		<path d="M311.2,608.7c-1.3,0-2.3,1-2.3,2.3v8.6c0,1.3,1,2.3,2.3,2.3c1.3,0,2.3-1,2.3-2.3V611C313.5,609.7,312.5,608.7,311.2,608.7
			"/>
		<path d="M311.2,568.9c-1.3,0-2.3,1-2.3,2.3v13.3c0,1.3,1,2.3,2.3,2.3c1.3,0,2.3-1,2.3-2.3v-13.3
			C313.5,569.9,312.5,568.9,311.2,568.9"/>
		<path d="M219.3,594.2c-1.2-0.4-2.4,0.3-2.8,1.4l-2.7,8.2c-0.4,1.2,0.3,2.4,1.4,2.8c0.2,0.1,0.5,0.1,0.7,0.1c1,0,1.8-0.6,2.1-1.5
			l2.7-8.2C221.1,595.8,220.5,594.6,219.3,594.2"/>
		<path d="M231.6,556.3c-1.2-0.4-2.4,0.3-2.8,1.4l-4.1,12.6c-0.4,1.2,0.3,2.4,1.4,2.8c0.2,0,0.5,0,0.7,0c1,0,1.8-0.6,2.1-1.5
			L233,559c0.4-1.2-0.3-2.4-1.4-2.8"/>
		<path d="M133.3,552.4l-5.1,7c-0.7,1-0.5,2.4,0.5,3.1c1,0.7,2.4,0.5,3.1-0.5l5.1-7c0.5-1.1,0-2.5-1.1-3
			C134.9,551.6,133.9,551.8,133.3,552.4"/>
		<path d="M156.7,520.2l-7.8,10.7c-0.6,1.1-0.3,2.5,0.8,3.1c1,0.6,2.2,0.4,2.9-0.5l7.8-10.7c0.5-1.1,0-2.5-1.1-3
			C158.4,519.4,157.4,519.6,156.7,520.2"/>
		<path d="M67.4,485.6l-7,5.1c-1,0.8-1.1,2.2-0.4,3.2c0.4,0.5,1,0.8,1.7,0.9c0.5,0,0.9-0.2,1.3-0.4l7-5.1c1.1-0.5,1.6-1.9,1.1-3
			c-0.5-1.1-1.9-1.6-3-1.1C67.9,485.2,67.6,485.4,67.4,485.6"/>
		<path d="M99.6,462.1l-10.7,7.8c-1,0.7-1.2,2.1-0.5,3.1c0.4,0.6,1.1,0.9,1.8,0.9c0.5,0,0.9-0.1,1.3-0.4l10.7-7.8
			c1-0.7,1.2-2.1,0.5-3.1C102,461.6,100.6,461.4,99.6,462.1"/>
		<path d="M25.5,401.7l-8.2,2.7c-1.1,0.4-1.7,1.7-1.3,2.8c0.3,0.9,1.2,1.5,2.1,1.5c0.2,0,0.5,0,0.7-0.1L27,406
			c1.2-0.2,2.1-1.3,2-2.6c-0.2-1.2-1.3-2.1-2.6-2C26.1,401.5,25.8,401.6,25.5,401.7"/>
		<path d="M66.2,390.9c-0.4-1.2-1.6-1.8-2.8-1.5l-12.6,4.1c-1.2,0.4-1.8,1.6-1.4,2.8c0.3,0.9,1.2,1.5,2.1,1.5c0.2,0,0.5,0,0.7-0.1
			l12.6-4.1C65.9,393.3,66.5,392,66.2,390.9"/>
		<path d="M11.5,309H2.9c-1.3,0-2.3,1-2.3,2.3c0,1.3,1,2.3,2.3,2.3h8.6c1.3,0,2.3-1,2.3-2.3C13.8,310,12.8,309,11.5,309"/>
		<path d="M53.6,311.2c0-1.3-1-2.3-2.3-2.3H38c-1.3,0-2.3,1-2.3,2.3c0,1.3,1,2.3,2.3,2.3h13.3C52.6,313.5,53.6,312.5,53.6,311.2"/>
		<path d="M17.3,218.1l8.2,2.8c0.2,0.1,0.5,0.1,0.7,0.1c1,0,1.8-0.6,2.1-1.5c0.4-1.2-0.3-2.4-1.4-2.8l-8.2-2.8
			c-1.2-0.2-2.4,0.7-2.6,2C16,216.7,16.5,217.6,17.3,218.1"/>
		<path d="M50.7,228.9l12.6,4.1c0.2,0,0.5,0,0.7,0c1.3-0.1,2.2-1.2,2.1-2.5c-0.1-0.8-0.6-1.6-1.4-1.9l-12.6-4.1
			c-1.2-0.2-2.4,0.7-2.5,2c-0.1,0.9,0.4,1.8,1.2,2.3"/>
		<path d="M67.4,136.9c1.1,0.5,2.5,0.1,3-1.1c0.4-0.9,0.2-1.9-0.4-2.6l-7-5.1c-1.1-0.5-2.5,0-3,1.1c-0.4,0.8-0.2,1.8,0.4,2.5
			L67.4,136.9z"/>
		<path d="M99.6,160.3c0.4,0.3,0.8,0.4,1.3,0.4c1.3-0.1,2.2-1.1,2.2-2.4c0-0.7-0.3-1.3-0.9-1.7l-10.7-7.8c-1.1-0.6-2.5-0.2-3.1,0.9
			c-0.5,0.9-0.3,2.1,0.5,2.8L99.6,160.3z"/>
		<path d="M133.3,70c0.7,1,2.1,1.2,3.1,0.5c1-0.7,1.2-2.1,0.5-3.1l-5.1-7c-0.5-1.1-1.9-1.6-3-1.1c-1.1,0.5-1.6,1.9-1.1,3
			c0.1,0.3,0.3,0.5,0.5,0.7L133.3,70z"/>
		<path d="M156.7,102.3c0.4,0.6,1.1,0.9,1.8,0.9c0.5,0,0.9-0.1,1.3-0.4c1-0.7,1.2-2.1,0.5-3.1l-7.7-10.7c-0.5-1.1-1.9-1.6-3-1.1
			c-1.1,0.5-1.6,1.9-1.1,3c0.1,0.3,0.3,0.5,0.5,0.7L156.7,102.3z"/>
		<path d="M216.5,26.9c0.3,0.9,1.2,1.5,2.1,1.5c0.2,0,0.5,0,0.7-0.1c1.2-0.4,1.9-1.6,1.5-2.8l-2.7-8.2c-0.6-1.1-2-1.5-3.1-0.9
			c-0.8,0.5-1.3,1.4-1.2,2.3L216.5,26.9z"/>
		<path d="M228.8,64.7c0.3,0.9,1.2,1.5,2.1,1.5c0.2,0,0.5,0,0.7-0.1c1.2-0.4,1.8-1.6,1.4-2.8l-4.1-12.6c-0.6-1.1-2-1.5-3.1-0.9
			c-0.8,0.4-1.3,1.3-1.2,2.3L228.8,64.7z"/>
		<path d="M500.6,491.2c0.7,2.8,1,5.6,0.9,8.5v11.7c0,4-1.8,6-5.6,6c-3.8,0-5.6-1.9-5.6-6v-11.7c-0.2-2.9,0.1-5.7,0.9-8.5l0.8-1.8
			h-13l0.8,1.8c0.7,2.8,1,5.6,1,8.5v11.7c0,8.9,5.9,14.6,15.1,14.6c9.2,0,15.1-5.7,15.1-14.6v-11.7c-0.1-2.9,0.2-5.7,0.9-8.5
			l0.8-1.8h-12.9L500.6,491.2z"/>
		<path d="M348.3,76.5h0.5c1.4,0,2.6-1,2.8-2.4l2.7-17c0.3-1.5-0.8-3-2.3-3.3c-1.6-0.2-3,0.8-3.3,2.4l-2.7,17
			C345.8,74.7,346.8,76.2,348.3,76.5z M349.9,56.4c0.1-0.8,0.8-1.4,1.6-1.3h0.3c0.9,0.1,1.5,0.9,1.3,1.8c0,0,0,0,0,0l-2.7,17
			c-0.1,0.9-1,1.5-1.8,1.3l0,0c-0.9-0.1-1.5-0.9-1.3-1.8L349.9,56.4z"/>
		<path d="M419.1,99.5c1.4,0.7,3.1,0.2,3.9-1.2c0,0,0,0,0,0l7.8-15.3c0.7-1.4,0.1-3.2-1.3-3.9c-0.7-0.4-1.5-0.4-2.3-0.2
			c-0.7,0.2-1.3,0.7-1.7,1.4l-7.7,15.3c-0.4,0.7-0.5,1.5-0.2,2.3C417.9,98.6,418.4,99.2,419.1,99.5z M419.1,96.2l7.8-15.3
			c0.2-0.4,0.5-0.7,0.9-0.8c0.2,0,0.3,0,0.5,0c0.3,0,0.5,0.1,0.7,0.2c0.8,0.4,1.1,1.4,0.7,2.1L422,97.7c-0.4,0.8-1.4,1.1-2.1,0.7
			l0,0c-0.4-0.2-0.7-0.5-0.8-0.9c-0.2-0.4-0.2-0.9,0-1.3H419.1z"/>
		<path d="M481.3,144c0.8,0,1.5-0.3,2-0.8l12.2-12.2c0.5-0.5,0.8-1.3,0.8-2c0-0.8-0.3-1.5-0.8-2c-1.1-1.1-2.9-1.1-4.1,0c0,0,0,0,0,0
			l-12.2,12.2c-1.1,1.1-1.1,3,0,4.1C479.8,143.7,480.6,144,481.3,144z M480.2,140l12.2-12.2c0.6-0.6,1.7-0.6,2.3,0.1
			c0.3,0.3,0.4,0.7,0.4,1.1c0,0.4-0.2,0.8-0.5,1.1l-12.2,12.2c-0.6,0.6-1.6,0.6-2.3,0C479.5,141.6,479.6,140.6,480.2,140z"/>
		<path d="M541.8,191.5c-0.8-0.2-1.6-0.2-2.3,0.2l-15.3,7.8c-1.4,0.7-2,2.5-1.3,3.9c0.5,1,1.5,1.6,2.6,1.6c0.5,0,0.9-0.1,1.3-0.3
			l15.3-7.8c1.4-0.7,2-2.4,1.3-3.9C543.1,192.2,542.5,191.7,541.8,191.5z M541.6,195.6l-15.3,7.8c-0.8,0.4-1.7,0.1-2.1-0.7
			c-0.4-0.8-0.1-1.7,0.7-2.1l15.3-7.8l0,0c0.2-0.1,0.5-0.2,0.7-0.2c0.2,0,0.3,0,0.5,0c0.4,0.1,0.7,0.4,0.9,0.8
			C542.8,194.2,542.5,195.1,541.6,195.6C541.7,195.6,541.6,195.6,541.6,195.6L541.6,195.6z"/>
		<path d="M565.3,268.1l-17,2.7c-1.6,0.3-2.6,1.8-2.3,3.4c0.2,1.4,1.4,2.4,2.8,2.4h0.5l17-2.7c0.8-0.1,1.4-0.5,1.9-1.2
			c0.4-0.6,0.6-1.4,0.5-2.1C568.4,268.9,567,267.8,565.3,268.1C565.4,268,565.4,268.1,565.3,268.1z M567.1,271.8
			c-0.3,0.3-0.6,0.6-1,0.6l-17,2.7c-0.9,0.2-1.7-0.4-1.9-1.2c-0.2-0.9,0.4-1.7,1.2-1.9c0.1,0,0.1,0,0.2,0l17-2.7
			c0.9-0.1,1.7,0.5,1.8,1.3C567.4,271.1,567.3,271.5,567.1,271.8z"/>
		<path d="M348.3,545.9L348.3,545.9c-1.5,0.3-2.5,1.8-2.3,3.3l2.7,17c0.2,1.4,1.4,2.4,2.8,2.4h0.5c1.5-0.3,2.5-1.8,2.3-3.3l-2.7-17
			C351.4,546.8,349.9,545.7,348.3,545.9z M351.7,567.4c-0.9,0.1-1.7-0.4-1.8-1.3c0,0,0,0,0,0l-2.7-17c-0.1-0.9,0.5-1.7,1.3-1.8
			c0.9-0.1,1.7,0.4,1.8,1.3c0,0,0,0,0,0l2.7,17C353.2,566.4,352.6,567.2,351.7,567.4L351.7,567.4z"/>
		<path d="M274.1,545.9L274.1,545.9c-1.6-0.2-3,0.8-3.3,2.4l-2.7,17c-0.2,1.6,0.8,3.1,2.4,3.3c0,0,0,0,0,0h0.4c1.4,0,2.6-1,2.8-2.4
			l2.7-17c0.1-0.8,0-1.5-0.5-2.2C275.5,546.4,274.8,546,274.1,545.9z M272.5,566c-0.1,0.8-0.8,1.3-1.6,1.3h-0.3
			c-0.9-0.1-1.5-1-1.3-1.8l2.7-17c0.1-0.8,0.8-1.3,1.6-1.3h0.3c0.4,0.1,0.8,0.3,1,0.6c0.2,0.3,0.3,0.8,0.3,1.2L272.5,566z"/>
		<path d="M203.3,522.9c-0.7-0.4-1.5-0.4-2.3-0.2c-0.7,0.2-1.3,0.7-1.7,1.4l-7.8,15.3c-0.7,1.4-0.2,3.1,1.2,3.9c0,0,0,0,0,0
			c0.4,0.2,0.9,0.3,1.3,0.3c1.1,0,2.1-0.6,2.6-1.6l7.8-15.3C205.3,525.4,204.7,523.7,203.3,522.9z M203.5,526.2l-7.8,15.3
			c-0.4,0.8-1.4,1.1-2.1,0.7c-0.8-0.4-1.1-1.4-0.7-2.1l7.8-15.3c0.2-0.4,0.5-0.7,0.9-0.8c0.2,0,0.3,0,0.5,0c0.3,0,0.5,0.1,0.7,0.2
			C203.5,524.6,203.8,525.5,203.5,526.2z"/>
		<path d="M141.2,478.4L141.2,478.4c-0.8,0-1.5,0.3-2,0.8l-12.2,12.2c-0.5,0.5-0.8,1.3-0.8,2c0,1.6,1.3,2.9,2.9,2.9
			c0.8,0,1.5-0.3,2-0.8l12.2-12.2c1.1-1.1,1.1-3,0-4.1C142.6,478.7,141.9,478.4,141.2,478.4L141.2,478.4z M142.3,482.4l-12.2,12.2
			c-0.6,0.6-1.6,0.6-2.3,0c-0.6-0.6-0.7-1.6-0.1-2.2c0,0,0,0,0.1-0.1l12.2-12.2l0,0c0.3-0.3,0.7-0.5,1.1-0.5l0,0
			c0.4,0,0.8,0.2,1.1,0.5C142.9,480.8,142.9,481.8,142.3,482.4L142.3,482.4z"/>
		<path d="M99.5,419.1c-0.3-0.7-0.9-1.2-1.7-1.4c-0.7-0.3-1.6-0.2-2.3,0.2l-15.3,7.9c-0.7,0.3-1.2,0.9-1.4,1.7
			c-0.3,0.7-0.2,1.6,0.2,2.3c0.5,1,1.5,1.6,2.6,1.6c0.5,0,0.9-0.1,1.3-0.3l15.3-7.8c1.4-0.7,2-2.4,1.3-3.8
			C99.6,419.2,99.5,419.2,99.5,419.1z M97.6,421.8l-15.3,7.8c-0.8,0.4-1.7,0.1-2.1-0.7c-0.2-0.4-0.2-0.8,0-1.2
			c0.1-0.4,0.4-0.7,0.8-0.9l15.3-7.8c0.2-0.1,0.5-0.2,0.7-0.2c0.2,0,0.3,0,0.5,0c0.4,0.1,0.7,0.4,0.9,0.8c0.4,0.8,0.1,1.7-0.6,2.2
			C97.7,421.8,97.7,421.8,97.6,421.8z"/>
		<path d="M73.2,346l-17,2.7c-1.6,0.3-2.6,1.7-2.4,3.3c0.2,1.4,1.4,2.5,2.8,2.4h0.5l17-2.7c1.5-0.3,2.5-1.8,2.3-3.3
			C76.2,346.9,74.8,345.9,73.2,346z M73.9,350.6l-17,2.5c-0.9,0.1-1.7-0.4-1.8-1.3c0,0,0,0,0,0c-0.1-0.9,0.5-1.7,1.3-1.8l17-2.7
			c0.9-0.1,1.7,0.5,1.8,1.3c0.1,0.9-0.5,1.7-1.3,1.8L73.9,350.6z"/>
		<path d="M53.8,270.4L53.8,270.4c-0.2,1.6,0.8,3,2.4,3.3l17,2.7h0.5c1.6,0,2.8-1.3,2.8-2.9c0-0.6-0.2-1.2-0.5-1.6
			c-0.4-0.6-1.1-1.1-1.9-1.2l-17-2.7C55.5,267.8,54.1,268.9,53.8,270.4z M75,272.7c0.2,0.3,0.3,0.8,0.3,1.2c-0.2,0.9-1,1.4-1.8,1.3
			l-17-2.7c-0.9-0.2-1.4-1-1.2-1.9c0.2-0.8,0.9-1.3,1.7-1.2l17,2.7C74.3,272.1,74.7,272.3,75,272.7L75,272.7z"/>
		<path d="M80.3,196.8l15.3,7.8c0.4,0.2,0.8,0.3,1.3,0.3c1.6,0,2.9-1.3,2.9-2.9c0-0.3,0-0.6-0.1-0.9c-0.2-0.7-0.8-1.3-1.4-1.7
			l-15.3-7.8c-1.5-0.6-3.2,0-3.8,1.5C78.5,194.5,79,196,80.3,196.8z M80.3,193.5c0.2-0.4,0.5-0.7,0.9-0.8c0.4-0.2,0.8-0.2,1.2,0
			l15.3,7.8c0.4,0.2,0.7,0.5,0.8,0.9c0.2,0.4,0.2,0.8,0,1.2c-0.4,0.8-1.4,1.1-2.1,0.7l-15.3-7.8l0,0c-0.8-0.3-1.2-1.2-0.9-2
			L80.3,193.5z"/>
		<path d="M139.1,143.2c1.1,1.1,3,1.1,4.1,0c0.5-0.5,0.8-1.3,0.8-2c0-0.8-0.3-1.5-0.8-2L131,126.9c-0.5-0.6-1.3-0.9-2-0.9
			c-1.6,0-2.9,1.3-2.9,2.9c0,0.8,0.3,1.5,0.8,2L139.1,143.2z"/>
		<path d="M199.5,98.2c0.5,1,1.5,1.6,2.6,1.6c0.5,0,0.9-0.1,1.3-0.3c0.7-0.3,1.3-0.9,1.5-1.6c0.3-0.8,0.2-1.6-0.2-2.3l-7.8-15.3
			c-0.5-1-1.5-1.6-2.6-1.6c-0.5,0-0.9,0.1-1.3,0.3c-1.4,0.7-2,2.5-1.3,3.9L199.5,98.2z"/>
		<path d="M273.6,76.5h0.5c0.8-0.1,1.4-0.5,1.9-1.2c0.5-0.6,0.6-1.4,0.5-2.1l-2.7-17c-0.3-1.6-1.7-2.6-3.3-2.4
			c-1.5,0.3-2.5,1.8-2.3,3.3l2.7,17C271.1,75.5,272.2,76.5,273.6,76.5z M270.7,55.1h0.2c0.8,0,1.5,0.6,1.6,1.3l2.7,17
			c0.1,0.4,0,0.8-0.3,1.2c-0.5,0.7-1.5,0.9-2.2,0.4c-0.3-0.2-0.6-0.6-0.6-1l-2.7-17C269.2,56.1,269.8,55.2,270.7,55.1
			C270.6,55.1,270.7,55.1,270.7,55.1z"/>
		<path d="M311.2,14.4c1.6,0,2.9-1.2,2.9-2.8c0,0,0,0,0-0.1V2.9c0-1.6-1.3-2.9-2.9-2.9c-1.6,0-2.9,1.3-2.9,2.9v8.6
			C308.4,13.1,309.7,14.3,311.2,14.4z M309.6,3c0-0.9,0.7-1.6,1.6-1.6c0.9,0,1.6,0.7,1.6,1.6v8.5c0,0.9-0.7,1.6-1.6,1.6
			c-0.9,0-1.6-0.7-1.6-1.6V3z"/>
		<path d="M311.2,54.2c1.6,0,2.9-1.2,2.9-2.8c0,0,0,0,0-0.1V38c0-1.6-1.3-2.9-2.9-2.9c-1.6,0-2.9,1.3-2.9,2.9v13.3
			C308.4,52.9,309.7,54.2,311.2,54.2z M309.6,38c0-0.9,0.7-1.6,1.6-1.6c0.9,0,1.6,0.7,1.6,1.6v13.3c0,0.9-0.7,1.6-1.6,1.6
			c-0.9,0-1.6-0.7-1.6-1.6V38z"/>
		<path d="M403,28.9c0.3,0.1,0.6,0.1,0.9,0.1c1.3,0,2.4-0.8,2.8-2l2.7-8.2c0.4-1.5-0.5-3.1-2-3.5c-1.4-0.4-2.9,0.4-3.4,1.7l-2.7,8.2
			c-0.3,0.7-0.2,1.6,0.2,2.3C401.6,28.2,402.2,28.7,403,28.9z M402.3,25.7l2.7-8.2c0.2-0.7,0.8-1.1,1.5-1.1c0.2,0,0.3,0,0.5,0
			c0.8,0.3,1.3,1.2,1,2l-2.7,8.2c-0.3,0.8-1.2,1.3-2,1l0,0c-0.4-0.1-0.7-0.4-0.9-0.8C402.3,26.4,402.2,26,402.3,25.7z"/>
		<path d="M390.7,66.8c0.3,0.1,0.6,0.1,0.9,0.1c1.2,0,2.4-0.8,2.8-2l4.1-12.6c0.5-1.5-0.3-3.1-1.8-3.6c0,0,0,0,0,0
			c-1.5-0.5-3.1,0.3-3.6,1.8c0,0,0,0,0,0.1l-4.1,12.6c-0.3,0.7-0.2,1.6,0.2,2.3C389.4,66.1,390,66.6,390.7,66.8z M390,63.5l4.1-12.6
			c0.1-0.4,0.4-0.7,0.8-0.9c0.2-0.1,0.5-0.2,0.7-0.2c0.2,0,0.3,0,0.5,0c0.8,0.3,1.3,1.2,1,2l-4.1,12.6c-0.3,0.8-1.2,1.3-2,1l0,0
			C390.3,65.2,389.8,64.3,390,63.5L390,63.5z"/>
		<path d="M487.4,71.6c0.9,0,1.7-0.5,2.3-1.2l5.1-7c0.7-1.4,0.1-3.2-1.3-3.9c-1.1-0.5-2.3-0.3-3.2,0.5l-5.1,7
			c-0.5,0.6-0.6,1.4-0.5,2.1c0.1,0.8,0.5,1.4,1.1,1.9C486.3,71.4,486.8,71.6,487.4,71.6z M486.1,67.8l5.1-7c0.3-0.4,0.8-0.7,1.3-0.7
			c0.3,0,0.7,0.1,0.9,0.3c0.7,0.5,0.9,1.5,0.4,2.3c0,0,0,0,0,0l-5.1,6.9c-0.5,0.7-1.5,0.9-2.2,0.4c0,0,0,0-0.1,0
			c-0.4-0.2-0.6-0.6-0.6-1C485.7,68.6,485.8,68.1,486.1,67.8z"/>
		<path d="M464,103.8c0.9,0,1.7-0.5,2.3-1.2l7.8-10.7c0.5-0.6,0.6-1.4,0.5-2.1c-0.1-0.8-0.5-1.4-1.2-1.9c-0.6-0.5-1.4-0.6-2.1-0.5
			c-0.8,0.1-1.4,0.5-1.9,1.2l-7.8,10.7c-0.9,1.3-0.6,3.1,0.6,4C462.8,103.6,463.4,103.8,464,103.8z M462.7,100l7.8-10.7
			c0.2-0.3,0.6-0.6,1-0.6h0.3c0.3,0,0.7,0.1,1,0.3c0.3,0.3,0.6,0.6,0.6,1c0,0.4-0.1,0.8-0.3,1.2l-7.8,10.7c-0.5,0.7-1.4,1-2.2,0.5
			c-0.7-0.5-1-1.4-0.5-2.2C462.6,100.1,462.7,100.1,462.7,100L462.7,100z"/>
		<path d="M553.7,137.9c0.6,0,1.2-0.2,1.7-0.5l6.9-5.1c1.3-0.9,1.6-2.7,0.6-4c-0.5-0.6-1.1-1-1.9-1.1c-0.8-0.1-1.5,0-2.1,0.5l-7,5.1
			c-1.3,1-1.6,2.8-0.6,4.1C551.9,137.5,552.8,138,553.7,137.9z M552.8,133.7l7-5.1c0.3-0.2,0.6-0.3,0.9-0.3h0.3
			c0.4,0.1,0.8,0.3,1,0.6c0.5,0.7,0.4,1.7-0.2,2.2c0,0-0.1,0-0.1,0.1l-7,5.1c-0.7,0.5-1.7,0.4-2.3-0.4
			C551.9,135.3,552,134.3,552.8,133.7C552.7,133.8,552.8,133.8,552.8,133.7z"/>
		<path d="M521.5,161.3c0.6,0,1.2-0.2,1.7-0.6l10.7-7.8c1.3-0.9,1.6-2.7,0.6-4c-0.9-1.3-2.7-1.6-4-0.7c0,0,0,0,0,0l-10.7,7.8
			c-0.6,0.5-1,1.1-1.2,1.9c-0.2,1.6,0.9,3.1,2.4,3.3C521.2,161.3,521.4,161.3,521.5,161.3z M520.6,157.1l10.7-7.8
			c0.3-0.2,0.6-0.3,0.9-0.3h0.3c0.9,0.1,1.5,1,1.3,1.8c-0.1,0.4-0.3,0.8-0.6,1l-10.7,7.8c-0.7,0.5-1.7,0.4-2.3-0.3c0,0,0,0,0,0
			c-0.5-0.7-0.4-1.7,0.3-2.2C520.5,157.1,520.5,157,520.6,157.1L520.6,157.1z"/>
		<path d="M607.2,215L607.2,215c-0.5-1.5-2.1-2.3-3.6-1.8l-8.2,2.7c-1.5,0.5-2.3,2.2-1.8,3.7c0.4,1.2,1.5,1.9,2.7,1.9
			c0.3,0,0.6,0,0.9-0.1l8.2-2.7C606.9,218.2,607.7,216.5,607.2,215z M605,217.4l-8.2,2.7c-0.8,0.3-1.7-0.2-2-1c-0.3-0.8,0.2-1.7,1-2
			l8.2-2.7h0.5c0.9,0,1.6,0.7,1.6,1.6C606,216.7,605.6,217.3,605,217.4L605,217.4z"/>
		<path d="M570.2,224.1l-12.6,4.1c-1.5,0.5-2.3,2.2-1.8,3.7c0.4,1.1,1.5,1.9,2.7,1.9c0.3,0,0.6,0,0.9-0.1l12.6-4.1
			c0.7-0.2,1.3-0.7,1.7-1.4c0.4-0.7,0.5-1.5,0.2-2.3C573.3,224.4,571.7,223.6,570.2,224.1z M572.4,227.5c-0.2,0.4-0.5,0.6-0.9,0.8
			l-12.6,4.1c-0.8,0.3-1.7-0.1-2-0.9c0,0,0-0.1,0-0.1c-0.3-0.8,0.2-1.7,1-2l12.6-4.1c0.8-0.3,1.7,0.2,2,1c0.2,0.4,0.1,0.9-0.1,1.3
			L572.4,227.5z"/>
		<path d="M406.6,595.4c-0.4-1.2-1.5-2-2.8-2c-0.3,0-0.6,0-0.9,0.1c-0.7,0.2-1.3,0.7-1.7,1.4c-0.4,0.7-0.5,1.5-0.2,2.3l2.7,8.2
			c0.4,1.2,1.5,2,2.7,2c0.3,0,0.6,0,0.9-0.1c0.7-0.2,1.3-0.7,1.7-1.4c0.4-0.7,0.4-1.5,0.2-2.3L406.6,595.4z"/>
		<path d="M394.3,557.5c-0.4-1.2-1.5-2-2.7-2c-0.3,0-0.6,0.1-0.9,0.2c-0.7,0.2-1.3,0.7-1.7,1.4c-0.4,0.7-0.4,1.5-0.2,2.3l4.1,12.6
			c0.4,1.2,1.5,2,2.7,2c0.3,0,0.6,0,0.9-0.1c1.5-0.5,2.3-2.1,1.9-3.6L394.3,557.5z"/>
		<path d="M311.2,608.1c-1.6,0-2.9,1.3-2.9,2.9v8.6c0,1.6,1.3,2.9,2.9,2.9c1.6,0,2.9-1.3,2.9-2.9v-8.6
			C314.1,609.4,312.8,608.1,311.2,608.1z M312.8,619.4c0,0.9-0.7,1.6-1.6,1.6c-0.9,0-1.6-0.7-1.6-1.6c0,0,0,0,0,0v-8.6
			c0-0.9,0.7-1.6,1.6-1.6s1.6,0.7,1.6,1.6c0,0,0,0,0,0V619.4z"/>
		<path d="M311.2,568.2c-1.6,0-2.9,1.3-2.9,2.9c0,0,0,0,0,0v13.3c0,1.6,1.3,2.9,2.9,2.9c1.6,0,2.9-1.3,2.9-2.9v-13.3
			C314.1,569.5,312.8,568.2,311.2,568.2z M312.8,584.4c0,0.9-0.7,1.6-1.6,1.6c-0.9,0-1.6-0.7-1.6-1.6c0,0,0,0,0,0v-13.3
			c0-0.9,0.7-1.6,1.6-1.6c0.9,0,1.6,0.7,1.6,1.6V584.4z"/>
		<path d="M219.5,593.5c-1.5-0.5-3.1,0.3-3.6,1.8c0,0,0,0,0,0l-2.7,8.2c-0.5,1.5,0.3,3.1,1.8,3.6c0.3,0.1,0.6,0.1,0.9,0.1
			c1.3,0,2.4-0.8,2.8-2l2.7-8.2c0.3-0.8,0.2-1.6-0.2-2.3C220.8,594.2,220.2,593.7,219.5,593.5z M220.1,596.8l-2.7,8.2
			c-0.3,0.8-1.1,1.3-2,1c0,0,0,0,0,0c-0.4-0.1-0.7-0.4-0.9-0.8c-0.2-0.4-0.2-0.8,0-1.2l2.7-8.2c0.2-0.7,0.8-1.1,1.5-1.1
			c0.2,0,0.3,0,0.5,0l0,0c0.4,0.1,0.7,0.4,0.9,0.8C220.3,595.9,220.2,596.3,220.1,596.8z"/>
		<path d="M231.8,555.7c-1.5-0.5-3.1,0.3-3.6,1.8l-4.1,12.6c-0.3,0.8-0.2,1.6,0.2,2.3c0.3,0.7,0.9,1.2,1.7,1.4
			c0.3,0.1,0.6,0.1,0.9,0.1c1.2,0,2.3-0.8,2.7-2l4.1-12.6C234.1,557.9,233.3,556.3,231.8,555.7C231.8,555.8,231.8,555.7,231.8,555.7
			L231.8,555.7z M232.4,558.9l-4.1,12.6c-0.3,0.8-1.1,1.3-2,1c0,0,0,0,0,0c-0.4-0.1-0.7-0.4-0.9-0.8c-0.2-0.4-0.2-0.8,0-1.2
			l4.1-12.6c0.2-0.7,0.8-1.1,1.5-1.1c0.2,0,0.3,0,0.5,0c0.4,0.1,0.7,0.4,0.9,0.8C232.6,558,232.6,558.5,232.4,558.9z"/>
		<path d="M134.6,550.9c-0.8,0.1-1.4,0.5-1.9,1.2l-5.1,7c-0.9,1.3-0.6,3.1,0.6,4c0.5,0.3,1.1,0.5,1.6,0.5c0.9,0,1.7-0.5,2.3-1.2
			l5.2-6.9c0.5-0.6,0.6-1.4,0.5-2.2c-0.1-0.7-0.5-1.4-1.1-1.9C136.1,551,135.4,550.8,134.6,550.9z M136.3,554.7l-5.1,7
			c-0.5,0.7-1.5,0.9-2.2,0.4c-0.4-0.3-0.6-0.6-0.7-1.1c-0.1-0.4,0-0.8,0.3-1.2l5.1-7l0,0c0.3-0.3,0.6-0.6,1-0.6h0.3
			c0.3,0,0.7,0.1,0.9,0.3c0.3,0.2,0.6,0.6,0.6,1C136.7,553.9,136.6,554.3,136.3,554.7L136.3,554.7z"/>
		<path d="M158,518.6c-0.7,0.1-1.4,0.5-1.9,1.2l-7.8,10.7c-0.5,0.6-0.6,1.4-0.5,2.1c0.1,0.8,0.5,1.4,1.2,1.9c1.3,0.9,3.1,0.6,4-0.6
			l7.8-10.7c0.4-0.6,0.6-1.4,0.5-2.1c-0.1-0.8-0.5-1.4-1.2-1.9C159.5,518.7,158.8,518.5,158,518.6z M159.8,522.4l-7.8,10.7
			c-0.5,0.7-1.5,0.9-2.3,0.4c-0.7-0.5-0.9-1.5-0.4-2.2c0,0,0,0,0-0.1l7.8-10.7l0,0c0.3-0.3,0.6-0.6,1-0.6h0.3c0.3,0,0.7,0.1,0.9,0.3
			C160,520.7,160.2,521.7,159.8,522.4C159.7,522.5,159.7,522.5,159.8,522.4L159.8,522.4z"/>
		<path d="M69.2,484.5c-0.8-0.1-1.5,0.1-2.1,0.5l-7,5.1c-0.6,0.5-1,1.1-1.2,1.9c-0.2,1.6,0.8,3.1,2.4,3.3c0.8,0.1,1.5-0.1,2.1-0.5
			l7-5.1c1.3-0.9,1.6-2.7,0.6-4C70.6,485.1,69.9,484.7,69.2,484.5z M69.7,488.7l-7,5.1c-0.7,0.5-1.7,0.4-2.3-0.4
			c-0.3-0.3-0.4-0.8-0.3-1.2c0.1-0.4,0.3-0.8,0.6-1l7-5.1l0,0c0.3-0.2,0.6-0.3,0.9-0.3h0.3c0.9,0.1,1.5,0.9,1.3,1.8
			C70.2,488,70,488.4,69.7,488.7L69.7,488.7z"/>
		<path d="M101.4,461.1c-0.8-0.1-1.5,0.1-2.1,0.5l-10.7,7.8c-0.6,0.4-1,1.1-1.1,1.9c-0.2,0.8,0,1.6,0.5,2.3c0.5,0.7,1.4,1.2,2.3,1.2
			c0.6,0,1.2-0.2,1.7-0.5l10.7-7.8c1.3-0.9,1.6-2.7,0.6-4C102.8,461.8,102.2,461.3,101.4,461.1z M101.9,465.3l-10.8,7.8
			c-0.7,0.5-1.7,0.4-2.2-0.3c-0.3-0.4-0.4-0.8-0.3-1.3c0.1-0.4,0.3-0.8,0.6-1l10.7-7.8l0,0c0.3-0.2,0.6-0.3,0.9-0.3h0.3
			c0.9,0.1,1.5,1,1.3,1.8C102.4,464.6,102.1,465,101.9,465.3L101.9,465.3z"/>
		<path d="M25.3,401.1l-8.2,2.7c-0.7,0.2-1.4,0.7-1.7,1.4c-0.4,0.7-0.4,1.5-0.2,2.3c0.4,1.2,1.5,2,2.8,2c0.3,0,0.6,0,0.9-0.1
			l8.2-2.7c1.6-0.4,2.5-1.9,2.1-3.5c-0.4-1.6-1.9-2.5-3.5-2.1C25.5,401.1,25.4,401.1,25.3,401.1L25.3,401.1z M26.7,405.4l-8.2,2.7
			c-0.8,0.3-1.7-0.2-2-1c-0.2-0.4-0.2-0.8,0-1.2c0.2-0.4,0.5-0.7,0.9-0.8l8.2-2.7c0.8-0.3,1.7,0.1,2.1,0.9
			C28,404.1,27.6,405,26.7,405.4C26.7,405.3,26.6,405.3,26.7,405.4L26.7,405.4z"/>
		<path d="M66.8,390.6L66.8,390.6c-0.5-1.5-2.1-2.4-3.6-1.9c0,0,0,0,0,0l-12.6,4.1c-1.5,0.5-2.3,2.1-1.8,3.6c0.4,1.2,1.5,2,2.7,2
			c0.3,0,0.7,0,1-0.1l12.6-4.1C66.5,393.8,67.3,392.1,66.8,390.6z M51.9,397.2c-0.8,0.2-1.7-0.2-2-1c-0.3-0.8,0.2-1.7,1-2l12.6-4.1
			H64c0.7,0,1.3,0.4,1.5,1.1c0.3,0.8-0.2,1.7-1,2c0,0,0,0,0,0L51.9,397.2z"/>
		<path d="M11.5,308.3H2.9c-1.6,0-2.9,1.3-2.9,2.9s1.3,2.9,2.9,2.9c0,0,0,0,0,0h8.6c1.6,0,2.9-1.3,2.9-2.9
			C14.4,309.6,13.1,308.3,11.5,308.3z M11.5,312.9H2.9c-0.9,0-1.6-0.7-1.6-1.6s0.7-1.6,1.6-1.6c0,0,0,0,0,0h8.6
			c0.9,0,1.6,0.7,1.6,1.6C13.1,312.2,12.4,312.9,11.5,312.9z"/>
		<path d="M54.2,311.2c0-1.6-1.3-2.9-2.8-2.9c0,0,0,0,0,0H38c-1.6-0.1-3,1-3.1,2.6c-0.1,1.6,1,3,2.6,3.1c0.2,0,0.3,0,0.5,0h13.3
			C52.9,314.1,54.2,312.8,54.2,311.2C54.2,311.2,54.2,311.2,54.2,311.2z M36.5,311.2c0-0.9,0.7-1.6,1.6-1.6h13.3
			c0.9,0,1.6,0.7,1.6,1.6c0,0.9-0.7,1.6-1.6,1.6c0,0,0,0,0,0H38C37.2,312.8,36.4,312.1,36.5,311.2C36.4,311.2,36.4,311.2,36.5,311.2
			L36.5,311.2z"/>
		<path d="M17.1,218.7l8.2,2.7c0.3,0.1,0.6,0.1,0.9,0.1c1.6,0.1,2.9-1.2,3-2.8c0-1.3-0.8-2.5-2.1-2.8l-8.2-2.7
			c-1.5-0.4-3.1,0.5-3.5,2C15,216.7,15.7,218.1,17.1,218.7z M16.5,215.4c0.3-0.8,1.2-1.3,2-1l8.2,2.7c0.8,0.3,1.3,1.2,1,2
			c-0.3,0.8-1.2,1.3-2,1l-8.2-2.7C16.7,217.2,16.2,216.3,16.5,215.4z"/>
		<path d="M50.5,229.5l12.6,4.1c0.3,0.1,0.6,0.1,0.9,0.1c1.6,0,2.9-1.4,2.8-2.9c0-1.2-0.8-2.3-1.9-2.7l-12.6-4.1
			c-1.5-0.5-3.1,0.4-3.6,1.8c-0.3,0.7-0.2,1.6,0.2,2.3C49.3,228.8,49.8,229.3,50.5,229.5z M49.9,226.3c0.2-0.6,0.8-1.1,1.5-1.1
			c0.2,0,0.3,0,0.5,0l12.6,4.1c0.4,0.1,0.7,0.4,0.9,0.8c0.4,0.8,0.1,1.7-0.6,2.2c-0.4,0.2-0.9,0.3-1.3,0.1l-12.6-4.1
			c-0.4-0.1-0.7-0.4-0.9-0.8C49.8,227.1,49.8,226.7,49.9,226.3z"/>
		<path d="M67.1,137.4c0.5,0.4,1.1,0.6,1.7,0.6c1.6,0,2.9-1.3,2.9-2.9c0-0.9-0.4-1.8-1.2-2.4l-7-5.1c-0.5-0.4-1.1-0.6-1.7-0.5
			c-0.9,0-1.7,0.5-2.3,1.2c-0.5,0.6-0.6,1.4-0.5,2.1c0.1,0.8,0.5,1.4,1.2,1.9L67.1,137.4z"/>
		<path d="M99.3,160.8c0.5,0.4,1.1,0.6,1.7,0.6c1.6,0,2.9-1.3,2.9-2.9c0-0.9-0.4-1.8-1.2-2.4l-10.7-7.8c-0.5-0.4-1.1-0.6-1.7-0.5
			c-0.9,0-1.7,0.5-2.3,1.2c-0.5,0.6-0.6,1.4-0.5,2.1c0.1,0.8,0.5,1.4,1.1,1.9L99.3,160.8z"/>
		<path d="M132.7,70.4c0.5,0.7,1.4,1.2,2.3,1.2c1.6,0,2.9-1.4,2.8-3c0-0.6-0.2-1.1-0.5-1.6l-5.1-7c-0.5-0.7-1.4-1.2-2.3-1.2
			c-0.6,0-1.2,0.2-1.7,0.5c-0.6,0.5-1,1.1-1.1,1.9c-0.1,0.8,0.1,1.5,0.5,2.1L132.7,70.4z"/>
		<path d="M156.1,102.6c0.5,0.7,1.4,1.2,2.3,1.2c0.6,0,1.2-0.2,1.7-0.5c0.6-0.4,1-1.1,1.2-1.9c0.1-0.8-0.1-1.5-0.5-2.1L153,88.5
			c-0.9-1.3-2.7-1.6-4-0.6c-0.6,0.5-1,1.1-1.2,1.9c-0.1,0.8,0.1,1.5,0.5,2.1L156.1,102.6z"/>
		<path d="M215.9,27c0.4,1.2,1.5,2,2.7,2c0.3,0,0.6,0,0.9-0.1c1.5-0.5,2.3-2.1,1.8-3.6l-2.7-8.2c-0.4-1.2-1.5-2-2.8-2
			c-0.3,0-0.6,0-0.9,0.1c-0.7,0.2-1.3,0.7-1.7,1.4c-0.4,0.7-0.4,1.5-0.2,2.3L215.9,27z"/>
		<path d="M228.2,64.9c0.4,1.2,1.5,2,2.8,2c1.1,0,2.1-0.6,2.6-1.6c0.4-0.7,0.4-1.5,0.2-2.3l-4.1-12.6c-0.4-1.2-1.5-2-2.8-2
			c-0.3,0-0.6,0.1-0.9,0.2c-0.7,0.2-1.3,0.7-1.7,1.4c-0.4,0.7-0.4,1.5-0.2,2.3L228.2,64.9z"/>
		<path d="M467.3,146C374.8,59.8,230,64.8,143.8,157.3s-81.1,237.3,11.3,323.5c64.5,60.1,157.8,77.9,239.9,45.6
			c0.6-0.2,1-0.7,1.1-1.3c0.1-0.6-0.1-1.2-0.5-1.6L350,481.7l-8.7-79.7c0-0.2-0.1-0.5-0.2-0.7L326,373.8c-0.2-0.4-0.7-0.8-1.1-0.9
			l-56-13.7l-10.5-26.2l14.8-2.7l4,17.1c0.2,0.8,0.8,1.3,1.6,1.4L317,351c1,0,1.8-0.8,1.8-1.8c0,0,0,0,0,0l-1.3-26.8l3.4-0.6
			l4.6,30.1c0,0.2,0.1,0.4,0.2,0.6l26.2,45.5l15,64.7c0.1,0.4,0.4,0.8,0.7,1l37.8,27.3c0.3,0.2,0.7,0.3,1,0.3c0.6,0,1.1-0.3,1.4-0.7
			c0.3-0.4,0.4-0.9,0.3-1.3c-0.1-0.5-0.3-0.9-0.7-1.1l-37.3-27l-14.9-63.9c0-0.2-0.1-0.3-0.2-0.5l-26.2-45.7l-4.6-29.9l2.9-0.5
			L334,342c0.2,0.5,0.6,0.9,1.1,1.1c0.2,0,0.4,0,0.6,0c0.3,0,0.6-0.1,0.9-0.3l19.5-11.7c0.5-0.3,0.9-0.9,0.9-1.5l-0.3-29l3.9-4.3
			l6.5,40.6l-26.2,17.8c-0.7,0.5-1,1.5-0.5,2.3l18,32.8c0.3,0.6,0.9,0.9,1.5,0.9c0.3,0,0.5-0.1,0.8-0.2l35.9-17.8
			c0.5-0.2,0.9-0.7,1-1.3l2.9-15.6l10.7-0.8l-8.5,24l-36.8,25.7c-0.7,0.5-0.9,1.5-0.5,2.3l25.8,43.1c0.2,0.4,0.6,0.7,1.1,0.8l35,8.1
			l0.8-3.5l-34.1-7.9l-24.6-41.1l35.9-25c0.3-0.2,0.5-0.5,0.7-0.8l9.3-26l10.4-0.8c0.5,0,0.9-0.3,1.3-0.7l18-22.9
			c0.3-0.5,0.5-1,0.3-1.6l-6.2-22.1c0-0.2-0.1-0.3-0.2-0.5l-13.4-21.5c0.8-1.3,1-2.8,0.5-4.3c-0.7-2.2-2.7-3.7-5.1-3.7
			c-0.5,0-1.1,0.1-1.6,0.3c-2.1,0.7-3.5,2.6-3.6,4.8L389.3,293c-0.4,0.2-0.8,0.5-1,1l-10,24.5c-0.3,0-0.5,0-0.8,0.1
			c-2.8,0.9-4.4,3.9-3.5,6.7c0,0,0,0,0,0c0.7,2.2,2.8,3.7,5.1,3.6l0,0l17.8,25.8l-2.8,15.3l-33.6,16.7l-16.4-29.9l25.8-17.6
			c0.6-0.4,0.9-1.1,0.8-1.8l-7.1-44.5l21.9-24.2c0.6,0.3,1.3,0.4,2,0.4c0.5,0,1.1-0.1,1.6-0.3c1.3-0.4,2.5-1.4,3.1-2.6
			c1.3-2.6,0.3-5.8-2.3-7.2c-1.2-0.6-2.7-0.8-4-0.4l-29.6-40.1c0.6-1.2,0.7-2.6,0.3-3.8c-0.6-1.8-2.1-3.2-4-3.6l-15.9-93.5
			c0.9-0.6,1.7-1.5,2.1-2.5c1-2.7-0.4-5.8-3.1-6.8c-2.7-1-5.8,0.4-6.8,3.1c-0.2,0.5-0.3,1.1-0.3,1.7l-85,25.3
			c-0.6-0.8-1.3-1.5-2.3-1.9c-0.6-0.2-1.2-0.3-1.9-0.3c-2.2,0-4.2,1.4-5,3.4c-0.8,2.1-0.1,4.4,1.6,5.9l-15.9,41.6l0,0
			c-2.9-0.1-5.2,2.2-5.3,5.1c0,0.7,0.1,1.3,0.3,1.9l-25.3,20.3c-0.8-0.5-1.7-0.7-2.6-0.7c-0.2,0-0.5,0-0.8,0c-2.9,0.4-5,3.1-4.6,6
			c0,0,0,0,0,0c0.2,1.6,1.1,2.9,2.5,3.7l-6.1,47c-2.9,0.5-4.9,3.2-4.4,6.1c0.4,2.6,2.6,4.5,5.3,4.5l0,0l35.6,53.5
			c-0.4,0.8-0.5,1.6-0.5,2.4c0.2,2.8,2.5,4.9,5.3,4.9h0.4c1.6-0.1,3-1,3.9-2.3l31.1-5.8l11.1,27.7c0.2,0.5,0.7,0.9,1.2,1l56.1,13.7
			l14.6,26.5l8.6,79.9c0.1,0.4,0.3,0.8,0.6,1.1l43.9,40.3c-116.3,43.8-246.2-14.9-290-131.3s14.9-246.2,131.3-290
			s246.2,14.9,290,131.3c7.4,19.6,12,40.2,13.7,61.1l-47.5,75.3c-0.5,0.8-0.2,1.9,0.6,2.4c0.8,0.5,1.8,0.2,2.4-0.5l47.8-75.8
			c0.2-0.3,0.3-0.7,0.3-1.1C535.1,238.3,509.3,184.9,467.3,146z M426.3,348.3l-2.4-11.4c1.2-0.7,2.1-2,2.4-3.4l12.9-1.8L426.3,348.3
			z M441.1,328l-15.4,2.1c-0.8-1.5-2.3-2.6-4-2.8l-4.6-21.4l18.6,3L441.1,328z M418.3,328.2c-0.7,0.4-1.3,1-1.8,1.7l-32-6.3
			c0-0.3,0-0.7,0-1l29.2-16.1L418.3,328.2z M421.2,287.5c0.4,0,0.8-0.1,1.1-0.2h0.2l11,17.7l-16.5-2.7L421.2,287.5z M381.9,319.2
			l9.4-23.2l25-10.6c0.3,0.5,0.8,0.9,1.3,1.3l-4.4,15.9l-30.8,17L381.9,319.2z M382.6,327.7c0.3-0.2,0.5-0.4,0.7-0.7l32.5,6.4
			c0,0.3,0.1,0.6,0.1,0.8c0.6,2,2.4,3.4,4.4,3.6l2.8,13l-23.4,1.7L382.6,327.7z M280.4,345.5l-3.7-15.6l37.1-6.8l1.2,24.4
			L280.4,345.5z M336.7,338.7l-6-18.8l5-0.9c1,1.5,2.6,2.5,4.4,2.5c0.5,0,1.1-0.1,1.6-0.3c1.4-0.4,2.5-1.4,3.1-2.6
			c0.7-1.2,0.8-2.7,0.3-4.1c-0.1-0.3-0.2-0.5-0.3-0.7l8.4-9.3l0.2,24.2L336.7,338.7z M342.3,311.4c-0.7-0.3-1.4-0.4-2.1-0.4h-0.4
			l-9.4-22.4c1.1-1,1.7-2.4,1.7-3.8l49.6-16.9L342.3,311.4z M351.8,221.8c0.5,0,1-0.1,1.4-0.2c0.2-0.1,0.4-0.2,0.6-0.3l29.4,39.7
			c-0.6,0.8-0.9,1.8-0.9,2.8l-51.4,17.6c-0.2-0.3-0.5-0.6-0.8-0.8l20.9-58.9L351.8,221.8z M287.5,265.1l59.7-43.3l-20.4,57.5l0,0
			c-0.5,0-1.1,0.1-1.6,0.3c-0.9,0.3-1.7,0.8-2.3,1.5l-35.2-14.4c0-0.2,0-0.4,0-0.7C287.7,265.7,287.7,265.4,287.5,265.1L287.5,265.1
			z M303.2,211c-0.3,0.3-0.6,0.6-0.9,1l-76.6-19.8l57.6-23.1c0.9,1.1,2.3,1.8,3.7,1.8h0.4L303.2,211z M291.2,171.1l55,43.5
			l-34.6-1.3c-0.4-1.6-1.6-2.8-3.1-3.4c-0.5-0.2-1.1-0.3-1.7-0.3h-0.4L291.2,171.1z M301.4,215.4c0.1,1.2,0.7,2.4,1.5,3.3l-20,42.7
			c-0.3,0-0.5,0-0.8,0l0,0c-0.5,0-1,0.2-1.5,0.3l-55.6-66L301.4,215.4z M306.2,220.1h0.5c2.1,0,4.1-1.3,4.9-3.3l34.8,1.3l-59.4,42.9
			L306.2,220.1z M332,118.4c0.4,0.1,0.8,0.2,1.3,0.3l15.9,93.2l-0.3,0.2l-56.6-44.7c0.5-1.4,0.3-2.9-0.4-4.2L332,118.4z
			 M244.6,141.8l84-25l-39.4,43.8h-0.2c-0.6-0.2-1.2-0.3-1.8-0.3c-1.4,0-2.7,0.6-3.7,1.5l-39-19.5L244.6,141.8z M239.2,146.8h0.1
			c1.3,0,2.6-0.5,3.6-1.4l39,19.4c0,0.3,0,0.5,0,0.8l-58,23.3c-0.2-0.2-0.3-0.3-0.5-0.5L239.2,146.8z M217.3,196.9
			c0.3,0.2,0.6,0.4,0.9,0.5c1.2,0.4,2.5,0.4,3.8,0l53.7,63.7L192.5,220c0.1-0.5,0.1-1.1,0-1.6c-0.1-0.4-0.2-0.8-0.4-1.2L217.3,196.9
			z M277.2,265.8c0,0.1,0,0.3,0,0.4l-37.6,11.6c-0.6-2.3-2.7-3.9-5.1-4h-0.4c-0.8,0.1-1.6,0.3-2.3,0.8l-39-50.5L277.2,265.8z
			 M188,224.4L188,224.4c0.2,0,0.3-0.1,0.5-0.1l41,53.2c-0.2,0.5-0.3,1.1-0.3,1.6l-44.7-2.7c0-0.3,0-0.7,0-1
			c-0.1-1.7-1.1-3.3-2.7-4.1L188,224.4z M219.7,331.4h-0.4l0,0c-0.7,0-1.4,0.2-2,0.6l-34.6-52.1l48,2.9c0.4,0.5,0.9,0.9,1.5,1.2
			L219.7,331.4z M223.2,331.8l12.5-47.4c1.5-0.3,2.8-1.3,3.5-2.6l37.9-11.7L223.2,331.8z M280.5,271.5c0.6,0.3,1.3,0.4,2,0.4h0.3
			c1.4-0.1,2.6-0.7,3.5-1.8l35.2,14.4c0,0.3,0,0.6,0,0.9L226.8,333L280.5,271.5z M231.4,334.6l91.8-46.1c1,0.9,2.3,1.4,3.6,1.4h0.3
			l9.4,22.4c-0.9,0.8-1.5,2-1.6,3.2L231.4,334.6z"/>
		<path d="M182.4,279.2l48.6,2.9c0.5,0.6,1.2,1.1,1.9,1.4L220.1,332c-0.3,0-0.6,0-0.9,0c-0.8,0.1-1.6,0.3-2.3,0.8l-35.3-53
			c0.2-0.1,0.4-0.3,0.6-0.5 M187.3,223.8c0.2,0,0.4,0,0.6,0c0.3-0.1,0.5-0.2,0.8-0.3l41.5,53.9c-0.3,0.7-0.5,1.5-0.4,2.3
			c0,0.1,0,0.2,0,0.3l-46.2-2.8c0.2-0.5,0.2-1,0.2-1.5c-0.2-1.7-1.2-3.1-2.7-3.8L187.3,223.8z M329.8,116l0.2,0.3l-40.7,45.1
			c-0.2-0.1-0.3-0.2-0.5-0.3c-1.8-0.7-3.9-0.2-5.2,1.4l-39.9-19.9c0.1-0.4,0.2-0.8,0.2-1.2L329.8,116z M354,329.2l-17.8,10.6
			l-6.4-20.3l6.2-1.1c1,2,3.3,3,5.5,2.3c2.4-0.7,3.8-3.2,3.1-5.6c0-0.1,0-0.2-0.1-0.2c-0.1-0.3-0.3-0.7-0.5-1l9.8-10.8L354,329.2z
			 M315.7,348.2l-35.7-2.1l-3.9-16.8l38.5-7.1L315.7,348.2z M323.3,287.7c1.1,1.2,2.7,1.8,4.2,1.5l9.8,23.3
			c-1.1,0.9-1.8,2.2-1.8,3.6l-108.4,19.9L323.3,287.7z M235.1,283.8c1.5-0.2,2.9-1.2,3.5-2.6l39.8-12.3l0.2,0.2l-55.9,64.1
			c-0.2-0.1-0.3-0.3-0.5-0.4L235.1,283.8z M277.9,265.6c-0.1,0.4-0.2,0.8-0.2,1.2l-38.7,11.9c-0.3-2.5-2.5-4.3-5-4.1
			c-0.9,0.1-1.7,0.4-2.4,1l-41-53.3L277.9,265.6z M383,264.4l-52.4,17.9c-0.3-0.5-0.8-1-1.3-1.3l21.3-59.9c0.8,0.2,1.6,0.2,2.4,0
			c0.4-0.1,0.7-0.3,1-0.5l30,40.6C383.3,262,382.9,263.2,383,264.4 M224.1,194.7l77.9,20.1c0,1.4,0.6,2.7,1.7,3.6L283.3,262
			c-0.4-0.1-0.8-0.2-1.2-0.2c-0.6,0.1-1.2,0.2-1.7,0.5l-56.5-67.2C223.9,195,224,194.8,224.1,194.7 M305.8,219.4
			c2.2,0.5,4.4-0.7,5.2-2.8c0,0,0-0.2,0-0.3l36,1.3c0,0.2,0,0.3,0,0.5c0,0,0,0.2,0.2,0.3l-61.7,44.7l0,0L305.8,219.4z M325.6,280.3
			c-0.9,0.3-1.7,0.9-2.3,1.7l-36.2-14.8c0.1-0.3,0.1-0.7,0.1-1c-0.1-0.5-0.2-0.9-0.4-1.3l61.7-44.6L327.3,280
			c-0.6-0.1-1.3,0-1.9,0.2 M290,169.1l57.4,45.5c0,0.2-0.1,0.4-0.2,0.6l-36-1.3c-0.3-1.6-1.4-2.8-2.8-3.4c-0.7-0.3-1.5-0.3-2.3-0.2
			l-16.2-41l0,0 M285.3,170.1c0.7,0.3,1.5,0.3,2.3,0.2l16.2,41c-0.6,0.4-1,0.9-1.3,1.5l-77.7-20.3c0-0.2,0-0.4,0-0.7l58.8-23.6
			c0.5,0.7,1.2,1.3,2,1.7 M224.2,335l56.2-64.4c0.7,0.4,1.6,0.6,2.4,0.6c1.3-0.1,2.6-0.8,3.4-1.9l36.1,14.8c-0.1,0.5-0.1,1.1,0,1.7
			L224.2,335z M342.4,312.3c-0.9-0.5-2-0.7-3.1-0.5l-9.7-23.3c1.3-1,1.9-2.5,1.8-4.1l52.4-17.8l0,0L342.4,312.3z M331.9,117.7
			c0,0,0.2,0.1,0.3,0.2c0.5,0.2,1.1,0.3,1.6,0.3l16.1,94.2c-0.4,0.2-0.8,0.4-1.1,0.6l-57.4-45.5c0,0,0.1-0.2,0.2-0.3
			c0.5-1.4,0.3-3-0.5-4.2L331.9,117.7z M242.8,144.7l39.9,19.9c-0.1,0.5-0.1,1.1,0,1.6l-58.9,23.6c-0.3-0.4-0.7-0.8-1.1-1l16.1-42.5
			C240.3,146.4,241.8,145.8,242.8,144.7 M191.3,217l25.9-20.9c0.3,0.3,0.7,0.5,1.1,0.7c1.2,0.5,2.6,0.4,3.7-0.2l56,66.5l-86.3-42.8
			c0.2-0.6,0.2-1.3,0.1-1.9C191.8,217.9,191.6,217.4,191.3,217 M390.8,295.5l25.9-10.9c0.4,0.8,1,1.4,1.8,1.8L414,303l-31.5,17.4
			c-0.4-0.4-0.8-0.7-1.3-0.9L390.8,295.5z M441.8,328.6l-16.5,2.3c-0.7-1.7-2.3-2.8-4.1-2.9l-4.9-22.8l19.9,3.3L441.8,328.6z
			 M383,326.3l33.4,6.6c0,0.4,0,0.8,0,1.2c0.6,1.9,2.3,3.2,4.3,3.2l3.1,14.2l-24.5,1.8l-17.7-25.7c0.5-0.3,1-0.8,1.3-1.3 M440.5,331
			l-14.8,18.8l-2.8-13.1c1.4-0.7,2.4-2,2.6-3.6L440.5,331z M420.7,286.8c0.5,0,1,0,1.4-0.2c0.2-0.1,0.4-0.2,0.6-0.3l12.1,19.5
			l-18.6-3.1L420.7,286.8z M414,305.4l5,23c-1,0.4-1.8,1.2-2.3,2.1l-33-6.5c0.1-0.6,0-1.2-0.2-1.8l0,0L414,305.4z M466.9,146.4
			c-92.3-85.9-236.7-80.7-322.6,11.5s-80.7,236.7,11.5,322.6c64.3,59.9,157.2,77.5,239,45.4c0.6-0.2,0.9-0.9,0.7-1.4
			c-0.1-0.2-0.2-0.3-0.3-0.5l-45.7-42l-8.7-79.8c0-0.2,0-0.3-0.1-0.4l-15.1-27.5c-0.2-0.3-0.4-0.5-0.7-0.5L268.6,360l-10.9-27.3
			l16.2-3l4.2,17.7c0.1,0.5,0.5,0.8,1,0.9l37.9,2.1l0,0c0.3,0,0.6-0.1,0.8-0.3c0.2-0.2,0.3-0.5,0.3-0.9l-1.3-27.3l4.6-0.8l4.6,30.8
			c0,0.1,0.1,0.3,0.1,0.4l26.2,45.8l15,64.7c0.1,0.3,0.2,0.5,0.4,0.7l37.8,27.3c0.2,0.1,0.4,0.2,0.7,0.2c0.4,0,0.7-0.2,0.9-0.5
			c0.4-0.5,0.2-1.2-0.3-1.6l-37.4-27.1l-14.9-64.4c0-0.1-0.1-0.2-0.1-0.3l-26.2-45.8l-4.6-30.7l4.1-0.8l6.8,21.9
			c0.1,0.3,0.3,0.6,0.7,0.7c0.1,0,0.3,0,0.4,0c0.2,0,0.4,0,0.6-0.2l19.6-11.7c0.3-0.2,0.5-0.6,0.5-1l-0.3-29.2l5-5.5l6.8,42.3
			l-26.5,18.1c-0.5,0.3-0.6,1-0.3,1.5l18,32.8c0.2,0.4,0.6,0.6,1,0.6c0.2,0,0.3,0,0.5-0.1l35.9-17.8c0.3-0.2,0.5-0.5,0.6-0.8l3-16.1
			l12.2-0.9l-8.9,25l-37,25.8c-0.5,0.3-0.6,1-0.3,1.5l25.8,43.3c0.2,0.3,0.4,0.4,0.7,0.5l34.3,7.9l0.5-2.3l-33.9-7.8l-25-41.8
			l36.4-25.4c0.2-0.1,0.3-0.3,0.4-0.5l9.4-26.4l10.8-0.8c0.3,0,0.6-0.2,0.8-0.4l18-22.9c0.2-0.3,0.3-0.7,0.2-1l-6.2-22.1
			c0-0.1-0.1-0.2-0.1-0.3l-13.7-21.9c0.9-1.2,1.1-2.7,0.7-4.1c-0.7-2.4-3.2-3.8-5.6-3.1c-0.1,0-0.1,0-0.2,0.1
			c-2,0.6-3.3,2.5-3.2,4.6l-26.5,11.3c-0.3,0.1-0.5,0.3-0.6,0.6l-10.1,24.9c-0.4,0-0.7,0-1,0.1c-2.4,0.7-3.8,3.2-3.1,5.6
			c0,0.1,0,0.1,0.1,0.2c0.6,2.1,2.7,3.4,4.8,3.2l18.2,26.3l-2.9,15.9l-34.4,17.1l-17-31l26.3-17.9c0.4-0.2,0.6-0.7,0.5-1.1L363,293
			l22.4-24.8c1.1,0.6,2.4,0.7,3.6,0.3c2.5-0.8,3.8-3.4,3-5.9c-0.8-2.5-3.4-3.8-5.9-3c-0.1,0-0.2,0.1-0.3,0.2l-30.2-41
			c0.7-1.1,0.8-2.5,0.4-3.7c-0.6-1.8-2.1-3-4-3.2L336,117.5c1-0.5,1.8-1.4,2.3-2.4c0.9-2.4-0.3-5.1-2.7-6c-2.4-0.9-5.1,0.3-6,2.7
			c-0.2,0.6-0.3,1.3-0.3,1.9l-86,25.6c-0.5-0.9-1.3-1.6-2.3-2c-2.4-0.9-5.1,0.3-6,2.7c-0.8,2,0,4.2,1.7,5.4l-16.1,42.5
			c-2.1-0.3-4.1,0.9-4.9,2.9c-0.4,1.2-0.4,2.5,0.1,3.6l-26,20.9c-0.9-0.6-2.1-0.9-3.2-0.8c-2.5,0.4-4.3,2.8-3.9,5.3
			c0.2,1.5,1.2,2.8,2.5,3.4l-6.4,48l0,0c-2.6,0.4-4.4,2.7-4,5.3c0.3,2.3,2.3,4.1,4.7,4l0,0l35.9,54c-0.4,0.7-0.6,1.6-0.6,2.4
			c0.2,2.6,2.4,4.5,5,4.3c1.5-0.1,2.8-1,3.5-2.3l31.9-5.9l11.4,28.2c0.1,0.3,0.4,0.6,0.8,0.7l56.4,13.7l14.8,26.9l8.6,80.2
			c0,0.3,0.2,0.5,0.3,0.7l44.7,41C275.8,568.8,145.4,510.5,100.9,394s13.9-246.9,130.3-291.4s246.9,13.9,291.4,130.3
			c7.6,20,12.4,41,14.1,62.4l-47.6,75.5c-0.3,0.5-0.2,1.2,0.4,1.5c0.5,0.3,1.2,0.2,1.5-0.3c0,0,0,0,0,0l47.8-75.8
			c0.1-0.2,0.2-0.4,0.2-0.7C534.5,238.5,508.8,185.3,466.9,146.4"/>
	</g>
</g>
</svg>
