<?xml version="1.0" encoding="utf-8"?>
<!-- Generator: Adobe Illustrator 24.2.2, SVG Export Plug-In . SVG Version: 6.00 Build 0)  -->
<svg version="1.1" id="Calque_1" xmlns="http://www.w3.org/2000/svg" xmlns:xlink="http://www.w3.org/1999/xlink" x="0px" y="0px"
	 viewBox="0 0 1000 1000" enable-background="new 0 0 1000 1000" xml:space="preserve">
<g>
	<g>
		<path fill="#F7D5BA" d="M538.8,484.4l-47.9,75.9l-76.4,122.6l-1.2,1.9l-17.6,28.2l-0.6,0.9c-0.4,0.2-0.8,0.3-1.3,0.5
			c-25.3,9.7-52.9,15.3-81.5,15.3C186.8,729.6,85,627.9,85,502.3c0-125.5,101.8-227.2,227.3-227.2
			C431.7,275.1,529.6,367.3,538.8,484.4"/>
		<path fill="#E05B32" d="M349.2,264.3c0.1,0,0.2,0,0.4,0c1.1,0,2-0.8,2.2-1.9l2.7-17c0.2-1.2-0.6-2.4-1.9-2.6
			c-1.2-0.2-2.4,0.6-2.6,1.9l-2.7,17C347.1,263,347.9,264.1,349.2,264.3"/>
		<path fill="#E05B32" d="M420.2,287.4c0.3,0.2,0.7,0.2,1,0.2c0.8,0,1.6-0.4,2-1.2l7.8-15.4c0.6-1.1,0.1-2.5-1-3
			c-1.1-0.6-2.5-0.1-3,1l-7.8,15.4C418.6,285.5,419.1,286.8,420.2,287.4"/>
		<path fill="#E05B32" d="M482.1,331.9c0.6,0,1.1-0.2,1.6-0.7l12.2-12.2c0.9-0.9,0.9-2.3,0-3.2c-0.9-0.9-2.3-0.9-3.2,0l-12.2,12.2
			c-0.9,0.9-0.9,2.3,0,3.2C481,331.7,481.6,331.9,482.1,331.9"/>
		<path fill="#E05B32" d="M540.8,380.8l-15.4,7.8c-1.1,0.6-1.5,1.9-1,3c0.4,0.8,1.2,1.2,2,1.2c0.3,0,0.7-0.1,1-0.2l15.4-7.8
			c1.1-0.6,1.5-1.9,1-3C543.2,380.7,541.9,380.3,540.8,380.8"/>
		<path fill="#E05B32" d="M566.4,457.4l-17,2.7c-1.2,0.2-2.1,1.3-1.9,2.6c0.2,1.1,1.1,1.9,2.2,1.9c0.1,0,0.2,0,0.4,0l17-2.7
			c1.2-0.2,2.1-1.3,1.9-2.6C568.8,458.1,567.6,457.2,566.4,457.4"/>
		<path fill="#E05B32" d="M349.2,735.7c-1.2,0.2-2.1,1.3-1.9,2.6l2.7,17c0.2,1.1,1.1,1.9,2.2,1.9c0.1,0,0.2,0,0.4,0
			c1.2-0.2,2.1-1.3,1.9-2.6l-2.7-17C351.5,736.3,350.4,735.5,349.2,735.7"/>
		<path fill="#E05B32" d="M274.5,735.7c-1.2-0.2-2.4,0.6-2.6,1.9l-2.7,17c-0.2,1.2,0.6,2.4,1.9,2.6c0.1,0,0.2,0,0.4,0
			c1.1,0,2-0.8,2.2-1.9l2.7-17C276.6,737,275.7,735.9,274.5,735.7"/>
		<path fill="#E05B32" d="M203.5,712.6c-1.1-0.6-2.5-0.1-3,1l-7.8,15.4c-0.6,1.1-0.1,2.5,1,3c0.3,0.2,0.7,0.2,1,0.2
			c0.8,0,1.6-0.4,2-1.2l7.8-15.4C205.1,714.5,204.6,713.2,203.5,712.6"/>
		<path fill="#E05B32" d="M139.9,668.7l-12.2,12.2c-0.9,0.9-0.9,2.3,0,3.2c0.4,0.4,1,0.7,1.6,0.7c0.6,0,1.1-0.2,1.6-0.7l12.2-12.2
			c0.9-0.9,0.9-2.3,0-3.2C142.2,667.8,140.8,667.8,139.9,668.7"/>
		<path fill="#E05B32" d="M99.2,608.3c-0.6-1.1-1.9-1.5-3-1l-15.4,7.8c-1.1,0.6-1.5,1.9-1,3c0.4,0.8,1.2,1.2,2,1.2
			c0.3,0,0.7-0.1,1-0.2l15.4-7.8C99.4,610.8,99.8,609.4,99.2,608.3"/>
		<path fill="#E05B32" d="M73.6,535.5l-17,2.7c-1.2,0.2-2.1,1.3-1.9,2.6c0.2,1.1,1.1,1.9,2.2,1.9c0.1,0,0.2,0,0.4,0l17-2.7
			c1.2-0.2,2.1-1.3,1.9-2.6C76,536.1,74.8,535.3,73.6,535.5"/>
		<path fill="#E05B32" d="M74.3,460.1l-17-2.7c-1.2-0.2-2.4,0.6-2.6,1.9c-0.2,1.2,0.6,2.4,1.9,2.6l17,2.7c0.1,0,0.2,0,0.4,0
			c1.1,0,2-0.8,2.2-1.9C76.4,461.4,75.5,460.3,74.3,460.1"/>
		<path fill="#E05B32" d="M80.9,384.8l15.4,7.8c0.3,0.2,0.7,0.2,1,0.2c0.8,0,1.6-0.4,2-1.2c0.6-1.1,0.1-2.5-1-3l-15.4-7.8
			c-1.1-0.6-2.5-0.1-3,1C79.3,382.9,79.8,384.3,80.9,384.8"/>
		<path fill="#E05B32" d="M139.9,331.3c0.4,0.4,1,0.7,1.6,0.7c0.6,0,1.1-0.2,1.6-0.7c0.9-0.9,0.9-2.3,0-3.2l-12.2-12.2
			c-0.9-0.9-2.3-0.9-3.2,0c-0.9,0.9-0.9,2.3,0,3.2L139.9,331.3z"/>
		<path fill="#E05B32" d="M200.5,286.4c0.4,0.8,1.2,1.2,2,1.2c0.3,0,0.7-0.1,1-0.2c1.1-0.6,1.5-1.9,1-3l-7.8-15.4
			c-0.6-1.1-1.9-1.5-3-1c-1.1,0.6-1.5,1.9-1,3L200.5,286.4z"/>
		<path fill="#E05B32" d="M274.2,264.4c0.1,0,0.2,0,0.4,0c1.2-0.2,2.1-1.3,1.9-2.6l-2.7-17c-0.2-1.2-1.4-2-2.6-1.9
			c-1.2,0.2-2.1,1.3-1.9,2.6l2.7,17C272.1,263.6,273.1,264.4,274.2,264.4"/>
		<path fill="#E05B32" d="M311.8,202.1c1.2,0,2.2-1,2.2-2.2v-8.6c0-1.2-1-2.2-2.2-2.2c-1.2,0-2.2,1-2.2,2.2v8.6
			C309.6,201.1,310.6,202.1,311.8,202.1"/>
		<path fill="#E05B32" d="M311.8,242c1.2,0,2.2-1,2.2-2.2v-13.3c0-1.2-1-2.2-2.2-2.2c-1.2,0-2.2,1-2.2,2.2v13.3
			C309.6,241,310.6,242,311.8,242"/>
		<path fill="#E05B32" d="M403.9,216.7c0.2,0.1,0.5,0.1,0.7,0.1c0.9,0,1.8-0.6,2.1-1.5l2.7-8.2c0.4-1.2-0.3-2.4-1.4-2.8
			c-1.2-0.4-2.4,0.3-2.8,1.4l-2.7,8.2C402.1,215,402.7,216.3,403.9,216.7"/>
		<path fill="#E05B32" d="M391.6,254.6c0.2,0.1,0.5,0.1,0.7,0.1c0.9,0,1.8-0.6,2.1-1.5l4.1-12.6c0.4-1.2-0.3-2.4-1.4-2.8
			c-1.2-0.4-2.4,0.3-2.8,1.4l-4.1,12.6C389.8,253,390.4,254.2,391.6,254.6"/>
		<path fill="#E05B32" d="M488.3,259.4c0.7,0,1.4-0.3,1.8-0.9l5.1-7c0.7-1,0.5-2.4-0.5-3.1c-1-0.7-2.4-0.5-3.1,0.5l-5.1,7
			c-0.7,1-0.5,2.4,0.5,3.1C487.3,259.3,487.8,259.4,488.3,259.4"/>
		<path fill="#E05B32" d="M464.8,291.7c0.7,0,1.4-0.3,1.8-0.9l7.8-10.8c0.7-1,0.5-2.4-0.5-3.1c-1-0.7-2.4-0.5-3.1,0.5l-7.8,10.8
			c-0.7,1-0.5,2.4,0.5,3.1C463.9,291.5,464.4,291.7,464.8,291.7"/>
		<path fill="#E05B32" d="M554.7,325.8c0.5,0,0.9-0.1,1.3-0.4l7-5.1c1-0.7,1.2-2.1,0.5-3.1c-0.7-1-2.1-1.2-3.1-0.5l-7,5.1
			c-1,0.7-1.2,2.1-0.5,3.1C553.3,325.5,554,325.8,554.7,325.8"/>
		<path fill="#E05B32" d="M522.4,349.3c0.5,0,0.9-0.1,1.3-0.4l10.7-7.8c1-0.7,1.2-2.1,0.5-3.1c-0.7-1-2.1-1.2-3.1-0.5l-10.7,7.8
			c-1,0.7-1.2,2.1-0.5,3.1C521,348.9,521.7,349.3,522.4,349.3"/>
		<path fill="#E05B32" d="M607.6,403.9c-0.4-1.2-1.6-1.8-2.8-1.4l-8.2,2.7c-1.2,0.4-1.8,1.6-1.4,2.8c0.3,0.9,1.2,1.6,2.1,1.6
			c0.2,0,0.5,0,0.7-0.1l8.2-2.7C607.4,406.3,608,405.1,607.6,403.9"/>
		<path fill="#E05B32" d="M571.3,413.3l-12.6,4.1c-1.2,0.4-1.8,1.6-1.4,2.8c0.3,0.9,1.2,1.6,2.1,1.6c0.2,0,0.5,0,0.7-0.1l12.6-4.1
			c1.2-0.4,1.8-1.6,1.4-2.8C573.8,413.6,572.5,413,571.3,413.3"/>
		<path fill="#E05B32" d="M406.7,784.8c-0.4-1.2-1.7-1.8-2.8-1.4c-1.2,0.4-1.8,1.6-1.4,2.8l2.7,8.2c0.3,0.9,1.2,1.5,2.1,1.5
			c0.2,0,0.5,0,0.7-0.1c1.2-0.4,1.8-1.6,1.4-2.8L406.7,784.8z"/>
		<path fill="#E05B32" d="M394.4,746.8c-0.4-1.2-1.6-1.8-2.8-1.4c-1.2,0.4-1.8,1.6-1.4,2.8l4.1,12.6c0.3,0.9,1.2,1.5,2.1,1.5
			c0.2,0,0.5,0,0.7-0.1c1.2-0.4,1.8-1.6,1.4-2.8L394.4,746.8z"/>
		<path fill="#E05B32" d="M311.8,797.9c-1.2,0-2.2,1-2.2,2.2v8.6c0,1.2,1,2.2,2.2,2.2c1.2,0,2.2-1,2.2-2.2v-8.6
			C314.1,798.9,313.1,797.9,311.8,797.9"/>
		<path fill="#E05B32" d="M311.8,758c-1.2,0-2.2,1-2.2,2.2v13.3c0,1.2,1,2.2,2.2,2.2c1.2,0,2.2-1,2.2-2.2v-13.3
			C314.1,759,313.1,758,311.8,758"/>
		<path fill="#E05B32" d="M219.8,783.3c-1.2-0.4-2.4,0.3-2.8,1.4l-2.7,8.2c-0.4,1.2,0.3,2.4,1.4,2.8c0.2,0.1,0.5,0.1,0.7,0.1
			c0.9,0,1.8-0.6,2.1-1.6l2.7-8.2C221.6,785,221,783.7,219.8,783.3"/>
		<path fill="#E05B32" d="M232.1,745.4c-1.2-0.4-2.4,0.3-2.8,1.4l-4.1,12.6c-0.4,1.2,0.3,2.4,1.4,2.8c0.2,0.1,0.5,0.1,0.7,0.1
			c0.9,0,1.8-0.6,2.1-1.6l4.1-12.6C233.9,747,233.3,745.8,232.1,745.4"/>
		<path fill="#E05B32" d="M133.6,741.5l-5.1,7c-0.7,1-0.5,2.4,0.5,3.1c0.4,0.3,0.9,0.4,1.3,0.4c0.7,0,1.4-0.3,1.8-0.9l5.1-7
			c0.7-1,0.5-2.4-0.5-3.1C135.7,740.3,134.3,740.5,133.6,741.5"/>
		<path fill="#E05B32" d="M157,709.2l-7.8,10.7c-0.7,1-0.5,2.4,0.5,3.1c0.4,0.3,0.9,0.4,1.3,0.4c0.7,0,1.4-0.3,1.8-0.9l7.8-10.8
			c0.7-1,0.5-2.4-0.5-3.1C159.2,708,157.8,708.2,157,709.2"/>
		<path fill="#E05B32" d="M67.7,674.6l-7,5.1c-1,0.7-1.2,2.1-0.5,3.1c0.4,0.6,1.1,0.9,1.8,0.9c0.5,0,0.9-0.1,1.3-0.4l7-5.1
			c1-0.7,1.2-2.1,0.5-3.1C70.1,674.1,68.7,673.9,67.7,674.6"/>
		<path fill="#E05B32" d="M100,651.2L89.2,659c-1,0.7-1.2,2.1-0.5,3.1c0.4,0.6,1.1,0.9,1.8,0.9c0.5,0,0.9-0.1,1.3-0.4l10.7-7.8
			c1-0.7,1.2-2.1,0.5-3.1C102.4,650.7,101,650.4,100,651.2"/>
		<path fill="#E05B32" d="M25.7,590.6l-8.2,2.7c-1.2,0.4-1.8,1.6-1.4,2.8c0.3,0.9,1.2,1.5,2.1,1.5c0.2,0,0.5,0,0.7-0.1l8.2-2.7
			c1.2-0.4,1.8-1.6,1.4-2.8C28.1,590.9,26.9,590.2,25.7,590.6"/>
		<path fill="#E05B32" d="M66.4,579.7c-0.4-1.2-1.6-1.8-2.8-1.4L51,582.4c-1.2,0.4-1.8,1.6-1.4,2.8c0.3,0.9,1.2,1.5,2.1,1.5
			c0.2,0,0.5,0,0.7-0.1l12.6-4.1C66.2,582.2,66.8,580.9,66.4,579.7"/>
		<path fill="#E05B32" d="M11.7,497.8H3.1c-1.2,0-2.2,1-2.2,2.2s1,2.2,2.2,2.2h8.6c1.2,0,2.2-1,2.2-2.2S12.9,497.8,11.7,497.8"/>
		<path fill="#E05B32" d="M53.8,500c0-1.2-1-2.2-2.2-2.2H38.3c-1.2,0-2.2,1-2.2,2.2c0,1.2,1,2.2,2.2,2.2h13.3
			C52.8,502.2,53.8,501.2,53.8,500"/>
		<path fill="#E05B32" d="M27.1,405.1l-8.2-2.7c-1.2-0.4-2.4,0.3-2.8,1.4c-0.4,1.2,0.3,2.4,1.4,2.8l8.2,2.7c0.2,0.1,0.5,0.1,0.7,0.1
			c0.9,0,1.8-0.6,2.1-1.5C28.9,406.8,28.3,405.5,27.1,405.1"/>
		<path fill="#E05B32" d="M51,417.6l12.6,4.1c0.2,0.1,0.5,0.1,0.7,0.1c0.9,0,1.8-0.6,2.1-1.6c0.4-1.2-0.3-2.4-1.4-2.8l-12.6-4.1
			c-1.2-0.4-2.4,0.3-2.8,1.4C49.2,416,49.8,417.2,51,417.6"/>
		<path fill="#E05B32" d="M67.7,325.4c0.4,0.3,0.9,0.4,1.3,0.4c0.7,0,1.4-0.3,1.8-0.9c0.7-1,0.5-2.4-0.5-3.1l-7-5.1
			c-1-0.7-2.4-0.5-3.1,0.5c-0.7,1-0.5,2.4,0.5,3.1L67.7,325.4z"/>
		<path fill="#E05B32" d="M100,348.8c0.4,0.3,0.9,0.4,1.3,0.4c0.7,0,1.4-0.3,1.8-0.9c0.7-1,0.5-2.4-0.5-3.1l-10.7-7.8
			c-1-0.7-2.4-0.5-3.1,0.5c-0.7,1-0.5,2.4,0.5,3.1L100,348.8z"/>
		<path fill="#E05B32" d="M133.6,258.5c0.4,0.6,1.1,0.9,1.8,0.9c0.5,0,0.9-0.1,1.3-0.4c1-0.7,1.2-2.1,0.5-3.1l-5.1-7
			c-0.7-1-2.1-1.2-3.1-0.5c-1,0.7-1.2,2.1-0.5,3.1L133.6,258.5z"/>
		<path fill="#E05B32" d="M157,290.8c0.4,0.6,1.1,0.9,1.8,0.9c0.5,0,0.9-0.1,1.3-0.4c1-0.7,1.2-2.1,0.5-3.1l-7.8-10.8
			c-0.7-1-2.1-1.2-3.1-0.5c-1,0.7-1.2,2.1-0.5,3.1L157,290.8z"/>
		<path fill="#E05B32" d="M217,215.2c0.3,0.9,1.2,1.6,2.1,1.6c0.2,0,0.5,0,0.7-0.1c1.2-0.4,1.8-1.6,1.4-2.8l-2.7-8.2
			c-0.4-1.2-1.6-1.8-2.8-1.4c-1.2,0.4-1.8,1.6-1.4,2.8L217,215.2z"/>
		<path fill="#E05B32" d="M229.3,253.2c0.3,0.9,1.2,1.6,2.1,1.6c0.2,0,0.5,0,0.7-0.1c1.2-0.4,1.8-1.6,1.4-2.8l-4.1-12.6
			c-0.4-1.2-1.6-1.8-2.8-1.4c-1.2,0.4-1.8,1.6-1.4,2.8L229.3,253.2z"/>
		<path fill="#E05B32" d="M445.1,518l-6.2-22.1c0-0.1-0.1-0.2-0.1-0.3l-13.6-21.9c0.8-1.2,1.2-2.6,0.7-4.1c-0.8-2.5-3.4-3.9-5.9-3.1
			c-2,0.7-3.2,2.6-3.2,4.6l-26.6,11.2c-0.3,0.1-0.5,0.4-0.6,0.6l-10.1,24.9c-0.4,0-0.7,0-1.1,0.1c-2.4,0.8-3.8,3.4-3,5.9
			c0.7,2.1,2.7,3.3,4.8,3.1l18.2,26.4l-2.9,16L361,576.5l-17-31l26.3-17.9c0.4-0.2,0.5-0.7,0.5-1.1l-7.2-44.9l22.4-24.8
			c1.1,0.5,2.4,0.7,3.7,0.4c2.4-0.8,3.8-3.4,3-5.9c-0.8-2.5-3.4-3.8-5.9-3.1c-0.2,0-0.2,0.2-0.4,0.2l-30.2-40.9
			c0.6-1.1,0.8-2.4,0.4-3.7c-0.6-1.8-2.2-3-4-3.2L336.6,306c1-0.5,1.8-1.3,2.2-2.4c0.9-2.4-0.3-5.1-2.7-6.1
			c-2.4-0.9-5.1,0.3-6.1,2.7c-0.2,0.6-0.3,1.3-0.3,1.9l-86,25.6c-0.5-0.9-1.3-1.6-2.3-2c-2.4-0.9-5.1,0.3-6.1,2.8
			c-0.8,2,0,4.2,1.8,5.4l-16.1,42.5c-2.1-0.2-4.1,0.9-4.9,2.9c-0.5,1.2-0.4,2.5,0.2,3.6l-26,20.9c-0.9-0.6-2.1-1-3.3-0.8
			c-2.6,0.4-4.3,2.8-3.9,5.3c0.2,1.6,1.3,2.8,2.6,3.4l-6.2,48h-0.1c-2.6,0.2-4.5,2.4-4.3,5c0.2,2.6,2.4,4.5,5,4.3h0l35.9,54
			c-0.4,0.7-0.6,1.5-0.6,2.4c0.2,2.6,2.5,4.5,5,4.3c1.5-0.1,2.8-1,3.5-2.2l31.9-5.9l11.3,28.2c0.1,0.4,0.4,0.6,0.8,0.7l56.4,13.8
			l14.8,26.9l8.7,80.1c0,0.3,0.2,0.5,0.4,0.7l45.6,41.9c0.4-0.2,0.8-0.3,1.3-0.5l0.6-0.9L350.1,671l-8.7-79.9c0-0.2-0.1-0.3-0.2-0.4
			l-15.1-27.5c-0.2-0.3-0.4-0.5-0.7-0.6L269,548.8l-10.9-27.2l16.2-3l4.2,17.7c0.1,0.5,0.5,0.9,1.1,0.9l38,2.1h0
			c0.3,0,0.6-0.1,0.8-0.3c0.2-0.2,0.4-0.6,0.4-0.9l-1.4-27.4l4.6-0.8l4.7,30.9c0,0.1,0,0.2,0.1,0.4l26.3,45.9l15,64.8
			c0.1,0.2,0.2,0.5,0.4,0.6l44.8,32.3l1.2-1.9l-44.3-32l-15-64.5c0-0.1,0-0.2-0.1-0.3l-26.3-45.8l-4.6-30.7l4.1-0.7l7,21.9
			c0.1,0.4,0.4,0.6,0.7,0.7c0.1,0,0.3,0,0.4,0c0.2,0,0.4,0,0.6-0.2l19.6-11.7c0.3-0.2,0.5-0.6,0.5-1l-0.3-29.3l5-5.5l6.8,42.3
			l-26.6,18.1c-0.5,0.3-0.7,1-0.4,1.5l18,32.9c0.2,0.4,0.6,0.6,1,0.6c0.2,0,0.4,0,0.5-0.1l35.9-17.8c0.3-0.2,0.5-0.5,0.6-0.8
			l2.9-16.1l12.3-0.9l-9,25.2l-37.1,25.8c-0.5,0.3-0.6,1-0.3,1.5l25.9,43.2c0.2,0.2,0.4,0.4,0.7,0.5l33.1,7.6l0.5-2.2l-32.6-7.5
			L369,595.6l36.5-25.5c0.2-0.1,0.4-0.3,0.4-0.5l9.4-26.5l10.8-0.8c0.3,0,0.6-0.2,0.8-0.4l18-23C445.1,518.7,445.2,518.4,445.1,518
			 M391.6,484.3l25.9-10.9c0.4,0.8,1,1.4,1.8,1.8l-4.6,16.6l-31.5,17.4c-0.4-0.4-0.8-0.7-1.3-0.9L391.6,484.3z M442.6,517.4
			l-16.5,2.3c-0.7-1.7-2.3-2.8-4.1-2.9l-4.9-22.9l20,3.2L442.6,517.4z M423.8,525.5c1.4-0.7,2.4-2.1,2.6-3.6l15-2.1l-14.8,18.8
			L423.8,525.5z M383.7,515l33.5,6.6c0,0.4,0,0.8,0.1,1.2c0.6,1.9,2.4,3.2,4.3,3.2l3.1,14.2l-24.5,1.8l-17.7-25.7
			C383,516,383.4,515.6,383.7,515 M421.5,475.7c0.5,0,0.9,0,1.4-0.2c0.2-0.1,0.4-0.2,0.6-0.3l12.1,19.5l-18.6-3L421.5,475.7z
			 M414.8,494.3l5,23c-1,0.5-1.7,1.2-2.2,2.1l-33-6.5c0.1-0.6,0-1.2-0.2-1.8c0,0,0,0,0,0L414.8,494.3z M354.8,517.9L337,528.6
			l-6.4-20.3l6.2-1.1c1,2,3.3,3,5.5,2.3c2.5-0.8,3.8-3.4,3.1-5.9c-0.1-0.4-0.4-0.7-0.6-1l9.8-10.9L354.8,517.9z M316.4,537l-35.9-2
			l-3.9-16.8l38.6-7.1L316.4,537z M182.8,468l48.6,3c0.5,0.6,1.1,1.1,1.9,1.4l-12.8,48.5c-0.3,0-0.6-0.1-0.9-0.1
			c-0.8,0.1-1.6,0.4-2.2,0.8l-35.3-53.1C182.4,468.3,182.6,468.1,182.8,468 M187.8,412.4c0.2,0,0.4,0.1,0.6,0c0.3,0,0.5-0.2,0.8-0.3
			l41.6,54c-0.3,0.7-0.5,1.4-0.4,2.2c0,0.1,0.1,0.2,0.1,0.2l-46.3-2.8c0.1-0.5,0.2-1,0.2-1.5c-0.1-1.7-1.2-3.1-2.7-3.8L187.8,412.4z
			 M330.5,304.4c0.1,0.1,0.2,0.2,0.2,0.3L289.9,350c-0.2-0.1-0.3-0.2-0.5-0.3c-1.9-0.7-3.9-0.1-5.2,1.4l-40-19.9
			c0.1-0.4,0.2-0.8,0.2-1.2L330.5,304.4z M343.1,501c-0.9-0.5-2-0.7-3.1-0.5l-9.8-23.3c1.3-1,1.9-2.5,1.8-4.1l52.4-17.9c0,0,0,0,0,0
			L343.1,501z M235.6,472.6c1.6-0.2,2.9-1.2,3.5-2.6l39.9-12.3c0,0.1,0.1,0.1,0.2,0.2l-56,64.2c-0.2-0.2-0.3-0.3-0.5-0.4
			L235.6,472.6z M278.5,454.3c-0.1,0.4-0.2,0.8-0.2,1.2l-38.7,12c-0.3-2.5-2.5-4.3-5-4.1c-0.9,0.1-1.7,0.5-2.4,1L191.2,411
			L278.5,454.3z M302.6,403.5c0,1.4,0.6,2.7,1.7,3.6l-20.4,43.6c-0.4-0.1-0.8-0.2-1.2-0.2c-0.6,0-1.2,0.2-1.7,0.5l-56.7-67.3
			c0.1-0.2,0.2-0.3,0.3-0.5 M306.4,408c2.2,0.4,4.4-0.7,5.3-2.9c0-0.1,0-0.2,0.1-0.4l36.1,1.3c0,0.2,0,0.3,0,0.5
			c0,0.1,0.1,0.2,0.2,0.3l-61.9,44.7c0,0-0.1,0-0.1,0L306.4,408z M326.1,469c-1,0.3-1.7,1-2.3,1.7l-36.2-14.8c0-0.3,0.1-0.7,0.1-1
			c0-0.5-0.2-0.9-0.4-1.4l61.9-44.7l-21.3,60C327.3,468.7,326.7,468.8,326.1,469 M290.6,357.8l57.5,45.5c-0.1,0.2-0.1,0.4-0.2,0.6
			l-36.1-1.4c-0.3-1.5-1.3-2.8-2.8-3.4c-0.8-0.3-1.5-0.3-2.3-0.2l-16.2-41.1C290.5,357.8,290.5,357.8,290.6,357.8 M286.1,358.5
			c0.8,0.3,1.5,0.3,2.3,0.2l16.2,41.1c-0.6,0.4-1,0.9-1.3,1.5l-78.1-20.2c0-0.2,0-0.4-0.1-0.7l58.9-23.7
			C284.6,357.5,285.2,358.2,286.1,358.5 M224.7,523.8l56.3-64.5c0.7,0.4,1.5,0.6,2.4,0.6c1.4-0.1,2.6-0.9,3.4-1.9l36.1,14.8
			c-0.1,0.5,0,1.1,0.1,1.7L224.7,523.8z M383.7,453.1L331.3,471c-0.4-0.5-0.8-1-1.3-1.3l21.2-59.9c0.8,0.2,1.6,0.2,2.4,0
			c0.4-0.1,0.7-0.4,1-0.6l30,40.7C384,450.7,383.6,451.8,383.7,453.1 M332.5,306.2c0.1,0,0.2,0.1,0.3,0.2c0.5,0.2,1.1,0.3,1.6,0.3
			l16.1,94.3c-0.4,0.2-0.8,0.4-1.1,0.6L292,356c0-0.1,0.1-0.2,0.2-0.2c0.6-1.5,0.3-3-0.6-4.2L332.5,306.2z M243.3,333.2l40,19.9
			c-0.1,0.5-0.2,1.1-0.1,1.6l-58.9,23.7c-0.3-0.4-0.7-0.8-1.1-1.1l16.1-42.6C240.8,334.9,242.3,334.4,243.3,333.2 M191.8,405.6
			l26-20.9c0.3,0.3,0.7,0.5,1.1,0.7c1.3,0.5,2.6,0.4,3.7-0.2l56.1,66.5L192.2,409c0.2-0.6,0.2-1.2,0.1-1.9
			C192.3,406.6,192,406.1,191.8,405.6 M322.7,507.4C322.7,507.4,322.7,507.4,322.7,507.4l-95.1,17.5l96.3-48.4
			c1,1.2,2.6,1.7,4.2,1.5l9.8,23.3c-1.1,0.9-1.8,2.2-1.8,3.6L322.7,507.4z"/>
		<path fill="#E05B32" d="M581.8,517.6l-0.4-0.9h10.9l-0.3,0.9c-0.8,2-1,6.5-1,8.7v17.6h4.5c2.3,0,6.9-0.1,8.9-0.9l1.1-0.4l-0.8,8.6
			h-23.3l0.4-0.9c0.8-2,1-6.4,1-8.7v-15.3c0-1.1,0-2.8-0.2-4.5C582.4,520.2,582.1,518.5,581.8,517.6"/>
		<path fill="#E05B32" d="M666.8,542.9l1.1-0.4l-0.8,8.6h-27.6l0.4-0.9c0.8-2,1-6.4,1-8.7v-15.3c0-2.3-0.2-6.8-1-8.7l-0.4-0.9h26.2
			l0.8,8.7l-1.1-0.4c-2-0.8-6.6-1-8.9-1h-7.4v6.3h4.9c2.3,0,6.9-0.1,8.8-0.9l1-0.4v10l-1-0.4c-2-0.8-6.5-1-8.8-1h-4.9v6.3h8.7
			c1.8,0,4.7-0.1,7-0.5C665.6,543.3,666.3,543.1,666.8,542.9"/>
		<path fill="#E05B32" d="M717.6,541.5c0-0.8-0.7-1.6-2.2-2.4c-1.5-0.8-3.5-1.6-5.6-2.6c-4.1-1.8-8.5-4.6-8.5-10
			c0-7.2,6.4-10.2,13.2-10.2c2.8,0,5.9,0.4,8.5,1.3l0.4,0.1v8.4l-1.1-0.6c-2.2-1.2-5.4-2-7.9-2c-1.4,0-5,0.4-5,2.4
			c0,0.8,0.7,1.7,2.2,2.5c4.4,2.5,14.1,4.5,14.1,13.6c0,6.6-6.9,9.5-13,9.5c-3.2,0-7.2-0.8-10.1-2.2l-0.3-0.2v-9.5l1.2,1
			c2.4,2,6.1,3.5,9.2,3.5c1.2,0,2.4-0.2,3.3-0.6C717,543.1,717.6,542.5,717.6,541.5"/>
		<path fill="#E05B32" d="M510,699.9c0,8-5.2,13.9-14.4,13.9c-9.2,0-14.4-5.9-14.4-13.9v-11.6c0-2.3-0.2-6.8-1-8.7l-0.4-0.9h10.9
			l-0.4,0.9c-0.8,2.1-0.9,6.4-0.9,8.7v11.6c0,4.1,1.7,6.6,6.2,6.6c4.5,0,6.2-2.7,6.2-6.6v-11.6c0-2.3-0.1-6.7-0.9-8.7l-0.4-0.9h10.9
			l-0.4,0.9c-0.8,2.1-1,6.4-1,8.7V699.9z"/>
		<path fill="#E05B32" d="M571.6,689.8c0,4.5-2.1,8.4-6.8,10.1c1.1,1.7,2.4,3.9,3.9,6c1.7,2.5,3.5,4.8,5.1,6.1l1.4,1.1h-13.5l0-0.6
			c0-1.4-1-3.7-2.4-6.1c-1.2-2.1-2.7-4.2-3.5-5.6H555v2.7c0,2.2,0.2,6.7,1,8.7l0.3,0.9h-11l0.4-0.9c0.8-2,1-6.4,1-8.7v-15.3
			c0-2.3-0.2-6.8-1-8.7l-0.4-0.9h13.9c3.7,0,6.8,1.1,9,3C570.4,683.6,571.6,686.4,571.6,689.8 M559.3,685.9H555v7.7h4.3
			c2.6,0,4.1-1.5,4.1-3.8C563.4,687.4,561.8,685.9,559.3,685.9"/>
		<path fill="#E05B32" d="M631.2,695.5c2.8,1.8,3.9,4.5,3.9,7.5c0,6.7-4.9,10.1-11.8,10.1h-15.2l0.4-0.9c0.8-2,1-6.4,1-8.7v-15.3
			c0-2.3-0.2-6.8-1-8.7l-0.4-0.9h15c7,0,11.3,3.2,11.3,9.8C634.4,691.1,633.5,693.7,631.2,695.5 M617.8,692.2h3.9
			c2.7,0,4.5-0.8,4.5-3.1c0-2.4-1.8-3.2-4.5-3.2h-3.9V692.2z M617.8,699.5v6.3h4.6c2.7,0,4.5-0.7,4.5-3.1c0-2.4-1.8-3.1-4.5-3.1
			H617.8z"/>
		<path fill="#E05B32" d="M678.7,713.1H667l0.7-1c1.5-2,2.8-6.2,3.6-8.7L676,688c0.6-2.1,1.9-6.7,1.6-8.7l-0.1-0.7h14l-0.1,0.7
			c0,3,0.8,5.8,1.6,8.7l4.6,15.3c0.8,2.5,2.1,6.7,3.6,8.7l0.8,1h-11.7l0.1-0.7c0-2.3-0.3-4.4-0.9-6.7h-10.1c-0.4,2-1.1,5.2-0.8,6.7
			L678.7,713.1z M687.6,698.4c-1-3.8-1.9-7.6-3-11.3c-1.1,3.8-2.1,7.6-3.1,11.3H687.6z"/>
		<path fill="#E05B32" d="M736.4,703.6v-15.3c0-2.3-0.2-6.8-1-8.7l-0.4-0.9h11l-0.3,0.9c-0.8,2-1,6.5-1,8.7v15.3
			c0,2.2,0.2,6.7,1,8.7l0.3,0.9h-11l0.4-0.9c0.4-1,0.7-2.6,0.8-4.3C736.3,706.4,736.4,704.7,736.4,703.6"/>
		<path fill="#E05B32" d="M813.8,712.2l0.4,0.9h-12.3l-12.4-21.8v12.2c0,2.2,0.2,6.7,1,8.7l0.3,0.9h-11l0.4-0.9c0.8-2,1-6.4,1-8.7
			v-15.3c0-2.3-0.2-6.8-1-8.7l-0.4-0.9h12.4l12.5,21.8v-12.1c0-2.3-0.2-6.8-1-8.7l-0.4-0.9h10.9l-0.4,0.9c-0.8,1.9-0.9,6.5-0.9,8.7
			v15.3c0,1.1,0,2.8,0.2,4.4C813.2,709.7,813.4,711.3,813.8,712.2"/>
		<path fill="#E05B32" d="M875.4,704.9l1.1-0.4l-0.8,8.6h-27.6l0.4-0.9c0.8-2,1-6.4,1-8.7v-15.3c0-2.3-0.2-6.8-1-8.7l-0.4-0.9h26.2
			l0.8,8.7l-1.1-0.4c-2-0.8-6.6-1-8.9-1h-7.4v6.3h4.9c2.3,0,6.9-0.1,8.8-0.9l1-0.4v10l-1-0.4c-2-0.8-6.5-1-8.8-1h-4.9v6.3h8.7
			c1.8,0,4.7-0.1,7-0.5C874.3,705.2,874.9,705.1,875.4,704.9"/>
		<path fill="#E05B32" d="M926.2,703.4c0-0.8-0.7-1.6-2.2-2.4c-1.5-0.8-3.5-1.6-5.6-2.6c-4.1-1.8-8.5-4.6-8.5-10
			c0-7.2,6.4-10.2,13.2-10.2c2.8,0,5.9,0.4,8.5,1.3l0.4,0.1v8.4l-1.1-0.6c-2.2-1.2-5.4-2-7.9-2c-1.4,0-5,0.4-5,2.4
			c0,0.8,0.7,1.7,2.2,2.5c4.4,2.5,14.1,4.5,14.1,13.6c0,6.6-6.9,9.5-13,9.5c-3.2,0-7.2-0.8-10.1-2.2l-0.3-0.2v-9.5l1.2,1
			c2.4,2,6.1,3.5,9.2,3.5c1.2,0,2.4-0.2,3.3-0.6C925.7,705.1,926.2,704.4,926.2,703.4"/>
		<path fill="#E05B32" d="M457.9,659.7c-30.7,0-42.9-19.8-42.9-44.8c0-24,14.8-44.6,43.9-44.6c5.7,0,10.8,0.9,16,2.3
			c1,0.4,2.1,0.5,3.4,0.5c1,0,2.2,0,3.1-0.4l2.4-1l0,29.2l-3.2-3.4c-4.9-5.5-14.1-9.1-21.8-9.1c-16.1,0-22.6,12.7-22.6,26.4
			c0,15,6.5,26.5,23.3,26.5c8.6,0,19.3-3.8,25.2-9.3l3.2-2.9l0,23.7l-0.9,0.4c-2.1,1.1-4.3,1.9-6.7,2.8
			C473,658.6,464.7,659.7,457.9,659.7"/>
		<path fill="#E05B32" d="M525.7,658l-29.1,0l1.8-2.6c3.7-5,7.1-15.5,9.1-21.8l11.4-38.1c1.6-5.3,4.7-16.7,4.1-21.6l-0.2-1.8l34.9,0
			l-0.2,1.7c0,7.5,1.9,14.4,4,21.8l11.5,38.2c1.9,6.2,5.1,16.6,8.9,21.8l2,2.6l-29.2,0l0.4-1.8c0-5.8-0.8-11-2.2-16.8l-25.1,0
			c-1,4.9-2.7,12.8-2.1,16.8L525.7,658z M547.7,621.3c-2.4-9.4-4.8-18.8-7.6-28.3c-2.8,9.4-5.1,18.8-7.7,28.2L547.7,621.3z"/>
		<path fill="#E05B32" d="M649.7,614.3c6.8,4.4,9.7,11.1,9.6,18.6c0,16.6-12.1,25.2-29.4,25.2l-37.8,0l1-2.2c2-4.9,2.6-16,2.6-21.6
			l0-38.2c0-5.6-0.6-16.9-2.6-21.8l-1-2.2l37.3,0c17.5,0,28.1,8,28.1,24.5C657.6,603.3,655.4,609.8,649.7,614.3 M616.2,624.2l0,15.6
			l11.5,0c6.9,0,11.3-1.8,11.3-7.8c0-5.9-4.4-7.8-11.2-7.8L616.2,624.2z M616.2,606l9.8,0c6.8,0,11.2-1.9,11.3-7.8c0-6-4.4-8-11.2-8
			l-9.8,0L616.2,606z"/>
		<path fill="#E05B32" d="M694.5,658.1l-29.1,0l1.8-2.6c3.7-5,7.1-15.5,9.1-21.8l11.4-38.1c1.6-5.3,4.7-16.7,4.1-21.6l-0.2-1.8
			l34.8,0l-0.2,1.7c0,7.5,1.9,14.4,4,21.8l11.5,38.2c2,6.2,5.1,16.6,8.9,21.8l2,2.6l-29.2,0l0.4-1.8c0-5.8-0.8-11-2.2-16.8l-25.1,0
			c-1,4.9-2.7,12.8-2.1,16.8L694.5,658.1z M716.5,621.5c-2.4-9.4-4.8-18.8-7.6-28.2c-2.8,9.4-5.1,18.8-7.7,28.2L716.5,621.5z"/>
		<path fill="#E05B32" d="M845.6,656l1,2.2l-30.7,0L785,604l0,30.3c0,5.5,0.5,16.7,2.4,21.6l0.9,2.2l-27.3,0l1-2.2
			c2-4.9,2.6-16,2.6-21.6l0-38.1c0-5.6-0.6-16.9-2.6-21.8l-1-2.2l30.8,0l31,54.2l0-30.2c0-5.6-0.5-16.9-2.4-21.8l-1-2.2l27.1,0
			l-1,2.2c-2,4.8-2.3,16.1-2.3,21.8l0,38.1c0,2.8,0,7,0.5,11C844.1,649.7,844.6,653.6,845.6,656"/>
		<path fill="#E05B32" d="M925.6,637.7l2.7-1l-2.1,21.5l-68.6,0l1-2.2c2-4.9,2.6-16,2.6-21.6l0-38.2c0-5.6-0.6-16.9-2.6-21.8l-1-2.2
			l65.3,0L925,594l-2.8-1.1c-5-2-16.4-2.5-22.3-2.5l-18.3,0l0,15.8l12.2,0c5.6,0,17.1-0.4,22-2.3l2.6-1l0,24.9l-2.6-1
			c-5-2-16.3-2.5-22-2.5l-12.2,0l0,15.6l21.8,0c4.4,0,11.7-0.2,17.5-1.2C922.8,638.6,924.3,638.2,925.6,637.7"/>
		<path fill="#E05B32" d="M978.6,634.1c0-2.1-1.8-4-5.4-5.9c-3.8-2.1-8.7-4-13.9-6.4c-10.1-4.5-21.3-11.4-21.3-25
			c0-17.9,15.9-25.4,32.8-25.4c6.8,0,14.7,1,21.1,3.3l1.1,0.4l0,20.9l-2.7-1.5c-5.4-2.9-13.3-5-19.6-5c-3.4,0-12.3,1.1-12.4,5.9
			c0,2.1,1.8,4.2,5.5,6.2c10.9,6.1,35.2,11.3,35.2,33.8c0,16.5-17.3,23.7-32.4,23.7c-7.9,0-17.8-2.1-25.2-5.4l-0.8-0.5l0-23.6
			l2.9,2.4c5.9,4.9,15.3,8.8,22.9,8.8c3.1,0,6-0.5,8.3-1.6C977.2,638.3,978.6,636.6,978.6,634.1"/>
	</g>
</g>
</svg>
