<svg version="1.1" id="Calque_1" xmlns="http://www.w3.org/2000/svg" xmlns:xlink="http://www.w3.org/1999/xlink" x="0px" y="0px"
	 viewBox="0 0 1000 727.1" enable-background="new 0 0 1000 727.1" xml:space="preserve">
<g>
	<path fill-rule="evenodd" clip-rule="evenodd" fill="#FFFFFF" d="M984.3,139.5L1000,0h-6.5l-15.5,138.1c-1.7-0.1-3.5-0.1-5.2,0.2
		c-2.3,0.4-4.5,1.2-6.5,2.2L854.1,0h-8.3l115,144.2c-1.2,1.1-2.3,2.3-3.2,3.5L645.7,0h-15.2l324.1,153.5c-1.3,3.7-1.9,7.7-1.2,11.8
		c0.6,3.5,2,6.7,3.9,9.4l-127,105.8c-2.2-2-4.8-3.6-7.8-4.7c-7.2-2.6-14.8-1.3-20.7,2.5L558.8,0h-8.6l246.8,282.6
		c-1.7,1.9-3.1,4.2-4.1,6.8L402,195.5c0.8-8.8-3.3-17.4-10.8-22.1L468.9,0h-7.1l-76.5,170.9c-11.8-3.4-24.3,2.8-28.5,14.5
		c-0.5,1.4-0.8,2.8-1,4.2L176.7,186c-0.2-1.6-0.5-3.1-1.1-4.7c-0.5-1.3-1.1-2.6-1.7-3.8L410.9,0H400L170,172.3
		c-1.1-1.1-2.3-2.1-3.6-3L223.1,0h-6.8l-55.7,166.5c-4.6-1.5-9.6-1.6-14.5,0.1c-2.7,0.9-5.1,2.3-7.2,4L8.2,0H0l134.3,175.4
		c-4.1,5.9-5.5,13.5-3.1,20.8c3.3,9.9,12.7,16,22.6,15.9l88.8,470c-5.8,2.5-10.7,7.2-13,13.6c-4.4,12.2,2,25.6,14.1,30
		c12.2,4.4,25.6-2,30-14.1c1.4-4,1.6-8.2,0.9-12.1l426.9-135.2c2.6,5.4,7.2,9.8,13.2,12c12.2,4.4,25.6-2,30-14.1
		c4-11.1-1-23.2-11.2-28.6l76.3-212.8c11.3,2.4,22.8-3.8,26.8-14.9c2.5-7,1.4-14.3-2.2-20.2l127.4-106.1c5,4.1,11.7,6.2,18.6,5.1
		c12.8-2.1,21.4-14.2,19.3-27C998.2,148.9,992.1,142.2,984.3,139.5z M400.5,201.8l390.8,93.8c-0.3,2.8-0.1,5.6,0.6,8.3L500.7,426.8
		c-2.7-4.5-6.8-8.2-12.1-10.1c-4.6-1.6-9.4-1.8-13.8-0.6l-84.1-202.7C395,210.8,398.5,206.9,400.5,201.8z M176.5,192.5l179.1,3.6
		c1,8.5,6.6,16.2,15.3,19.3c4.6,1.6,9.4,1.8,13.8,0.6l84.1,202.7c-1.6,1-3.2,2.1-4.5,3.5L173.8,200.2
		C175.2,197.8,176.1,195.2,176.5,192.5z M259.6,681.6c-3.5-1.3-7.2-1.5-10.7-1.1l-88.6-469.3c0.2-0.1,0.4-0.1,0.7-0.2
		c3.5-1.2,6.5-3.2,8.9-5.6l290.4,221.9c-0.6,1.1-1.2,2.3-1.7,3.5c-3,8.3-0.9,17,4.5,23.2L263.5,683.4
		C262.2,682.7,261,682.1,259.6,681.6z M699.7,558L272.6,693.3c-1-2.1-2.5-4-4.1-5.7l199.4-229.1c1.5,1,3.1,1.8,4.8,2.5
		c10.4,3.7,21.6-0.4,27.4-9.2l200.3,95.5C699.3,550.8,699.1,554.5,699.7,558z M727.4,531.3c-9.4-2-19,2-24.2,10l-200.3-95.5
		c1.4-4.4,1.5-8.9,0.4-13l291.3-122.9c2.2,3.6,5.3,6.6,9.2,8.7L727.4,531.3z"/>
</g>
</svg>
