<?xml version="1.0" encoding="utf-8"?>
<!-- Generator: Adobe Illustrator 24.2.3, SVG Export Plug-In . SVG Version: 6.00 Build 0)  -->
<svg version="1.1" id="Calque_1" xmlns="http://www.w3.org/2000/svg" xmlns:xlink="http://www.w3.org/1999/xlink" x="0px" y="0px"
	 viewBox="0 0 858.1 1000" enable-background="new 0 0 858.1 1000" xml:space="preserve">
<path fill="#DE5A31" d="M0,297.3c0,14.9,12.1,27,27,27c3.3,0,6.4-0.6,9.4-1.7l161.1,310.5c-7.1,4.9-11.7,13-11.7,22.2
	c0,14.9,12.1,27,27,27c8.2,0,15.5-3.6,20.5-9.4l501.4,290.7c-1.1,2.9-1.6,6-1.6,9.3c0,14.9,12.1,27,27,27c14.9,0,27-12.1,27-27
	c0-13.5-9.9-24.7-22.9-26.7L831,432.4c0,0,0.1,0,0.1,0c14.9,0,27-12.1,27-27s-12.1-27-27-27c-8.7,0-16.5,4.1-21.4,10.6l-599-351.3
	c1.4-3.3,2.2-6.9,2.2-10.7c0-14.9-12.1-27-27-27s-27,12.1-27,27c0,8.7,4.1,16.5,10.5,21.4l-131.6,224c-3.3-1.4-6.9-2.2-10.7-2.2
	C12.1,270.3,0,282.4,0,297.3z M175.1,51.9c3.3,1.4,6.9,2.2,10.7,2.2c5.3,0,10.2-1.5,14.3-4.1l157.3,193.1c-3.8,4.6-6,10.6-6,17
	c0,0.9,0,1.7,0.1,2.6L53.4,291.4c-1.4-6.3-5-11.7-9.9-15.5L175.1,51.9z M803.8,393.3L404.2,268.1c0.8-2.5,1.2-5.2,1.2-7.9
	c0-14.9-12.1-27-27-27c-6,0-11.6,2-16.1,5.3L205.4,45.7c0.7-0.7,1.3-1.4,1.9-2.2L803.8,393.3z M237.1,667.4c1.8-3.6,2.8-7.7,2.8-12
	c0-1.8-0.2-3.6-0.5-5.3l568.2-231.5c3.6,6.3,9.6,11.1,16.8,12.9l-66.8,514.5c-8.2,0.8-15.3,5.2-19.7,11.6L237.1,667.4z M42.4,319.5
	c6.8-4.7,11.4-12.6,11.7-21.4L353,269.4c3.8,10.4,13.7,17.8,25.4,17.8c9.7,0,18.3-5.2,23-12.9l403.1,126.3c-0.3,1.6-0.4,3.2-0.4,4.8
	c0,2.4,0.3,4.8,0.9,7L237.2,643.7c-4.4-9.1-13.6-15.3-24.4-15.3c-3.3,0-6.4,0.6-9.4,1.7L42.4,319.5z"/>
</svg>
