<?xml version="1.0" encoding="utf-8"?>
<!-- Generator: Adobe Illustrator 24.2.3, SVG Export Plug-In . SVG Version: 6.00 Build 0)  -->
<svg version="1.1" id="Calque_1" xmlns="http://www.w3.org/2000/svg" xmlns:xlink="http://www.w3.org/1999/xlink" x="0px" y="0px"
	 viewBox="0 0 978.2 654.2" enable-background="new 0 0 978.2 654.2" xml:space="preserve">
<path fill-rule="evenodd" clip-rule="evenodd" fill="#DE5A31" d="M948,381.1L841.2,61.7c10.7-5.4,18-16.4,18-29.1
	c0-18-14.6-32.6-32.6-32.6c-18,0-32.6,14.6-32.6,32.6c0,1.7,0.1,3.3,0.4,4.9l-733,238.8C55.9,266,45.1,259,32.6,259
	C14.6,259,0,273.6,0,291.6s14.6,32.6,32.6,32.6c11.3,0,21.3-5.8,27.2-14.6l648.1,304.5c-0.6,2.4-0.9,4.9-0.9,7.5
	c0,18,14.6,32.6,32.6,32.6c18,0,32.6-14.6,32.6-32.6c0-8.3-3.1-15.9-8.2-21.7l166.5-157.5c4.5,2.4,9.7,3.7,15.1,3.7
	c18,0,32.6-14.6,32.6-32.6C978.2,396.4,964.8,382.3,948,381.1z M938,381.9c-14.3,3.4-25,16.3-25,31.7c0,9,3.6,17.1,9.5,23
	L756.4,593.7c-4.9-3-10.7-4.7-16.8-4.7c-1.3,0-2.5,0.1-3.7,0.2l-70.3-270.7c11.6-5,19.7-16.5,19.7-29.9c0-10.1-4.6-19-11.7-25
	L811.9,61.7c4.4,2.2,9.4,3.5,14.7,3.5c1.8,0,3.6-0.2,5.3-0.4L938,381.9z M797.2,46.7c1.7,3.5,4,6.6,6.7,9.3L665.2,258.5
	c-3.9-1.6-8.1-2.5-12.6-2.5c-15.6,0-28.6,11-31.8,25.6l-556.1,4.2c0-0.1,0-0.2-0.1-0.4L797.2,46.7z M63.9,300.8
	c0.5-1.7,0.9-3.4,1.1-5.2l555.2-4.2c1.4,16.7,15.4,29.9,32.5,29.9c1.2,0,2.4-0.1,3.5-0.2l70.3,270.8c-6.3,2.8-11.5,7.5-15,13.3
	L63.9,300.8z"/>
</svg>
