<?xml version="1.0" encoding="utf-8"?>
<!-- Generator: Adobe Illustrator 24.2.3, SVG Export Plug-In . SVG Version: 6.00 Build 0)  -->
<svg version="1.1" id="Calque_1" xmlns="http://www.w3.org/2000/svg" xmlns:xlink="http://www.w3.org/1999/xlink" x="0px" y="0px"
	 viewBox="0 0 934.5 967.9" enable-background="new 0 0 934.5 967.9" xml:space="preserve">
<path fill="#DE5A31" d="M901.9,546.5c-1.5,0-3,0.1-4.5,0.3L775.8,63.1c12.3-4.7,21-16.5,21-30.5c0-18-14.6-32.6-32.6-32.6
	c-18,0-32.6,14.6-32.6,32.6c0,4.5,0.9,8.8,2.6,12.7l-607.1,352c-6-7.8-15.3-12.8-25.9-12.8c-18,0-32.6,14.6-32.6,32.6
	c0,15.1,10.3,27.8,24.3,31.5L32.2,902.7C14.4,903,0,917.4,0,935.3c0,18,14.6,32.6,32.6,32.6s32.6-14.6,32.6-32.6
	c0-1.6-0.1-3.2-0.3-4.7l668.1-174.9c3.6,14,16.4,24.4,31.5,24.4c18,0,32.6-14.6,32.6-32.6c0-10.6-5-20-12.9-25.9l99.5-115.4
	c5.2,3.5,11.4,5.5,18.2,5.5c18,0,32.6-14.6,32.6-32.6S919.9,546.5,901.9,546.5z M889.5,548.9c-2.9,1.2-5.5,2.8-7.9,4.7L761.2,431.7
	c4.3-5.5,6.9-12.5,6.9-20c0-15.7-11.1-28.8-25.8-31.9l23.6-314.7c0.7,0,1.3-0.1,2-0.2L889.5,548.9z M738.3,52.3
	c4.7,6.2,11.6,10.6,19.4,12.2l-23.6,314.6c-16.1,0.7-29.2,13-31,28.9l-569.7,4.7c-0.4-2.9-1.2-5.7-2.3-8.4L738.3,52.3z M101.1,449.6
	c16.7,0,30.5-12.6,32.4-28.8l569.7-4.7c0.6,4.2,2,8.2,4,11.8L55.5,912.2c-4.1-4.1-9.4-7.1-15.3-8.5l60.6-454
	C101,449.6,101.1,449.6,101.1,449.6z M764.5,714.9c-18,0-32.6,14.6-32.6,32.6c0,0,0,0,0,0.1L62.7,922.7c-0.6-1.4-1.3-2.8-2.1-4.1
	l651.6-484.2c5.9,6.1,14.2,9.9,23.3,9.9c7.5,0,14.4-2.5,19.9-6.8l120.5,121.9c-4.2,5.5-6.6,12.3-6.6,19.7c0,8.3,3.1,15.9,8.3,21.7
	L777,717.4C773.1,715.8,768.9,714.9,764.5,714.9z"/>
</svg>
