<?xml version="1.0" encoding="utf-8"?>
<!-- Generator: Adobe Illustrator 24.2.3, SVG Export Plug-In . SVG Version: 6.00 Build 0)  -->
<svg version="1.1" id="Calque_1" xmlns="http://www.w3.org/2000/svg" xmlns:xlink="http://www.w3.org/1999/xlink" x="0px" y="0px"
	 viewBox="0 0 781.1 1000" enable-background="new 0 0 781.1 1000" xml:space="preserve">
<path fill="#DE5A31" d="M752.3,530.3l-18.6-404.5c14.9-2.6,26.2-15.5,26.2-31.1c0-17.4-14.1-31.5-31.5-31.5
	c-13.7,0-25.3,8.7-29.7,20.9L481.4,35.7c0.2-1.4,0.3-2.8,0.3-4.2c0-17.4-14.1-31.5-31.5-31.5c-17.4,0-31.5,14.1-31.5,31.5
	c0,7,2.3,13.5,6.2,18.8L49.4,473.8c-5.1-3.5-11.2-5.5-17.8-5.5C14.1,468.3,0,482.4,0,499.8c0,17.4,14.1,31.5,31.5,31.5
	c1.1,0,2.2-0.1,3.3-0.2l95,407.8c-11.8,4.6-20.2,16-20.2,29.4c0,17.4,14.1,31.5,31.5,31.5s31.5-14.1,31.5-31.5
	c0-5.3-1.3-10.4-3.7-14.8l556.8-371.2c5.8,6.6,14.2,10.7,23.7,10.7c17.4,0,31.5-14.1,31.5-31.5C781.1,545.2,768.4,531.7,752.3,530.3
	z M696.9,91.8c-0.1,1-0.1,2-0.1,3c0,16.6,12.8,30.2,29,31.4l18.6,404.4c-12.8,2.1-23.1,11.9-25.7,24.6L63.1,498.6
	c-0.3-7.5-3.2-14.3-7.8-19.6L430.3,56c5.4,4.4,12.3,7,19.9,7c13.2,0,24.6-8.2,29.2-19.7L696.9,91.8z M164.5,947.3
	c-5.8-6.3-14.1-10.3-23.3-10.3c-1.2,0-2.5,0.1-3.7,0.2l-95-407.7c10-3.7,17.6-12.3,19.9-23L718.1,563c0.2,4.7,1.4,9,3.4,13
	L164.5,947.3z"/>
</svg>
