<?xml version="1.0" encoding="utf-8"?>
<!-- Generator: Adobe Illustrator 24.2.3, SVG Export Plug-In . SVG Version: 6.00 Build 0)  -->
<svg version="1.1" id="Calque_1" xmlns="http://www.w3.org/2000/svg" xmlns:xlink="http://www.w3.org/1999/xlink" x="0px" y="0px"
	 viewBox="0 0 654 1000" enable-background="new 0 0 654 1000" xml:space="preserve">
<path fill="#FFFFFF" d="M558.8,652.6l22.8-63.3l26.3-1.9c0.8-0.1,1.5-0.4,2-1l43.8-55.1c0.4-0.7,0.4-1.6,0-2.4l-15-53.1
	c0-0.2,0-0.5,0-0.7l-32.9-52.1c2.9-4,2.8-9.3-0.1-13.3c-3-3.9-8.1-5.5-12.8-3.9c-4.7,1.6-7.7,6-7.6,10.9L521,443.4
	c-0.7,0.3-1.2,0.8-1.4,1.5L495,504.5c-0.9,0.1-1.7,0.2-2.6,0.5c-5.5,1.7-8.8,7.3-7.7,12.9c1.1,5.6,6.4,9.5,12.1,9l44.1,63l-7.1,38.2
	l-83.6,41l-41.2-74.4l63.7-43c0.9-0.6,1.3-1.6,1.1-2.7l-17.4-107.4l54.4-59.5c2.7,1.4,5.9,1.7,8.8,0.8c3.9-1.2,6.8-4.4,7.7-8.3
	s-0.4-8-3.4-10.7c-3-2.7-7.2-3.6-11.1-2.4l-0.9,0.4L438.8,264c1.9-3.3,2-7.3,0.2-10.7c-1.8-3.4-5.1-5.6-8.9-6L391,20.7
	c2.5-1.4,4.4-3.6,5.3-6.2c1.7-5.7-1.3-11.7-6.9-13.8c-5.6-2.1-11.9,0.5-14.4,5.8c-0.5,1.5-0.8,3-0.7,4.6L166.1,72.5
	c-1.3-2.2-3.3-3.9-5.7-4.8c-5.8-2.2-12.3,0.6-14.7,6.2c-2.1,5.1-0.2,10.9,4.5,13.8L111,189.5c-4-0.5-8,1.2-10.4,4.5
	c-2.4,3.2-2.9,7.5-1.2,11.2l-62.9,49.8c-2.3-1.6-5.2-2.3-8.1-1.9c-6.1,0.9-10.3,6.4-9.6,12.5c0.6,3.6,2.9,6.8,6.3,8.4L9.3,394.6
	c-5.8,1.1-9.8,6.3-9.2,12.1c0.6,5.8,5.5,10.2,11.4,10.1c1-0.1,2-0.3,3-0.7l85.5,127.8c-2.1,2.3-3.2,5.3-3,8.4
	c0.4,5.9,5.4,10.4,11.3,10.4s10.9-4.5,11.3-10.4l75.5-13.7l27.4,67.6c0.3,0.8,1,1.4,1.9,1.6l136.7,32.9l35.9,64.5l21.1,192.2
	c0.1,0.6,0.4,1.2,0.9,1.7L531.2,1000l3.6-4L423.7,895.7l-21.1-191.7c0.1-0.4,0.1-0.7,0-1.1l-36.8-66c-0.4-0.7-1-1.2-1.8-1.4
	l-136.6-32.9l-26.9-65.3l39.3-7.2l10.2,42.2c0.3,1.2,1.3,2,2.5,2.1l92.1,5c0.7,0,1.4-0.2,1.9-0.7c0.5-0.5,0.8-1.3,0.8-2.1l-3.3-65.8
	l11.1-2l11.3,74c0.1,0.3,0.2,0.6,0.4,0.9l63.7,110l36.4,155.7c0.2,0.8,0.7,1.4,1.4,1.8L588.4,911l2.5-4.8l-118.6-59l-36.2-154.5
	c0-0.2,0-0.5,0-0.7l-64-110l-11.3-73.6l9.7-1.8l16.9,52.6c0.3,0.8,0.9,1.4,1.6,1.7c0.3,0.1,0.7,0.1,1,0c0.5,0,1-0.1,1.4-0.4
	l47.4-28.1c0.8-0.5,1.3-1.4,1.3-2.3l-0.4-70.1l12.1-13.2l16.4,101.6L403.8,592c-1.1,0.8-1.5,2.3-0.8,3.6l43.6,78.8
	c0.5,0.9,1.4,1.4,2.4,1.4c0.4,0.1,0.8,0.1,1.3,0l87.1-42.8c0.8-0.4,1.3-1.1,1.4-1.9l7.2-38.6l29.8-2.1L554,650.6l-89.9,62.3
	c-1.2,0.8-1.5,2.4-0.8,3.6l62.9,103.6c0.4,0.7,1.1,1.2,2,1.3l107.9,14l0.8-5.4l-106.9-14.6l-60.7-100.3l88.5-61
	C558.3,653.7,558.7,653.2,558.8,652.6z M432.4,269.1c0.9-0.3,1.8-0.7,2.6-1.2l72.5,97.3c-1.9,2.3-2.8,5.2-2.5,8.1L378.4,416
	c-0.9-1.3-2-2.4-3.3-3.2l51.4-143.2C428.4,269.9,430.5,269.8,432.4,269.1z M272.3,377.5c-0.1-1.1-0.3-2.2-0.8-3.3l149.9-106.8
	l-51.5,143.9c-4-0.4-7.9,1.3-10.2,4.5L272.3,380C272.4,379.1,272.4,378.3,272.3,377.5z M313.3,245.2c-1.4,1-2.5,2.3-3.3,3.8
	l-61.9-15.8L121,200.7c0-0.5,0-1.1,0-1.6l142.5-56.7c1.3,1.8,3.1,3.2,5.2,4c1.8,0.6,3.7,0.8,5.5,0.6L313.3,245.2z M279.2,145v-0.3
	l139.5,109.1c-0.3,0.5-0.5,1-0.6,1.5l-87-3.2c-0.8-3.7-3.5-6.8-7.1-8.2c-1.7-0.6-3.6-0.8-5.5-0.6L279.2,145z M308.6,254.2
	c-0.1,3.4,1.5,6.6,4.2,8.8l-49.2,104.4c-1-0.1-2-0.1-3,0c-1.4,0.1-2.9,0.5-4.2,1.2L118.8,207.2l0.8-1.2L308.6,254.2z M317.7,265.3
	c5.3,1,10.6-2,12.6-7c0,0,0-0.6,0-0.9l87.2,3.2v1.1l0.4,0.8L268.4,369.8L317.7,265.3z M380.6,21l0.8,0.4c1.3,0.5,2.6,0.7,4,0.7
	l39,226c-0.9,0.4-1.8,0.9-2.6,1.5l-138.8-109c0.1-0.2,0.2-0.4,0.3-0.6c1.3-3.4,0.9-7.3-1.3-10.3L380.6,21z M167.7,78l208.4-61.3
	l0.6,0.9L277.9,126l-1.3-0.7c-4.5-1.6-9.5-0.3-12.6,3.2L167.4,81C167.6,80,167.7,79,167.7,78z M155.1,89.6c3.8,0.4,7.5-1,9.9-3.9
	l96.6,47.6c-0.2,1.3-0.2,2.7,0,4L118.8,194c-0.8-1-1.7-1.9-2.8-2.7L155.1,89.6z M102.8,209.5c0.8,0.7,1.8,1.3,2.8,1.6
	c2.9,1.1,6.2,0.9,9-0.4l135.9,159.6L41.1,267.4c0.3-1.5,0.3-3,0-4.5c-0.2-1.2-0.6-2.4-1.2-3.5L102.8,209.5z M250,376
	c-0.1,1-0.1,2,0,3l-95.6,29.1c-2.2-3.6-6.2-5.7-10.5-5.5c-1.2,0.1-2.3,0.4-3.4,0.9L38.5,272.3L250,376z M14.7,395.3l16-119.5H32
	c0.7-0.1,1.4-0.3,2.1-0.6l102.2,131.4c-0.9,1.1-1.7,2.4-2.1,3.9l-112.5-6.9C20.9,399.9,18.3,396.7,14.7,395.3z M107.6,540.3
	c-1,0.1-2,0.4-3,0.7L18.9,413.3c1.1-1.2,1.9-2.7,2.5-4.2l112.3,6.7c0.6,3.4,2.8,6.4,6,8l-31,116.6H107.6z M114.1,541l30.8-116h0.7
	c6.1-0.4,10.8-5.6,10.4-11.7l95.4-29.1l0.4,0.6L114.1,541z M256,388.3c1.9,1,4.1,1.5,6.3,1.2c3.3-0.3,6.3-1.9,8.2-4.6l87.4,35.5
	c-0.2,1.4-0.2,2.8,0,4.1L119.7,542.9L256,388.3z M255,569.6l-9.6-40.3l93.6-17l3.1,62.3L255,569.6z M126.8,545.4l233.4-116.1
	c2.6,2.9,6.5,4.3,10.3,3.7l23.6,55.7c-2.7,2.1-4.3,5.3-4.4,8.7L126.8,545.4z M391.8,554.2l-15.6-48.7l14.7-2.7
	c2.6,5.3,9,7.6,14.5,5.4c5.5-2.2,8.3-8.3,6.4-13.9c-0.3-0.9-0.7-1.7-1.2-2.5l23.7-25.9l0.6,63L391.8,554.2z M406.7,488
	c-2.3-1.3-5-1.7-7.6-1.3L375.6,431c3.2-2.3,4.9-6,4.5-9.9l126.6-42.8L406.7,488z M609.2,578.8l-6.9-31.1c3.5-1.7,5.9-5,6.3-8.8
	l36.4-5L609.2,578.8z M647.8,527.7l-40,5.5c-1.7-4.1-5.6-6.9-10.1-7l-12-54.7l48.4,7.7L647.8,527.7z M506.6,512.1l73.8-40.4l12,55.6
	c-2.3,1.1-4.2,3-5.3,5.3l-80-16.1C507.3,515,507.1,513.5,506.6,512.1z M596.5,427.7c1.2,0,2.3-0.2,3.5-0.5l1.6-0.7l29.3,46.4
	l-45.1-7.2L596.5,427.7z M524.1,448l62.9-26.1c1.1,1.8,2.6,3.3,4.5,4.3L580.3,466l-76.6,41.7c-0.9-0.9-2-1.6-3.2-2.2L524.1,448z
	 M545,586.5L502.1,525c1.3-0.8,2.4-1.9,3.2-3.2l80.8,15.8c0,1,0.2,1.9,0.4,2.9c1.5,4.5,5.7,7.7,10.5,7.8l7.4,33.9L545,586.5z"/>
</svg>
