<svg id="Calque_1" data-name="Calque 1" xmlns="http://www.w3.org/2000/svg" viewBox="0 0 1000 1000"><path d="M356.6,141.8l41.1,16a33.2,33.2,0,0,0,12.4,2.3,34.4,34.4,0,0,0,13.7-2.9l70-30.7a33.9,33.9,0,0,0,18.1-18.9l23.8-61a33.9,33.9,0,0,0-6.9-35.8,33.6,33.6,0,0,0-35.1-9.2A395.8,395.8,0,0,0,452,17.3,409.7,409.7,0,0,0,346.6,84.2a34.2,34.2,0,0,0,10,57.6Zm9.3-35.5a379.8,379.8,0,0,1,97.9-62.1,409.7,409.7,0,0,1,38.7-14.6l1.5-.3a4.7,4.7,0,0,1,3.3,1.5,4.6,4.6,0,0,1,1,5.1l-23.8,61a4.9,4.9,0,0,1-2.6,2.7l-70,30.7a5.2,5.2,0,0,1-3.7.1l-41.1-16a4.9,4.9,0,0,1-3-3.6,5.3,5.3,0,0,1,1.8-4.5Z"/><path d="M59.3,573h1.2a14.6,14.6,0,0,0,14.6-13.5A380.1,380.1,0,0,1,299.5,242.4a4.8,4.8,0,0,1,5.3,1l43.5,43.5a34,34,0,0,0,24.1,10h76.4a4.8,4.8,0,0,1,3.4,1.4l65,65a34,34,0,0,0,24.2,10h74.1a4.9,4.9,0,0,1,4.2,2.4l19.1,32a34.2,34.2,0,0,0,27,16.6l40.3,2.7a14.6,14.6,0,0,0,2-29.2L667.8,395a4.8,4.8,0,0,1-3.8-2.3l-19.1-32a34.2,34.2,0,0,0-29.3-16.6H541.5a4.8,4.8,0,0,1-3.4-1.4l-65-65a34,34,0,0,0-24.1-10H372.6a4.8,4.8,0,0,1-3.4-1.4l-43.5-43.5a34.4,34.4,0,0,0-38-7.1A409,409,0,0,0,45.9,557.2,14.6,14.6,0,0,0,59.3,573Z"/><path d="M829.4,424.1a34,34,0,0,0-28.9-20.2L772.3,402a14.6,14.6,0,1,0-2,29.2l28.2,1.9a4.8,4.8,0,0,1,4.1,2.8,381,381,0,0,1-57.4,399.8l-15.9-19.5h0a34.1,34.1,0,0,0-33.7-11.8l-43,9.3a34,34,0,0,0-26.8,30.4l-4.3,49.6a33.9,33.9,0,0,0,14.6,31A380.2,380.2,0,0,1,75.3,621.5a14.6,14.6,0,0,0-29.2,2.4A410,410,0,0,0,666.6,941l20.3,10.6a34.2,34.2,0,0,0,16,4A33.7,33.7,0,0,0,732.6,938l27.8-49.8a34,34,0,0,0,2.4-28,409.7,409.7,0,0,0,66.6-436.1Zm-94.7,450-27.8,49.8a4.8,4.8,0,0,1-6.5,1.9l-47.2-24.7a4.9,4.9,0,0,1-2.6-4.8l4.3-49.6a4.8,4.8,0,0,1,3.8-4.3l43-9.3h1a4.9,4.9,0,0,1,3.8,1.8l27.6,33.9A4.5,4.5,0,0,1,734.7,874.1Z"/><path d="M649.9,198.5a34,34,0,0,0,24.1,10h77a34,34,0,0,0,24.1-10l54.8-54.8a34.3,34.3,0,0,0,9.9-27,33.7,33.7,0,0,0-14-24.8,397.8,397.8,0,0,0-48.7-30,14.7,14.7,0,0,0-13.6,26,373.3,373.3,0,0,1,45.2,27.9,4.6,4.6,0,0,1,1.9,3.4,4.8,4.8,0,0,1-1.4,3.9l-54.8,54.8a4.8,4.8,0,0,1-3.4,1.4H674a4.8,4.8,0,0,1-3.4-1.4L613.7,121a4.8,4.8,0,0,1,0-6.8l57.7-57.7a4.7,4.7,0,0,1,4.5-1.3c10,2.4,20.3,5.3,30.5,8.7a14.6,14.6,0,0,0,9.2-27.8c-11-3.6-22-6.8-32.9-9.3a34.4,34.4,0,0,0-32,9.1L593,93.3a34,34,0,0,0,0,48.2Z"/><path d="M949.1,234.5a34.1,34.1,0,0,0-37-28.6l-74.2,7.3a34,34,0,0,0-30.4,28.9l-5,32.8a34.1,34.1,0,0,0,10.4,30l79.7,75a34,34,0,0,0,23.4,9.3,33,33,0,0,0,11.2-1.9,33.9,33.9,0,0,0,22.5-27,414.5,414.5,0,0,0-.6-125.8ZM920.6,355.7a4.4,4.4,0,0,1-3.1,3.7,4.8,4.8,0,0,1-5-1l-79.7-75a4.8,4.8,0,0,1-1.5-4.2l5-32.8a4.8,4.8,0,0,1,4.3-4.1l74.2-7.3h.5a4.8,4.8,0,0,1,4.8,4.1A376.8,376.8,0,0,1,920.6,355.7Z"/><path d="M526.3,223.6,537.2,258a34.3,34.3,0,0,0,32.5,23.9,33.1,33.1,0,0,0,10.3-1.6l7.6-2.4a33.7,33.7,0,0,0,20-16.8,34.1,34.1,0,0,0,2.3-26L599,200.6a34.3,34.3,0,0,0-42.8-22.3l-7.6,2.4a34.2,34.2,0,0,0-22.3,42.9Zm31.1-14.9,7.6-2.4a3.9,3.9,0,0,1,1.5-.2,4.7,4.7,0,0,1,4.6,3.4L582,243.9a5.2,5.2,0,0,1-.3,3.7,4.6,4.6,0,0,1-2.8,2.4h0l-7.6,2.4a5.2,5.2,0,0,1-3.7-.3,4.6,4.6,0,0,1-2.4-2.8l-10.9-34.4a4.8,4.8,0,0,1,3.1-6.2Z"/><path d="M277.9,570.5l3.5.2A34.1,34.1,0,0,0,310.1,555L334,518a34,34,0,0,0-2.5-40.5l-32-38.1a34.1,34.1,0,0,0-36.3-10.7l-50.8,15.8a34,34,0,0,0-22.7,41.9l15.5,54.9A33.9,33.9,0,0,0,234.6,566Zm-44.8-37-15.5-54.9a4.9,4.9,0,0,1,3.2-6l50.8-15.8,1.5-.2a4.8,4.8,0,0,1,3.7,1.7l32,38.1a5,5,0,0,1,.4,5.8l-23.9,37a5,5,0,0,1-4.6,2.2L237.2,537a4.9,4.9,0,0,1-4.1-3.5Z"/><path d="M282.3,795.6a34,34,0,0,0,32.5,24,35.1,35.1,0,0,0,9.5-1.3l54.9-15.5a33.9,33.9,0,0,0,24.7-29.4l4.4-43.5h0a34,34,0,0,0-15.5-32.2l-37-23.9a34,34,0,0,0-40.5,2.5l-38.1,32a34.1,34.1,0,0,0-10.7,36.3ZM296,730.9l38.1-32a4.5,4.5,0,0,1,3.1-1.1,5.6,5.6,0,0,1,2.7.8l37,23.9a5,5,0,0,1,2.2,4.6l-4.4,43.5a4.8,4.8,0,0,1-3.5,4.2l-54.9,15.5a4.9,4.9,0,0,1-6-3.2l-15.8-51a4.9,4.9,0,0,1,1.5-5.2Z"/><path d="M664.9,623.6l5.1-50.7a37.3,37.3,0,0,0-16.9-35.2L610,509.8a37.3,37.3,0,0,0-44.4,2.8l-44.5,37.3a37.3,37.3,0,0,0-11.7,39.8L527.9,649a37.2,37.2,0,0,0,35.6,26.3,41.9,41.9,0,0,0,10.4-1.4l64-18.1a37.1,37.1,0,0,0,27-32.2Zm-35,4-64,18.1a8.1,8.1,0,0,1-10-5.4L537.4,581a8,8,0,0,1,2.5-8.6l44.5-37.3a8,8,0,0,1,5.2-1.9,7.8,7.8,0,0,1,4.4,1.3l43.1,27.8a8.1,8.1,0,0,1,3.7,7.6h0l-5.1,50.7a7.8,7.8,0,0,1-5.8,7Z"/><path d="M576.8,734.9a14.6,14.6,0,1,0,0,29.2h20.8a14.6,14.6,0,1,0,0-29.2Z"/><path d="M441.4,809a14.6,14.6,0,0,0-14.6,14.6v20.8a14.6,14.6,0,0,0,29.2,0V823.6A14.6,14.6,0,0,0,441.4,809Z"/><path d="M388.4,413.7a14.6,14.6,0,0,0-14.6-14.6H353a14.6,14.6,0,1,0,0,29.2h20.8A14.6,14.6,0,0,0,388.4,413.7Z"/><path d="M282.6,357l14.7-14.7a14.6,14.6,0,0,0-20.7-20.7l-14.7,14.7a14.7,14.7,0,0,0,10.4,25A14.3,14.3,0,0,0,282.6,357Z"/><path d="M731.6,574.9a14.6,14.6,0,1,0,0,29.2h.2a14.6,14.6,0,0,0,0-29.2Z"/><path d="M345.8,566.7a14.6,14.6,0,0,0,0,29.2h.2a14.6,14.6,0,1,0,0-29.2Z"/><path d="M664.1,758.7h.2a14.6,14.6,0,0,0,0-29.2h-.2a14.6,14.6,0,0,0,0,29.2Z"/><path d="M202.9,675.6h-.2a14.6,14.6,0,0,0,0,29.2h.2a14.6,14.6,0,1,0,0-29.2Z"/><path d="M488.1,468.9a14.6,14.6,0,0,0,0,29.2h.2a14.6,14.6,0,0,0,0-29.2Z"/><path d="M162.6,657.4a14.6,14.6,0,1,0,0,29.2h.2a14.6,14.6,0,0,0,0-29.2Z"/></svg>