<svg id="Calque_1" data-name="Calque 1" xmlns="http://www.w3.org/2000/svg" viewBox="0 0 1000 1000"><path d="M709.9,50c160,.5,289.6,131.1,290.1,292.3h0v73l-.3,4.9A35.6,35.6,0,0,1,964.6,451h0l-.4-.9-5.6-.4a35.6,35.6,0,0,1-29.8-35.2h0V342.3C927.6,221,830.3,122.9,709.9,121.7H290.1C169.7,122.9,72.4,221,71.2,342.3h0V657.7C72.4,779,169.7,877.1,290.1,878.3H709.9c120.4-1.2,217.7-99.3,218.9-220.6a35.8,35.8,0,0,1,71.2,0C999.5,818.9,869.9,949.5,709.9,950H290.1C130,949.8.2,819,0,657.7H0V342.3C0,180.9,129.9,50,290.1,50H709.9ZM214.7,319.3a34.7,34.7,0,0,1,25.9,7.8h0L448.5,492.9a71.2,71.2,0,0,0,88.4,0h0L742.6,327.1h.4l4.4-3a35.6,35.6,0,0,1,45.6,8.4,35.7,35.7,0,0,1-5.7,50.3h0L581.6,549a142,142,0,0,1-179.1,0h0L196.4,382.8l-3.8-3.6a36.2,36.2,0,0,1-1.5-46.7A35.2,35.2,0,0,1,214.7,319.3Z"/></svg>