<svg id="Calque_1" data-name="Calque 1" xmlns="http://www.w3.org/2000/svg" viewBox="0 0 1000 1000"><path d="M627.7,911.4c-24.9,0-43-4.9-52-12.3-9-9.8-15.8-27-15.8-51.6,0-9.9,2.2-24.6,4.5-44.3a291.6,291.6,0,0,1,11.3-51.7l47.5-186.9c4.5-17.2,9-36.9,9-56.6a343,343,0,0,0,2.3-41.8c0-39.4-13.6-71.4-38.5-96s-61-36.9-108.4-36.9c-24.9,0-54.3,5-83.6,14.8s-58.8,22.1-90.4,36.9L300,441.6c9-4.9,20.3-7.4,33.9-12.3s27.1-7.4,38.4-7.4c24.9,0,43,4.9,52,14.8s13.6,27,13.6,49.2c0,12.3-2.3,27-4.6,44.2s-6.7,32-11.3,51.7l-47.4,187c-4.5,19.6-6.8,36.9-9.1,51.6s-2.2,32-2.2,46.8c0,39.3,13.5,71.3,38.4,95.9,27.1,24.6,63.3,36.9,110.7,36.9,31.7,0,56.5-4.9,81.4-12.3,22.6-9.8,54.2-22.1,92.6-39.4L700,891.8c-6.8,2.4-18.1,7.3-31.6,12.3-15.9,4.9-29.4,7.3-40.7,7.3ZM600,0c-27.5,0-51,13.9-70.6,38.9S500,97.2,500,133.3s9.8,66.7,29.4,94.5c19.6,25,43.1,38.9,70.6,38.9s51-13.9,70.6-38.9S700,169.4,700,133.3s-9.8-66.6-29.4-94.4C651,13.9,627.5,0,600,0Z"/></svg>