<svg id="Calque_1" data-name="Calque 1" xmlns="http://www.w3.org/2000/svg" viewBox="0 0 1000 1000"><g id="Home-page"><g id="Home-page-menu-réduit"><g id="Group-8"><path id="Fill-1" d="M641,967.1Q532.1,789.4,532.1,608.2q0-160.2,80.9-306.9T847.8,32.9l123.4,75.3c10.6,6.4,18.1,14.1,22.4,23.2s6.4,17.9,6.4,26.5a61.1,61.1,0,0,1-6.4,27.2,116.6,116.6,0,0,1-14.4,22.4c-13.9,16.1-28.6,34.7-44.1,56.1a525.6,525.6,0,0,0-42.5,69.7,456.2,456.2,0,0,0-32,82.6c-8.6,29.9-12.8,61.9-12.8,96.1q0,54.6,17.6,116.2t59.3,129c9.6,15,14.4,29.9,14.4,44.9q0,51.3-57.7,72.1Zm-532,0Q-.1,789.4,0,608.2,0,448,80.9,301.3T315.7,32.9l123.4,75.3c10.7,6.4,18.1,14.1,22.4,23.2a61.6,61.6,0,0,1,6.4,26.5,59.8,59.8,0,0,1-6.4,27.2,116.6,116.6,0,0,1-14.4,22.4c-13.9,16.1-28.6,34.7-44.1,56.1a525.2,525.2,0,0,0-42.4,69.7,456.3,456.3,0,0,0-32.1,82.6q-12.7,44.9-12.8,96.1,0,54.6,17.6,116.2t59.3,129c9.6,15,14.4,29.9,14.4,44.9q0,51.3-57.6,72.1Z" fill-rule="evenodd"/></g></g></g></svg>