<svg id="Calque_1" data-name="Calque 1" xmlns="http://www.w3.org/2000/svg" viewBox="0 0 1000 1000"><path d="M689.6,0c18.9,1.2,33.5,17.5,33,36.8h0V88.5C873,103.1,950,186.2,950,335.7h0V749.2c0,166.3-94.8,250.8-281.3,250.8H331.3C144.8,1000,50,915.5,50,749.2h0V335.7C50,236.2,83.9,165,153.5,123.4h0l4.9-2.7a33.9,33.9,0,0,1,31.7,1.4,35.7,35.7,0,0,1-3.6,63.3c-46.1,27.4-67.8,75.1-67.8,150.3h0V349H753a34.6,34.6,0,0,1,34.4,34.9c0,19.3-15.4,35-34.4,35H118.7V749.2c0,127,61.7,179.6,212.6,180.5H668.7c148.7,0,212.2-54,212.2-180.9h0V335.3c0-110.6-48.3-164.1-158.3-176.9h0V192a34.7,34.7,0,0,1-69.1-2.7h0V33.7l.6-5.6A35,35,0,0,1,664.6,9.2,34.6,34.6,0,0,1,689.6,0Zm19.8,709.8,5.5.4a43.6,43.6,0,0,1,25.3,12.5A44.7,44.7,0,0,1,753,754.1c0,24.4-19.4,44.2-43.4,44.2s-43.5-19.8-43.5-44.2,19.5-44.2,43.5-44.2Zm-208.5.1,5.4.3c21.5,2.7,38,21.4,38,43.9,0,24.4-19.4,44.2-43.4,44.2s-43.5-19.8-43.5-44.2,19.5-44.2,43.5-44.2Zm-208.5-.1,5.5.4a43.6,43.6,0,0,1,25.3,12.5,44.8,44.8,0,0,1,12.9,31.4c0,24.4-19.5,44.2-43.5,44.2s-43.5-19.8-43.5-44.2,19.5-44.2,43.5-44.2Zm417-179.1,5.5.4a43,43,0,0,1,25.3,12.5A44.7,44.7,0,0,1,753,575c0,24.4-19.4,44.2-43.4,44.2s-43.5-19.8-43.5-44.2,19.5-44.2,43.5-44.2Zm-208.5.1,5.4.3c21.5,2.7,38,21.3,38,43.9,0,24.4-19.4,44.2-43.4,44.2s-43.5-19.8-43.5-44.2,19.5-44.2,43.5-44.2Zm-208.5-.1,5.5.4a43,43,0,0,1,25.3,12.5A44.8,44.8,0,0,1,336.1,575c0,24.4-19.5,44.2-43.5,44.2s-43.5-19.8-43.5-44.2,19.5-44.2,43.5-44.2ZM312,5.3c17.7,0,32.5,13.6,34.5,31.5h0V85H543a34.9,34.9,0,0,1,0,69.8H345.7v35a34.9,34.9,0,0,1-10.3,24.8,33.8,33.8,0,0,1-24.5,10.1h0l-5.1-.5a34.9,34.9,0,0,1-28.4-34.9h0V36.8l1-5.3A34.9,34.9,0,0,1,312,5.3Z"/></svg>