<svg id="Calque_1" data-name="Calque 1" xmlns="http://www.w3.org/2000/svg" viewBox="0 0 1000 1000"><path d="M238,99.6A470.5,470.5,0,0,1,288.6,61a371.1,371.1,0,0,1,59.5-31.9A374.2,374.2,0,0,1,417.4,7.8Q454.8,0,498.3,0,557.4,0,606,16.3t83.3,46.4A206.7,206.7,0,0,1,743,135.5q19.1,42.8,19,95.5t-14.9,89.1q-15,37.6-37.8,65.4a297.4,297.4,0,0,1-49.2,48.1c-17.7,13.6-34.5,26.3-50.3,38.3a405.1,405.1,0,0,0-41.2,35.2q-17.2,17.3-20.7,39L532.3,645H417.4L405.9,534.6a27.4,27.4,0,0,1-.7-5.8V523q0-29.7,14.9-51.8a214.6,214.6,0,0,1,37.4-41.3q22.5-19.3,48.3-37.6A422.1,422.1,0,0,0,554,352.6a195.5,195.5,0,0,0,37.4-48.4q15-27.1,15-63.7c0-16.2-3.1-30.8-9.2-43.7a98.5,98.5,0,0,0-25.5-33.2,114.3,114.3,0,0,0-39.1-21.3,156.7,156.7,0,0,0-49.3-7.5q-38.7,0-65.5,8.5c-17.9,5.6-33.1,12-45.6,19s-23,13.3-31.6,18.9-16.3,8.5-23.1,8.5c-16.3,0-28.1-6.8-35.3-20.3ZM366.4,898.4a102.3,102.3,0,0,1,7.9-40A95.1,95.1,0,0,1,396,825.9a105.7,105.7,0,0,1,33-21.7,103.2,103.2,0,0,1,40.8-8.1,101.5,101.5,0,0,1,40.1,8.1,99.7,99.7,0,0,1,54.3,54.2,102.4,102.4,0,0,1,0,80.3,104.9,104.9,0,0,1-21.7,32.2,100.1,100.1,0,0,1-32.6,21.3,104.9,104.9,0,0,1-40.1,7.8,106.6,106.6,0,0,1-40.8-7.8,103,103,0,0,1-33-21.3,96.8,96.8,0,0,1-21.7-32.2,101.7,101.7,0,0,1-7.9-40.3Z" fill-rule="evenodd"/></svg>