<svg id="Calque_1" data-name="Calque 1" xmlns="http://www.w3.org/2000/svg" viewBox="0 0 1000 1000"><path d="M500,250c-138.1,0-250,111.9-250,250S361.9,750,500,750,750,638.1,750,500,638.1,250,500,250Zm0,406.2c-86.1,0-156.2-70.1-156.2-156.2S413.9,343.8,500,343.8s156.2,70,156.2,156.2S586.1,656.2,500,656.2Z"/><circle cx="770.8" cy="229.2" r="62.5"/><path d="M687.5,0h-375C139.9,0,0,139.9,0,312.5v375C0,860.1,139.9,1000,312.5,1000h375c172.6,0,312.5-139.9,312.5-312.5v-375C1000,139.9,860.1,0,687.5,0ZM906.2,687.5c0,120.6-98.1,218.7-218.7,218.7h-375c-120.6,0-218.7-98.1-218.7-218.7v-375c0-120.6,98.1-218.7,218.7-218.7h375c120.6,0,218.7,98.1,218.7,218.7Z"/></svg>