<svg id="Calque_1" data-name="Calque 1" xmlns="http://www.w3.org/2000/svg" viewBox="0 0 1000 1000"><rect x="12.7" y="336.2" width="214.3" height="632.58"/><path d="M753.2,321.3c-113.9,0-164.7,61.5-193.2,104.5v2.1h-1.4c.4-.7,1-1.4,1.4-2.1V336.2H345.6c2.9,59.3,0,632.5,0,632.5H560V615.4c0-18.9,1.4-37.7,7.1-51.2,15.5-37.8,50.7-76.9,109.9-76.9,77.7,0,108.6,58,108.6,143V968.8H1000V606C1000,411.7,894.3,321.3,753.2,321.3Z"/><path d="M121.3,31.2C48,31.2,0,78.5,0,140.5S46.6,249.9,118.5,249.9h1.4c74.8,0,121.3-48.6,121.3-109.4S194.7,31.2,121.3,31.2Z"/></svg>