<svg id="Calque_1" data-name="Calque 1" xmlns="http://www.w3.org/2000/svg" viewBox="0 0 1000 1000"><path d="M582,878.5a38.5,38.5,0,0,1,50-1,37.7,37.7,0,0,1,5.1,53.4A177.9,177.9,0,0,1,497.8,1000h0l-10.8-.5a177.5,177.5,0,0,1-128-68.6h0l-3.3-4.6a37.6,37.6,0,0,1,8.4-48.8,38.5,38.5,0,0,1,53.9,5,102,102,0,0,0,20.8,20.7,99.6,99.6,0,0,0,138.9-20.7h.4ZM498.3,0C651.7,0,823.9,108.2,843.4,282h0v90.6a187.8,187.8,0,0,0,44.3,88,24.7,24.7,0,0,1,3.6,4.9A202.9,202.9,0,0,1,925,568h0l-1.3,9.2a207,207,0,0,1-47.1,137.7,244.2,244.2,0,0,1-156.1,77,2030.6,2030.6,0,0,1-443.6,0,242,242,0,0,1-153.5-77A203.4,203.4,0,0,1,75.1,578.1h0v-6.2a210.3,210.3,0,0,1,36.3-105.1h0l3.6-4.4a191.6,191.6,0,0,0,44.3-88h0V283.8l2.5-5.1a38.2,38.2,0,0,1,70.7,13h0v90.6a20.1,20.1,0,0,1,0,4.9,263.2,263.2,0,0,1-61.2,122.3,125.9,125.9,0,0,0-19.5,62.4h0v9.7a128.4,128.4,0,0,0,29.3,85.8,166.2,166.2,0,0,0,103.8,49.3,2001.3,2001.3,0,0,0,429.4,0,166.4,166.4,0,0,0,106-51.5,127.5,127.5,0,0,0,28-83.1h0V571.9A132.5,132.5,0,0,0,829.2,509a262.8,262.8,0,0,1-64.8-122.3,19.3,19.3,0,0,1,0-4.8h0V290.8C751.6,157.9,618,75.7,501.8,75.7a287.8,287.8,0,0,0-141.1,36.5h0l-5.2,2.6a38.6,38.6,0,0,1-33.6-2.3,37.7,37.7,0,0,1,1.6-66.3A362.2,362.2,0,0,1,498.3,0Z"/></svg>