<svg id="Calque_1" data-name="Calque 1" xmlns="http://www.w3.org/2000/svg" viewBox="0 0 1000 1000"><path d="M577.1,722.4c-62,0-120.2-33.4-140.2-71.4,0,0-33.3,132.2-40.3,157.7-24.9,90.2-98,180.4-103.6,187.8-4,5.1-12.8,3.5-13.7-3.3-1.6-11.5-20.2-125.3,1.7-218.1l73.9-312.6s-18.4-36.6-18.4-90.8c0-85.1,49.4-148.5,110.8-148.5,52.1,0,77.3,39.1,77.3,86.1,0,52.4-33.4,130.9-50.6,203.6-14.4,60.9,30.4,110.5,90.5,110.5,108.7,0,181.9-139.6,181.9-305.1,0-125.7-84.7-219.9-238.7-219.9-174.1,0-282.5,129.9-282.5,274.9,0,50,14.7,85.2,37.8,112.4,10.6,12.6,12.1,17.7,8.3,32.1-2.8,10.5-9,36-11.7,46-3.8,14.6-15.6,19.7-28.8,14.4-80.2-32.7-117.5-120.5-117.5-219.3C113.3,196,250.7.5,523.4.5,742.5.5,886.7,159.1,886.7,329.3,886.7,554.3,761.5,722.4,577.1,722.4Z"/></svg>