<svg id="Calque_1" data-name="Calque 1" xmlns="http://www.w3.org/2000/svg" viewBox="0 0 1000 1000"><path d="M987.8,930.3l-171.9-168h0l-4-6.1a40.4,40.4,0,0,0-56.9,0h0c-146,134-371.1,141.3-525.9,17S37.8,431.7,143.8,265.5,465.4,35.8,647.6,117.1,922.2,399.2,863.4,586.4a39,39,0,0,0,9,38.6,41.6,41.6,0,0,0,38.8,11.6,40.5,40.5,0,0,0,29.6-27h0c70.3-222.2-35.9-461.2-250-562.5S219,12.5,84.5,204.3-21.2,655.1,152.4,814s440.1,169.8,626.8,25.7L931.4,988.5a40.9,40.9,0,0,0,56.8,0,39.2,39.2,0,0,0,0-56h0Z"/></svg>