<svg id="Calque_1" data-name="Calque 1" xmlns="http://www.w3.org/2000/svg" viewBox="0 0 1000 1000"><path d="M981.4,734.7C850.3,713.1,762.8,563.1,777,529.8c9.8-23.2,52-31.4,70.3-38.6,33.8-13.4,50.7-29.8,50.4-48.8-.5-24.3-29.7-38.8-51.3-38.8s-53.3,26-78.8,11.9c4-70.6,13.8-170.2-11.1-226C709.3,83.8,604.4,30.3,499.5,30.3S291.1,83,243.5,189.7c-24.9,55.8-15.1,155.9-11.1,225.9-26.9,14.9-61.5-11.3-81.1-11.3s-44.6,13.4-48.5,33.4c-2.7,14.3,3.7,35.3,49.9,53.5,17.9,7.1,60.4,15.4,70.3,38.6,13.8,32.6-71.1,183-204.4,204.9A20.8,20.8,0,0,0,1.3,756.3c2.3,40.5,93.2,56.4,133.5,62.6,4.1,5.6,7.4,29.1,12.7,47.1,2.3,8,8.4,17.6,24.2,17.6,20.4,0,54.5-15.8,113.8-6S398.2,969.7,503,969.7c97.5,0,155.6-82.8,211.6-92.1,32.4-5.4,60.2-3.7,91.3,2.4,21.4,4.2,40.6,6.5,46.7-14.5,5.3-18.2,8.6-41.2,12.6-46.7,39.9-6.2,131.2-22,133.5-62.5A20.7,20.7,0,0,0,981.4,734.7Z"/></svg>