<svg id="Calque_1" data-name="Calque 1" xmlns="http://www.w3.org/2000/svg" viewBox="0 0 1000 1000"><path d="M582.1,0V391.8A1167.9,1167.9,0,0,1,575.9,514q-6.1,60-16.5,127.1H444.7Q434.4,573.9,428.2,514A1195.8,1195.8,0,0,1,422,391.8V0ZM395.9,897.3a104.8,104.8,0,0,1,7.9-40.5,97.1,97.1,0,0,1,22-32.8,105.9,105.9,0,0,1,33.3-21.9,103.5,103.5,0,0,1,41.2-8.3A106.1,106.1,0,0,1,573.9,824a105,105,0,0,1,22,32.8,101.5,101.5,0,0,1,8.2,40.5,100,100,0,0,1-8.2,40.7,104.8,104.8,0,0,1-22,32.5,98.5,98.5,0,0,1-33,21.6,105.3,105.3,0,0,1-40.6,7.9,106.8,106.8,0,0,1-41.2-7.9,101.8,101.8,0,0,1-33.3-21.6,96.8,96.8,0,0,1-22-32.5,103.3,103.3,0,0,1-7.9-40.7Z" fill-rule="evenodd"/></svg>