<svg xmlns="http://www.w3.org/2000/svg" viewBox="0 0 439.25 273.42"><defs><style>.cls-1{fill:#1d1d1b;}</style></defs><g id="Calque_2" data-name="Calque 2"><g id="Calque_1-2" data-name="Calque 1"><path class="cls-1" d="M255.71,144.47l-.17-.39h4.81l-.15.39a14.26,14.26,0,0,0-.43,3.85v7.73h2a15,15,0,0,0,3.93-.41l.5-.17-.37,3.8H255.54l.17-.39a13.66,13.66,0,0,0,.46-3.82v-6.74c0-.5,0-1.23-.09-2a7.91,7.91,0,0,0-.37-1.86"/><path class="cls-1" d="M293.09,155.64l.47-.17-.37,3.8H281.08l.17-.39a13.7,13.7,0,0,0,.45-3.82v-6.74a13.87,13.87,0,0,0-.45-3.85l-.17-.38h11.53l.37,3.82-.5-.2a14.72,14.72,0,0,0-3.93-.43h-3.24v2.79h2.16a14.6,14.6,0,0,0,3.89-.41l.45-.18v4.41l-.45-.17a14.16,14.16,0,0,0-3.89-.43h-2.16v2.76h3.85a19.72,19.72,0,0,0,3.09-.22,3.27,3.27,0,0,0,.84-.19"/><path class="cls-1" d="M315.43,155c0-.37-.32-.71-.95-1s-1.53-.71-2.46-1.12c-1.8-.8-3.76-2-3.76-4.4,0-3.16,2.81-4.5,5.79-4.5a11.51,11.51,0,0,1,3.73.59l.2.06v3.69l-.48-.25a7.92,7.92,0,0,0-3.45-.89c-.61,0-2.18.19-2.18,1,0,.36.32.73,1,1.1,1.92,1.08,6.22,2,6.22,6,0,2.91-3.05,4.19-5.73,4.19a11.75,11.75,0,0,1-4.44-.95l-.16-.09v-4.17l.52.44a7,7,0,0,0,4,1.55,3.57,3.57,0,0,0,1.47-.28,1,1,0,0,0,.67-.93"/><path class="cls-1" d="M251.25,220.19a4.49,4.49,0,0,1-3,4.45c.49.76,1.06,1.71,1.73,2.65a13.76,13.76,0,0,0,2.22,2.68l.61.5h-5.92l0-.28a7,7,0,0,0-1-2.68c-.54-.93-1.17-1.86-1.53-2.44h-.39v1.19a13.74,13.74,0,0,0,.43,3.82l.15.39h-4.82l.18-.39a14,14,0,0,0,.45-3.82v-6.74a14.18,14.18,0,0,0-.45-3.84l-.18-.39h6.12a5.81,5.81,0,0,1,3.95,1.32,4.68,4.68,0,0,1,1.49,3.58m-5.42-1.71h-1.9v3.37h1.9a1.62,1.62,0,0,0,1.81-1.66,1.64,1.64,0,0,0-1.81-1.71"/><path class="cls-1" d="M277.46,222.74a3.69,3.69,0,0,1,1.7,3.28c0,2.94-2.13,4.45-5.18,4.45h-6.67l.17-.39a13.66,13.66,0,0,0,.45-3.82v-6.74a13.92,13.92,0,0,0-.45-3.85l-.17-.38h6.58c3.09,0,5,1.4,5,4.32a3.84,3.84,0,0,1-1.4,3.13m-5.92-1.47h1.73c1.21,0,2-.35,2-1.38s-.78-1.41-2-1.41h-1.73Zm0,3.22v2.76h2c1.21,0,2-.32,2-1.38s-.78-1.38-2-1.38Z"/><path class="cls-1" d="M298.35,230.47h-5.14l.33-.45a16.69,16.69,0,0,0,1.6-3.85l2-6.74a13.87,13.87,0,0,0,.71-3.82l-.05-.32H304l0,.3a13.83,13.83,0,0,0,.71,3.84l2,6.74a15.75,15.75,0,0,0,1.58,3.85l.34.45h-5.16l.06-.32a13,13,0,0,0-.38-3h-4.43a11.57,11.57,0,0,0-.37,3Zm3.89-6.48c-.43-1.66-.84-3.33-1.34-5-.49,1.66-.9,3.33-1.36,5Z"/><path class="cls-1" d="M323.7,226.26v-6.74a14.18,14.18,0,0,0-.45-3.84l-.18-.39h4.82l-.15.39a13.8,13.8,0,0,0-.43,3.84v6.74a13.74,13.74,0,0,0,.43,3.82l.15.39h-4.82l.18-.39a7.11,7.11,0,0,0,.36-1.88c.07-.71.09-1.45.09-1.94"/><path class="cls-1" d="M357.75,230.08l.17.39H352.5L347,220.9v5.36a13.74,13.74,0,0,0,.44,3.82l.15.39H342.8l.17-.39a13.66,13.66,0,0,0,.46-3.82v-6.74a13.92,13.92,0,0,0-.46-3.85l-.17-.38h5.44l5.49,9.57v-5.34a14.31,14.31,0,0,0-.43-3.85l-.18-.38h4.8l-.17.38a13.83,13.83,0,0,0-.41,3.85v6.74a17.61,17.61,0,0,0,.08,1.94,7.27,7.27,0,0,0,.33,1.88"/><path class="cls-1" d="M384.84,226.84l.48-.17-.37,3.8H372.84l.17-.39a14,14,0,0,0,.45-3.82v-6.74a14.18,14.18,0,0,0-.45-3.84l-.17-.39h11.53l.37,3.82-.5-.19a14.36,14.36,0,0,0-3.93-.44h-3.24v2.79h2.16a14.6,14.6,0,0,0,3.89-.41l.45-.17v4.4l-.45-.17a14.2,14.2,0,0,0-3.89-.43h-2.16v2.76h3.84A20.72,20.72,0,0,0,384,227a3.46,3.46,0,0,0,.84-.2"/><path class="cls-1" d="M407.19,226.19c0-.36-.33-.71-.95-1s-1.54-.72-2.47-1.13c-1.79-.8-3.75-2-3.75-4.4,0-3.15,2.8-4.49,5.78-4.49a11.56,11.56,0,0,1,3.74.58l.2.06v3.7l-.48-.26a7.93,7.93,0,0,0-3.46-.89c-.6,0-2.18.2-2.18,1,0,.37.33.73,1,1.1,1.92,1.08,6.21,2,6.21,6,0,2.92-3,4.19-5.72,4.19a11.85,11.85,0,0,1-4.45-1l-.15-.08v-4.17l.52.43a7,7,0,0,0,4,1.55,3.42,3.42,0,0,0,1.47-.28,1,1,0,0,0,.67-.93"/><path class="cls-1" d="M201.28,207c-13.5,0-18.87-8.72-18.86-19.68,0-10.54,6.52-19.62,19.31-19.61a25.49,25.49,0,0,1,7,1,4.08,4.08,0,0,0,1.51.22,3.69,3.69,0,0,0,1.34-.16l1.08-.43v12.85l-1.4-1.51a13.71,13.71,0,0,0-9.56-4c-7.1,0-9.95,5.58-10,11.6,0,6.62,2.84,11.67,10.26,11.68a17.88,17.88,0,0,0,11.08-4.08l1.4-1.29V204l-.38.16a20.9,20.9,0,0,1-3,1.23,32.71,32.71,0,0,1-9.89,1.55"/><path class="cls-1" d="M231.05,206.23H218.26l.81-1.13c1.61-2.21,3.12-6.83,4-9.57l5-16.77c.7-2.31,2.05-7.36,1.78-9.51l-.11-.81h15.33l-.11.75a35,35,0,0,0,1.77,9.57l5,16.78c.86,2.74,2.25,7.31,3.92,9.57l.86,1.13H243.69l.16-.8a31.58,31.58,0,0,0-1-7.37h-11c-.44,2.15-1.19,5.64-.92,7.37Zm9.69-16.12c-1.07-4.14-2.09-8.28-3.32-12.42-1.24,4.14-2.27,8.28-3.4,12.42Z"/><path class="cls-1" d="M285.57,187a9.23,9.23,0,0,1,4.25,8.18c0,7.31-5.34,11.07-12.92,11.07l-16.61,0,.43-1c.86-2.14,1.14-7,1.14-9.51V179c0-2.47-.26-7.42-1.12-9.57l-.43-1h16.4c7.68,0,12.36,3.5,12.35,10.76a9.48,9.48,0,0,1-3.5,7.79m-14.73,4.35v6.88h5.05c3,0,4.95-.8,4.95-3.43s-1.94-3.45-4.95-3.45Zm0-8h4.3c3,0,4.94-.86,4.94-3.44s-1.93-3.49-4.94-3.49h-4.3Z"/><path class="cls-1" d="M305.29,206.28h-12.8l.81-1.13c1.61-2.21,3.12-6.83,4-9.57l5-16.77c.7-2.31,2-7.36,1.79-9.51l-.11-.81h15.32l-.11.75a35,35,0,0,0,1.77,9.57l5,16.78c.86,2.74,2.25,7.31,3.92,9.57l.86,1.13H317.92l.16-.8a31.58,31.58,0,0,0-1-7.37h-11c-.43,2.15-1.19,5.65-.92,7.37ZM315,190.16c-1.07-4.14-2.09-8.28-3.32-12.42-1.24,4.14-2.26,8.28-3.4,12.42Z"/><path class="cls-1" d="M371.73,205.36l.43,1H358.67l-13.59-23.83v13.34c0,2.42.21,7.36,1.07,9.51l.37,1h-12l.43-1c.86-2.15,1.13-7.05,1.13-9.52V179.05c0-2.47-.26-7.42-1.12-9.57l-.43-1H348.1l13.64,23.83V179.07c0-2.48-.21-7.42-1.07-9.57l-.43-1h11.94l-.43,1c-.87,2.1-1,7.1-1,9.57l0,16.78a39.67,39.67,0,0,0,.22,4.83,18.39,18.39,0,0,0,.8,4.68"/><path class="cls-1" d="M406.89,197.32l1.18-.43-.92,9.46H377l.43-1c.86-2.15,1.14-7.05,1.14-9.52V179.08c0-2.48-.26-7.42-1.12-9.57l-.43-1,28.7,0,.91,9.52-1.23-.49c-2.21-.86-7.21-1.08-9.79-1.08h-8.06v6.94h5.37c2.47,0,7.53-.15,9.68-1l1.12-.43v11l-1.13-.43c-2.2-.86-7.15-1.08-9.68-1.08h-5.37v6.88h9.57a51,51,0,0,0,7.69-.54,8.17,8.17,0,0,0,2.1-.48"/><path class="cls-1" d="M430.22,195.73c0-.92-.81-1.78-2.37-2.59s-3.81-1.77-6.12-2.8c-4.46-2-9.36-5-9.35-11,0-7.85,7-11.18,14.41-11.17a28.45,28.45,0,0,1,9.3,1.46l.49.16V179l-1.18-.65a20,20,0,0,0-8.6-2.21c-1.51,0-5.43.48-5.43,2.58,0,.92.8,1.83,2.42,2.75,4.78,2.69,15.47,5,15.47,14.84,0,7.26-7.59,10.43-14.26,10.42a29.29,29.29,0,0,1-11.07-2.37l-.37-.21V193.78l1.29,1.07a17.36,17.36,0,0,0,10.05,3.88,8.76,8.76,0,0,0,3.66-.69,2.54,2.54,0,0,0,1.67-2.31"/><path class="cls-1" d="M224.17,224.64c0,3.52-2.28,6.13-6.35,6.13s-6.34-2.59-6.34-6.13v-5.12a13.8,13.8,0,0,0-.46-3.84l-.17-.39h4.81l-.17.39a13.52,13.52,0,0,0-.41,3.84v5.12c0,1.79.76,2.91,2.74,2.91s2.75-1.16,2.75-2.91v-5.12a13.17,13.17,0,0,0-.41-3.84l-.18-.39h4.8l-.17.39a13.17,13.17,0,0,0-.44,3.84Z"/><path class="cls-1" d="M153.08,33.33h.16a1,1,0,0,0,1-.83L155.39,25a1,1,0,1,0-1.94-.31l-1.18,7.47a1,1,0,0,0,.81,1.13"/><path class="cls-1" d="M184.23,43.45a1,1,0,0,0,1.32-.43L189,36.28a1,1,0,1,0-1.75-.89l-3.43,6.74a1,1,0,0,0,.43,1.32"/><path class="cls-1" d="M211.42,63a1,1,0,0,0,.69-.28l5.35-5.35A1,1,0,0,0,216.07,56l-5.35,5.35a1,1,0,0,0,0,1.39,1,1,0,0,0,.7.28"/><path class="cls-1" d="M237.14,84.43l-6.74,3.44a1,1,0,0,0-.43,1.32,1,1,0,0,0,1.32.43L238,86.18a1,1,0,1,0-.89-1.75"/><path class="cls-1" d="M248.38,118l-7.48,1.18a1,1,0,0,0,.16,2h.15l7.47-1.18a1,1,0,1,0-.3-1.94"/><path class="cls-1" d="M153.08,240.09a1,1,0,0,0-.81,1.12l1.18,7.47a1,1,0,0,0,1,.83h.15a1,1,0,0,0,.82-1.12l-1.18-7.48a1,1,0,0,0-1.13-.81"/><path class="cls-1" d="M120.34,240.09a1,1,0,0,0-1.13.81L118,248.38a1,1,0,0,0,.81,1.12H119a1,1,0,0,0,1-.83l1.18-7.47a1,1,0,0,0-.81-1.12"/><path class="cls-1" d="M89.19,230a1,1,0,0,0-1.32.43l-3.44,6.74a1,1,0,0,0,.43,1.32,1.06,1.06,0,0,0,.45.11,1,1,0,0,0,.88-.54l3.43-6.74a1,1,0,0,0-.43-1.32"/><path class="cls-1" d="M61.31,210.72,56,216.07a1,1,0,0,0,.69,1.68,1,1,0,0,0,.7-.29l5.35-5.35a1,1,0,0,0-1.39-1.39"/><path class="cls-1" d="M43.45,184.23a1,1,0,0,0-1.32-.43l-6.74,3.43a1,1,0,0,0,.44,1.86.91.91,0,0,0,.45-.11L43,185.55a1,1,0,0,0,.43-1.32"/><path class="cls-1" d="M32.21,152.26l-7.48,1.19a1,1,0,0,0,.16,2H25l7.47-1.18a1,1,0,0,0-.3-2"/><path class="cls-1" d="M23.92,118.84a1,1,0,0,0,.81,1.13l7.47,1.18h.16a1,1,0,0,0,.15-2L25,118a1,1,0,0,0-1.12.81"/><path class="cls-1" d="M35.39,86.19l6.74,3.43A1,1,0,0,0,43,87.87l-6.74-3.44a1,1,0,0,0-.89,1.76"/><path class="cls-1" d="M61.31,62.7A1,1,0,0,0,62,63a1,1,0,0,0,.7-1.67L57.35,56A1,1,0,0,0,56,57.35Z"/><path class="cls-1" d="M87.87,43a1,1,0,0,0,.88.53,1,1,0,0,0,.44-.1,1,1,0,0,0,.43-1.32l-3.43-6.74a1,1,0,0,0-1.76.89Z"/><path class="cls-1" d="M120.18,33.34h.16a1,1,0,0,0,.81-1.13L120,24.73a1,1,0,0,0-1.13-.82A1,1,0,0,0,118,25l1.18,7.47a1,1,0,0,0,1,.83"/><path class="cls-1" d="M136.71,6a1,1,0,0,0,1-1V1.27a1,1,0,1,0-2,0V5.05a1,1,0,0,0,1,1"/><path class="cls-1" d="M136.71,23.52a1,1,0,0,0,1-1V16.71a1,1,0,1,0-2,0v5.83a1,1,0,0,0,1,1"/><path class="cls-1" d="M177.09,12.43a1,1,0,0,0,.3.05,1,1,0,0,0,.94-.68l1.17-3.6a1,1,0,0,0-1.87-.61l-1.17,3.6a1,1,0,0,0,.63,1.24"/><path class="cls-1" d="M171.69,29.06a1,1,0,0,0,.3.05,1,1,0,0,0,.94-.68l1.8-5.55a1,1,0,0,0-1.87-.6l-1.8,5.54a1,1,0,0,0,.63,1.24"/><path class="cls-1" d="M214.1,31.18a1,1,0,0,0,.79-.41l2.23-3.06a1,1,0,0,0-1.59-1.16l-2.23,3.06a1,1,0,0,0,.22,1.38,1,1,0,0,0,.58.19"/><path class="cls-1" d="M203.82,45.32a1,1,0,0,0,.79-.4L208,40.2a1,1,0,1,0-1.59-1.15L203,43.76a1,1,0,0,0,.22,1.38,1,1,0,0,0,.58.18"/><path class="cls-1" d="M243.23,60.3a1,1,0,0,0,.57-.18l3.06-2.23a1,1,0,1,0-1.15-1.59l-3.06,2.22a1,1,0,0,0,.58,1.78"/><path class="cls-1" d="M229.08,70.58a1,1,0,0,0,.57-.18L234.37,67a1,1,0,1,0-1.16-1.59L228.5,68.8a1,1,0,0,0,.58,1.78"/><path class="cls-1" d="M266.46,94.55a1,1,0,0,0-1.24-.63l-3.6,1.17a1,1,0,0,0-.63,1.24,1,1,0,0,0,.94.68,1,1,0,0,0,.3-.05l3.6-1.17a1,1,0,0,0,.63-1.24"/><path class="cls-1" d="M250.53,98.69l-5.54,1.8a1,1,0,0,0,.3,1.92,1.18,1.18,0,0,0,.31,0l5.54-1.8a1,1,0,0,0,.63-1.24,1,1,0,0,0-1.24-.63"/><path class="cls-1" d="M178.33,261.62a1,1,0,0,0-1.24-.63,1,1,0,0,0-.63,1.24l1.17,3.6a1,1,0,0,0,.93.68,1.12,1.12,0,0,0,.31-.05,1,1,0,0,0,.63-1.24Z"/><path class="cls-1" d="M172.92,245a1,1,0,0,0-1.23-.63,1,1,0,0,0-.64,1.23l1.81,5.55a1,1,0,0,0,.93.68,1.18,1.18,0,0,0,.31,0,1,1,0,0,0,.63-1.24Z"/><path class="cls-1" d="M136.71,267.38a1,1,0,0,0-1,1v3.78a1,1,0,1,0,2,0v-3.78a1,1,0,0,0-1-1"/><path class="cls-1" d="M136.71,249.9a1,1,0,0,0-1,1v5.83a1,1,0,1,0,2,0v-5.83a1,1,0,0,0-1-1"/><path class="cls-1" d="M96.33,261a1,1,0,0,0-1.24.63l-1.17,3.6a1,1,0,0,0,.63,1.24,1.11,1.11,0,0,0,.3.05,1,1,0,0,0,.94-.68l1.17-3.6a1,1,0,0,0-.63-1.24"/><path class="cls-1" d="M101.73,244.36a1,1,0,0,0-1.24.63l-1.8,5.54a1,1,0,0,0,.63,1.24,1.12,1.12,0,0,0,.31,0,1,1,0,0,0,.93-.68l1.8-5.54a1,1,0,0,0-.63-1.24"/><path class="cls-1" d="M58.53,242.65l-2.23,3.06a1,1,0,0,0,.22,1.37,1,1,0,0,0,1.37-.22l2.23-3.06a1,1,0,0,0-1.59-1.15"/><path class="cls-1" d="M68.81,228.5l-3.43,4.71A1,1,0,0,0,67,234.37l3.43-4.72a1,1,0,0,0-1.59-1.15"/><path class="cls-1" d="M29.62,213.3l-3.06,2.22a1,1,0,0,0,.57,1.78,1,1,0,0,0,.58-.19l3.06-2.22a1,1,0,1,0-1.15-1.59"/><path class="cls-1" d="M43.76,203l-4.71,3.43a1,1,0,0,0-.22,1.37,1,1,0,0,0,.8.41.93.93,0,0,0,.57-.19l4.72-3.43a1,1,0,0,0,.22-1.37,1,1,0,0,0-1.38-.22"/><path class="cls-1" d="M11.19,176.46l-3.6,1.17A1,1,0,0,0,7,178.87a1,1,0,0,0,.94.68,1,1,0,0,0,.3-.05l3.6-1.17a1,1,0,1,0-.61-1.87"/><path class="cls-1" d="M29.06,171.69a1,1,0,0,0-1.24-.64l-5.54,1.8a1,1,0,0,0-.63,1.24,1,1,0,0,0,.93.68.87.87,0,0,0,.31-.05l5.54-1.8a1,1,0,0,0,.63-1.23"/><path class="cls-1" d="M5.05,135.73H1.27a1,1,0,1,0,0,2H5.05a1,1,0,1,0,0-2"/><path class="cls-1" d="M23.52,136.71a1,1,0,0,0-1-1H16.71a1,1,0,1,0,0,2h5.83a1,1,0,0,0,1-1"/><path class="cls-1" d="M7.59,95.79,11.19,97a1,1,0,0,0,.3.05,1,1,0,0,0,.94-.68,1,1,0,0,0-.63-1.24L8.2,93.92a1,1,0,0,0-.61,1.87"/><path class="cls-1" d="M22.28,100.56l5.54,1.8a1.06,1.06,0,0,0,.31,0,1,1,0,0,0,.3-1.92l-5.55-1.8a1,1,0,0,0-.6,1.87"/><path class="cls-1" d="M29.62,60.12a1,1,0,0,0,1.15-1.6L27.71,56.3a1,1,0,0,0-1.15,1.59Z"/><path class="cls-1" d="M43.76,70.4a1,1,0,0,0,.58.18,1,1,0,0,0,.58-1.78L40.2,65.38A1,1,0,0,0,39.05,67Z"/><path class="cls-1" d="M58.53,30.77A1,1,0,0,0,59.9,31a1,1,0,0,0,.22-1.37l-2.23-3.06a1,1,0,1,0-1.59,1.15Z"/><path class="cls-1" d="M68.81,44.92a1,1,0,0,0,.79.4,1,1,0,0,0,.58-.18,1,1,0,0,0,.22-1.38L67,39.05a1,1,0,1,0-1.59,1.15Z"/><path class="cls-1" d="M95.09,11.8a1,1,0,0,0,.93.68,1.12,1.12,0,0,0,.31-.05A1,1,0,0,0,97,11.19l-1.17-3.6a1,1,0,0,0-1.87.61Z"/><path class="cls-1" d="M100.49,28.43a1,1,0,0,0,.94.68,1,1,0,0,0,.3-.05,1,1,0,0,0,.63-1.24l-1.8-5.54a1,1,0,0,0-1.87.6Z"/><path class="cls-1" d="M219.9,215.78a12.16,12.16,0,0,1,.38,3.74v5.12c0,1.77-.8,2.63-2.46,2.63s-2.45-.84-2.45-2.63v-5.12a12.13,12.13,0,0,1,.38-3.73l.35-.79h-5.69l.35.78a14.13,14.13,0,0,1,.43,3.74v5.12c0,3.9,2.6,6.42,6.63,6.42s6.64-2.52,6.64-6.42v-5.12a13.61,13.61,0,0,1,.41-3.73l.35-.79h-5.67Z"/><path class="cls-1" d="M153,33.61h.2a1.26,1.26,0,0,0,1.25-1.06l1.18-7.48a1.27,1.27,0,0,0-1-1.45,1.28,1.28,0,0,0-1.45,1.06L152,32.16A1.28,1.28,0,0,0,153,33.61Zm.69-8.83a.69.69,0,0,1,.69-.59h.11a.69.69,0,0,1,.58.8l-1.18,7.47a.7.7,0,0,1-.8.58h0a.71.71,0,0,1-.59-.8Z"/><path class="cls-1" d="M184.1,43.7a1.26,1.26,0,0,0,1.7-.55l3.44-6.74a1.28,1.28,0,0,0-.56-1.71,1.25,1.25,0,0,0-1-.07,1.23,1.23,0,0,0-.73.63L183.55,42a1.19,1.19,0,0,0-.08,1A1.22,1.22,0,0,0,184.1,43.7Zm0-1.45,3.44-6.74a.65.65,0,0,1,.4-.34.57.57,0,0,1,.22,0,.72.72,0,0,1,.32.08.7.7,0,0,1,.3.94l-3.43,6.74a.72.72,0,0,1-.94.31h0a.71.71,0,0,1-.35-.41A.72.72,0,0,1,184.05,42.25Z"/><path class="cls-1" d="M211.42,63.27a1.26,1.26,0,0,0,.89-.37l5.35-5.35a1.26,1.26,0,0,0,.37-.9,1.24,1.24,0,0,0-.37-.89,1.26,1.26,0,0,0-1.79,0l-5.35,5.35a1.27,1.27,0,0,0,.9,2.16Zm-.5-1.76,5.35-5.35a.71.71,0,0,1,1.2.49.73.73,0,0,1-.21.5l-5.35,5.35a.73.73,0,0,1-1,0A.71.71,0,0,1,210.92,61.51Z"/><path class="cls-1" d="M238,84.1a1.3,1.3,0,0,0-1,.08l-6.74,3.43a1.28,1.28,0,0,0-.55,1.71,1.25,1.25,0,0,0,1.13.69,1.23,1.23,0,0,0,.57-.14l6.74-3.43A1.27,1.27,0,0,0,238,84.1Zm-.08,1.83-6.74,3.44a.72.72,0,0,1-.94-.31.7.7,0,0,1,.31-.94l6.74-3.43h0a.61.61,0,0,1,.32-.08.76.76,0,0,1,.21,0,.71.71,0,0,1,.41.35A.7.7,0,0,1,237.9,85.93Z"/><path class="cls-1" d="M248.33,117.75l-7.47,1.18a1.27,1.27,0,0,0,.2,2.52l.2,0,7.47-1.18a1.25,1.25,0,0,0,.83-.51,1.3,1.3,0,0,0,.22-.94A1.26,1.26,0,0,0,248.33,117.75Zm.77,1.66a.72.72,0,0,1-.46.28l-7.47,1.18a.7.7,0,1,1-.22-1.38l7.47-1.18a.71.71,0,0,1,.8.58A.69.69,0,0,1,249.1,119.41Z"/><path class="cls-1" d="M153,239.81h0a1.27,1.27,0,0,0-1,1.45l1.18,7.47a1.26,1.26,0,0,0,1.25,1.07l.2,0a1.27,1.27,0,0,0,1-1.45l-1.18-7.47A1.28,1.28,0,0,0,153,239.81Zm1.5,9.41a.7.7,0,0,1-.81-.58l-1.18-7.47a.7.7,0,0,1,.58-.8.69.69,0,0,1,.8.58l1.18,7.47A.7.7,0,0,1,154.54,249.22Z"/><path class="cls-1" d="M120.38,239.81h0a1.27,1.27,0,0,0-1.45,1.05l-1.18,7.47a1.27,1.27,0,0,0,1.06,1.45l.19,0a1.27,1.27,0,0,0,1.25-1.07l1.18-7.47a1.24,1.24,0,0,0-.22-.95A1.27,1.27,0,0,0,120.38,239.81Zm-.69,8.83a.71.71,0,0,1-.69.59h-.11a.7.7,0,0,1-.58-.8l1.18-7.47a.7.7,0,0,1,.69-.59h.11a.7.7,0,0,1,.46.28.68.68,0,0,1,.12.52Z"/><path class="cls-1" d="M89.32,229.71a1.26,1.26,0,0,0-1-.07,1.23,1.23,0,0,0-.73.63L84.18,237a1.26,1.26,0,0,0,.55,1.7,1.3,1.3,0,0,0,.58.14,1.28,1.28,0,0,0,1.13-.69l3.43-6.74A1.28,1.28,0,0,0,89.32,229.71Zm.05,1.45-3.44,6.74a.71.71,0,0,1-.94.31.7.7,0,0,1-.3-.94l3.43-6.74a.71.71,0,0,1,.41-.35.52.52,0,0,1,.21,0,.72.72,0,0,1,.32.08A.7.7,0,0,1,89.37,231.16Z"/><path class="cls-1" d="M62,210.15h0a1.24,1.24,0,0,0-.89.37l-5.35,5.35a1.24,1.24,0,0,0-.37.89,1.27,1.27,0,0,0,2.16.9l5.35-5.35a1.27,1.27,0,0,0-.9-2.16Zm.5,1.76-5.35,5.35a.73.73,0,0,1-1,0,.69.69,0,0,1,0-1l5.35-5.35h0a.71.71,0,0,1,.49-.21h0a.73.73,0,0,1,.5.21.71.71,0,0,1,0,1Z"/><path class="cls-1" d="M43.7,184.1a1.22,1.22,0,0,0-.74-.63,1.23,1.23,0,0,0-1,.07L35.26,187a1.22,1.22,0,0,0-.63.74,1.23,1.23,0,0,0,.07,1,1.26,1.26,0,0,0,1.13.69,1.29,1.29,0,0,0,.58-.13l6.74-3.44A1.26,1.26,0,0,0,43.7,184.1Zm-.81,1.2-6.74,3.43a.7.7,0,0,1-.94-.31.65.65,0,0,1,0-.53.66.66,0,0,1,.35-.4l6.74-3.44a.68.68,0,0,1,.31-.08.54.54,0,0,1,.22,0,.68.68,0,0,1,.41.35A.7.7,0,0,1,42.89,185.3Z"/><path class="cls-1" d="M32.16,152l-7.47,1.19a1.27,1.27,0,0,0-1.05,1.45,1.25,1.25,0,0,0,1.25,1.07l.2,0,7.47-1.18a1.27,1.27,0,0,0,1-1.45A1.28,1.28,0,0,0,32.16,152Zm.31,2L25,155.11a.69.69,0,0,1-.79-.58.7.7,0,0,1,.58-.8l7.47-1.19a.7.7,0,0,1,.22,1.39Z"/><path class="cls-1" d="M23.64,118.8h0a1.27,1.27,0,0,0,1.05,1.45l7.47,1.18.2,0a1.26,1.26,0,0,0,1-2,1.2,1.2,0,0,0-.82-.51l-7.48-1.18A1.26,1.26,0,0,0,23.64,118.8Zm9.29,1a.69.69,0,0,1,.12.52.72.72,0,0,1-.8.58l-7.47-1.18a.7.7,0,0,1,.22-1.38l7.47,1.18A.72.72,0,0,1,32.93,119.77Z"/><path class="cls-1" d="M35.26,86.44,42,89.87a1.23,1.23,0,0,0,.57.14,1.27,1.27,0,0,0,1.21-1.66,1.26,1.26,0,0,0-.63-.73l-6.74-3.44a1.27,1.27,0,0,0-1.15,2.26Zm0-1.45a.68.68,0,0,1,.41-.35.7.7,0,0,1,.53,0l6.74,3.43a.71.71,0,0,1,.35.41.7.7,0,0,1,0,.53.71.71,0,0,1-.94.31l-6.74-3.44h0A.7.7,0,0,1,35.21,85Z"/><path class="cls-1" d="M61.11,62.9a1.27,1.27,0,0,0,2.16-.9,1.22,1.22,0,0,0-.37-.89l-5.35-5.35a1.27,1.27,0,0,0-.9-.38,1.28,1.28,0,0,0-1.26,1.27,1.26,1.26,0,0,0,.37.9Z"/><path class="cls-1" d="M87.62,43.15a1.26,1.26,0,0,0,1.13.69,1.23,1.23,0,0,0,.57-.14A1.25,1.25,0,0,0,90,43a1.24,1.24,0,0,0-.08-1l-3.43-6.74a1.27,1.27,0,0,0-1.13-.7,1.3,1.3,0,0,0-.58.14,1.28,1.28,0,0,0-.55,1.71Z"/><path class="cls-1" d="M120.18,33.62h.2a1.25,1.25,0,0,0,.83-.51,1.21,1.21,0,0,0,.22-.94l-1.18-7.47a1.28,1.28,0,0,0-1.45-1.06,1.27,1.27,0,0,0-1,1.45l1.18,7.48A1.26,1.26,0,0,0,120.18,33.62Zm-1.29-9.42h.1a.71.71,0,0,1,.7.59l1.18,7.47a.69.69,0,0,1-.12.52.7.7,0,0,1-1.26-.3L118.31,25A.69.69,0,0,1,118.89,24.2Z"/><path class="cls-1" d="M136.71,6.31A1.26,1.26,0,0,0,138,5.05V1.27a1.27,1.27,0,0,0-2.54,0V5.05A1.26,1.26,0,0,0,136.71,6.31Zm-.7-5a.7.7,0,0,1,1.4,0V5.05a.7.7,0,0,1-1.4,0Z"/><path class="cls-1" d="M136.71,23.8A1.26,1.26,0,0,0,138,22.54V16.71a1.27,1.27,0,0,0-2.54,0v5.83A1.26,1.26,0,0,0,136.71,23.8Zm-.7-7.09a.7.7,0,0,1,1.4,0v5.83a.7.7,0,0,1-1.4,0Z"/><path class="cls-1" d="M177,12.7a1.32,1.32,0,0,0,.39.06,1.27,1.27,0,0,0,1.21-.88l1.17-3.59a1.27,1.27,0,0,0-2.41-.79l-1.17,3.6a1.26,1.26,0,0,0,.07,1A1.31,1.31,0,0,0,177,12.7Zm-.27-1.42,1.17-3.6a.7.7,0,0,1,.67-.49.78.78,0,0,1,.21,0,.7.7,0,0,1,.45.88l-1.17,3.6a.73.73,0,0,1-.88.45h0a.68.68,0,0,1-.41-.35A.7.7,0,0,1,176.73,11.28Z"/><path class="cls-1" d="M171.6,29.33a1.23,1.23,0,0,0,.39.06,1.28,1.28,0,0,0,1.21-.87L175,23a1.26,1.26,0,0,0-.82-1.59,1.25,1.25,0,0,0-1.59.81l-1.8,5.54a1.26,1.26,0,0,0,.07,1A1.28,1.28,0,0,0,171.6,29.33Zm-.28-1.42,1.8-5.54a.71.71,0,0,1,.35-.41.72.72,0,0,1,.32-.08.57.57,0,0,1,.22,0,.7.7,0,0,1,.45.88l-1.8,5.54a.71.71,0,0,1-.88.45h0a.72.72,0,0,1-.45-.88Z"/><path class="cls-1" d="M214.1,31.46a1.25,1.25,0,0,0,1-.52l2.23-3.06a1.27,1.27,0,0,0-2-1.49l-2.23,3.06a1.21,1.21,0,0,0-.22.94,1.25,1.25,0,0,0,.5.83A1.26,1.26,0,0,0,214.1,31.46Zm-.57-1.68,2.22-3.06a.72.72,0,0,1,.57-.29.7.7,0,0,1,.41.14.71.71,0,0,1,.16,1l-2.23,3.05a.7.7,0,0,1-1,.16.63.63,0,0,1-.28-.46A.69.69,0,0,1,213.53,29.78Z"/><path class="cls-1" d="M203.82,45.61a1.25,1.25,0,0,0,1-.52l3.43-4.72a1.26,1.26,0,0,0,.23-.94,1.3,1.3,0,0,0-.51-.83,1.26,1.26,0,0,0-.94-.23,1.3,1.3,0,0,0-.83.51l-3.43,4.72a1.27,1.27,0,0,0,.28,1.77A1.34,1.34,0,0,0,203.82,45.61Zm-.57-1.68,3.43-4.72a.7.7,0,0,1,.45-.28h.11a.73.73,0,0,1,.42.14.7.7,0,0,1,.28.46.76.76,0,0,1-.13.52l-3.43,4.71a.7.7,0,1,1-1.13-.82Z"/><path class="cls-1" d="M243.23,60.59a1.33,1.33,0,0,0,.74-.24L247,58.12a1.27,1.27,0,0,0,.28-1.77,1.25,1.25,0,0,0-.83-.5,1.21,1.21,0,0,0-.94.22l-3.06,2.22a1.29,1.29,0,0,0-.28,1.78A1.27,1.27,0,0,0,243.23,60.59Zm-.42-1.84,3.06-2.22a.69.69,0,0,1,.41-.13h.12a.63.63,0,0,1,.45.28.69.69,0,0,1-.15,1l-3.06,2.23a.72.72,0,0,1-1-.16A.7.7,0,0,1,242.81,58.75Z"/><path class="cls-1" d="M229.08,70.87a1.24,1.24,0,0,0,.74-.25l4.72-3.42a1.27,1.27,0,0,0,.28-1.77,1.26,1.26,0,0,0-1.77-.28l-4.72,3.42a1.33,1.33,0,0,0-.51.83,1.28,1.28,0,0,0,1.26,1.47ZM228.67,69l4.71-3.42a.7.7,0,0,1,.41-.14h.11a.7.7,0,0,1,.3,1.26l-4.71,3.43a.71.71,0,0,1-1-.16.69.69,0,0,1,.16-1Z"/><path class="cls-1" d="M266.73,94.46h0a1.28,1.28,0,0,0-1.6-.81l-3.6,1.17a1.27,1.27,0,0,0,.4,2.47,1.32,1.32,0,0,0,.39-.06l3.6-1.17A1.28,1.28,0,0,0,266.73,94.46Zm-1,1.06-3.6,1.17a.7.7,0,0,1-.88-.45.7.7,0,0,1,.45-.88l3.59-1.17.22,0a.7.7,0,0,1,.22,1.36Z"/><path class="cls-1" d="M250.45,98.42l-5.55,1.8a1.27,1.27,0,0,0,.39,2.47,1.32,1.32,0,0,0,.39-.06l5.55-1.8a1.23,1.23,0,0,0,.73-.63,1.21,1.21,0,0,0,.08-1A1.27,1.27,0,0,0,250.45,98.42Zm1,1.53a.7.7,0,0,1-.41.34l-5.54,1.8a.68.68,0,0,1-.88-.45.7.7,0,0,1,.45-.88l5.54-1.8a.7.7,0,0,1,.88.45A.72.72,0,0,1,251.46,100Z"/><path class="cls-1" d="M178.6,261.53a1.27,1.27,0,0,0-1.21-.87,1.32,1.32,0,0,0-.39.06,1.23,1.23,0,0,0-.73.63,1.19,1.19,0,0,0-.08,1l1.17,3.6a1.25,1.25,0,0,0,1.2.88,1.27,1.27,0,0,0,.39-.06,1.25,1.25,0,0,0,.74-.63,1.31,1.31,0,0,0,.08-1Z"/><path class="cls-1" d="M173.19,244.9A1.27,1.27,0,0,0,172,244a1.28,1.28,0,0,0-.39.07,1.26,1.26,0,0,0-.74.62,1.31,1.31,0,0,0-.08,1l1.81,5.55a1.26,1.26,0,0,0,1.2.87,1.32,1.32,0,0,0,.39-.06,1.28,1.28,0,0,0,.82-1.6Z"/><path class="cls-1" d="M136.71,267.1a1.27,1.27,0,0,0-1.27,1.27v3.78a1.27,1.27,0,0,0,2.54,0v-3.78A1.27,1.27,0,0,0,136.71,267.1Zm.7,5a.7.7,0,1,1-1.4,0v-3.78a.7.7,0,1,1,1.4,0Z"/><path class="cls-1" d="M136.71,249.61a1.27,1.27,0,0,0-1.27,1.27v5.83a1.27,1.27,0,0,0,2.54,0v-5.83A1.27,1.27,0,0,0,136.71,249.61Zm.7,7.1a.7.7,0,1,1-1.4,0v-5.83a.7.7,0,0,1,1.4,0Z"/><path class="cls-1" d="M96.41,260.72a1.26,1.26,0,0,0-1.59.81l-1.17,3.6a1.28,1.28,0,0,0,.81,1.6,1.37,1.37,0,0,0,.39.06,1.27,1.27,0,0,0,1.21-.88l1.17-3.6a1.24,1.24,0,0,0-.08-1A1.22,1.22,0,0,0,96.41,260.72Zm.28,1.42-1.17,3.6a.69.69,0,0,1-.88.45.75.75,0,0,1-.41-.35.7.7,0,0,1,0-.53l1.17-3.6a.69.69,0,0,1,.66-.49.85.85,0,0,1,.22,0h0a.71.71,0,0,1,.41.35A.69.69,0,0,1,96.69,262.14Z"/><path class="cls-1" d="M101.82,244.09a1.27,1.27,0,0,0-1.6.81l-1.8,5.54a1.26,1.26,0,0,0,.08,1,1.23,1.23,0,0,0,.73.63,1.34,1.34,0,0,0,.4.06,1.26,1.26,0,0,0,1.2-.87l1.8-5.55a1.25,1.25,0,0,0-.81-1.59Zm.27,1.42-1.8,5.54a.69.69,0,0,1-.88.45.71.71,0,0,1-.41-.35.69.69,0,0,1,0-.53l1.8-5.54a.71.71,0,0,1,.67-.49.76.76,0,0,1,.21,0,.71.71,0,0,1,.41.35A.68.68,0,0,1,102.09,245.51Z"/><path class="cls-1" d="M59.12,242a1.26,1.26,0,0,0-.82.51l-2.23,3.06a1.26,1.26,0,0,0,1,2,1.27,1.27,0,0,0,1-.52L60.35,244a1.24,1.24,0,0,0,.22-.95,1.25,1.25,0,0,0-.5-.82A1.3,1.3,0,0,0,59.12,242Zm.77,1.66-2.23,3.06a.69.69,0,0,1-1.25-.3.69.69,0,0,1,.12-.52l2.22-3.06h0a.7.7,0,0,1,.46-.28h.11a.68.68,0,0,1,.41.14.7.7,0,0,1,.28.45A.68.68,0,0,1,59.89,243.63Z"/><path class="cls-1" d="M69.4,227.82a1.28,1.28,0,0,0-.82.51l-3.43,4.72a1.25,1.25,0,0,0-.23.94,1.33,1.33,0,0,0,.51.83,1.27,1.27,0,0,0,1.77-.28l3.43-4.72a1.3,1.3,0,0,0,.22-.94,1.23,1.23,0,0,0-.51-.83A1.25,1.25,0,0,0,69.4,227.82Zm.77,1.67-3.43,4.71a.72.72,0,0,1-1,.16.7.7,0,0,1-.15-1L69,228.66h0a.72.72,0,0,1,.46-.28h.11a.67.67,0,0,1,.41.13.71.71,0,0,1,.16,1Z"/><path class="cls-1" d="M30.39,212.84a1.26,1.26,0,0,0-.94.23l-3.06,2.22a1.27,1.27,0,0,0-.51.83,1.27,1.27,0,0,0,2,1.22l3.06-2.22a1.27,1.27,0,0,0,.28-1.77A1.3,1.3,0,0,0,30.39,212.84Zm.22,1.82-3.07,2.23a.72.72,0,0,1-1-.16.69.69,0,0,1-.13-.52.72.72,0,0,1,.28-.46l3.06-2.22h0a.7.7,0,0,1,.41-.14h.11a.7.7,0,0,1,.31,1.26Z"/><path class="cls-1" d="M44.54,202.56a1.26,1.26,0,0,0-.94.23l-4.72,3.43a1.25,1.25,0,0,0-.5.82,1.24,1.24,0,0,0,.22,1,1.29,1.29,0,0,0,1,.52,1.21,1.21,0,0,0,.74-.24l4.72-3.43a1.27,1.27,0,0,0,.28-1.77A1.3,1.3,0,0,0,44.54,202.56Zm.21,1.82L40,207.81a.69.69,0,0,1-1.1-.68.63.63,0,0,1,.28-.45l4.71-3.43h0a.69.69,0,0,1,.41-.13h.11a.7.7,0,0,1,.3,1.26Z"/><path class="cls-1" d="M11.1,176.19l-3.59,1.17a1.19,1.19,0,0,0-.74.63,1.24,1.24,0,0,0-.08,1,1.26,1.26,0,0,0,1.21.88,1.32,1.32,0,0,0,.39-.06l3.59-1.17a1.27,1.27,0,1,0-.78-2.41Zm.61,1.87-3.6,1.17a.71.71,0,0,1-.88-.45.72.72,0,0,1,0-.54.69.69,0,0,1,.41-.34l3.6-1.17a.7.7,0,1,1,.43,1.33Z"/><path class="cls-1" d="M29.33,171.6h0a1.27,1.27,0,0,0-1.6-.82l-5.54,1.8a1.27,1.27,0,0,0-.81,1.6,1.25,1.25,0,0,0,1.2.88A1,1,0,0,0,23,175l5.55-1.8A1.26,1.26,0,0,0,29.33,171.6Zm-6.53,2.86a.74.74,0,0,1-.89-.45.72.72,0,0,1,.46-.89l5.54-1.8.21,0a.7.7,0,0,1,.67.48.69.69,0,0,1-.45.88Z"/><path class="cls-1" d="M5.05,135.44H1.27a1.27,1.27,0,1,0,0,2.54H5.05a1.27,1.27,0,0,0,0-2.54Zm0,2H1.27a.7.7,0,1,1,0-1.4H5.05a.7.7,0,0,1,0,1.4Z"/><path class="cls-1" d="M23.8,136.71a1.26,1.26,0,0,0-1.26-1.27H16.71a1.27,1.27,0,1,0,0,2.53h5.83A1.25,1.25,0,0,0,23.8,136.71Zm-7.79,0a.7.7,0,0,1,.7-.7h5.83a.7.7,0,1,1,0,1.4H16.71A.7.7,0,0,1,16,136.71Z"/><path class="cls-1" d="M7.5,96.06l3.6,1.17a1.32,1.32,0,0,0,.39.06,1.26,1.26,0,0,0,.39-2.47L8.29,93.65a1.27,1.27,0,0,0-.79,2.41Zm-.27-1.42a.7.7,0,0,1,.88-.45l3.6,1.17a.7.7,0,0,1,.45.88.7.7,0,0,1-.88.45l-3.6-1.17A.7.7,0,0,1,7.23,94.64Z"/><path class="cls-1" d="M22.19,100.83l5.55,1.8a1.32,1.32,0,0,0,.39.06,1.27,1.27,0,0,0,.39-2.47L23,98.42a1.28,1.28,0,0,0-1.59.81,1.25,1.25,0,0,0,.07,1A1.28,1.28,0,0,0,22.19,100.83Zm-.27-1.42a.7.7,0,0,1,.66-.48.83.83,0,0,1,.22,0l5.54,1.8a.71.71,0,0,1,.41.35.7.7,0,0,1-.84,1l-5.54-1.8a.68.68,0,0,1-.41-.35A.65.65,0,0,1,21.92,99.41Z"/><path class="cls-1" d="M29.45,60.34a1.24,1.24,0,0,0,.74.25,1.27,1.27,0,0,0,.75-2.3l-3.06-2.22a1.26,1.26,0,0,0-.75-.24,1.29,1.29,0,0,0-1,.52,1.26,1.26,0,0,0-.23.94,1.23,1.23,0,0,0,.51.83Z"/><path class="cls-1" d="M43.6,70.62a1.24,1.24,0,0,0,.74.25,1.27,1.27,0,0,0,.75-2.3l-4.72-3.42a1.23,1.23,0,0,0-.74-.24,1.27,1.27,0,0,0-1,.52,1.21,1.21,0,0,0-.22.94,1.25,1.25,0,0,0,.5.83Z"/><path class="cls-1" d="M58.3,30.94a1.25,1.25,0,0,0,1,.52,1.27,1.27,0,0,0,1-2l-2.23-3.06a1.25,1.25,0,0,0-1-.52,1.26,1.26,0,0,0-.75.24,1.25,1.25,0,0,0-.5.83,1.27,1.27,0,0,0,.22.94Z"/><path class="cls-1" d="M68.58,45.08a1.24,1.24,0,0,0,1,.53,1.28,1.28,0,0,0,.74-.24,1.25,1.25,0,0,0,.51-.83,1.3,1.3,0,0,0-.22-.94L67.2,38.88a1.27,1.27,0,0,0-1.77-.28,1.3,1.3,0,0,0-.51.83,1.26,1.26,0,0,0,.23.94Z"/><path class="cls-1" d="M94.82,11.88a1.25,1.25,0,0,0,1.2.88,1.39,1.39,0,0,0,.4-.06,1.28,1.28,0,0,0,.81-1.6L96.06,7.5a1.27,1.27,0,0,0-1.21-.87,1.32,1.32,0,0,0-.39.06,1.23,1.23,0,0,0-.73.63,1.26,1.26,0,0,0-.08,1Z"/><path class="cls-1" d="M100.22,28.52a1.27,1.27,0,0,0,1.21.87,1.26,1.26,0,0,0,1.13-.69,1.25,1.25,0,0,0,.07-1l-1.8-5.54a1.27,1.27,0,0,0-1.21-.88,1,1,0,0,0-.38.07,1.21,1.21,0,0,0-.74.62,1.26,1.26,0,0,0-.08,1Z"/><path class="cls-1" d="M205.26,64.12a100.54,100.54,0,1,0-31.75,167.1.8.8,0,0,0,.49-.58.83.83,0,0,0-.24-.72l-20-18.34-3.8-35a.77.77,0,0,0-.1-.29l-6.65-12.07a.75.75,0,0,0-.5-.38l-24.58-6-4.61-11.49,6.52-1.2,1.76,7.51a.78.78,0,0,0,.71.6l16.72.93a.79.79,0,0,0,.78-.82l-.59-11.79,1.48-.27,2,13.24a.71.71,0,0,0,.09.28l11.51,20,6.58,28.42a.78.78,0,0,0,.31.46l16.62,12a.8.8,0,0,0,.45.14.76.76,0,0,0,.63-.32.79.79,0,0,0,.14-.58.75.75,0,0,0-.31-.5l-16.39-11.87L156,174.5a1.19,1.19,0,0,0-.08-.22l-11.51-20.06-2-13.15,1.29-.24,3,9.39a.78.78,0,0,0,.47.5.84.84,0,0,0,.27,0,.71.71,0,0,0,.4-.11l8.58-5.13a.78.78,0,0,0,.38-.67l-.12-12.74,1.71-1.89L161.25,148l-11.51,7.83a.78.78,0,0,0-.24,1l7.9,14.41a.79.79,0,0,0,.68.41.85.85,0,0,0,.35-.08l15.77-7.83a.74.74,0,0,0,.42-.55l1.26-6.85,4.72-.35-3.75,10.54-16.18,11.28a.79.79,0,0,0-.23,1l11.35,18.95a.74.74,0,0,0,.49.36l15.37,3.55.34-1.52-15-3.47-10.8-18.05,15.79-11a.76.76,0,0,0,.29-.37l4.07-11.42,4.58-.34a.78.78,0,0,0,.55-.3l7.89-10.05a.83.83,0,0,0,.14-.7l-2.72-9.71a.72.72,0,0,0-.09-.2l-5.87-9.44a2.28,2.28,0,0,0,.24-1.88,2.31,2.31,0,0,0-2.22-1.63,2.45,2.45,0,0,0-.71.11,2.29,2.29,0,0,0-1.59,2.09L171,128.71a.8.8,0,0,0-.42.43l-4.38,10.77a1.55,1.55,0,0,0-.35.05,2.34,2.34,0,0,0-1.52,2.94,2.3,2.3,0,0,0,2.22,1.59h0l7.83,11.34-1.23,6.74-14.75,7.32-7.21-13.14L162.53,149a.78.78,0,0,0,.33-.77l-3.12-19.53,9.61-10.63a2.37,2.37,0,0,0,.9.18,2.33,2.33,0,0,0,.7-.11,2.31,2.31,0,0,0,1.37-1.15,2.34,2.34,0,0,0-2.76-3.31l-13-17.61a2.3,2.3,0,0,0,.12-1.69,2.33,2.33,0,0,0-1.77-1.58l-7-41.06a2.31,2.31,0,0,0,.92-1.11,2.36,2.36,0,0,0-1.36-3,2.35,2.35,0,0,0-3,1.36,2.31,2.31,0,0,0-.14.74L107,60.86a2.2,2.2,0,0,0-1-.82,2.39,2.39,0,0,0-.83-.15,2.35,2.35,0,0,0-2.19,1.51,2.31,2.31,0,0,0,.69,2.57L96.7,82.25h0a2.28,2.28,0,0,0-2.19,3.07L83.38,94.23a2.35,2.35,0,0,0-1.14-.31,1.84,1.84,0,0,0-.33,0,2.34,2.34,0,0,0-2,2.65A2.27,2.27,0,0,0,81,98.21l-2.69,20.66a2.34,2.34,0,0,0,.37,4.65h0L94.32,147a2.19,2.19,0,0,0-.2,1.07,2.34,2.34,0,0,0,2.33,2.16h.17a2.27,2.27,0,0,0,1.7-1L112,146.67l4.88,12.16a.76.76,0,0,0,.54.46l24.63,6,6.42,11.63L152.25,212a.8.8,0,0,0,.25.48l19.28,17.7a98.87,98.87,0,1,1,63.68-100.55l-20.87,33.07a.78.78,0,0,0,1.32.83l21-33.29a.88.88,0,0,0,.12-.48A100.14,100.14,0,0,0,205.26,64.12Zm-18,88.9-1.07-5a2.32,2.32,0,0,0,1.07-1.48l5.68-.79Zm6.49-8.93L187,145a2.32,2.32,0,0,0-1.75-1.23l-2-9.41,8.17,1.33Zm-10,.06a2.27,2.27,0,0,0-.78.76l-14.06-2.77a2,2,0,0,0,0-.43l12.83-7.09ZM185,126.31a1.76,1.76,0,0,0,.49-.07l.09,0,4.84,7.79-7.23-1.18Zm-17.25,13.9L171.9,130l11-4.65a2.34,2.34,0,0,0,.56.57l-1.95,7L168,140.39Zm.31,3.72a2.2,2.2,0,0,0,.3-.31l14.28,2.82a1.68,1.68,0,0,0,.06.37,2.35,2.35,0,0,0,1.93,1.59l1.23,5.69-10.26.76Zm-44.88,7.85-1.61-6.87,16.31-3,.53,10.71Zm24.7-3-2.62-8.26,2.2-.4a2.31,2.31,0,0,0,1.95,1.09,2,2,0,0,0,.69-.11,2.27,2.27,0,0,0,1.37-1.15,2.3,2.3,0,0,0,.15-1.78,1.19,1.19,0,0,0-.15-.32l3.67-4.07.1,10.61Zm2.47-12a2.17,2.17,0,0,0-.92-.19h-.19l-4.11-9.83a2.29,2.29,0,0,0,.73-1.68l21.78-7.44Zm4.18-39.34a1.83,1.83,0,0,0,.62-.1,1.2,1.2,0,0,0,.28-.13l12.9,17.45a2.31,2.31,0,0,0-.39,1.25l-22.58,7.71a1.88,1.88,0,0,0-.34-.35l9.17-25.86Zm-28.24,19,26.23-19-8.95,25.26h0a2.38,2.38,0,0,0-.7.11,2.24,2.24,0,0,0-1,.68l-15.47-6.34a1.36,1.36,0,0,0,0-.29A1.79,1.79,0,0,0,126.3,116.42Zm6.89-23.76a2.21,2.21,0,0,0-.38.43l-33.66-8.7,25.28-10.15a2.05,2.05,0,0,0,1.64.79h.16Zm-5.25-17.54L152.1,94.26l-15.2-.57a2.24,2.24,0,0,0-1.37-1.49,2,2,0,0,0-.74-.13h-.16Zm4.46,19.47a2.29,2.29,0,0,0,.68,1.44l-8.79,18.74a1.73,1.73,0,0,0-.36,0h0a2.48,2.48,0,0,0-.64.15l-24.42-29Zm2.09,2.09h.24a2.3,2.3,0,0,0,2.15-1.44l15.28.57-26.11,18.86ZM145.83,52a1.92,1.92,0,0,0,.55.11l7,40.93-.15.08L128.36,73.47a2.27,2.27,0,0,0-.18-1.85Zm-38.4,10.31,36.91-11L127.05,70.55l-.07,0a2.28,2.28,0,0,0-.81-.15,2.33,2.33,0,0,0-1.63.67L107.4,62.5Zm-2.36,2.18h.06a2.33,2.33,0,0,0,1.59-.63l17.15,8.54a1.45,1.45,0,0,0,0,.36L98.38,83a2.28,2.28,0,0,0-.22-.22Zm-9.62,22a2,2,0,0,0,.38.22,2.42,2.42,0,0,0,1.65,0l23.59,28L84.56,96.64a2.49,2.49,0,0,0,0-.72,1.87,1.87,0,0,0-.16-.52Zm26.32,30.28c0,.06,0,.11,0,.17l-16.5,5.09a2.33,2.33,0,0,0-2.24-1.74h-.18a2.21,2.21,0,0,0-1,.34L84.74,98.46ZM82.56,98.57h0a.65.65,0,0,0,.21-.06l18,23.39a2.44,2.44,0,0,0-.15.72L81,121.43a2,2,0,0,0,0-.43,2.3,2.3,0,0,0-1.17-1.82Zm13.93,47-.19,0h0a2,2,0,0,0-.86.26L80.23,122.94l21.08,1.28a2.32,2.32,0,0,0,.64.51Zm1.55.19,5.47-20.8a2.34,2.34,0,0,0,1.53-1.16l16.65-5.14Zm25.19-26.5a2.36,2.36,0,0,0,.87.19h.15a2.22,2.22,0,0,0,1.54-.78L141.26,125a1.76,1.76,0,0,0,0,.39L99.64,146.27ZM101.66,147,142,126.75a2.26,2.26,0,0,0,1.59.62h.14l4.13,9.85a2.26,2.26,0,0,0-.71,1.42Z"/><path class="cls-1" d="M80.11,122.65l21.34,1.29a1.93,1.93,0,0,0,.84.63L96.7,145.85a1.92,1.92,0,0,0-.41,0,2,2,0,0,0-1,.36l-15.49-23.3a1.39,1.39,0,0,0,.27-.21m2.2-24.37a2,2,0,0,0,.25,0,2.42,2.42,0,0,0,.35-.12l18.23,23.69a1.92,1.92,0,0,0-.18,1,.45.45,0,0,0,0,.11l-20.31-1.24a2.09,2.09,0,0,0,.09-.67,2.05,2.05,0,0,0-1.2-1.68Zm62.6-47.38.1.14L127.1,70.92a2.53,2.53,0,0,0-.22-.13,2,2,0,0,0-2.27.6l-17.53-8.74a1.82,1.82,0,0,0,.08-.52Zm10.63,93.68-7.81,4.66-2.82-8.91,2.71-.5a2,2,0,0,0,2.4,1,2,2,0,0,0,1.34-2.58,1.82,1.82,0,0,0-.24-.43l4.3-4.76Zm-16.82,8.34L123,152.05l-1.73-7.37,16.92-3.11ZM142,126.4a2.05,2.05,0,0,0,1.86.66l4.29,10.23a2,2,0,0,0-.78,1.58l-47.62,8.76Zm-38.72-1.73a2,2,0,0,0,1.55-1.15l17.49-5.4.08.1L97.85,146.38a1.92,1.92,0,0,0-.22-.18Zm18.81-8a2,2,0,0,0-.07.54l-17,5.24a2.05,2.05,0,0,0-2.18-1.81,2,2,0,0,0-1.07.45l-18-23.4Zm46.14-.52-23,7.85a2.14,2.14,0,0,0-.57-.59L154,97.1a1.91,1.91,0,0,0,1.06,0,1.7,1.7,0,0,0,.44-.24l13.18,17.84a2,2,0,0,0-.45,1.44M98.43,85.52l34.24,8.85a2,2,0,0,0,.75,1.59l-9,19.13a1.88,1.88,0,0,0-.53-.07,2.09,2.09,0,0,0-.75.21L98.3,85.73a2.39,2.39,0,0,0,.13-.21m35.9,10.84a2,2,0,0,0,2.3-1.25s0-.1,0-.15l15.81.59a1.5,1.5,0,0,0,0,.2s0,.08.07.13L125.4,115.5l0,0ZM143,123.11a2,2,0,0,0-1,.76l-15.88-6.52a2,2,0,0,0,.05-.44,2,2,0,0,0-.17-.59L153.1,96.71,143.77,123a2.14,2.14,0,0,0-.82.09m-15.57-48.8,25.21,20c0,.08-.05.18-.08.27L136.68,94a2,2,0,0,0-1.24-1.5,1.88,1.88,0,0,0-1-.09l-7.12-18,0,0m-2,.32a2,2,0,0,0,1,.09l7.12,18a2,2,0,0,0-.59.67L98.7,84.57a2.58,2.58,0,0,0,0-.29L124.52,73.9a2.09,2.09,0,0,0,.9.73M98.48,147.17l24.68-28.3a2,2,0,0,0,1.07.25,2.06,2.06,0,0,0,1.48-.84l15.85,6.5a1.81,1.81,0,0,0,0,.73Zm51.94-10a2.08,2.08,0,0,0-1.35-.23l-4.28-10.22a2,2,0,0,0,.79-1.79l23-7.84v0Zm-4.65-85.46s.08.06.13.08a2,2,0,0,0,.72.12l7.07,41.36a2.22,2.22,0,0,0-.48.27L128,73.55s.06-.07.07-.11a2,2,0,0,0-.24-1.85ZM106.65,63.55l17.53,8.73a2.08,2.08,0,0,0,0,.7L98.29,83.36a2.05,2.05,0,0,0-.47-.46l7.06-18.67a2,2,0,0,0,1.77-.68M84.05,95.32l11.39-9.16a2.13,2.13,0,0,0,.49.31,2,2,0,0,0,1.63-.09l24.6,29.19L84.23,96.79a1.92,1.92,0,0,0,.06-.83,1.89,1.89,0,0,0-.24-.64m87.63,34.49,11.37-4.8a2,2,0,0,0,.78.8l-2,7.29L168,140.74a2.26,2.26,0,0,0-.57-.4Zm22.4,14.52-7.26,1a2,2,0,0,0-1.81-1.27l-2.16-10,8.75,1.43Zm-25.83-1,14.68,2.9a2.21,2.21,0,0,0,0,.51,2,2,0,0,0,1.9,1.41l1.34,6.22-10.76.79-7.78-11.27a2,2,0,0,0,.57-.56m25.31,2.09-6.48,8.27-1.24-5.76a2,2,0,0,0,1.14-1.59ZM184.8,126a1.91,1.91,0,0,0,.62-.07,2.15,2.15,0,0,0,.26-.14l5.32,8.55L182.84,133Zm-2.93,8.16,2.18,10.1a2,2,0,0,0-1,.94l-14.5-2.86a2.21,2.21,0,0,0-.08-.8h0Zm23.2-69.86A100.26,100.26,0,1,0,173.41,231a.49.49,0,0,0,.15-.83L153.5,211.71l-3.82-35.07a.45.45,0,0,0-.05-.19L143,164.38a.5.5,0,0,0-.31-.24l-24.72-6-4.8-12,7.12-1.31,1.83,7.78a.49.49,0,0,0,.45.38l16.67.92h0a.5.5,0,0,0,.35-.14.49.49,0,0,0,.14-.38l-.59-12,2-.37,2,13.53a.49.49,0,0,0,.06.17l11.53,20.13,6.59,28.43a.51.51,0,0,0,.19.29l16.62,12a.52.52,0,0,0,.29.09.51.51,0,0,0,.4-.2.5.5,0,0,0-.11-.69L162.3,202.87l-6.56-28.31a.78.78,0,0,0-.05-.14l-11.53-20.11-2-13.47,1.81-.33,3,9.63a.47.47,0,0,0,.29.31.57.57,0,0,0,.18,0,.43.43,0,0,0,.25-.07l8.59-5.13a.5.5,0,0,0,.24-.43L156.4,132l2.19-2.41,3,18.57-11.66,7.93a.5.5,0,0,0-.15.65l7.9,14.42a.51.51,0,0,0,.43.26.43.43,0,0,0,.22-.06l15.78-7.82a.52.52,0,0,0,.26-.35l1.3-7.07,5.38-.39-3.93,11-16.26,11.33a.48.48,0,0,0-.14.66l11.34,19a.46.46,0,0,0,.32.22l15.08,3.49.22-1L172.77,197l-11-18.38,16-11.16a.5.5,0,0,0,.19-.24l4.13-11.59,4.76-.35a.51.51,0,0,0,.35-.19l7.89-10.06a.49.49,0,0,0,.08-.44l-2.71-9.71a.31.31,0,0,0-.06-.13l-6-9.6a2,2,0,0,0,.3-1.78,2,2,0,0,0-2.57-1.34,2,2,0,0,0-1.4,2L171.11,129a.55.55,0,0,0-.27.27l-4.44,10.95a1.75,1.75,0,0,0-.46.05,2,2,0,0,0-1.34,2.57,2,2,0,0,0,2.11,1.39l8,11.57-1.28,7-15.12,7.51-7.46-13.61,11.54-7.86a.47.47,0,0,0,.21-.48l-3.14-19.67,9.84-10.89a2,2,0,0,0,1.59.15,2.05,2.05,0,1,0-1.24-3.91c-.06,0-.1.06-.15.08l-13.26-18a2,2,0,0,0,.19-1.63,2.05,2.05,0,0,0-1.74-1.41l-7.09-41.46a2,2,0,0,0,1-1.06,2.05,2.05,0,1,0-3.84-1.46,1.93,1.93,0,0,0-.12.85L106.85,61.19a2.1,2.1,0,0,0-1-.89,2.06,2.06,0,0,0-2.65,1.2,2,2,0,0,0,.76,2.38L96.89,82.55a2,2,0,0,0-2.15,1.27,2.08,2.08,0,0,0,.06,1.59L83.4,94.57A2,2,0,0,0,82,94.23a2.06,2.06,0,0,0-1.73,2.33,2,2,0,0,0,1.12,1.5L78.6,119.14h0a2.06,2.06,0,0,0,.31,4.1h0l15.76,23.71A2,2,0,0,0,94.4,148a2.06,2.06,0,0,0,2.2,1.9,2,2,0,0,0,1.55-1l14-2.58,5,12.37a.51.51,0,0,0,.34.3l24.76,6,6.5,11.8L152.54,212a.53.53,0,0,0,.15.31l19.62,18a99.14,99.14,0,1,1,63.44-100.58l-20.92,33.15a.5.5,0,0,0,.16.68.49.49,0,0,0,.68-.15l21-33.29a.53.53,0,0,0,.07-.3,99.85,99.85,0,0,0-31.68-65.5"/></g></g></svg>