<?xml version="1.0" encoding="utf-8"?>
<!-- Generator: Adobe Illustrator 24.0.0, SVG Export Plug-In . SVG Version: 6.00 Build 0)  -->
<svg version="1.1" id="Calque_1" xmlns="http://www.w3.org/2000/svg" xmlns:xlink="http://www.w3.org/1999/xlink" x="0px" y="0px"
	 viewBox="0 0 439.3 273.4" style="enable-background:new 0 0 439.3 273.4;" xml:space="preserve">
<style type="text/css">
	.st0{fill:#F7D5BA;}
	.st1{fill:#DE5A31;}
</style>
<g id="Calque_2_1_">
	<g id="Calque_1-2">
		<path class="st0" d="M237.8,128.6l-21.3,33.7l-3.8,6.1l-5.3,8.5l-12.3,19.7l-4.7,7.6l-7.8,12.6l-0.2,0.3l-0.3,0.5l-0.5,0.8
			l-7.3,11.7l-0.1,0.1l-0.2,0.3l-0.6,0.2c-0.2,0.1-0.5,0.2-0.7,0.3c-52.2,19.6-110.4-6.8-130-59s6.8-110.4,59-130s110.4,6.8,130,59
			C234.9,109.9,237,119.2,237.8,128.6L237.8,128.6z"/>
		<path class="st1" d="M255.7,158.9l-0.2,0.4h10.3l0.4-3.8l-0.5,0.2c-1.3,0.3-2.6,0.4-3.9,0.4h-2v-7.7c0-1.3,0.1-2.6,0.4-3.9
			l0.1-0.4h-4.8l0.2,0.4c0.2,0.6,0.3,1.2,0.4,1.9c0.1,0.8,0.1,1.5,0.1,2v6.7C256.2,156.4,256,157.6,255.7,158.9z"/>
		<path class="st1" d="M281.3,158.9l-0.2,0.4h12.1l0.4-3.8l-0.5,0.2c-0.3,0.1-0.6,0.2-0.8,0.2c-1,0.2-2.1,0.2-3.1,0.2h-3.9v-2.8h2.2
			c1.3,0,2.6,0.1,3.9,0.4l0.5,0.2v-4.4l-0.5,0.2c-1.3,0.3-2.6,0.4-3.9,0.4h-2.2v-2.8h3.2c1.3,0,2.6,0.1,3.9,0.4l0.5,0.2l-0.4-3.8
			h-11.5l0.2,0.4c0.3,1.3,0.5,2.6,0.5,3.9v6.7C281.7,156.3,281.6,157.6,281.3,158.9z"/>
		<path class="st1" d="M312,152.8c0.9,0.4,1.8,0.8,2.5,1.1s1,0.7,1,1c0,0.4-0.3,0.8-0.7,0.9c-0.5,0.2-1,0.3-1.5,0.3
			c-1.5-0.1-2.9-0.6-4-1.6l-0.5-0.4v4.2l0.2,0.1c1.4,0.6,2.9,0.9,4.4,0.9c2.7,0,5.7-1.3,5.7-4.2c0-4-4.3-4.9-6.2-6
			c-0.6-0.4-1-0.7-1-1.1c0-0.9,1.6-1,2.2-1c1.2,0,2.4,0.3,3.5,0.9l0.5,0.3v-3.7l-0.2-0.1c-1.2-0.4-2.5-0.6-3.7-0.6
			c-3,0-5.8,1.3-5.8,4.5C308.3,150.8,310.2,152,312,152.8z"/>
		<path class="st1" d="M250,227.3c-0.7-0.9-1.2-1.9-1.7-2.6c1.9-0.7,3.1-2.5,3-4.4c0-1.4-0.5-2.7-1.5-3.6c-1.1-0.9-2.5-1.4-3.9-1.3
			h-6.1l0.2,0.4c0.3,1.3,0.5,2.5,0.4,3.8v6.7c0,1.3-0.1,2.6-0.4,3.8l-0.2,0.4h4.8l-0.1-0.4c-0.3-1.2-0.5-2.5-0.4-3.8v-1.2h0.4
			c0.4,0.6,1,1.5,1.5,2.4c0.5,0.8,0.9,1.7,1,2.7v0.3h5.9l-0.6-0.5C251.3,229.2,250.6,228.3,250,227.3z M245.8,221.8h-1.9v-3.4h1.9
			c0.9-0.1,1.7,0.6,1.8,1.5c0,0.1,0,0.2,0,0.3c0,0.9-0.7,1.6-1.6,1.7C246,221.9,245.9,221.9,245.8,221.8L245.8,221.8z"/>
		<path class="st1" d="M277.5,222.7c0.9-0.8,1.5-1.9,1.4-3.1c0-2.9-1.9-4.3-5-4.3h-6.6l0.2,0.4c0.3,1.3,0.5,2.6,0.5,3.9v6.7
			c0,1.3-0.1,2.6-0.5,3.8l-0.2,0.4h6.7c3,0,5.2-1.5,5.2-4.4C279.2,224.7,278.6,223.4,277.5,222.7z M271.5,218.5h1.7
			c1.2,0,2,0.4,2,1.4s-0.8,1.4-2,1.4h-1.7V218.5z M273.5,227.3h-2v-2.8h2c1.2,0,2,0.3,2,1.4S274.8,227.3,273.5,227.3L273.5,227.3z"
			/>
		<path class="st1" d="M306.7,226.2l-2-6.7c-0.4-1.2-0.7-2.5-0.7-3.8v-0.3h-6.2l0,0.3c-0.1,1.3-0.3,2.6-0.7,3.8l-2,6.7
			c-0.4,1.3-0.9,2.6-1.6,3.9l-0.3,0.4h5.1v-0.3c0-1,0.1-2,0.4-3h4.4c0.2,1,0.4,2,0.4,3l-0.1,0.3h5.2l-0.3-0.4
			C307.6,228.8,307,227.5,306.7,226.2z M299.5,224c0.5-1.7,0.9-3.3,1.4-5c0.5,1.7,0.9,3.3,1.3,5H299.5z"/>
		<path class="st1" d="M327.7,215.7l0.1-0.4h-4.8l0.2,0.4c0.3,1.3,0.5,2.5,0.5,3.8v6.7c0,0.5,0,1.2-0.1,1.9c0,0.6-0.2,1.3-0.4,1.9
			l-0.2,0.4h4.8l-0.1-0.4c-0.3-1.2-0.5-2.5-0.4-3.8v-6.7C327.3,218.2,327.4,216.9,327.7,215.7z"/>
		<path class="st1" d="M357.8,215.7l0.2-0.4h-4.8l0.2,0.4c0.3,1.3,0.5,2.6,0.4,3.9v5.3l-5.5-9.6h-5.4l0.2,0.4
			c0.3,1.3,0.5,2.6,0.5,3.9v6.7c0,1.3-0.1,2.6-0.5,3.8l-0.2,0.4h4.8l-0.1-0.4c-0.3-1.2-0.5-2.5-0.4-3.8v-5.4l5.5,9.6h5.4l-0.2-0.4
			c-0.2-0.6-0.3-1.2-0.3-1.9c-0.1-0.6-0.1-1.3-0.1-1.9v-6.7C357.3,218.2,357.4,216.9,357.8,215.7z"/>
		<path class="st1" d="M384,227c-1,0.1-2.1,0.2-3.1,0.2h-3.8v-2.8h2.2c1.3,0,2.6,0.1,3.9,0.4l0.5,0.2v-4.4l-0.5,0.2
			c-1.3,0.3-2.6,0.4-3.9,0.4h-2.2v-2.8h3.2c1.3,0,2.6,0.1,3.9,0.4l0.5,0.2l-0.4-3.8h-11.5l0.2,0.4c0.3,1.3,0.5,2.5,0.5,3.8v6.7
			c0,1.3-0.1,2.6-0.5,3.8l-0.2,0.4H385l0.4-3.8l-0.5,0.2C384.6,226.9,384.3,227,384,227z"/>
		<path class="st1" d="M404.6,220.5c-0.6-0.4-1-0.7-1-1.1c0-0.8,1.6-1,2.2-1c1.2,0,2.4,0.3,3.5,0.9l0.5,0.3v-3.7l-0.2-0.1
			c-1.2-0.4-2.5-0.6-3.7-0.6c-3,0-5.8,1.3-5.8,4.5c0,2.4,2,3.6,3.8,4.4c0.9,0.4,1.8,0.8,2.5,1.1s1,0.7,1,1c0,0.4-0.3,0.8-0.7,0.9
			c-0.5,0.2-1,0.3-1.5,0.3c-1.5-0.1-2.9-0.6-4-1.6l-0.5-0.4v4.2l0.1,0.1c1.4,0.6,2.9,1,4.5,1c2.7,0,5.7-1.3,5.7-4.2
			C410.8,222.5,406.5,221.6,404.6,220.5z"/>
		<path class="st1" d="M251.8,195.6l-5-16.8c-1-3.1-1.6-6.3-1.8-9.6l0.1-0.8h-15.4l0.1,0.8c0.3,2.1-1.1,7.2-1.8,9.5l-5,16.8
			c-0.9,2.7-2.4,7.4-4,9.6l-0.8,1.1H231l-0.1-0.8c-0.3-1.7,0.5-5.2,0.9-7.4h11c0.6,2.4,1,4.9,1,7.4l-0.2,0.8h12.9l-0.9-1.1
			C254,202.9,252.6,198.3,251.8,195.6z M234,190.1c1.1-4.1,2.2-8.3,3.4-12.4c1.2,4.1,2.3,8.3,3.3,12.4H234z"/>
		<path class="st1" d="M285.6,187c2.3-1.9,3.6-4.8,3.5-7.8c0-7.3-4.7-10.8-12.4-10.8h-16.4l0.4,1c0.9,2.1,1.1,7.1,1.1,9.6v16.8
			c0,2.5-0.3,7.4-1.1,9.5l-0.4,1h16.6c7.6,0,12.9-3.8,12.9-11.1C290,191.9,288.4,188.8,285.6,187z M270.9,176.4h4.3
			c3,0,5,0.9,4.9,3.5s-1.9,3.4-4.9,3.4h-4.3V176.4z M275.9,198.2h-5v-6.9h5c3,0,5,0.9,5,3.4S278.9,198.3,275.9,198.2L275.9,198.2z"
			/>
		<path class="st1" d="M326,195.6l-5-16.8c-1-3.1-1.6-6.3-1.8-9.6l0.1-0.8H304l0.1,0.8c0.3,2.1-1.1,7.2-1.8,9.5l-5,16.8
			c-0.9,2.7-2.4,7.4-4,9.6l-0.8,1.1h12.8l-0.1-0.8c-0.3-1.7,0.5-5.2,0.9-7.4h11c0.6,2.4,1,4.9,1,7.4l-0.2,0.8h12.9l-0.9-1.1
			C328.2,202.9,326.9,198.3,326,195.6z M308.3,190.2c1.1-4.1,2.2-8.3,3.4-12.4c1.2,4.1,2.3,8.3,3.3,12.4H308.3z"/>
		<path class="st1" d="M371.8,169.5l0.4-1h-11.9l0.4,1c0.9,2.1,1.1,7.1,1.1,9.6v13.3l-13.6-23.8h-13.6l0.4,1
			c0.9,2.1,1.1,7.1,1.1,9.6v16.8c0,2.5-0.3,7.4-1.1,9.5l-0.4,1h12l-0.4-1c-0.9-2.1-1.1-7.1-1.1-9.5v-13.4l13.6,23.8h13.5l-0.4-1
			c-0.5-1.5-0.7-3.1-0.8-4.7c-0.2-1.6-0.2-3.2-0.2-4.8V179C370.7,176.6,370.9,171.6,371.8,169.5z"/>
		<path class="st1" d="M377.4,205.4l-0.4,1h30.2l0.9-9.5l-1.2,0.4c-0.7,0.3-1.4,0.4-2.1,0.5c-2.5,0.4-5.1,0.6-7.7,0.5h-9.6v-6.9h5.4
			c2.5,0,7.5,0.2,9.7,1.1l1.1,0.4v-11l-1.1,0.4c-2.1,0.9-7.2,1-9.7,1h-5.4v-6.9h8.1c2.6,0,7.6,0.2,9.8,1.1l1.2,0.5l-0.9-9.5H377
			l0.4,1c0.9,2.1,1.1,7.1,1.1,9.6v16.8C378.6,198.3,378.3,203.2,377.4,205.4z"/>
		<path class="st1" d="M423.8,181.5c-1.6-0.9-2.4-1.8-2.4-2.8c0-2.1,3.9-2.6,5.4-2.6c3,0.1,5.9,0.8,8.6,2.2l1.2,0.6v-9.2l-0.5-0.2
			c-3-1-6.1-1.5-9.3-1.5c-7.4,0-14.4,3.3-14.4,11.2c0,6,4.9,9,9.4,11c2.3,1,4.5,1.9,6.1,2.8s2.4,1.7,2.4,2.6c0,1-0.7,2-1.7,2.3
			c-1.2,0.5-2.4,0.7-3.7,0.7c-3.7-0.2-7.2-1.6-10-3.9l-1.3-1.1v10.4l0.4,0.2c3.5,1.5,7.3,2.3,11.1,2.3c6.7,0,14.3-3.2,14.3-10.4
			C439.3,186.4,428.6,184.2,423.8,181.5z"/>
		<path class="st1" d="M219.9,215.8c0.3,1.2,0.4,2.5,0.4,3.7v5.1c0,1.8-0.8,2.6-2.5,2.6s-2.4-0.8-2.4-2.6v-5.1
			c-0.1-1.3,0.1-2.5,0.4-3.7l0.4-0.8h-5.7l0.4,0.8c0.3,1.2,0.5,2.5,0.4,3.7v5.1c0,3.9,2.6,6.4,6.6,6.4s6.6-2.5,6.6-6.4v-5.1
			c0-1.3,0.1-2.5,0.4-3.7l0.4-0.8h-5.7L219.9,215.8z"/>
		<path class="st1" d="M153,33.6h0.2c0.6,0,1.2-0.4,1.3-1.1l1.2-7.5c0.1-0.7-0.3-1.3-1-1.5c-0.7-0.1-1.3,0.4-1.4,1.1l-1.2,7.5
			C151.9,32.8,152.3,33.5,153,33.6z"/>
		<path class="st1" d="M184.1,43.7c0.6,0.3,1.4,0.1,1.7-0.5c0,0,0,0,0,0l3.4-6.7c0.3-0.6,0.1-1.4-0.6-1.7c-0.3-0.2-0.7-0.2-1-0.1
			c-0.3,0.1-0.6,0.3-0.7,0.6l-3.4,6.7c-0.2,0.3-0.2,0.7-0.1,1C183.6,43.3,183.8,43.6,184.1,43.7z"/>
		<path class="st1" d="M211.4,63.3c0.3,0,0.7-0.1,0.9-0.4l5.4-5.3c0.2-0.2,0.4-0.6,0.4-0.9c0-0.3-0.1-0.7-0.4-0.9
			c-0.5-0.5-1.3-0.5-1.8,0c0,0,0,0,0,0l-5.4,5.3c-0.5,0.5-0.5,1.3,0,1.8C210.8,63.1,211.1,63.3,211.4,63.3z"/>
		<path class="st1" d="M229.7,89.3c0.2,0.4,0.7,0.7,1.1,0.7c0.2,0,0.4,0,0.6-0.1l6.7-3.4c0.6-0.3,0.9-1.1,0.6-1.7
			c-0.1-0.3-0.4-0.5-0.7-0.6c-0.3-0.1-0.7-0.1-1,0.1l-6.7,3.4C229.6,87.9,229.4,88.7,229.7,89.3z"/>
		<path class="st1" d="M241.1,121.4h0.2l7.5-1.2c0.3-0.1,0.6-0.2,0.8-0.5c0.2-0.3,0.3-0.6,0.2-0.9c-0.1-0.7-0.8-1.1-1.4-1l-7.5,1.2
			c-0.7,0.1-1.2,0.8-1,1.5C239.9,121.1,240.5,121.5,241.1,121.4L241.1,121.4z"/>
		<path class="st1" d="M153,239.8L153,239.8c-0.7,0.1-1.1,0.8-1,1.4l1.2,7.5c0.1,0.6,0.6,1.1,1.3,1.1h0.2c0.7-0.1,1.1-0.8,1-1.4
			l-1.2-7.5C154.3,240.2,153.7,239.7,153,239.8z"/>
		<path class="st1" d="M120.4,239.8L120.4,239.8c-0.7-0.1-1.3,0.4-1.4,1.1l-1.2,7.5c-0.1,0.7,0.4,1.3,1.1,1.4c0,0,0,0,0,0h0.2
			c0.6,0,1.2-0.5,1.3-1.1l1.2-7.5c0.1-0.3,0-0.7-0.2-0.9C121,240,120.7,239.9,120.4,239.8z"/>
		<path class="st1" d="M89.3,229.7c-0.3-0.2-0.7-0.2-1-0.1c-0.3,0.1-0.6,0.3-0.7,0.6l-3.4,6.7c-0.3,0.6-0.1,1.4,0.5,1.7c0,0,0,0,0,0
			c0.2,0.1,0.4,0.1,0.6,0.1c0.5,0,0.9-0.3,1.1-0.7l3.4-6.7C90.2,230.8,89.9,230,89.3,229.7z"/>
		<path class="st1" d="M62,210.1L62,210.1c-0.3,0-0.7,0.1-0.9,0.4l-5.3,5.4c-0.2,0.2-0.4,0.6-0.4,0.9c0,0.7,0.6,1.3,1.3,1.3
			c0.3,0,0.6-0.1,0.9-0.4l5.3-5.4c0.5-0.5,0.5-1.3,0-1.8C62.6,210.3,62.3,210.2,62,210.1L62,210.1z"/>
		<path class="st1" d="M43.7,184.1c-0.1-0.3-0.4-0.5-0.7-0.6c-0.3-0.1-0.7-0.1-1,0.1l-6.7,3.5c-0.3,0.1-0.5,0.4-0.6,0.7
			c-0.1,0.3-0.1,0.7,0.1,1c0.2,0.4,0.7,0.7,1.1,0.7c0.2,0,0.4,0,0.6-0.1l6.7-3.4C43.8,185.6,44,184.8,43.7,184.1
			C43.7,184.2,43.7,184.1,43.7,184.1z"/>
		<path class="st1" d="M32.2,152l-7.5,1.2c-0.7,0.1-1.2,0.8-1,1.4c0.1,0.6,0.6,1.1,1.3,1.1h0.2l7.5-1.2c0.7-0.1,1.1-0.8,1-1.4
			C33.5,152.4,32.8,151.9,32.2,152z"/>
		<path class="st1" d="M23.6,118.8L23.6,118.8c-0.1,0.7,0.4,1.3,1,1.4l7.5,1.2h0.2c0.7,0,1.3-0.6,1.2-1.3c0-0.3-0.1-0.5-0.2-0.7
			c-0.2-0.3-0.5-0.5-0.8-0.5l-7.5-1.2C24.4,117.6,23.7,118.1,23.6,118.8z"/>
		<path class="st1" d="M35.3,86.4l6.7,3.4c0.2,0.1,0.4,0.1,0.6,0.1c0.7,0,1.3-0.6,1.3-1.3c0-0.1,0-0.3-0.1-0.4
			c-0.1-0.3-0.3-0.6-0.6-0.7l-6.7-3.4c-0.6-0.3-1.4,0-1.7,0.7C34.5,85.4,34.7,86.1,35.3,86.4z"/>
		<path class="st1" d="M61.1,62.9c0.5,0.5,1.3,0.5,1.8,0c0.2-0.2,0.4-0.6,0.4-0.9c0-0.3-0.1-0.7-0.4-0.9l-5.3-5.3
			c-0.2-0.2-0.6-0.4-0.9-0.4c-0.7,0-1.3,0.6-1.3,1.3c0,0.3,0.1,0.7,0.4,0.9L61.1,62.9z"/>
		<path class="st1" d="M87.6,43.2c0.2,0.4,0.7,0.7,1.1,0.7c0.2,0,0.4,0,0.6-0.1c0.3-0.1,0.6-0.4,0.7-0.7c0.1-0.3,0.1-0.7-0.1-1
			l-3.4-6.7c-0.2-0.4-0.7-0.7-1.1-0.7c-0.2,0-0.4,0-0.6,0.1c-0.6,0.3-0.9,1.1-0.6,1.7L87.6,43.2z"/>
		<path class="st1" d="M120.2,33.6h0.2c0.3-0.1,0.6-0.2,0.8-0.5c0.2-0.3,0.3-0.6,0.2-0.9l-1.2-7.5c-0.1-0.7-0.8-1.2-1.4-1.1
			c-0.7,0.1-1.1,0.8-1,1.5l1.2,7.5C119.1,33.2,119.6,33.6,120.2,33.6z"/>
		<path class="st1" d="M136.7,6.3c0.7,0,1.3-0.5,1.3-1.2c0,0,0,0,0,0V1.3c0-0.7-0.6-1.3-1.3-1.3c-0.7,0-1.3,0.6-1.3,1.3v3.8
			C135.5,5.7,136,6.3,136.7,6.3z"/>
		<path class="st1" d="M136.7,23.8c0.7,0,1.3-0.5,1.3-1.2c0,0,0,0,0,0v-5.8c0-0.7-0.6-1.3-1.3-1.3c-0.7,0-1.3,0.6-1.3,1.3v5.8
			C135.5,23.2,136,23.8,136.7,23.8z"/>
		<path class="st1" d="M177,12.7c0.1,0,0.3,0.1,0.4,0.1c0.6,0,1-0.4,1.2-0.9l1.2-3.6c0.2-0.7-0.2-1.4-0.9-1.6
			c-0.6-0.2-1.3,0.2-1.5,0.8l-1.2,3.6c-0.1,0.3-0.1,0.7,0.1,1C176.4,12.4,176.7,12.6,177,12.7z"/>
		<path class="st1" d="M171.6,29.3c0.1,0,0.3,0.1,0.4,0.1c0.5,0,1-0.4,1.2-0.9L175,23c0.2-0.7-0.1-1.4-0.8-1.6c0,0,0,0,0,0
			c-0.7-0.2-1.4,0.1-1.6,0.8c0,0,0,0,0,0l-1.8,5.5c-0.1,0.3-0.1,0.7,0.1,1C171,29,171.3,29.2,171.6,29.3z"/>
		<path class="st1" d="M214.1,31.5c0.4,0,0.8-0.2,1-0.5l2.2-3.1c0.3-0.6,0-1.4-0.6-1.7c-0.5-0.2-1-0.1-1.4,0.2l-2.2,3.1
			c-0.2,0.3-0.3,0.6-0.2,0.9c0,0.3,0.2,0.6,0.5,0.8C213.6,31.4,213.8,31.5,214.1,31.5z"/>
		<path class="st1" d="M203.8,45.6c0.4,0,0.8-0.2,1-0.5l3.4-4.7c0.2-0.3,0.3-0.6,0.2-0.9c-0.1-0.3-0.2-0.6-0.5-0.8
			c-0.3-0.2-0.6-0.3-0.9-0.2c-0.3,0.1-0.6,0.2-0.8,0.5l-3.4,4.7c-0.4,0.6-0.3,1.4,0.3,1.8C203.3,45.5,203.5,45.6,203.8,45.6z"/>
		<path class="st1" d="M243.2,60.6c0.3,0,0.5-0.1,0.7-0.2l3-2.2c0.6-0.4,0.7-1.2,0.3-1.8c-0.2-0.3-0.5-0.5-0.8-0.5
			c-0.3-0.1-0.7,0-0.9,0.2l-3.1,2.2c-0.6,0.4-0.7,1.2-0.3,1.8C242.4,60.4,242.8,60.6,243.2,60.6z"/>
		<path class="st1" d="M229.1,70.9c0.3,0,0.5-0.1,0.7-0.3l4.7-3.4c0.6-0.4,0.7-1.2,0.3-1.8c-0.4-0.6-1.2-0.7-1.8-0.3c0,0,0,0,0,0
			l-4.7,3.4c-0.3,0.2-0.5,0.5-0.5,0.8c-0.1,0.7,0.4,1.4,1.1,1.5C229,70.9,229,70.9,229.1,70.9z"/>
		<path class="st1" d="M261.9,97.3c0.1,0,0.3,0,0.4-0.1l3.6-1.2c0.7-0.2,1-0.9,0.8-1.6l0,0c-0.2-0.7-0.9-1-1.6-0.8l-3.6,1.2
			c-0.7,0.2-1,1-0.8,1.6C260.9,96.9,261.4,97.3,261.9,97.3z"/>
		<path class="st1" d="M244.1,101.8c0.2,0.5,0.7,0.9,1.2,0.9c0.1,0,0.3,0,0.4-0.1l5.6-1.8c0.3-0.1,0.6-0.3,0.7-0.6
			c0.2-0.3,0.2-0.7,0.1-1c-0.2-0.7-0.9-1-1.6-0.8l-5.6,1.8C244.2,100.4,243.9,101.1,244.1,101.8
			C244.1,101.8,244.1,101.8,244.1,101.8z"/>
		<path class="st1" d="M178.6,261.5c-0.2-0.5-0.7-0.9-1.2-0.9c-0.1,0-0.3,0-0.4,0.1c-0.3,0.1-0.6,0.3-0.7,0.6
			c-0.2,0.3-0.2,0.7-0.1,1l1.2,3.6c0.2,0.5,0.6,0.9,1.2,0.9c0.1,0,0.3,0,0.4-0.1c0.3-0.1,0.6-0.3,0.7-0.6c0.2-0.3,0.2-0.7,0.1-1
			L178.6,261.5z"/>
		<path class="st1" d="M173.2,244.9c-0.2-0.5-0.6-0.9-1.2-0.9c-0.1,0-0.3,0-0.4,0.1c-0.3,0.1-0.6,0.3-0.7,0.6
			c-0.2,0.3-0.2,0.7-0.1,1l1.8,5.6c0.2,0.5,0.7,0.9,1.2,0.9c0.1,0,0.3,0,0.4-0.1c0.7-0.2,1-0.9,0.8-1.6L173.2,244.9z"/>
		<path class="st1" d="M136.7,267.1c-0.7,0-1.3,0.6-1.3,1.3v3.8c0,0.7,0.6,1.3,1.3,1.3c0.7,0,1.3-0.6,1.3-1.3v-3.8
			C138,267.7,137.4,267.1,136.7,267.1z"/>
		<path class="st1" d="M136.7,249.6c-0.7,0-1.3,0.6-1.3,1.3c0,0,0,0,0,0v5.8c0,0.7,0.6,1.3,1.3,1.3c0.7,0,1.3-0.6,1.3-1.3v-5.8
			C138,250.2,137.4,249.6,136.7,249.6z"/>
		<path class="st1" d="M96.4,260.7c-0.7-0.2-1.4,0.1-1.6,0.8c0,0,0,0,0,0l-1.2,3.6c-0.2,0.7,0.1,1.4,0.8,1.6c0.1,0,0.3,0.1,0.4,0.1
			c0.6,0,1-0.4,1.2-0.9l1.2-3.6c0.1-0.3,0.1-0.7-0.1-1C97,261,96.7,260.8,96.4,260.7z"/>
		<path class="st1" d="M101.8,244.1c-0.7-0.2-1.4,0.1-1.6,0.8l-1.8,5.5c-0.1,0.3-0.1,0.7,0.1,1c0.1,0.3,0.4,0.5,0.7,0.6
			c0.1,0,0.3,0.1,0.4,0.1c0.5,0,1-0.4,1.2-0.9l1.8-5.6C102.8,245.1,102.5,244.3,101.8,244.1C101.8,244.1,101.8,244.1,101.8,244.1
			L101.8,244.1z"/>
		<path class="st1" d="M59.1,242c-0.3,0.1-0.6,0.2-0.8,0.5l-2.2,3.1c-0.4,0.6-0.3,1.4,0.3,1.8c0.2,0.2,0.5,0.2,0.7,0.2
			c0.4,0,0.8-0.2,1-0.5l2.3-3c0.2-0.3,0.3-0.6,0.2-0.9c-0.1-0.3-0.2-0.6-0.5-0.8C59.8,242,59.5,242,59.1,242z"/>
		<path class="st1" d="M69.4,227.8c-0.3,0.1-0.6,0.2-0.8,0.5l-3.4,4.7c-0.2,0.3-0.3,0.6-0.2,0.9c0.1,0.3,0.2,0.6,0.5,0.8
			c0.6,0.4,1.4,0.3,1.8-0.3l3.4-4.7c0.2-0.3,0.3-0.6,0.2-0.9c0-0.3-0.2-0.6-0.5-0.8C70.1,227.9,69.7,227.8,69.4,227.8z"/>
		<path class="st1" d="M30.4,212.8c-0.3-0.1-0.7,0-0.9,0.2l-3.1,2.2c-0.3,0.2-0.5,0.5-0.5,0.8c-0.1,0.7,0.4,1.3,1.1,1.4
			c0.3,0.1,0.7,0,0.9-0.2l3.1-2.2c0.6-0.4,0.7-1.2,0.3-1.8C31,213.1,30.7,212.9,30.4,212.8z"/>
		<path class="st1" d="M44.5,202.6c-0.3-0.1-0.7,0-0.9,0.2l-4.7,3.4c-0.3,0.2-0.4,0.5-0.5,0.8c-0.1,0.3,0,0.7,0.2,1
			c0.2,0.3,0.6,0.5,1,0.5c0.3,0,0.5-0.1,0.7-0.2l4.7-3.4c0.6-0.4,0.7-1.2,0.3-1.8C45.2,202.8,44.9,202.6,44.5,202.6z"/>
		<path class="st1" d="M11.1,176.2l-3.6,1.2c-0.3,0.1-0.6,0.3-0.7,0.6c-0.2,0.3-0.2,0.7-0.1,1c0.2,0.5,0.7,0.9,1.2,0.9
			c0.1,0,0.3,0,0.4-0.1l3.6-1.2c0.7-0.2,1.1-0.9,0.9-1.5c-0.2-0.7-0.9-1.1-1.5-0.9C11.2,176.2,11.2,176.2,11.1,176.2L11.1,176.2z"/>
		<path class="st1" d="M29.3,171.6L29.3,171.6c-0.2-0.7-0.9-1-1.6-0.8c0,0,0,0,0,0l-5.5,1.8c-0.7,0.2-1,0.9-0.8,1.6
			c0.2,0.5,0.6,0.9,1.2,0.9c0.1,0,0.3,0,0.4-0.1l5.5-1.8C29.2,173,29.6,172.3,29.3,171.6z"/>
		<path class="st1" d="M5.1,135.4H1.3c-0.7,0-1.3,0.6-1.3,1.3s0.6,1.3,1.3,1.3c0,0,0,0,0,0h3.8c0.7,0,1.3-0.6,1.3-1.3
			C6.3,136,5.7,135.4,5.1,135.4z"/>
		<path class="st1" d="M23.8,136.7c0-0.7-0.6-1.3-1.2-1.3c0,0,0,0,0,0h-5.8c-0.7-0.1-1.3,0.5-1.4,1.2s0.5,1.3,1.2,1.4
			c0.1,0,0.2,0,0.2,0h5.8C23.2,138,23.8,137.4,23.8,136.7C23.8,136.7,23.8,136.7,23.8,136.7z"/>
		<path class="st1" d="M7.5,96.1l3.6,1.2c0.1,0,0.3,0.1,0.4,0.1c0.7,0,1.3-0.5,1.3-1.2c0-0.6-0.4-1.1-0.9-1.3l-3.6-1.2
			c-0.7-0.2-1.4,0.2-1.6,0.9C6.6,95.2,6.9,95.8,7.5,96.1z"/>
		<path class="st1" d="M22.2,100.8l5.6,1.8c0.1,0,0.3,0.1,0.4,0.1c0.7,0,1.3-0.6,1.2-1.3c0-0.5-0.4-1-0.9-1.2L23,98.4
			c-0.7-0.2-1.4,0.2-1.6,0.8c-0.1,0.3-0.1,0.7,0.1,1C21.6,100.5,21.9,100.7,22.2,100.8z"/>
		<path class="st1" d="M29.5,60.3c0.2,0.2,0.5,0.2,0.7,0.3c0.7,0,1.3-0.6,1.3-1.3c0-0.4-0.2-0.8-0.5-1l-3.1-2.2
			c-0.2-0.2-0.5-0.2-0.8-0.2c-0.4,0-0.8,0.2-1,0.5c-0.2,0.3-0.3,0.6-0.2,0.9c0,0.3,0.2,0.6,0.5,0.8L29.5,60.3z"/>
		<path class="st1" d="M43.6,70.6c0.2,0.2,0.5,0.2,0.7,0.3c0.7,0,1.3-0.6,1.3-1.3c0-0.4-0.2-0.8-0.5-1l-4.7-3.4
			c-0.2-0.2-0.5-0.2-0.7-0.2c-0.4,0-0.8,0.2-1,0.5c-0.2,0.3-0.3,0.6-0.2,0.9c0,0.3,0.2,0.6,0.5,0.8L43.6,70.6z"/>
		<path class="st1" d="M58.3,30.9c0.2,0.3,0.6,0.5,1,0.5c0.7,0,1.3-0.6,1.2-1.3c0-0.2-0.1-0.5-0.2-0.7l-2.2-3.1
			c-0.2-0.3-0.6-0.5-1-0.5c-0.3,0-0.5,0.1-0.8,0.2c-0.3,0.2-0.5,0.5-0.5,0.8c-0.1,0.3,0,0.7,0.2,0.9L58.3,30.9z"/>
		<path class="st1" d="M68.6,45.1c0.2,0.3,0.6,0.5,1,0.5c0.3,0,0.5-0.1,0.7-0.2c0.3-0.2,0.5-0.5,0.5-0.8c0.1-0.3,0-0.7-0.2-0.9
			l-3.4-4.7c-0.4-0.6-1.2-0.7-1.8-0.3c-0.3,0.2-0.5,0.5-0.5,0.8c-0.1,0.3,0,0.7,0.2,0.9L68.6,45.1z"/>
		<path class="st1" d="M94.8,11.9c0.2,0.5,0.6,0.9,1.2,0.9c0.1,0,0.3,0,0.4-0.1c0.7-0.2,1-0.9,0.8-1.6l-1.2-3.6
			c-0.2-0.5-0.7-0.9-1.2-0.9c-0.1,0-0.3,0-0.4,0.1c-0.3,0.1-0.6,0.3-0.7,0.6c-0.2,0.3-0.2,0.7-0.1,1L94.8,11.9z"/>
		<path class="st1" d="M100.2,28.5c0.2,0.5,0.7,0.9,1.2,0.9c0.5,0,0.9-0.3,1.1-0.7c0.2-0.3,0.2-0.7,0.1-1l-1.8-5.5
			c-0.2-0.5-0.7-0.9-1.2-0.9c-0.1,0-0.3,0-0.4,0.1c-0.3,0.1-0.6,0.3-0.7,0.6c-0.2,0.3-0.2,0.7-0.1,1L100.2,28.5z"/>
		<path class="st1" d="M154.5,97.4c0.2,0,0.4,0,0.6-0.1c0.1,0,0.2-0.1,0.3-0.1l12.9,17.4c-0.2,0.4-0.4,0.8-0.4,1.3l-22.6,7.7
			c-0.1-0.1-0.2-0.2-0.3-0.3l9.2-25.9L154.5,97.4z M126.3,116.4l26.2-19l-8.9,25.3l0,0c-0.2,0-0.5,0-0.7,0.1c-0.4,0.1-0.7,0.4-1,0.7
			l-15.5-6.3c0-0.1,0-0.2,0-0.3C126.4,116.7,126.4,116.6,126.3,116.4L126.3,116.4z M133.2,92.7c-0.1,0.1-0.3,0.3-0.4,0.4l-33.7-8.7
			l25.3-10.2c0.4,0.5,1,0.8,1.6,0.8h0.2L133.2,92.7z M127.9,75.1l24.2,19.1l-15.2-0.6c-0.2-0.7-0.7-1.2-1.4-1.5
			c-0.2-0.1-0.5-0.1-0.7-0.1h-0.2L127.9,75.1z M132.4,94.6c0,0.5,0.3,1.1,0.7,1.4l-8.8,18.7c-0.1,0-0.2,0-0.4,0l0,0
			c-0.2,0-0.4,0.1-0.6,0.2l-24.4-29L132.4,94.6z M134.5,96.7h0.2c0.9,0,1.8-0.6,2.1-1.4l15.3,0.6l-26.1,18.9L134.5,96.7z M145.8,52
			c0.2,0.1,0.4,0.1,0.6,0.1l7,40.9l-0.1,0.1l-24.9-19.7c0.2-0.6,0.1-1.3-0.2-1.8L145.8,52z M107.4,62.3l36.9-11l-17.3,19.2H127
			c-0.3-0.1-0.5-0.1-0.8-0.2c-0.6,0-1.2,0.2-1.6,0.7l-17.1-8.6L107.4,62.3z M105.1,64.5L105.1,64.5c0.7,0,1.2-0.2,1.6-0.6l17.2,8.5
			c0,0.1,0,0.2,0,0.4L98.4,83c-0.1-0.1-0.1-0.2-0.2-0.2L105.1,64.5z M95.4,86.5c0.1,0.1,0.2,0.2,0.4,0.2c0.5,0.2,1.1,0.2,1.7,0
			l23.6,28L84.6,96.6c0-0.2,0-0.5,0-0.7c0-0.2-0.1-0.4-0.2-0.5L95.4,86.5z M121.8,116.8c0,0.1,0,0.1,0,0.2l-16.5,5.1
			c-0.3-1-1.2-1.7-2.2-1.7h-0.2c-0.4,0-0.7,0.1-1,0.3L84.7,98.5L121.8,116.8z M82.6,98.6L82.6,98.6c0.1,0,0.1,0,0.2-0.1l18,23.4
			c-0.1,0.2-0.1,0.5-0.2,0.7L81,121.4c0-0.1,0-0.3,0-0.4c-0.1-0.8-0.5-1.4-1.2-1.8L82.6,98.6z M96.5,145.6h-0.2l0,0
			c-0.3,0-0.6,0.1-0.9,0.3l-15.2-22.9l21.1,1.3c0.2,0.2,0.4,0.4,0.6,0.5L96.5,145.6z M98,145.8l5.5-20.8c0.7-0.1,1.2-0.6,1.5-1.2
			l16.7-5.1L98,145.8z M123.2,119.3c0.3,0.1,0.6,0.2,0.9,0.2h0.2c0.6,0,1.2-0.3,1.5-0.8l15.5,6.3c0,0.1,0,0.3,0,0.4l-41.6,20.9
			L123.2,119.3z M123.2,151.8l-1.6-6.9l16.3-3l0.5,10.7L123.2,151.8z M101.7,147l40.3-20.3c0.4,0.4,1,0.6,1.6,0.6h0.1l4.1,9.8
			c-0.4,0.4-0.7,0.9-0.7,1.4L101.7,147z M147.9,148.8l-2.6-8.3l2.2-0.4c0.4,0.7,1.2,1.1,1.9,1.1c0.2,0,0.5,0,0.7-0.1
			c0.6-0.2,1.1-0.6,1.4-1.1c0.3-0.5,0.3-1.2,0.1-1.8c0-0.1-0.1-0.2-0.1-0.3l3.7-4.1l0.1,10.6L147.9,148.8z M150.4,136.8
			c-0.3-0.1-0.6-0.2-0.9-0.2h-0.2l-4.1-9.8c0.5-0.4,0.7-1,0.7-1.7l21.8-7.4L150.4,136.8z M187.2,153l-1.1-5c0.5-0.3,0.9-0.9,1.1-1.5
			l5.7-0.8L187.2,153z M193.7,144.1L187,145c-0.3-0.7-1-1.1-1.8-1.2l-2-9.4l8.2,1.3L193.7,144.1z M183.7,144.1
			c-0.3,0.2-0.6,0.4-0.8,0.8l-14.1-2.8c0-0.1,0-0.3,0-0.4l12.8-7.1L183.7,144.1z M185,126.3c0.2,0,0.3,0,0.5-0.1h0.1l4.8,7.8
			l-7.2-1.2L185,126.3z M167.8,140.2l4.1-10.2l11-4.7c0.2,0.2,0.3,0.4,0.6,0.6l-1.9,7l-13.5,7.5L167.8,140.2z M175.6,154.8
			l-7.5-10.9c0.1-0.1,0.2-0.2,0.3-0.3l14.3,2.8c0,0.1,0,0.2,0.1,0.4c0.3,0.9,1,1.5,1.9,1.6l1.2,5.7L175.6,154.8z M213.1,194.8
			c-3.1,2.6-7,4.1-11.1,4.2c-2.5,0.1-5-0.7-6.9-2.3c-2.3-2.1-3.3-5.5-3.3-9.4c0-6,2.9-11.6,9.9-11.6c2,0,3.9,0.5,5.6,1.3
			c1.5,0.6,2.8,1.5,3.9,2.7l1.4,1.5v-12.9l-1.1,0.4c-0.4,0.1-0.9,0.2-1.3,0.2c-0.5,0-1-0.1-1.5-0.2c-2.3-0.7-4.6-1-7-1
			c-12.8,0-19.3,9.1-19.3,19.6c-0.2,4.4,1,8.7,3.2,12.4l-12.6-3l-10.8-18.1l15.8-11c0.1-0.1,0.2-0.2,0.3-0.4l4.1-11.4l4.6-0.3
			c0.2,0,0.4-0.1,0.6-0.3l7.9-10.1c0.2-0.2,0.2-0.5,0.1-0.7l-2.7-9.7c0-0.1-0.1-0.1-0.1-0.2l-5.9-9.4c0.3-0.6,0.4-1.2,0.2-1.9
			c-0.3-1-1.2-1.6-2.2-1.6c-0.2,0-0.5,0-0.7,0.1c-0.9,0.3-1.6,1.1-1.6,2.1l-11.5,4.8c-0.2,0.1-0.3,0.2-0.4,0.4l-4.4,10.8
			c-0.1,0-0.2,0-0.4,0.1c-1.2,0.4-1.9,1.7-1.5,2.9c0,0,0,0,0,0c0.3,1,1.2,1.6,2.2,1.6l0,0l7.8,11.3l-1.2,6.7l-14.8,7.3l-7.2-13.1
			l11.3-7.8c0.3-0.2,0.4-0.5,0.3-0.8l-3.1-19.5l9.6-10.6c0.3,0.1,0.6,0.2,0.9,0.2c0.2,0,0.5,0,0.7-0.1c1.2-0.4,1.9-1.7,1.5-2.9
			c-0.3-1-1.2-1.6-2.2-1.6c-0.2,0-0.5,0-0.7,0.1l-13-17.6c0.3-0.5,0.3-1.1,0.1-1.7c-0.2-0.8-0.9-1.4-1.8-1.6l-7-41.1
			c0.4-0.3,0.7-0.7,0.9-1.1c0.5-1.2-0.2-2.5-1.4-3c-0.3-0.1-0.5-0.2-0.8-0.2c-1,0-1.9,0.6-2.2,1.5c-0.1,0.2-0.1,0.5-0.1,0.7
			L107,60.9c-0.2-0.4-0.6-0.7-1-0.8c-0.3-0.1-0.5-0.2-0.8-0.2c-1,0-1.8,0.6-2.2,1.5c-0.3,0.9-0.1,1.9,0.7,2.6l-7,18.3h-0.1
			c-1.3,0-2.3,1-2.3,2.2c0,0.3,0,0.6,0.1,0.8l-11.1,8.9c-0.3-0.2-0.7-0.3-1.1-0.3h-0.3c-1.3,0.2-2.2,1.4-2,2.7c0,0,0,0,0,0
			c0.1,0.7,0.5,1.3,1.1,1.6l-2.7,20.7c-0.5,0.1-1,0.4-1.4,0.8c-0.8,1-0.7,2.5,0.2,3.3c0.4,0.4,1,0.6,1.5,0.6l0,0L94.3,147
			c-0.2,0.3-0.2,0.7-0.2,1.1c0.1,1.2,1.1,2.2,2.3,2.2h0.2c0.7-0.1,1.3-0.4,1.7-1l13.7-2.6l4.9,12.1c0.1,0.2,0.3,0.4,0.5,0.5l24.6,6
			l6.4,11.6l3.8,35.1c0,0.2,0.1,0.4,0.3,0.5l19.3,17.7l0.3,0.3l0.6,0.6c0.3-0.1,0.5-0.2,0.7-0.3l0.6-0.2l0.2-0.3l-0.9-0.9
			l-19.4-17.8l-3.8-35c0-0.1,0-0.2-0.1-0.3l-6.6-12.1c-0.1-0.2-0.3-0.3-0.5-0.4l-24.6-6l-4.6-11.5l6.5-1.2l1.8,7.5
			c0.1,0.3,0.4,0.6,0.7,0.6l16.7,0.9c0.4,0,0.8-0.3,0.8-0.8c0,0,0,0,0,0l-0.6-11.8l1.5-0.3l2,13.2c0,0.1,0.1,0.2,0.1,0.3l11.5,20.1
			l6.6,28.4c0,0.2,0.1,0.3,0.3,0.4l20.1,14.6l0.5-0.8l0.3-0.5l-19.8-14.4l-6.6-28.2c0-0.1,0-0.2-0.1-0.2l-11.5-20.1l-2-13.1l1.3-0.2
			l3,9.4c0.1,0.2,0.2,0.4,0.5,0.5c0.1,0,0.2,0,0.3,0c0.1,0,0.3,0,0.4-0.1l8.6-5.1c0.2-0.1,0.4-0.4,0.4-0.7l-0.1-12.7l1.7-1.9
			l2.8,17.8l-11.5,7.8c-0.3,0.2-0.4,0.7-0.3,1l7.9,14.4c0.1,0.2,0.4,0.4,0.7,0.4c0.1,0,0.2,0,0.4-0.1l15.8-7.8
			c0.2-0.1,0.4-0.3,0.4-0.6l1.3-6.8l4.7-0.4l-3.8,10.5l-16.2,11.3c-0.3,0.2-0.4,0.7-0.2,1l11.3,18.9c0.1,0.2,0.3,0.3,0.5,0.4
			l14.9,3.4c0.9,1,2,1.9,3.2,2.6c3.3,2,7.1,2.9,10.9,2.9c3.4,0,6.7-0.5,9.9-1.6c1-0.3,2-0.7,3-1.2l0.4-0.2v-10.5L213.1,194.8z"/>
	</g>
</g>
</svg>
