<?xml version="1.0" encoding="utf-8"?>
<!-- Generator: Adobe Illustrator 24.2.2, SVG Export Plug-In . SVG Version: 6.00 Build 0)  -->
<svg version="1.1" id="Calque_1" xmlns="http://www.w3.org/2000/svg" xmlns:xlink="http://www.w3.org/1999/xlink" x="0px" y="0px"
	 viewBox="0 0 1000 1000" enable-background="new 0 0 1000 1000" xml:space="preserve">
<g id="Calque_2_2_">
	<g id="Calque_1-2_1_">
		<path fill="#FFFFFF" d="M582.1,517.7l-0.4-0.9h11l-0.3,0.9c-0.7,2.9-1.1,5.8-1,8.8V544h4.6c3,0.1,6-0.2,8.9-0.9l1.1-0.4l-0.8,8.7
			h-23.4l0.4-0.9c0.8-2.8,1.1-5.8,1-8.7v-15.3c0-1.1,0-2.8-0.2-4.6C582.9,520.4,582.6,519,582.1,517.7"/>
		<path fill="#FFFFFF" d="M667.2,543.1l1.1-0.4l-0.8,8.7h-27.6l0.4-0.9c0.7-2.8,1.1-5.8,1-8.7v-15.3c0.1-3-0.3-5.9-1-8.8l-0.4-0.9
			h26.2l0.8,8.7l-1.1-0.5c-2.9-0.7-5.9-1.1-8.9-1h-7.4v6.4h4.9c3,0.1,6-0.2,8.9-0.9l1-0.4v10l-1-0.4c-2.9-0.7-5.9-1.1-8.9-1h-4.9
			v6.3h8.8c2.4,0,4.7-0.1,7-0.5C666,543.5,666.6,543.3,667.2,543.1"/>
		<path fill="#FFFFFF" d="M718.1,541.6c0-0.8-0.7-1.6-2.2-2.3c-1.4-0.7-3.5-1.6-5.6-2.5c-4.1-1.8-8.6-4.6-8.6-10
			c0-7.2,6.4-10.2,13.2-10.2c2.9,0,5.8,0.4,8.5,1.3l0.5,0.1v8.4l-1.1-0.6c-2.4-1.3-5.1-2-7.9-2c-1.4,0-5,0.4-5,2.3
			c0,0.8,0.7,1.7,2.3,2.5c4.4,2.5,14.2,4.6,14.2,13.7c0,6.6-6.9,9.5-13,9.5c-3.5-0.1-6.9-0.8-10.1-2.2l-0.4-0.2V540l1.2,1
			c2.6,2.1,5.8,3.3,9.1,3.5c1.1,0,2.3-0.2,3.3-0.6C717.5,543.5,718.1,542.7,718.1,541.6"/>
		<path fill="#FFFFFF" d="M572,690c0.2,4.5-2.6,8.6-6.8,10.1c1.1,1.7,2.4,3.9,3.9,6c1.4,2.2,3.1,4.3,5.1,6.1l1.4,1.1h-13.5v-0.6
			c-0.3-2.2-1.1-4.2-2.3-6.1c-1.2-2.1-2.7-4.2-3.5-5.6h-0.9v2.7c-0.1,2.9,0.2,5.9,1,8.7l0.3,0.9h-11l0.4-0.9c0.7-2.8,1.1-5.8,1-8.7
			v-15.3c0.1-2.9-0.3-5.9-1-8.7l-0.4-0.9h13.9c3.3-0.1,6.5,0.9,9,3C570.9,684,572.2,687,572,690 M559.7,686.2h-4.3v7.7h4.3
			c2,0.2,3.9-1.2,4.1-3.2c0-0.2,0-0.4,0-0.6c0.1-2.1-1.5-3.8-3.5-3.9C560.1,686.1,559.9,686.1,559.7,686.2"/>
		<path fill="#FFFFFF" d="M631.7,695.9c2.5,1.6,4,4.5,3.9,7.5c0,6.7-4.8,10.1-11.8,10.1h-15.2l0.4-0.9c0.8-2.8,1.1-5.8,1-8.7v-15.3
			c0.1-3-0.3-5.9-1-8.8l-0.4-0.9h15c7,0,11.4,3.2,11.4,9.8C635,691.5,633.8,694.1,631.7,695.9 M618.2,692.5h3.9
			c2.8,0,4.6-0.8,4.6-3.1c0-2.3-1.8-3.2-4.6-3.2h-3.9V692.5z M618.2,699.8v6.3h4.6c2.8,0,4.6-0.7,4.6-3.1c0-2.4-1.8-3.1-4.6-3.1
			L618.2,699.8z"/>
		<path fill="#FFFFFF" d="M679.2,713.4h-11.7l0.8-1c1.6-2.8,2.8-5.7,3.6-8.8l4.6-15.3c0.9-2.8,1.5-5.7,1.6-8.7l-0.1-0.7h14.1v0.7
			c0.1,3,0.7,5.9,1.6,8.7l4.6,15.3c0.8,3.1,2,6,3.6,8.8l0.8,1h-11.7l0.1-0.7c0-2.3-0.3-4.6-0.9-6.8h-10.1c-0.6,2.2-0.9,4.5-0.8,6.8
			L679.2,713.4z M688.1,698.7c-1-3.8-1.9-7.6-3.1-11.4c-1.1,3.8-2,7.6-3.1,11.4H688.1z"/>
		<path fill="#FFFFFF" d="M736.9,703.9v-15.3c0.1-2.9-0.3-5.9-1-8.7l-0.4-0.9h11l-0.3,0.9c-0.7,2.9-1.1,5.8-1,8.7v15.3
			c-0.1,2.9,0.2,5.9,1,8.7l0.3,0.9h-11l0.4-0.9c0.5-1.4,0.7-2.8,0.8-4.3C736.9,706.7,736.9,705,736.9,703.9"/>
		<path fill="#FFFFFF" d="M814.4,712.6l0.4,0.9h-12.3L790,691.7v12.2c-0.1,2.9,0.3,5.9,1,8.7l0.3,0.9h-10.9l0.4-0.9
			c0.8-2.8,1.1-5.8,1-8.7v-15.3c0.1-3-0.3-5.9-1-8.8l-0.4-0.9h12.4l12.5,21.8v-12.2c0.1-3-0.3-5.9-1-8.8l-0.4-0.9h10.9l-0.4,0.9
			c-0.7,2.9-1,5.8-0.9,8.8v15.3c0,1.5,0,2.9,0.2,4.4C813.7,709.7,814,711.2,814.4,712.6"/>
		<path fill="#FFFFFF" d="M876.1,705.2l1.1-0.4l-0.8,8.7h-27.6l0.4-0.9c0.7-2.8,1.1-5.8,1-8.7v-15.3c0.1-2.9-0.3-5.9-1-8.7l-0.4-0.9
			H875l0.8,8.7l-1.1-0.4c-2.9-0.7-5.9-1.1-8.9-1h-7.4v6.4h4.9c3,0.1,6-0.2,8.9-0.9l1-0.4v10l-1-0.4c-2.9-0.7-5.9-1.1-8.9-1h-4.9v6.3
			h8.7c2.4,0,4.7-0.2,7-0.6C874.9,705.5,875.5,705.3,876.1,705.2"/>
		<path fill="#FFFFFF" d="M927,703.7c0-0.8-0.8-1.6-2.2-2.3c-1.4-0.7-3.5-1.6-5.6-2.6c-4.1-1.8-8.5-4.6-8.5-10
			c0-7.2,6.4-10.2,13.2-10.2c2.9,0,5.8,0.4,8.5,1.3l0.5,0.1v8.4l-1.1-0.6c-2.4-1.3-5.1-2-7.9-2c-1.4,0-5,0.5-5,2.3
			c0,0.8,0.8,1.7,2.3,2.5c4.4,2.5,14.1,4.6,14.1,13.7c0,6.6-6.8,9.5-13,9.5c-3.5-0.1-6.9-0.9-10.1-2.3l-0.3-0.2v-9.5l1.2,1
			c2.6,2.1,5.8,3.3,9.1,3.5c1.1,0,2.3-0.2,3.3-0.6C926.3,705.5,926.9,704.6,927,703.7"/>
		<path fill="#FFFFFF" d="M458.2,660c-30.7,0-43-19.9-42.9-44.8c0-24,14.8-44.7,44-44.6c5.4,0,10.8,0.8,15.9,2.3
			c1.1,0.4,2.3,0.6,3.4,0.5c1,0.1,2.1-0.1,3.1-0.4l2.5-1v29.3l-3.2-3.4c-5.8-5.8-13.6-9-21.8-9.1c-16.2,0-22.7,12.7-22.8,26.4
			c0,15.1,6.5,26.6,23.4,26.6c9.2-0.2,18.1-3.4,25.2-9.3l3.2-2.9v23.7l-0.9,0.4c-2.2,1.1-4.5,2-6.8,2.8c-7.3,2.3-14.9,3.5-22.5,3.5"
			/>
		<path fill="#FFFFFF" d="M526,658.3h-29.1l1.8-2.6c3.7-5,7.1-15.5,9.1-21.8l11.4-38.2c1.6-5.3,4.7-16.8,4.1-21.6l-0.3-1.8h34.9
			l-0.3,1.7c0.3,7.4,1.7,14.7,4,21.8l11.4,38.2c2,6.2,5.1,16.6,8.9,21.8l2,2.6h-29.2l0.4-1.8c-0.1-5.7-0.9-11.3-2.3-16.8h-25
			c-1,4.9-2.7,12.8-2.1,16.8L526,658.3z M548.1,621.6c-2.4-9.4-4.8-18.8-7.6-28.3c-2.8,9.4-5.2,18.8-7.7,28.3H548.1z"/>
		<path fill="#FFFFFF" d="M650.1,614.5c6.3,4,10,11.1,9.7,18.6c0,16.6-12.2,25.2-29.4,25.2h-37.8l1-2.3c2-4.9,2.6-15.9,2.6-21.6
			v-38.1c0-5.6-0.6-16.9-2.5-21.8l-1-2.3h37.3c17.5,0,28.1,8,28.1,24.5C658.4,603.5,655.4,610.1,650.1,614.5 M616.6,624.3V640h11.5
			c6.8,0,11.3-1.8,11.3-7.8c0-6-4.4-7.9-11.3-7.9H616.6z M616.6,606.1h9.8c6.8,0,11.2-2,11.2-7.8s-4.4-7.9-11.2-7.9h-9.8V606.1z"/>
		<path fill="#FFFFFF" d="M695,658.4h-29.1l1.8-2.6c3.7-5,7.1-15.5,9.1-21.8l11.4-38.2c1.6-5.3,4.6-16.8,4.1-21.6l-0.3-1.8h34.9
			l-0.3,1.7c0.3,7.4,1.7,14.7,4,21.8l11.4,38.2c2,6.2,5.1,16.6,8.9,21.8l2,2.6h-29.2l0.4-1.8c-0.1-5.7-0.9-11.3-2.3-16.8h-25
			c-1,4.9-2.7,12.9-2.1,16.8L695,658.4z M717.1,621.7c-2.4-9.4-4.8-18.8-7.6-28.3c-2.8,9.4-5.1,18.8-7.7,28.3H717.1z"/>
		<path fill="#FFFFFF" d="M846.3,656.3l1,2.3h-30.7l-30.9-54.2v30.4c0,5.5,0.5,16.8,2.4,21.6l0.8,2.3h-27.3l1-2.3
			c2-4.9,2.6-16,2.6-21.7v-38.3c0-5.6-0.6-16.9-2.5-21.8l-1-2.3h30.9l31.1,54.2v-30.1c0-5.6-0.5-16.9-2.4-21.8l-1-2.3h27.2l-1,2.3
			c-2,4.8-2.3,16.2-2.3,21.8v38.2c-0.1,3.7,0.1,7.3,0.5,11C844.7,649.2,845.3,652.8,846.3,656.3"/>
		<path fill="#FFFFFF" d="M926.3,638l2.7-1l-2.1,21.5h-68.6l1-2.3c2-4.9,2.6-16,2.6-21.7v-38.1c0-5.6-0.6-16.9-2.5-21.8l-1-2.3h65.3
			l2.1,21.7l-2.8-1.1c-5-2-16.4-2.5-22.3-2.5h-18.3v15.8h12.2c5.6,0,17.1-0.3,22-2.3l2.5-1v25l-2.6-1c-5-2-16.3-2.5-22-2.5h-12.2
			v15.7H904c5.9,0,11.7-0.4,17.5-1.2C923.2,638.9,924.8,638.6,926.3,638"/>
		<path fill="#FFFFFF" d="M979.4,634.4c0-2.1-1.8-4.1-5.4-5.9s-8.7-4-13.9-6.4c-10.2-4.6-21.3-11.4-21.3-25
			c0-17.9,15.9-25.5,32.8-25.4c7.2-0.1,14.3,1,21.2,3.3l1.1,0.4v21l-2.7-1.5c-6.1-3.1-12.8-4.8-19.6-5c-3.4,0-12.4,1.1-12.4,5.9
			c0,2.1,1.8,4.2,5.5,6.3c10.9,6.1,35.2,11.4,35.2,33.8c0,16.5-17.3,23.7-32.5,23.7c-8.7-0.1-17.2-2-25.2-5.4l-0.8-0.5v-23.6
			l2.9,2.4c6.5,5.3,14.5,8.4,22.9,8.8c2.9,0.1,5.7-0.5,8.3-1.6C977.9,638.8,979.4,636.7,979.4,634.4"/>
		<path fill="#FFFFFF" d="M510.3,700.2c0,8-5.2,14-14.5,14c-9.3,0-14.4-5.9-14.4-14v-11.7c0.1-2.9-0.3-5.9-1-8.7l-0.4-0.9h11
			l-0.4,0.9c-0.7,2.9-1,5.8-0.9,8.7v11.7c0,4.1,1.7,6.6,6.2,6.6c4.5,0,6.3-2.6,6.3-6.6v-11.7c0.1-2.9-0.2-5.9-0.9-8.7l-0.4-0.9h10.9
			l-0.4,0.9c-0.8,2.8-1.1,5.8-1,8.7V700.2z"/>
		<path fill="#FFFFFF" d="M348.5,264.7h0.4c1.1,0,2.1-0.8,2.3-1.9l2.6-17.1c0.4-1.2-0.2-2.5-1.4-2.9c-1.2-0.4-2.5,0.2-2.9,1.4
			c-0.1,0.3-0.1,0.6-0.1,0.8l-2.7,17C346.5,263.2,347.3,264.3,348.5,264.7"/>
		<path fill="#FFFFFF" d="M419.4,287.7c1.1,0.5,2.4,0.1,3-1l7.9-15.3c0.8-1,0.6-2.4-0.4-3.2c-1-0.8-2.4-0.6-3.2,0.4
			c-0.2,0.2-0.3,0.5-0.4,0.8l-7.8,15.3C417.9,285.8,418.4,287.1,419.4,287.7"/>
		<path fill="#FFFFFF" d="M481.3,332.2c0.6,0,1.1-0.2,1.6-0.6l12.2-12.2c0.7-1.1,0.3-2.5-0.7-3.1c-0.7-0.5-1.7-0.5-2.4,0l-12.2,12.2
			c-0.9,0.9-0.9,2.3,0,3.2C480.1,332,480.7,332.2,481.3,332.2"/>
		<path fill="#FFFFFF" d="M539.9,381l-15.3,7.8c-1.1,0.6-1.5,1.9-1,3c0.6,1.1,1.9,1.5,3,1l15.3-7.8c1.2-0.3,1.9-1.6,1.6-2.8
			c-0.3-1.2-1.6-1.9-2.8-1.6C540.3,380.7,540,380.8,539.9,381"/>
		<path fill="#FFFFFF" d="M565.5,457.4l-17,2.7c-1.3,0.1-2.2,1.2-2.1,2.5c0.1,1.3,1.2,2.2,2.5,2.1h0.3l17-2.7c1.3,0,2.3-0.9,2.4-2.2
			c0-1.3-0.9-2.3-2.2-2.4c-0.3,0-0.6,0-0.9,0.1"/>
		<path fill="#FFFFFF" d="M348.5,735.3c-1.2,0.2-2,1.3-1.8,2.5l2.7,17c0.2,1.1,1.2,1.9,2.3,1.9h0.3c1.2-0.2,2-1.3,1.9-2.5l-2.7-17
			C350.9,736,349.8,735.2,348.5,735.3"/>
		<path fill="#FFFFFF" d="M274,735.3c-1.2-0.2-2.4,0.6-2.6,1.8l-2.8,17c-0.2,1.2,0.6,2.3,1.8,2.5h0.4c1.1,0,2.1-0.8,2.3-1.9l2.7-17
			C276,736.7,275.2,735.5,274,735.3"/>
		<path fill="#FFFFFF" d="M203.1,712.4c-1.1-0.5-2.4-0.1-3,1l-7.8,15.3c-0.5,1.1-0.1,2.4,1,3c0.3,0.2,0.7,0.2,1,0.3
			c0.8,0,1.6-0.5,2-1.2l7.8-15.3C204.6,714.3,204.1,713,203.1,712.4"/>
		<path fill="#FFFFFF" d="M139.6,668.5l-12.1,12.2c-0.9,0.9-0.8,2.4,0.1,3.2c0.4,0.4,0.9,0.6,1.5,0.6c0.6,0,1.2-0.2,1.6-0.7
			l12.2-12.2c0.7-1,0.4-2.5-0.6-3.2C141.5,668,140.4,668,139.6,668.5"/>
		<path fill="#FFFFFF" d="M98.9,608.2c-0.6-1.1-1.9-1.5-3-1L80.6,615c-1.1,0.6-1.4,2-0.8,3.1c0.4,0.6,1.1,1.1,1.8,1.1
			c0.4,0,0.7-0.1,1-0.3l15.3-7.8C99,610.6,99.4,609.3,98.9,608.2"/>
		<path fill="#FFFFFF" d="M73.3,535.4l-17,2.7c-1.3,0.1-2.2,1.2-2.1,2.5c0.1,1.3,1.2,2.2,2.5,2.1h0.3l17-2.7
			c1.3-0.2,2.1-1.4,1.9-2.6C75.7,536.1,74.5,535.2,73.3,535.4"/>
		<path fill="#FFFFFF" d="M54.5,459.3c-0.2,1.2,0.6,2.4,1.8,2.6l17,2.7h0.4c1.3,0.1,2.4-0.8,2.4-2.1s-0.8-2.4-2.1-2.4l-17.1-2.6
			C55.7,457.2,54.6,458.1,54.5,459.3"/>
		<path fill="#FFFFFF" d="M80.6,385l15.3,7.8c1.2,0.3,2.5-0.4,2.8-1.7c0.2-0.9-0.1-1.8-0.8-2.3L82.6,381c-1.2-0.4-2.5,0.3-2.8,1.5
			C79.4,383.4,79.7,384.4,80.6,385"/>
		<path fill="#FFFFFF" d="M139.6,331.5c0.4,0.4,1,0.7,1.6,0.7c1.3-0.1,2.2-1.1,2.2-2.4c0-0.5-0.2-1-0.6-1.4l-12.2-12.1
			c-1.1-0.6-2.5-0.2-3.1,1c-0.3,0.7-0.3,1.5,0,2.1L139.6,331.5z"/>
		<path fill="#FFFFFF" d="M200,286.7c0.4,0.7,1.2,1.2,2,1.2c0.3,0,0.7-0.1,1-0.2c1.1-0.6,1.5-1.9,1-3l-7.8-15.3
			c-0.7-1-2.2-1.2-3.2-0.5c-0.8,0.6-1.1,1.6-0.8,2.5L200,286.7z"/>
		<path fill="#FFFFFF" d="M273.6,264.7h0.4c1.2-0.2,2-1.4,1.8-2.6l-2.6-17c-0.2-1.2-1.4-2-2.6-1.9c-1.2,0.2-2.1,1.3-2,2.5l2.7,17
			C271.5,263.8,272.5,264.6,273.6,264.7"/>
		<path fill="#FFFFFF" d="M311.2,202.4c1.3,0,2.3-1,2.3-2.3v-8.5c0-1.3-1-2.3-2.3-2.3c-1.3,0-2.3,1-2.3,2.3v8.6c0,1.3,1,2.3,2.3,2.3
			"/>
		<path fill="#FFFFFF" d="M311.2,242.3c1.3,0,2.3-1,2.3-2.3v-13.2c0-1.3-1-2.3-2.3-2.3c-1.3,0-2.3,1-2.3,2.3v13.3
			C309,241.3,310,242.4,311.2,242.3"/>
		<path fill="#FFFFFF" d="M403.2,217.1c0.2,0.1,0.5,0.1,0.7,0.1c1,0,1.8-0.6,2.1-1.5l2.7-8.2c0.2-1.2-0.7-2.4-2-2.6
			c-0.9-0.1-1.9,0.3-2.3,1.2l-2.7,8.2C401.4,215.4,402,216.7,403.2,217.1"/>
		<path fill="#FFFFFF" d="M390.9,254.9c0.2,0.1,0.5,0.1,0.7,0.1c1,0,1.8-0.6,2.1-1.5l4.1-12.6c0.2-1.2-0.7-2.4-2-2.5
			c-0.9-0.1-1.8,0.4-2.3,1.2l-4.1,12.6C389.1,253.3,389.7,254.5,390.9,254.9"/>
		<path fill="#FFFFFF" d="M487.4,259.8c0.7,0,1.4-0.4,1.8-0.9l5.1-7c0.5-1.1,0.1-2.5-1.1-3c-0.9-0.4-1.9-0.3-2.6,0.4l-5.1,7
			c-0.7,1-0.5,2.4,0.5,3.1C486.5,259.6,486.9,259.8,487.4,259.8"/>
		<path fill="#FFFFFF" d="M464,291.9c0.7,0,1.4-0.3,1.8-0.9l7.7-10.7c0.9-0.9,1-2.3,0.1-3.2c-0.9-0.9-2.3-1-3.2-0.1
			c-0.2,0.2-0.4,0.4-0.5,0.7l-7.8,10.7c-0.7,1-0.5,2.4,0.5,3.1C463,291.8,463.5,292,464,291.9"/>
		<path fill="#FFFFFF" d="M553.7,326c0.5,0,0.9-0.1,1.3-0.4l7-5.1c1.1-0.5,1.6-1.9,1.1-3c-0.5-1.1-1.9-1.6-3-1.1
			c-0.3,0.1-0.5,0.3-0.7,0.5l-7,5.1c-1,0.8-1.1,2.2-0.4,3.2C552.5,325.7,553.1,326,553.7,326"/>
		<path fill="#FFFFFF" d="M521.5,349.5c0.5,0,0.9-0.1,1.3-0.4l10.7-7.7c1.1-0.5,1.6-1.9,1.1-3c-0.5-1.1-1.9-1.6-3-1.1
			c-0.2,0.1-0.5,0.3-0.7,0.5l-10.7,7.7c-1,0.8-1.1,2.2-0.4,3.2C520.2,349.1,520.9,349.4,521.5,349.5"/>
		<path fill="#FFFFFF" d="M606.6,404c-0.4-1.2-1.6-1.8-2.8-1.4l-8.2,2.7c-1.2,0.4-1.8,1.6-1.4,2.8c0.3,0.9,1.2,1.5,2.1,1.5
			c0.2,0,0.5,0,0.7-0.1l8.2-2.7C606.3,406.4,607,405.2,606.6,404"/>
		<path fill="#FFFFFF" d="M570.3,413.4l-12.6,4.1c-1.2,0.5-1.7,1.8-1.2,3c0.3,0.8,1.1,1.3,1.9,1.4c0.2,0,0.5,0,0.7,0l12.6-4.1
			c1.2-0.4,1.8-1.6,1.4-2.8c-0.4-1.2-1.6-1.8-2.8-1.4"/>
		<path fill="#FFFFFF" d="M406,784.4c-0.4-1.2-1.6-1.8-2.8-1.4c-1.2,0.4-1.8,1.6-1.4,2.8l2.7,8.2c0.3,0.9,1.2,1.5,2.1,1.5
			c0.2,0,0.5,0,0.7-0.1c1.2-0.4,1.8-1.6,1.4-2.8L406,784.4z"/>
		<path fill="#FFFFFF" d="M393.7,746.5c-0.4-1.1-1.6-1.8-2.8-1.4c-1.2,0.4-1.8,1.6-1.5,2.8l4.1,12.6c0.3,0.9,1.2,1.5,2.1,1.5
			c0.2,0,0.5,0,0.7,0c1.2-0.4,1.8-1.6,1.4-2.8L393.7,746.5z"/>
		<path fill="#FFFFFF" d="M311.2,797.5c-1.3,0-2.3,1-2.3,2.3v8.6c0,1.3,1,2.3,2.3,2.3c1.3,0,2.3-1,2.3-2.3v-8.6
			C313.5,798.5,312.5,797.5,311.2,797.5"/>
		<path fill="#FFFFFF" d="M311.2,757.7c-1.3,0-2.3,1-2.3,2.3v13.3c0,1.3,1,2.3,2.3,2.3c1.3,0,2.3-1,2.3-2.3V760
			C313.5,758.7,312.5,757.7,311.2,757.7"/>
		<path fill="#FFFFFF" d="M219.3,783c-1.2-0.4-2.4,0.3-2.8,1.4l-2.7,8.2c-0.4,1.2,0.3,2.4,1.4,2.8c0.2,0.1,0.5,0.1,0.7,0.1
			c1,0,1.8-0.6,2.1-1.5l2.7-8.2C221.1,784.6,220.5,783.4,219.3,783"/>
		<path fill="#FFFFFF" d="M231.6,745.1c-1.2-0.4-2.4,0.3-2.8,1.4l-4.1,12.6c-0.4,1.2,0.3,2.4,1.4,2.8c0.2,0,0.5,0,0.7,0
			c1,0,1.8-0.6,2.1-1.5l4.1-12.6c0.4-1.2-0.3-2.4-1.4-2.8"/>
		<path fill="#FFFFFF" d="M133.3,741.2l-5.1,7c-0.7,1-0.5,2.4,0.5,3.1c1,0.7,2.4,0.5,3.1-0.5l5.1-7c0.5-1.1,0-2.5-1.1-3
			C134.9,740.4,133.9,740.5,133.3,741.2"/>
		<path fill="#FFFFFF" d="M156.7,709l-7.8,10.7c-0.6,1.1-0.3,2.5,0.8,3.1c1,0.6,2.2,0.4,2.9-0.5l7.8-10.7c0.5-1.1,0-2.5-1.1-3
			C158.4,708.2,157.4,708.3,156.7,709"/>
		<path fill="#FFFFFF" d="M67.4,674.4l-7,5.1c-1,0.8-1.1,2.2-0.4,3.2c0.4,0.5,1,0.8,1.7,0.9c0.5,0,0.9-0.2,1.3-0.4l7-5.1
			c1.1-0.5,1.6-1.9,1.1-3c-0.5-1.1-1.9-1.6-3-1.1C67.9,674,67.6,674.1,67.4,674.4"/>
		<path fill="#FFFFFF" d="M99.6,650.9l-10.7,7.8c-1,0.7-1.2,2.1-0.5,3.1c0.4,0.6,1.1,0.9,1.8,0.9c0.5,0,0.9-0.1,1.3-0.4l10.7-7.8
			c1-0.7,1.2-2.1,0.5-3.1C102,650.4,100.6,650.2,99.6,650.9"/>
		<path fill="#FFFFFF" d="M25.5,590.5l-8.2,2.7c-1.1,0.4-1.7,1.7-1.3,2.8c0.3,0.9,1.2,1.5,2.1,1.5c0.2,0,0.5,0,0.7-0.1l8.2-2.7
			c1.2-0.2,2.1-1.3,2-2.6c-0.2-1.2-1.3-2.1-2.6-2C26.1,590.3,25.8,590.4,25.5,590.5"/>
		<path fill="#FFFFFF" d="M66.2,579.6c-0.4-1.2-1.6-1.8-2.8-1.5l-12.6,4.1c-1.2,0.4-1.8,1.6-1.4,2.8c0.3,0.9,1.2,1.5,2.1,1.5
			c0.2,0,0.5,0,0.7-0.1l12.6-4.1C65.9,582,66.5,580.8,66.2,579.6"/>
		<path fill="#FFFFFF" d="M11.5,497.8H2.9c-1.3,0-2.3,1-2.3,2.3s1,2.3,2.3,2.3h8.6c1.3,0,2.3-1,2.3-2.3S12.8,497.8,11.5,497.8"/>
		<path fill="#FFFFFF" d="M53.6,500c0-1.3-1-2.3-2.3-2.3H38c-1.3,0-2.3,1-2.3,2.3s1,2.3,2.3,2.3h13.3
			C52.6,502.3,53.6,501.3,53.6,500"/>
		<path fill="#FFFFFF" d="M17.3,406.8l8.2,2.8c0.2,0.1,0.5,0.1,0.7,0.1c1,0,1.8-0.6,2.1-1.5c0.4-1.2-0.3-2.4-1.4-2.8l-8.2-2.8
			c-1.2-0.2-2.4,0.7-2.6,2C16,405.5,16.5,406.4,17.3,406.8"/>
		<path fill="#FFFFFF" d="M50.7,417.7l12.6,4.1c0.2,0,0.5,0,0.7,0c1.3-0.1,2.2-1.2,2.1-2.5c-0.1-0.8-0.6-1.6-1.4-1.9l-12.6-4.1
			c-1.2-0.2-2.4,0.7-2.5,2c-0.1,0.9,0.4,1.8,1.2,2.3"/>
		<path fill="#FFFFFF" d="M67.4,325.6c1.1,0.5,2.5,0.1,3-1.1c0.4-0.9,0.2-1.9-0.4-2.6l-7-5.1c-1.1-0.5-2.5,0-3,1.1
			c-0.4,0.8-0.2,1.8,0.4,2.5L67.4,325.6z"/>
		<path fill="#FFFFFF" d="M99.6,349c0.4,0.3,0.8,0.4,1.3,0.4c1.3-0.1,2.2-1.1,2.2-2.4c0-0.7-0.3-1.3-0.9-1.7l-10.7-7.8
			c-1.1-0.6-2.5-0.2-3.1,0.9c-0.5,0.9-0.3,2.1,0.5,2.8L99.6,349z"/>
		<path fill="#FFFFFF" d="M133.3,258.8c0.7,1,2.1,1.2,3.1,0.5c1-0.7,1.2-2.1,0.5-3.1l-5.1-7c-0.5-1.1-1.9-1.6-3-1.1
			c-1.1,0.5-1.6,1.9-1.1,3c0.1,0.3,0.3,0.5,0.5,0.7L133.3,258.8z"/>
		<path fill="#FFFFFF" d="M156.7,291c0.4,0.6,1.1,0.9,1.8,0.9c0.5,0,0.9-0.1,1.3-0.4c1-0.7,1.2-2.1,0.5-3.1l-7.7-10.7
			c-0.5-1.1-1.9-1.6-3-1.1c-1.1,0.5-1.6,1.9-1.1,3c0.1,0.3,0.3,0.5,0.5,0.7L156.7,291z"/>
		<path fill="#FFFFFF" d="M216.5,215.6c0.3,0.9,1.2,1.5,2.1,1.5c0.2,0,0.5,0,0.7-0.1c1.2-0.4,1.9-1.6,1.5-2.8l-2.7-8.2
			c-0.6-1.1-2-1.5-3.1-0.9c-0.8,0.5-1.3,1.4-1.2,2.3L216.5,215.6z"/>
		<path fill="#FFFFFF" d="M228.8,253.5c0.3,0.9,1.2,1.5,2.1,1.5c0.2,0,0.5,0,0.7-0.1c1.2-0.4,1.8-1.6,1.4-2.8l-4.1-12.6
			c-0.6-1.1-2-1.5-3.1-0.9c-0.8,0.4-1.3,1.3-1.2,2.3L228.8,253.5z"/>
		<path fill="#FFFFFF" d="M500.6,680c0.7,2.8,1,5.6,0.9,8.5v11.7c0,4-1.8,6-5.6,6c-3.8,0-5.6-1.9-5.6-6v-11.7
			c-0.2-2.9,0.1-5.7,0.9-8.5l0.8-1.8h-13l0.8,1.8c0.7,2.8,1,5.6,1,8.5v11.7c0,8.9,5.9,14.6,15.1,14.6c9.2,0,15.1-5.7,15.1-14.6
			v-11.7c-0.1-2.9,0.2-5.7,0.9-8.5l0.8-1.8h-12.9L500.6,680z"/>
		<path fill="#FFFFFF" d="M348.3,265.3h0.5c1.4,0,2.6-1,2.8-2.4l2.7-17c0.3-1.5-0.8-3-2.3-3.3c-1.6-0.2-3,0.8-3.3,2.4l-2.7,17
			C345.8,263.5,346.8,265,348.3,265.3z M349.9,245.2c0.1-0.8,0.8-1.4,1.6-1.3h0.3c0.9,0.1,1.5,0.9,1.3,1.8c0,0,0,0,0,0l-2.7,17
			c-0.1,0.9-1,1.5-1.8,1.3l0,0c-0.9-0.1-1.5-0.9-1.3-1.8L349.9,245.2z"/>
		<path fill="#FFFFFF" d="M419.1,288.3c1.4,0.7,3.1,0.2,3.9-1.2c0,0,0,0,0,0l7.8-15.3c0.7-1.4,0.1-3.2-1.3-3.9
			c-0.7-0.4-1.5-0.4-2.3-0.2c-0.7,0.2-1.3,0.7-1.7,1.4l-7.7,15.3c-0.4,0.7-0.5,1.5-0.2,2.3C417.9,287.4,418.4,287.9,419.1,288.3z
			 M419.1,285l7.8-15.3c0.2-0.4,0.5-0.7,0.9-0.8c0.2,0,0.3,0,0.5,0c0.3,0,0.5,0.1,0.7,0.2c0.8,0.4,1.1,1.4,0.7,2.1l-7.8,15.3
			c-0.4,0.8-1.4,1.1-2.1,0.7l0,0c-0.4-0.2-0.7-0.5-0.8-0.9c-0.2-0.4-0.2-0.9,0-1.3H419.1z"/>
		<path fill="#FFFFFF" d="M481.3,332.8c0.8,0,1.5-0.3,2-0.8l12.2-12.2c0.5-0.5,0.8-1.3,0.8-2c0-0.8-0.3-1.5-0.8-2
			c-1.1-1.1-2.9-1.1-4.1,0c0,0,0,0,0,0l-12.2,12.2c-1.1,1.1-1.1,3,0,4.1C479.8,332.5,480.6,332.8,481.3,332.8z M480.2,328.8
			l12.2-12.2c0.6-0.6,1.7-0.6,2.3,0.1c0.3,0.3,0.4,0.7,0.4,1.1c0,0.4-0.2,0.8-0.5,1.1l-12.2,12.2c-0.6,0.6-1.6,0.6-2.3,0
			C479.5,330.4,479.6,329.4,480.2,328.8z"/>
		<path fill="#FFFFFF" d="M541.8,380.2c-0.8-0.2-1.6-0.2-2.3,0.2l-15.3,7.8c-1.4,0.7-2,2.5-1.3,3.9c0.5,1,1.5,1.6,2.6,1.6
			c0.5,0,0.9-0.1,1.3-0.3l15.3-7.8c1.4-0.7,2-2.4,1.3-3.9C543.1,381,542.5,380.5,541.8,380.2z M541.6,384.4l-15.3,7.8
			c-0.8,0.4-1.7,0.1-2.1-0.7c-0.4-0.8-0.1-1.7,0.7-2.1l15.3-7.8l0,0c0.2-0.1,0.5-0.2,0.7-0.2c0.2,0,0.3,0,0.5,0
			c0.4,0.1,0.7,0.4,0.9,0.8C542.8,383,542.5,383.9,541.6,384.4C541.7,384.4,541.6,384.4,541.6,384.4L541.6,384.4z"/>
		<path fill="#FFFFFF" d="M565.3,456.8l-17,2.7c-1.6,0.3-2.6,1.8-2.3,3.4c0.2,1.4,1.4,2.4,2.8,2.4h0.5l17-2.7
			c0.8-0.1,1.4-0.5,1.9-1.2c0.4-0.6,0.6-1.4,0.5-2.1C568.4,457.7,567,456.6,565.3,456.8C565.4,456.8,565.4,456.8,565.3,456.8z
			 M567.1,460.6c-0.3,0.3-0.6,0.6-1,0.6l-17,2.7c-0.9,0.2-1.7-0.4-1.9-1.2c-0.2-0.9,0.4-1.7,1.2-1.9c0.1,0,0.1,0,0.2,0l17-2.7
			c0.9-0.1,1.7,0.5,1.8,1.3C567.4,459.8,567.3,460.3,567.1,460.6z"/>
		<path fill="#FFFFFF" d="M348.3,734.7L348.3,734.7c-1.5,0.3-2.5,1.8-2.3,3.3l2.7,17c0.2,1.4,1.4,2.4,2.8,2.4h0.5
			c1.5-0.3,2.5-1.8,2.3-3.3l-2.7-17C351.4,735.6,349.9,734.5,348.3,734.7z M351.7,756.1c-0.9,0.1-1.7-0.4-1.8-1.3c0,0,0,0,0,0
			l-2.7-17c-0.1-0.9,0.5-1.7,1.3-1.8c0.9-0.1,1.7,0.4,1.8,1.3c0,0,0,0,0,0l2.7,17C353.2,755.1,352.6,755.9,351.7,756.1L351.7,756.1z
			"/>
		<path fill="#FFFFFF" d="M274.1,734.7L274.1,734.7c-1.6-0.2-3,0.8-3.3,2.4l-2.7,17c-0.2,1.6,0.8,3.1,2.4,3.3c0,0,0,0,0,0h0.4
			c1.4,0,2.6-1,2.8-2.4l2.7-17c0.1-0.8,0-1.5-0.5-2.2C275.5,735.2,274.8,734.8,274.1,734.7z M272.5,754.8c-0.1,0.8-0.8,1.3-1.6,1.3
			h-0.3c-0.9-0.1-1.5-1-1.3-1.8l2.7-17c0.1-0.8,0.8-1.3,1.6-1.3h0.3c0.4,0.1,0.8,0.3,1,0.6c0.2,0.3,0.3,0.8,0.3,1.2L272.5,754.8z"/>
		<path fill="#FFFFFF" d="M203.3,711.7c-0.7-0.4-1.5-0.4-2.3-0.2c-0.7,0.2-1.3,0.7-1.7,1.4l-7.8,15.3c-0.7,1.4-0.2,3.1,1.2,3.9
			c0,0,0,0,0,0c0.4,0.2,0.9,0.3,1.3,0.3c1.1,0,2.1-0.6,2.6-1.6l7.8-15.3C205.3,714.2,204.7,712.5,203.3,711.7z M203.5,715l-7.8,15.3
			c-0.4,0.8-1.4,1.1-2.1,0.7c-0.8-0.4-1.1-1.4-0.7-2.1l7.8-15.3c0.2-0.4,0.5-0.7,0.9-0.8c0.2,0,0.3,0,0.5,0c0.3,0,0.5,0.1,0.7,0.2
			C203.5,713.4,203.8,714.3,203.5,715z"/>
		<path fill="#FFFFFF" d="M141.2,667.2L141.2,667.2c-0.8,0-1.5,0.3-2,0.8l-12.2,12.2c-0.5,0.5-0.8,1.3-0.8,2c0,1.6,1.3,2.9,2.9,2.9
			c0.8,0,1.5-0.3,2-0.8l12.2-12.2c1.1-1.1,1.1-3,0-4.1C142.6,667.5,141.9,667.2,141.2,667.2L141.2,667.2z M142.3,671.2l-12.2,12.2
			c-0.6,0.6-1.6,0.6-2.3,0c-0.6-0.6-0.7-1.6-0.1-2.2c0,0,0,0,0.1-0.1l12.2-12.2l0,0c0.3-0.3,0.7-0.5,1.1-0.5l0,0
			c0.4,0,0.8,0.2,1.1,0.5C142.9,669.5,142.9,670.6,142.3,671.2L142.3,671.2z"/>
		<path fill="#FFFFFF" d="M99.5,607.9c-0.3-0.7-0.9-1.2-1.7-1.4c-0.7-0.3-1.6-0.2-2.3,0.2l-15.3,7.9c-0.7,0.3-1.2,0.9-1.4,1.7
			c-0.3,0.7-0.2,1.6,0.2,2.3c0.5,1,1.5,1.6,2.6,1.6c0.5,0,0.9-0.1,1.3-0.3l15.3-7.8c1.4-0.7,2-2.4,1.3-3.8
			C99.6,608,99.5,607.9,99.5,607.9z M97.6,610.6l-15.3,7.8c-0.8,0.4-1.7,0.1-2.1-0.7c-0.2-0.4-0.2-0.8,0-1.2
			c0.1-0.4,0.4-0.7,0.8-0.9l15.3-7.8c0.2-0.1,0.5-0.2,0.7-0.2c0.2,0,0.3,0,0.5,0c0.4,0.1,0.7,0.4,0.9,0.8c0.4,0.8,0.1,1.7-0.6,2.2
			C97.7,610.6,97.7,610.6,97.6,610.6z"/>
		<path fill="#FFFFFF" d="M73.2,534.8l-17,2.7c-1.6,0.3-2.6,1.7-2.4,3.3c0.2,1.4,1.4,2.5,2.8,2.4h0.5l17-2.7
			c1.5-0.3,2.5-1.8,2.3-3.3C76.2,535.7,74.8,534.6,73.2,534.8z M73.9,539.4l-17,2.5c-0.9,0.1-1.7-0.4-1.8-1.3c0,0,0,0,0,0
			c-0.1-0.9,0.5-1.7,1.3-1.8l17-2.7c0.9-0.1,1.7,0.5,1.8,1.3c0.1,0.9-0.5,1.7-1.3,1.8L73.9,539.4z"/>
		<path fill="#FFFFFF" d="M53.8,459.2L53.8,459.2c-0.2,1.6,0.8,3,2.4,3.3l17,2.7h0.5c1.6,0,2.8-1.3,2.8-2.9c0-0.6-0.2-1.2-0.5-1.6
			c-0.4-0.6-1.1-1.1-1.9-1.2l-17-2.7C55.5,456.6,54.1,457.7,53.8,459.2z M75,461.5c0.2,0.3,0.3,0.8,0.3,1.2c-0.2,0.9-1,1.4-1.8,1.3
			l-17-2.7c-0.9-0.2-1.4-1-1.2-1.9c0.2-0.8,0.9-1.3,1.7-1.2l17,2.7C74.3,460.9,74.7,461.1,75,461.5L75,461.5z"/>
		<path fill="#FFFFFF" d="M80.3,385.6l15.3,7.8c0.4,0.2,0.8,0.3,1.3,0.3c1.6,0,2.9-1.3,2.9-2.9c0-0.3,0-0.6-0.1-0.9
			c-0.2-0.7-0.8-1.3-1.4-1.7l-15.3-7.8c-1.5-0.6-3.2,0-3.8,1.5C78.5,383.2,79,384.8,80.3,385.6z M80.3,382.3
			c0.2-0.4,0.5-0.7,0.9-0.8c0.4-0.2,0.8-0.2,1.2,0l15.3,7.8c0.4,0.2,0.7,0.5,0.8,0.9c0.2,0.4,0.2,0.8,0,1.2
			c-0.4,0.8-1.4,1.1-2.1,0.7l-15.3-7.8l0,0c-0.8-0.3-1.2-1.2-0.9-2L80.3,382.3z"/>
		<path fill="#FFFFFF" d="M139.1,332c1.1,1.1,3,1.1,4.1,0c0.5-0.5,0.8-1.3,0.8-2c0-0.8-0.3-1.5-0.8-2L131,315.7
			c-0.5-0.6-1.3-0.9-2-0.9c-1.6,0-2.9,1.3-2.9,2.9c0,0.8,0.3,1.5,0.8,2L139.1,332z"/>
		<path fill="#FFFFFF" d="M199.5,287c0.5,1,1.5,1.6,2.6,1.6c0.5,0,0.9-0.1,1.3-0.3c0.7-0.3,1.3-0.9,1.5-1.6c0.3-0.8,0.2-1.6-0.2-2.3
			l-7.8-15.3c-0.5-1-1.5-1.6-2.6-1.6c-0.5,0-0.9,0.1-1.3,0.3c-1.4,0.7-2,2.5-1.3,3.9L199.5,287z"/>
		<path fill="#FFFFFF" d="M273.6,265.3h0.5c0.8-0.1,1.4-0.5,1.9-1.2c0.5-0.6,0.6-1.4,0.5-2.1l-2.7-17c-0.3-1.6-1.7-2.6-3.3-2.4
			c-1.5,0.3-2.5,1.8-2.3,3.3l2.7,17C271.1,264.3,272.2,265.3,273.6,265.3z M270.7,243.9h0.2c0.8,0,1.5,0.6,1.6,1.3l2.7,17
			c0.1,0.4,0,0.8-0.3,1.2c-0.5,0.7-1.5,0.9-2.2,0.4c-0.3-0.2-0.6-0.6-0.6-1l-2.7-17C269.2,244.8,269.8,244,270.7,243.9
			C270.6,243.9,270.7,243.9,270.7,243.9z"/>
		<path fill="#FFFFFF" d="M311.2,203.1c1.6,0,2.9-1.2,2.9-2.8c0,0,0,0,0-0.1v-8.6c0-1.6-1.3-2.9-2.9-2.9c-1.6,0-2.9,1.3-2.9,2.9v8.6
			C308.4,201.8,309.7,203.1,311.2,203.1z M309.6,191.8c0-0.9,0.7-1.6,1.6-1.6c0.9,0,1.6,0.7,1.6,1.6v8.5c0,0.9-0.7,1.6-1.6,1.6
			c-0.9,0-1.6-0.7-1.6-1.6V191.8z"/>
		<path fill="#FFFFFF" d="M311.2,243c1.6,0,2.9-1.2,2.9-2.8c0,0,0,0,0-0.1v-13.3c0-1.6-1.3-2.9-2.9-2.9c-1.6,0-2.9,1.3-2.9,2.9v13.3
			C308.4,241.7,309.7,242.9,311.2,243z M309.6,226.8c0-0.9,0.7-1.6,1.6-1.6c0.9,0,1.6,0.7,1.6,1.6v13.3c0,0.9-0.7,1.6-1.6,1.6
			c-0.9,0-1.6-0.7-1.6-1.6V226.8z"/>
		<path fill="#FFFFFF" d="M403,217.7c0.3,0.1,0.6,0.1,0.9,0.1c1.3,0,2.4-0.8,2.8-2l2.7-8.2c0.4-1.5-0.5-3.1-2-3.5
			c-1.4-0.4-2.9,0.4-3.4,1.7l-2.7,8.2c-0.3,0.7-0.2,1.6,0.2,2.3C401.6,217,402.2,217.5,403,217.7z M402.3,214.5l2.7-8.2
			c0.2-0.7,0.8-1.1,1.5-1.1c0.2,0,0.3,0,0.5,0c0.8,0.3,1.3,1.2,1,2l-2.7,8.2c-0.3,0.8-1.2,1.3-2,1l0,0c-0.4-0.1-0.7-0.4-0.9-0.8
			C402.3,215.2,402.2,214.8,402.3,214.5z"/>
		<path fill="#FFFFFF" d="M390.7,255.5c0.3,0.1,0.6,0.1,0.9,0.1c1.2,0,2.4-0.8,2.8-2l4.1-12.6c0.5-1.5-0.3-3.1-1.8-3.6c0,0,0,0,0,0
			c-1.5-0.5-3.1,0.3-3.6,1.8c0,0,0,0,0,0.1l-4.1,12.6c-0.3,0.7-0.2,1.6,0.2,2.3C389.4,254.9,390,255.3,390.7,255.5z M390,252.3
			l4.1-12.6c0.1-0.4,0.4-0.7,0.8-0.9c0.2-0.1,0.5-0.2,0.7-0.2c0.2,0,0.3,0,0.5,0c0.8,0.3,1.3,1.2,1,2l-4.1,12.6
			c-0.3,0.8-1.2,1.3-2,1l0,0C390.3,253.9,389.8,253.1,390,252.3L390,252.3z"/>
		<path fill="#FFFFFF" d="M487.4,260.4c0.9,0,1.7-0.5,2.3-1.2l5.1-7c0.7-1.4,0.1-3.2-1.3-3.9c-1.1-0.5-2.3-0.3-3.2,0.5l-5.1,7
			c-0.5,0.6-0.6,1.4-0.5,2.1c0.1,0.8,0.5,1.4,1.1,1.9C486.3,260.2,486.8,260.4,487.4,260.4z M486.1,256.6l5.1-7
			c0.3-0.4,0.8-0.7,1.3-0.7c0.3,0,0.7,0.1,0.9,0.3c0.7,0.5,0.9,1.5,0.4,2.3c0,0,0,0,0,0l-5.1,6.9c-0.5,0.7-1.5,0.9-2.2,0.4
			c0,0,0,0-0.1,0c-0.4-0.2-0.6-0.6-0.6-1C485.7,257.4,485.8,256.9,486.1,256.6z"/>
		<path fill="#FFFFFF" d="M464,292.6c0.9,0,1.7-0.5,2.3-1.2l7.8-10.7c0.5-0.6,0.6-1.4,0.5-2.1c-0.1-0.8-0.5-1.4-1.2-1.9
			c-0.6-0.5-1.4-0.6-2.1-0.5c-0.8,0.1-1.4,0.5-1.9,1.2l-7.8,10.7c-0.9,1.3-0.6,3.1,0.6,4C462.8,292.4,463.4,292.6,464,292.6z
			 M462.7,288.8l7.8-10.7c0.2-0.3,0.6-0.6,1-0.6h0.3c0.3,0,0.7,0.1,1,0.3c0.3,0.3,0.6,0.6,0.6,1c0,0.4-0.1,0.8-0.3,1.2l-7.8,10.7
			c-0.5,0.7-1.4,1-2.2,0.5c-0.7-0.5-1-1.4-0.5-2.2C462.6,288.9,462.7,288.9,462.7,288.8L462.7,288.8z"/>
		<path fill="#FFFFFF" d="M553.7,326.7c0.6,0,1.2-0.2,1.7-0.5l6.9-5.1c1.3-0.9,1.6-2.7,0.6-4c-0.5-0.6-1.1-1-1.9-1.1
			c-0.8-0.1-1.5,0-2.1,0.5l-7,5.1c-1.3,1-1.6,2.8-0.6,4.1C551.9,326.3,552.8,326.7,553.7,326.7z M552.8,322.5l7-5.1
			c0.3-0.2,0.6-0.3,0.9-0.3h0.3c0.4,0.1,0.8,0.3,1,0.6c0.5,0.7,0.4,1.7-0.2,2.2c0,0-0.1,0-0.1,0.1l-7,5.1c-0.7,0.5-1.7,0.4-2.3-0.4
			C551.9,324.1,552,323.1,552.8,322.5C552.7,322.6,552.8,322.5,552.8,322.5z"/>
		<path fill="#FFFFFF" d="M521.5,350.1c0.6,0,1.2-0.2,1.7-0.6l10.7-7.8c1.3-0.9,1.6-2.7,0.6-4c-0.9-1.3-2.7-1.6-4-0.7c0,0,0,0,0,0
			l-10.7,7.8c-0.6,0.5-1,1.1-1.2,1.9c-0.2,1.6,0.9,3.1,2.4,3.3C521.2,350.1,521.4,350.1,521.5,350.1z M520.6,345.9l10.7-7.8
			c0.3-0.2,0.6-0.3,0.9-0.3h0.3c0.9,0.1,1.5,1,1.3,1.8c-0.1,0.4-0.3,0.8-0.6,1l-10.7,7.8c-0.7,0.5-1.7,0.4-2.3-0.3c0,0,0,0,0,0
			c-0.5-0.7-0.4-1.7,0.3-2.2C520.5,345.8,520.5,345.8,520.6,345.9L520.6,345.9z"/>
		<path fill="#FFFFFF" d="M607.2,403.8L607.2,403.8c-0.5-1.5-2.1-2.3-3.6-1.8l-8.2,2.7c-1.5,0.5-2.3,2.2-1.8,3.7
			c0.4,1.2,1.5,1.9,2.7,1.9c0.3,0,0.6,0,0.9-0.1l8.2-2.7C606.9,406.9,607.7,405.3,607.2,403.8z M605,406.2l-8.2,2.7
			c-0.8,0.3-1.7-0.2-2-1c-0.3-0.8,0.2-1.7,1-2l8.2-2.7h0.5c0.9,0,1.6,0.7,1.6,1.6C606,405.5,605.6,406.1,605,406.2L605,406.2z"/>
		<path fill="#FFFFFF" d="M570.2,412.8l-12.6,4.1c-1.5,0.5-2.3,2.2-1.8,3.7c0.4,1.1,1.5,1.9,2.7,1.9c0.3,0,0.6,0,0.9-0.1l12.6-4.1
			c0.7-0.2,1.3-0.7,1.7-1.4c0.4-0.7,0.5-1.5,0.2-2.3C573.3,413.1,571.7,412.3,570.2,412.8z M572.4,416.3c-0.2,0.4-0.5,0.6-0.9,0.8
			l-12.6,4.1c-0.8,0.3-1.7-0.1-2-0.9c0,0,0-0.1,0-0.1c-0.3-0.8,0.2-1.7,1-2l12.6-4.1c0.8-0.3,1.7,0.2,2,1c0.2,0.4,0.1,0.9-0.1,1.3
			L572.4,416.3z"/>
		<path fill="#FFFFFF" d="M406.6,784.2c-0.4-1.2-1.5-2-2.8-2c-0.3,0-0.6,0-0.9,0.1c-0.7,0.2-1.3,0.7-1.7,1.4
			c-0.4,0.7-0.5,1.5-0.2,2.3l2.7,8.2c0.4,1.2,1.5,2,2.7,2c0.3,0,0.6,0,0.9-0.1c0.7-0.2,1.3-0.7,1.7-1.4c0.4-0.7,0.4-1.5,0.2-2.3
			L406.6,784.2z"/>
		<path fill="#FFFFFF" d="M394.3,746.3c-0.4-1.2-1.5-2-2.7-2c-0.3,0-0.6,0.1-0.9,0.2c-0.7,0.2-1.3,0.7-1.7,1.4
			c-0.4,0.7-0.4,1.5-0.2,2.3l4.1,12.6c0.4,1.2,1.5,2,2.7,2c0.3,0,0.6,0,0.9-0.1c1.5-0.5,2.3-2.1,1.9-3.6L394.3,746.3z"/>
		<path fill="#FFFFFF" d="M311.2,796.8c-1.6,0-2.9,1.3-2.9,2.9v8.6c0,1.6,1.3,2.9,2.9,2.9c1.6,0,2.9-1.3,2.9-2.9v-8.6
			C314.1,798.1,312.8,796.8,311.2,796.8z M312.8,808.2c0,0.9-0.7,1.6-1.6,1.6c-0.9,0-1.6-0.7-1.6-1.6c0,0,0,0,0,0v-8.6
			c0-0.9,0.7-1.6,1.6-1.6s1.6,0.7,1.6,1.6c0,0,0,0,0,0V808.2z"/>
		<path fill="#FFFFFF" d="M311.2,757c-1.6,0-2.9,1.3-2.9,2.9c0,0,0,0,0,0v13.3c0,1.6,1.3,2.9,2.9,2.9c1.6,0,2.9-1.3,2.9-2.9v-13.3
			C314.1,758.3,312.8,757,311.2,757z M312.8,773.2c0,0.9-0.7,1.6-1.6,1.6c-0.9,0-1.6-0.7-1.6-1.6c0,0,0,0,0,0v-13.3
			c0-0.9,0.7-1.6,1.6-1.6c0.9,0,1.6,0.7,1.6,1.6V773.2z"/>
		<path fill="#FFFFFF" d="M219.5,782.3c-1.5-0.5-3.1,0.3-3.6,1.8c0,0,0,0,0,0l-2.7,8.2c-0.5,1.5,0.3,3.1,1.8,3.6
			c0.3,0.1,0.6,0.1,0.9,0.1c1.3,0,2.4-0.8,2.8-2l2.7-8.2c0.3-0.8,0.2-1.6-0.2-2.3C220.8,783,220.2,782.5,219.5,782.3z M220.1,785.5
			l-2.7,8.2c-0.3,0.8-1.1,1.3-2,1c0,0,0,0,0,0c-0.4-0.1-0.7-0.4-0.9-0.8c-0.2-0.4-0.2-0.8,0-1.2l2.7-8.2c0.2-0.7,0.8-1.1,1.5-1.1
			c0.2,0,0.3,0,0.5,0l0,0c0.4,0.1,0.7,0.4,0.9,0.8C220.3,784.6,220.2,785.1,220.1,785.5z"/>
		<path fill="#FFFFFF" d="M231.8,744.5c-1.5-0.5-3.1,0.3-3.6,1.8l-4.1,12.6c-0.3,0.8-0.2,1.6,0.2,2.3c0.3,0.7,0.9,1.2,1.7,1.4
			c0.3,0.1,0.6,0.1,0.9,0.1c1.2,0,2.3-0.8,2.7-2l4.1-12.6C234.1,746.7,233.3,745,231.8,744.5C231.8,744.5,231.8,744.5,231.8,744.5
			L231.8,744.5z M232.4,747.7l-4.1,12.6c-0.3,0.8-1.1,1.3-2,1c0,0,0,0,0,0c-0.4-0.1-0.7-0.4-0.9-0.8c-0.2-0.4-0.2-0.8,0-1.2
			l4.1-12.6c0.2-0.7,0.8-1.1,1.5-1.1c0.2,0,0.3,0,0.5,0c0.4,0.1,0.7,0.4,0.9,0.8C232.6,746.8,232.6,747.3,232.4,747.7z"/>
		<path fill="#FFFFFF" d="M134.6,739.7c-0.8,0.1-1.4,0.5-1.9,1.2l-5.1,7c-0.9,1.3-0.6,3.1,0.6,4c0.5,0.3,1.1,0.5,1.6,0.5
			c0.9,0,1.7-0.5,2.3-1.2l5.2-6.9c0.5-0.6,0.6-1.4,0.5-2.2c-0.1-0.7-0.5-1.4-1.1-1.9C136.1,739.8,135.4,739.6,134.6,739.7z
			 M136.3,743.5l-5.1,7c-0.5,0.7-1.5,0.9-2.2,0.4c-0.4-0.3-0.6-0.6-0.7-1.1c-0.1-0.4,0-0.8,0.3-1.2l5.1-7l0,0c0.3-0.3,0.6-0.6,1-0.6
			h0.3c0.3,0,0.7,0.1,0.9,0.3c0.3,0.2,0.6,0.6,0.6,1C136.7,742.7,136.6,743.1,136.3,743.5L136.3,743.5z"/>
		<path fill="#FFFFFF" d="M158,707.4c-0.7,0.1-1.4,0.5-1.9,1.2l-7.8,10.7c-0.5,0.6-0.6,1.4-0.5,2.1c0.1,0.8,0.5,1.4,1.2,1.9
			c1.3,0.9,3.1,0.6,4-0.6l7.8-10.7c0.4-0.6,0.6-1.4,0.5-2.1c-0.1-0.8-0.5-1.4-1.2-1.9C159.5,707.5,158.8,707.3,158,707.4z
			 M159.8,711.2l-7.8,10.7c-0.5,0.7-1.5,0.9-2.3,0.4c-0.7-0.5-0.9-1.5-0.4-2.2c0,0,0,0,0-0.1l7.8-10.7l0,0c0.3-0.3,0.6-0.6,1-0.6
			h0.3c0.3,0,0.7,0.1,0.9,0.3C160,709.5,160.2,710.5,159.8,711.2C159.7,711.2,159.7,711.3,159.8,711.2L159.8,711.2z"/>
		<path fill="#FFFFFF" d="M69.2,673.3c-0.8-0.1-1.5,0.1-2.1,0.5l-7,5.1c-0.6,0.5-1,1.1-1.2,1.9c-0.2,1.6,0.8,3.1,2.4,3.3
			c0.8,0.1,1.5-0.1,2.1-0.5l7-5.1c1.3-0.9,1.6-2.7,0.6-4C70.6,673.9,69.9,673.4,69.2,673.3z M69.7,677.5l-7,5.1
			c-0.7,0.5-1.7,0.4-2.3-0.4c-0.3-0.3-0.4-0.8-0.3-1.2c0.1-0.4,0.3-0.8,0.6-1l7-5.1l0,0c0.3-0.2,0.6-0.3,0.9-0.3h0.3
			c0.9,0.1,1.5,0.9,1.3,1.8C70.2,676.8,70,677.2,69.7,677.5L69.7,677.5z"/>
		<path fill="#FFFFFF" d="M101.4,649.9c-0.8-0.1-1.5,0.1-2.1,0.5l-10.7,7.8c-0.6,0.4-1,1.1-1.1,1.9c-0.2,0.8,0,1.6,0.5,2.3
			c0.5,0.7,1.4,1.2,2.3,1.2c0.6,0,1.2-0.2,1.7-0.5l10.7-7.8c1.3-0.9,1.6-2.7,0.6-4C102.8,650.5,102.2,650.1,101.4,649.9z
			 M101.9,654.1l-10.8,7.8c-0.7,0.5-1.7,0.4-2.2-0.3c-0.3-0.4-0.4-0.8-0.3-1.3c0.1-0.4,0.3-0.8,0.6-1l10.7-7.8l0,0
			c0.3-0.2,0.6-0.3,0.9-0.3h0.3c0.9,0.1,1.5,1,1.3,1.8C102.4,653.4,102.1,653.8,101.9,654.1L101.9,654.1z"/>
		<path fill="#FFFFFF" d="M25.3,589.9l-8.2,2.7c-0.7,0.2-1.4,0.7-1.7,1.4c-0.4,0.7-0.4,1.5-0.2,2.3c0.4,1.2,1.5,2,2.8,2
			c0.3,0,0.6,0,0.9-0.1l8.2-2.7c1.6-0.4,2.5-1.9,2.1-3.5c-0.4-1.6-1.9-2.5-3.5-2.1C25.5,589.9,25.4,589.9,25.3,589.9L25.3,589.9z
			 M26.7,594.1l-8.2,2.7c-0.8,0.3-1.7-0.2-2-1c-0.2-0.4-0.2-0.8,0-1.2c0.2-0.4,0.5-0.7,0.9-0.8l8.2-2.7c0.8-0.3,1.7,0.1,2.1,0.9
			S27.6,593.8,26.7,594.1C26.7,594.1,26.6,594.1,26.7,594.1L26.7,594.1z"/>
		<path fill="#FFFFFF" d="M66.8,579.4L66.8,579.4c-0.5-1.5-2.1-2.4-3.6-1.9c0,0,0,0,0,0l-12.6,4.1c-1.5,0.5-2.3,2.1-1.8,3.6
			c0.4,1.2,1.5,2,2.7,2c0.3,0,0.7,0,1-0.1l12.6-4.1C66.5,582.6,67.3,580.9,66.8,579.4z M51.9,585.9c-0.8,0.2-1.7-0.2-2-1
			c-0.3-0.8,0.2-1.7,1-2l12.6-4.1H64c0.7,0,1.3,0.4,1.5,1.1c0.3,0.8-0.2,1.7-1,2c0,0,0,0,0,0L51.9,585.9z"/>
		<path fill="#FFFFFF" d="M11.5,497.1H2.9c-1.6,0-2.9,1.3-2.9,2.9c0,1.6,1.3,2.9,2.9,2.9c0,0,0,0,0,0h8.6c1.6,0,2.9-1.3,2.9-2.9
			C14.4,498.4,13.1,497.1,11.5,497.1z M11.5,501.7H2.9c-0.9,0-1.6-0.7-1.6-1.6c0-0.9,0.7-1.6,1.6-1.6c0,0,0,0,0,0h8.6
			c0.9,0,1.6,0.7,1.6,1.6C13.1,500.9,12.4,501.7,11.5,501.7z"/>
		<path fill="#FFFFFF" d="M54.2,500c0-1.6-1.3-2.9-2.8-2.9c0,0,0,0,0,0H38c-1.6-0.1-3,1-3.1,2.6c-0.1,1.6,1,3,2.6,3.1
			c0.2,0,0.3,0,0.5,0h13.3C52.9,502.9,54.2,501.6,54.2,500C54.2,500,54.2,500,54.2,500z M36.5,500c0-0.9,0.7-1.6,1.6-1.6h13.3
			c0.9,0,1.6,0.7,1.6,1.6c0,0.9-0.7,1.6-1.6,1.6c0,0,0,0,0,0H38C37.2,501.6,36.4,500.9,36.5,500C36.4,500,36.4,500,36.5,500
			L36.5,500z"/>
		<path fill="#FFFFFF" d="M17.1,407.5l8.2,2.7c0.3,0.1,0.6,0.1,0.9,0.1c1.6,0.1,2.9-1.2,3-2.8c0-1.3-0.8-2.5-2.1-2.8l-8.2-2.7
			c-1.5-0.4-3.1,0.5-3.5,2C15,405.4,15.7,406.9,17.1,407.5z M16.5,404.2c0.3-0.8,1.2-1.3,2-1l8.2,2.7c0.8,0.3,1.3,1.2,1,2
			c-0.3,0.8-1.2,1.3-2,1l-8.2-2.7C16.7,406,16.2,405.1,16.5,404.2z"/>
		<path fill="#FFFFFF" d="M50.5,418.3l12.6,4.1c0.3,0.1,0.6,0.1,0.9,0.1c1.6,0,2.9-1.4,2.8-2.9c0-1.2-0.8-2.3-1.9-2.7l-12.6-4.1
			c-1.5-0.5-3.1,0.4-3.6,1.8c-0.3,0.7-0.2,1.6,0.2,2.3C49.3,417.6,49.8,418.1,50.5,418.3z M49.9,415.1c0.2-0.6,0.8-1.1,1.5-1.1
			c0.2,0,0.3,0,0.5,0l12.6,4.1c0.4,0.1,0.7,0.4,0.9,0.8c0.4,0.8,0.1,1.7-0.6,2.2c-0.4,0.2-0.9,0.3-1.3,0.1l-12.6-4.1
			c-0.4-0.1-0.7-0.4-0.9-0.8C49.8,415.9,49.8,415.5,49.9,415.1z"/>
		<path fill="#FFFFFF" d="M67.1,326.1c0.5,0.4,1.1,0.6,1.7,0.6c1.6,0,2.9-1.3,2.9-2.9c0-0.9-0.4-1.8-1.2-2.4l-7-5.1
			c-0.5-0.4-1.1-0.6-1.7-0.5c-0.9,0-1.7,0.5-2.3,1.2c-0.5,0.6-0.6,1.4-0.5,2.1c0.1,0.8,0.5,1.4,1.2,1.9L67.1,326.1z"/>
		<path fill="#FFFFFF" d="M99.3,349.5c0.5,0.4,1.1,0.6,1.7,0.6c1.6,0,2.9-1.3,2.9-2.9c0-0.9-0.4-1.8-1.2-2.4l-10.7-7.8
			c-0.5-0.4-1.1-0.6-1.7-0.5c-0.9,0-1.7,0.5-2.3,1.2c-0.5,0.6-0.6,1.4-0.5,2.1c0.1,0.8,0.5,1.4,1.1,1.9L99.3,349.5z"/>
		<path fill="#FFFFFF" d="M132.7,259.2c0.5,0.7,1.4,1.2,2.3,1.2c1.6,0,2.9-1.4,2.8-3c0-0.6-0.2-1.1-0.5-1.6l-5.1-7
			c-0.5-0.7-1.4-1.2-2.3-1.2c-0.6,0-1.2,0.2-1.7,0.5c-0.6,0.5-1,1.1-1.1,1.9c-0.1,0.8,0.1,1.5,0.5,2.1L132.7,259.2z"/>
		<path fill="#FFFFFF" d="M156.1,291.4c0.5,0.7,1.4,1.2,2.3,1.2c0.6,0,1.2-0.2,1.7-0.5c0.6-0.4,1-1.1,1.2-1.9
			c0.1-0.8-0.1-1.5-0.5-2.1l-7.8-10.7c-0.9-1.3-2.7-1.6-4-0.6c-0.6,0.5-1,1.1-1.2,1.9c-0.1,0.8,0.1,1.5,0.5,2.1L156.1,291.4z"/>
		<path fill="#FFFFFF" d="M215.9,215.8c0.4,1.2,1.5,2,2.7,2c0.3,0,0.6,0,0.9-0.1c1.5-0.5,2.3-2.1,1.8-3.6l-2.7-8.2
			c-0.4-1.2-1.5-2-2.8-2c-0.3,0-0.6,0-0.9,0.1c-0.7,0.2-1.3,0.7-1.7,1.4c-0.4,0.7-0.4,1.5-0.2,2.3L215.9,215.8z"/>
		<path fill="#FFFFFF" d="M228.2,253.7c0.4,1.2,1.5,2,2.8,2c1.1,0,2.1-0.6,2.6-1.6c0.4-0.7,0.4-1.5,0.2-2.3l-4.1-12.6
			c-0.4-1.2-1.5-2-2.8-2c-0.3,0-0.6,0.1-0.9,0.2c-0.7,0.2-1.3,0.7-1.7,1.4c-0.4,0.7-0.4,1.5-0.2,2.3L228.2,253.7z"/>
		<path fill="#FFFFFF" d="M467.3,334.7c-92.5-86.2-237.3-81.1-323.5,11.3s-81.1,237.3,11.3,323.5c64.5,60.1,157.8,77.9,239.9,45.6
			c0.6-0.2,1-0.7,1.1-1.3c0.1-0.6-0.1-1.2-0.5-1.6L350,670.4l-8.7-79.7c0-0.2-0.1-0.5-0.2-0.7L326,562.6c-0.2-0.4-0.7-0.8-1.1-0.9
			l-56-13.7l-10.5-26.2l14.8-2.7l4,17.1c0.2,0.8,0.8,1.3,1.6,1.4l38.1,2.1c1,0,1.8-0.8,1.8-1.8c0,0,0,0,0,0l-1.3-26.8l3.4-0.6
			l4.6,30.1c0,0.2,0.1,0.4,0.2,0.6l26.2,45.5l15,64.7c0.1,0.4,0.4,0.8,0.7,1l37.8,27.3c0.3,0.2,0.7,0.3,1,0.3c0.6,0,1.1-0.3,1.4-0.7
			c0.3-0.4,0.4-0.9,0.3-1.3c-0.1-0.5-0.3-0.9-0.7-1.1L370,650L355.1,586c0-0.2-0.1-0.3-0.2-0.5l-26.2-45.7l-4.6-29.9l2.9-0.5
			l6.8,21.4c0.2,0.5,0.6,0.9,1.1,1.1c0.2,0,0.4,0,0.6,0c0.3,0,0.6-0.1,0.9-0.3l19.5-11.7c0.5-0.3,0.9-0.9,0.9-1.5l-0.3-29l3.9-4.3
			l6.5,40.6l-26.2,17.8c-0.7,0.5-1,1.5-0.5,2.3l18,32.8c0.3,0.6,0.9,0.9,1.5,0.9c0.3,0,0.5-0.1,0.8-0.2l35.9-17.8
			c0.5-0.2,0.9-0.7,1-1.3l2.9-15.6l10.7-0.8l-8.5,24l-36.8,25.7c-0.7,0.5-0.9,1.5-0.5,2.3l25.8,43.1c0.2,0.4,0.6,0.7,1.1,0.8l35,8.1
			l0.8-3.5l-34.1-7.9l-24.6-41.1l35.9-25c0.3-0.2,0.5-0.5,0.7-0.8l9.3-26l10.4-0.8c0.5,0,0.9-0.3,1.3-0.7l18-22.9
			c0.3-0.5,0.5-1,0.3-1.6l-6.2-22.1c0-0.2-0.1-0.3-0.2-0.5l-13.4-21.5c0.8-1.3,1-2.8,0.5-4.3c-0.7-2.2-2.7-3.7-5.1-3.7
			c-0.5,0-1.1,0.1-1.6,0.3c-2.1,0.7-3.5,2.6-3.6,4.8l-26.3,11.2c-0.4,0.2-0.8,0.5-1,1l-10,24.5c-0.3,0-0.5,0-0.8,0.1
			c-2.8,0.9-4.4,3.9-3.5,6.7c0,0,0,0,0,0c0.7,2.2,2.8,3.7,5.1,3.6l0,0l17.8,25.8l-2.8,15.3l-33.6,16.7l-16.4-29.9L370,528
			c0.6-0.4,0.9-1.1,0.8-1.8l-7.1-44.5l21.9-24.2c0.6,0.3,1.3,0.4,2,0.4c0.5,0,1.1-0.1,1.6-0.3c1.3-0.4,2.5-1.4,3.1-2.6
			c1.3-2.6,0.3-5.8-2.3-7.2c-1.2-0.6-2.7-0.8-4-0.4l-29.6-40.1c0.6-1.2,0.7-2.6,0.3-3.8c-0.6-1.8-2.1-3.2-4-3.6l-15.9-93.5
			c0.9-0.6,1.7-1.5,2.1-2.5c1-2.7-0.4-5.8-3.1-6.8c-2.7-1-5.8,0.4-6.8,3.1c-0.2,0.5-0.3,1.1-0.3,1.7l-85,25.3
			c-0.6-0.8-1.3-1.5-2.3-1.9c-0.6-0.2-1.2-0.3-1.9-0.3c-2.2,0-4.2,1.4-5,3.4c-0.8,2.1-0.1,4.4,1.6,5.9L220.1,376l0,0
			c-2.9-0.1-5.2,2.2-5.3,5.1c0,0.7,0.1,1.3,0.3,1.9l-25.3,20.3c-0.8-0.5-1.7-0.7-2.6-0.7c-0.2,0-0.5,0-0.8,0c-2.9,0.4-5,3.1-4.6,6
			c0,0,0,0,0,0c0.2,1.6,1.1,2.9,2.5,3.7l-6.1,47c-2.9,0.5-4.9,3.2-4.4,6.1c0.4,2.6,2.6,4.5,5.3,4.5l0,0l35.6,53.5
			c-0.4,0.8-0.5,1.6-0.5,2.4c0.2,2.8,2.5,4.9,5.3,4.9h0.4c1.6-0.1,3-1,3.9-2.3l31.1-5.8l11.1,27.7c0.2,0.5,0.7,0.9,1.2,1l56.1,13.7
			l14.6,26.5l8.6,79.9c0.1,0.4,0.3,0.8,0.6,1.1l43.9,40.3c-116.3,43.8-246.2-14.9-290-131.3s14.9-246.2,131.3-290
			s246.2,14.9,290,131.3c7.4,19.6,12,40.2,13.7,61.1l-47.5,75.3c-0.5,0.8-0.2,1.9,0.6,2.4c0.8,0.5,1.8,0.2,2.4-0.5l47.8-75.8
			c0.2-0.3,0.3-0.7,0.3-1.1C535.1,427,509.3,373.7,467.3,334.7z M426.3,537.1l-2.4-11.4c1.2-0.7,2.1-2,2.4-3.4l12.9-1.8L426.3,537.1
			z M441.1,516.8l-15.4,2.1c-0.8-1.5-2.3-2.6-4-2.8l-4.6-21.4l18.6,3L441.1,516.8z M418.3,516.9c-0.7,0.4-1.3,1-1.8,1.7l-32-6.3
			c0-0.3,0-0.7,0-1l29.2-16.1L418.3,516.9z M421.2,476.3c0.4,0,0.8-0.1,1.1-0.2h0.2l11,17.7l-16.5-2.7L421.2,476.3z M381.9,508
			l9.4-23.2l25-10.6c0.3,0.5,0.8,0.9,1.3,1.3l-4.4,15.9l-30.8,17L381.9,508z M382.6,516.4c0.3-0.2,0.5-0.4,0.7-0.7l32.5,6.4
			c0,0.3,0.1,0.6,0.1,0.8c0.6,2,2.4,3.4,4.4,3.6l2.8,13l-23.4,1.7L382.6,516.4z M280.4,534.3l-3.7-15.6l37.1-6.8l1.2,24.4
			L280.4,534.3z M336.7,527.5l-6-18.8l5-0.9c1,1.5,2.6,2.5,4.4,2.5c0.5,0,1.1-0.1,1.6-0.3c1.4-0.4,2.5-1.4,3.1-2.6
			c0.7-1.2,0.8-2.7,0.3-4.1c-0.1-0.3-0.2-0.5-0.3-0.7l8.4-9.3l0.2,24.2L336.7,527.5z M342.3,500.2c-0.7-0.3-1.4-0.4-2.1-0.4h-0.4
			l-9.4-22.4c1.1-1,1.7-2.4,1.7-3.8l49.6-16.9L342.3,500.2z M351.8,410.6c0.5,0,1-0.1,1.4-0.2c0.2-0.1,0.4-0.2,0.6-0.3l29.4,39.7
			c-0.6,0.8-0.9,1.8-0.9,2.8l-51.4,17.6c-0.2-0.3-0.5-0.6-0.8-0.8l20.9-58.9L351.8,410.6z M287.5,453.9l59.7-43.3l-20.4,57.5l0,0
			c-0.5,0-1.1,0.1-1.6,0.3c-0.9,0.3-1.7,0.8-2.3,1.5l-35.2-14.4c0-0.2,0-0.4,0-0.7C287.7,454.5,287.7,454.1,287.5,453.9L287.5,453.9
			z M303.2,399.8c-0.3,0.3-0.6,0.6-0.9,1l-76.6-19.8l57.6-23.1c0.9,1.1,2.3,1.8,3.7,1.8h0.4L303.2,399.8z M291.2,359.8l55,43.5
			l-34.6-1.3c-0.4-1.6-1.6-2.8-3.1-3.4c-0.5-0.2-1.1-0.3-1.7-0.3h-0.4L291.2,359.8z M301.4,404.2c0.1,1.2,0.7,2.4,1.5,3.3l-20,42.7
			c-0.3,0-0.5,0-0.8,0l0,0c-0.5,0-1,0.2-1.5,0.3l-55.6-66L301.4,404.2z M306.2,408.9h0.5c2.1,0,4.1-1.3,4.9-3.3l34.8,1.3l-59.4,42.9
			L306.2,408.9z M332,307.2c0.4,0.1,0.8,0.2,1.3,0.3l15.9,93.2l-0.3,0.2L292.2,356c0.5-1.4,0.3-2.9-0.4-4.2L332,307.2z M244.6,330.6
			l84-25l-39.4,43.8h-0.2c-0.6-0.2-1.2-0.3-1.8-0.3c-1.4,0-2.7,0.6-3.7,1.5l-39-19.5L244.6,330.6z M239.2,335.6h0.1
			c1.3,0,2.6-0.5,3.6-1.4l39,19.4c0,0.3,0,0.5,0,0.8l-58,23.3c-0.2-0.2-0.3-0.3-0.5-0.5L239.2,335.6z M217.3,385.7
			c0.3,0.2,0.6,0.4,0.9,0.5c1.2,0.4,2.5,0.4,3.8,0l53.7,63.7l-83.1-41.1c0.1-0.5,0.1-1.1,0-1.6c-0.1-0.4-0.2-0.8-0.4-1.2
			L217.3,385.7z M277.2,454.6c0,0.1,0,0.3,0,0.4l-37.6,11.6c-0.6-2.3-2.7-3.9-5.1-4h-0.4c-0.8,0.1-1.6,0.3-2.3,0.8l-39-50.5
			L277.2,454.6z M188,413.2L188,413.2c0.2,0,0.3-0.1,0.5-0.1l41,53.2c-0.2,0.5-0.3,1.1-0.3,1.6l-44.7-2.7c0-0.3,0-0.7,0-1
			c-0.1-1.7-1.1-3.3-2.7-4.1L188,413.2z M219.7,520.2h-0.4l0,0c-0.7,0-1.4,0.2-2,0.6l-34.6-52.1l48,2.9c0.4,0.5,0.9,0.9,1.5,1.2
			L219.7,520.2z M223.2,520.6l12.5-47.4c1.5-0.3,2.8-1.3,3.5-2.6l37.9-11.7L223.2,520.6z M280.5,460.3c0.6,0.3,1.3,0.4,2,0.4h0.3
			c1.4-0.1,2.6-0.7,3.5-1.8l35.2,14.4c0,0.3,0,0.6,0,0.9l-94.7,47.5L280.5,460.3z M231.4,523.4l91.8-46.1c1,0.9,2.3,1.4,3.6,1.4h0.3
			l9.4,22.4c-0.9,0.8-1.5,2-1.6,3.2L231.4,523.4z"/>
		<path fill="#FFFFFF" d="M182.4,468l48.6,2.9c0.5,0.6,1.2,1.1,1.9,1.4l-12.7,48.4c-0.3,0-0.6,0-0.9,0c-0.8,0.1-1.6,0.3-2.3,0.8
			l-35.3-53c0.2-0.1,0.4-0.3,0.6-0.5 M187.3,412.6c0.2,0,0.4,0,0.6,0c0.3-0.1,0.5-0.2,0.8-0.3l41.5,53.9c-0.3,0.7-0.5,1.5-0.4,2.3
			c0,0.1,0,0.2,0,0.3l-46.2-2.8c0.2-0.5,0.2-1,0.2-1.5c-0.2-1.7-1.2-3.1-2.7-3.8L187.3,412.6z M329.8,304.8l0.2,0.3l-40.7,45.1
			c-0.2-0.1-0.3-0.2-0.5-0.3c-1.8-0.7-3.9-0.2-5.2,1.4l-39.9-19.9c0.1-0.4,0.2-0.8,0.2-1.2L329.8,304.8z M354,518l-17.8,10.6
			l-6.4-20.3l6.2-1.1c1,2,3.3,3,5.5,2.3c2.4-0.7,3.8-3.2,3.1-5.6c0-0.1,0-0.2-0.1-0.2c-0.1-0.3-0.3-0.7-0.5-1l9.8-10.8L354,518z
			 M315.7,537l-35.7-2.1l-3.9-16.8l38.5-7.1L315.7,537z M323.3,476.5c1.1,1.2,2.7,1.8,4.2,1.5l9.8,23.3c-1.1,0.9-1.8,2.2-1.8,3.6
			l-108.4,19.9L323.3,476.5z M235.1,472.6c1.5-0.2,2.9-1.2,3.5-2.6l39.8-12.3l0.2,0.2L222.8,522c-0.2-0.1-0.3-0.3-0.5-0.4
			L235.1,472.6z M277.9,454.4c-0.1,0.4-0.2,0.8-0.2,1.2l-38.7,11.9c-0.3-2.5-2.5-4.3-5-4.1c-0.9,0.1-1.7,0.4-2.4,1l-41-53.3
			L277.9,454.4z M383,453.2l-52.4,17.9c-0.3-0.5-0.8-1-1.3-1.3l21.3-59.9c0.8,0.2,1.6,0.2,2.4,0c0.4-0.1,0.7-0.3,1-0.5l30,40.6
			C383.3,450.8,382.9,452,383,453.2 M224.1,383.5l77.9,20.1c0,1.4,0.6,2.7,1.7,3.6l-20.5,43.6c-0.4-0.1-0.8-0.2-1.2-0.2
			c-0.6,0.1-1.2,0.2-1.7,0.5l-56.5-67.2C223.9,383.8,224,383.6,224.1,383.5 M305.8,408.1c2.2,0.5,4.4-0.7,5.2-2.8c0,0,0-0.2,0-0.3
			l36,1.3c0,0.2,0,0.3,0,0.5c0,0,0,0.2,0.2,0.3l-61.7,44.7l0,0L305.8,408.1z M325.6,469c-0.9,0.3-1.7,0.9-2.3,1.7l-36.2-14.8
			c0.1-0.3,0.1-0.7,0.1-1c-0.1-0.5-0.2-0.9-0.4-1.3l61.7-44.6l-21.2,59.9c-0.6-0.1-1.3,0-1.9,0.2 M290,357.9l57.4,45.5
			c0,0.2-0.1,0.4-0.2,0.6l-36-1.3c-0.3-1.6-1.4-2.8-2.8-3.4c-0.7-0.3-1.5-0.3-2.3-0.2l-16.2-41l0,0 M285.3,358.9
			c0.7,0.3,1.5,0.3,2.3,0.2l16.2,41c-0.6,0.4-1,0.9-1.3,1.5l-77.7-20.3c0-0.2,0-0.4,0-0.7l58.8-23.6c0.5,0.7,1.2,1.3,2,1.7
			 M224.2,523.8l56.2-64.4c0.7,0.4,1.6,0.6,2.4,0.6c1.3-0.1,2.6-0.8,3.4-1.9l36.1,14.8c-0.1,0.5-0.1,1.1,0,1.7L224.2,523.8z
			 M342.4,501c-0.9-0.5-2-0.7-3.1-0.5l-9.7-23.3c1.3-1,1.9-2.5,1.8-4.1l52.4-17.8l0,0L342.4,501z M331.9,306.5c0,0,0.2,0.1,0.3,0.2
			c0.5,0.2,1.1,0.3,1.6,0.3l16.1,94.2c-0.4,0.2-0.8,0.4-1.1,0.6l-57.4-45.5c0,0,0.1-0.2,0.2-0.3c0.5-1.4,0.3-3-0.5-4.2L331.9,306.5z
			 M242.8,333.4l39.9,19.9c-0.1,0.5-0.1,1.1,0,1.6l-58.9,23.6c-0.3-0.4-0.7-0.8-1.1-1l16.1-42.5
			C240.3,335.2,241.8,334.6,242.8,333.4 M191.3,405.8l25.9-20.9c0.3,0.3,0.7,0.5,1.1,0.7c1.2,0.5,2.6,0.4,3.7-0.2l56,66.5
			l-86.3-42.8c0.2-0.6,0.2-1.3,0.1-1.9C191.8,406.7,191.6,406.2,191.3,405.8 M390.8,484.3l25.9-10.9c0.4,0.8,1,1.4,1.8,1.8
			l-4.6,16.6l-31.5,17.4c-0.4-0.4-0.8-0.7-1.3-0.9L390.8,484.3z M441.8,517.3l-16.5,2.3c-0.7-1.7-2.3-2.8-4.1-2.9l-4.9-22.8
			l19.9,3.3L441.8,517.3z M383,515.1l33.4,6.6c0,0.4,0,0.8,0,1.2c0.6,1.9,2.3,3.2,4.3,3.2l3.1,14.2l-24.5,1.8l-17.7-25.7
			c0.5-0.3,1-0.8,1.3-1.3 M440.5,519.8l-14.8,18.8l-2.8-13.1c1.4-0.7,2.4-2,2.6-3.6L440.5,519.8z M420.7,475.6c0.5,0,1,0,1.4-0.2
			c0.2-0.1,0.4-0.2,0.6-0.3l12.1,19.5l-18.6-3.1L420.7,475.6z M414,494.2l5,23c-1,0.4-1.8,1.2-2.3,2.1l-33-6.5
			c0.1-0.6,0-1.2-0.2-1.8l0,0L414,494.2z M466.9,335.2c-92.3-85.9-236.7-80.7-322.6,11.5s-80.7,236.7,11.5,322.6
			c64.3,59.9,157.2,77.5,239,45.4c0.6-0.2,0.9-0.9,0.7-1.4c-0.1-0.2-0.2-0.3-0.3-0.5l-45.7-42l-8.7-79.8c0-0.2,0-0.3-0.1-0.4
			L325.6,563c-0.2-0.3-0.4-0.5-0.7-0.5l-56.3-13.7l-10.9-27.3l16.2-3l4.2,17.7c0.1,0.5,0.5,0.8,1,0.9l37.9,2.1l0,0
			c0.3,0,0.6-0.1,0.8-0.3c0.2-0.2,0.3-0.5,0.3-0.9l-1.3-27.3l4.6-0.8l4.6,30.8c0,0.1,0.1,0.3,0.1,0.4l26.2,45.8l15,64.7
			c0.1,0.3,0.2,0.5,0.4,0.7l37.8,27.3c0.2,0.1,0.4,0.2,0.7,0.2c0.4,0,0.7-0.2,0.9-0.5c0.4-0.5,0.2-1.2-0.3-1.6l-37.4-27.1
			l-14.9-64.4c0-0.1-0.1-0.2-0.1-0.3l-26.2-45.8l-4.6-30.7l4.1-0.8l6.8,21.9c0.1,0.3,0.3,0.6,0.7,0.7c0.1,0,0.3,0,0.4,0
			c0.2,0,0.4,0,0.6-0.2l19.6-11.7c0.3-0.2,0.5-0.6,0.5-1l-0.3-29.2l5-5.5l6.8,42.3l-26.5,18.1c-0.5,0.3-0.6,1-0.3,1.5l18,32.8
			c0.2,0.4,0.6,0.6,1,0.6c0.2,0,0.3,0,0.5-0.1l35.9-17.8c0.3-0.2,0.5-0.5,0.6-0.8l3-16.1l12.2-0.9l-8.9,25l-37,25.8
			c-0.5,0.3-0.6,1-0.3,1.5l25.8,43.3c0.2,0.3,0.4,0.4,0.7,0.5l34.3,7.9l0.5-2.3l-33.9-7.8l-25-41.8l36.4-25.4
			c0.2-0.1,0.3-0.3,0.4-0.5l9.4-26.4l10.8-0.8c0.3,0,0.6-0.2,0.8-0.4l18-22.9c0.2-0.3,0.3-0.7,0.2-1l-6.2-22.1
			c0-0.1-0.1-0.2-0.1-0.3l-13.7-21.9c0.9-1.2,1.1-2.7,0.7-4.1c-0.7-2.4-3.2-3.8-5.6-3.1c-0.1,0-0.1,0-0.2,0.1
			c-2,0.6-3.3,2.5-3.2,4.6l-26.5,11.3c-0.3,0.1-0.5,0.3-0.6,0.6L378.8,508c-0.4,0-0.7,0-1,0.1c-2.4,0.7-3.8,3.2-3.1,5.6
			c0,0.1,0,0.1,0.1,0.2c0.6,2.1,2.7,3.4,4.8,3.2l18.2,26.3l-2.9,15.9l-34.4,17.1l-17-31l26.3-17.9c0.4-0.2,0.6-0.7,0.5-1.1
			l-7.1-44.8l22.4-24.8c1.1,0.6,2.4,0.7,3.6,0.3c2.5-0.8,3.8-3.4,3-5.9c-0.8-2.5-3.4-3.8-5.9-3c-0.1,0-0.2,0.1-0.3,0.2l-30.2-41
			c0.7-1.1,0.8-2.5,0.4-3.7c-0.6-1.8-2.1-3-4-3.2L336,306.3c1-0.5,1.8-1.4,2.3-2.4c0.9-2.4-0.3-5.1-2.7-6c-2.4-0.9-5.1,0.3-6,2.7
			c-0.2,0.6-0.3,1.3-0.3,1.9l-86,25.6c-0.5-0.9-1.3-1.6-2.3-2c-2.4-0.9-5.1,0.3-6,2.7c-0.8,2,0,4.2,1.7,5.4l-16.1,42.5
			c-2.1-0.3-4.1,0.9-4.9,2.9c-0.4,1.2-0.4,2.5,0.1,3.6l-26,20.9c-0.9-0.6-2.1-0.9-3.2-0.8c-2.5,0.4-4.3,2.8-3.9,5.3
			c0.2,1.5,1.2,2.8,2.5,3.4l-6.4,48l0,0c-2.6,0.4-4.4,2.7-4,5.3c0.3,2.3,2.3,4.1,4.7,4l0,0l35.9,54c-0.4,0.7-0.6,1.6-0.6,2.4
			c0.2,2.6,2.4,4.5,5,4.3c1.5-0.1,2.8-1,3.5-2.3l31.9-5.9l11.4,28.2c0.1,0.3,0.4,0.6,0.8,0.7l56.4,13.7l14.8,26.9l8.6,80.2
			c0,0.3,0.2,0.5,0.3,0.7l44.7,41c-116.4,44.5-246.9-13.9-291.4-130.3s13.9-246.9,130.3-291.4c116.4-44.5,246.9,13.9,291.4,130.3
			c7.6,20,12.4,41,14.1,62.4l-47.6,75.5c-0.3,0.5-0.2,1.2,0.4,1.5c0.5,0.3,1.2,0.2,1.5-0.3c0,0,0,0,0,0l47.8-75.8
			c0.1-0.2,0.2-0.4,0.2-0.7C534.5,427.3,508.8,374.1,466.9,335.2"/>
	</g>
</g>
</svg>
