<?xml version="1.0" encoding="utf-8"?>
<!-- Generator: Adobe Illustrator 24.2.3, SVG Export Plug-In . SVG Version: 6.00 Build 0)  -->
<svg version="1.1" id="Calque_1" xmlns="http://www.w3.org/2000/svg" xmlns:xlink="http://www.w3.org/1999/xlink" x="0px" y="0px"
	 viewBox="0 0 831.8 1000" enable-background="new 0 0 831.8 1000" xml:space="preserve">
<path fill-rule="evenodd" clip-rule="evenodd" fill="#DE5A31" d="M787.8,646.2l-59.5-534.7c26.8-4.2,47.4-27.4,47.4-55.4
	c0-31-25.1-56.1-56.1-56.1c-31,0-56.1,25.1-56.1,56.1c0,13.2,4.5,25.2,12.1,34.8L86,896.5c-8.7-5.5-18.9-8.7-29.9-8.7
	C25.1,887.9,0,913,0,943.9s25.1,56.1,56.1,56.1c30.9,0,56-25,56.1-55.9l618.4-209.9c10.2,13.8,26.6,22.8,45.2,22.8
	c31,0,56.1-25.1,56.1-56.1C831.8,674.1,813,651.7,787.8,646.2z M109,925.4c-2.1-6-5.2-11.5-9-16.3l589.7-805.6
	c5.9,3.8,12.6,6.4,19.8,7.8l59.4,534.1c-27.8,3.4-49.3,27-49.3,55.6c0,5.7,0.9,11.2,2.4,16.4L109,925.4z"/>
</svg>
