<?xml version="1.0" encoding="utf-8"?>
<!-- Generator: Adobe Illustrator 24.2.3, SVG Export Plug-In . SVG Version: 6.00 Build 0)  -->
<svg version="1.1" id="Calque_1" xmlns="http://www.w3.org/2000/svg" xmlns:xlink="http://www.w3.org/1999/xlink" x="0px" y="0px"
	 viewBox="0 0 1000 924.6" enable-background="new 0 0 1000 924.6" xml:space="preserve">
<path fill-rule="evenodd" clip-rule="evenodd" fill="#DE5A31" d="M959.8,371.9c-16,0-29.7,9.3-36.2,22.8L79,50.6
	c0.9-3.3,1.4-6.8,1.4-10.4C80.4,18,62.4,0,40.2,0S0,18,0,40.2c0,22.2,18,40.2,40.2,40.2c0.1,0,0.1,0,0.1,0l99.2,764.4
	c-19.3,3-34,19.6-34,39.7c0,22.2,18,40.2,40.2,40.2s40.2-18,40.2-40.2c0-4.8-0.9-9.4-2.5-13.7l745.9-432.4c7.4,8.6,18.3,14,30.4,14
	c22.2,0,40.2-18,40.2-40.2S982,371.9,959.8,371.9z M178.9,861.7c-6.6-9.6-17.1-16.1-29.3-17.3L50.3,79.1
	c10.7-2.8,19.6-9.8,24.9-19.2l845.2,344.3c-0.5,2.5-0.8,5.2-0.8,7.9c0,6.4,1.5,12.4,4.2,17.8L178.9,861.7z"/>
</svg>
