<?xml version="1.0" encoding="utf-8"?>
<!-- Generator: Adobe Illustrator 24.2.3, SVG Export Plug-In . SVG Version: 6.00 Build 0)  -->
<svg version="1.1" id="Calque_1" xmlns="http://www.w3.org/2000/svg" xmlns:xlink="http://www.w3.org/1999/xlink" x="0px" y="0px"
	 viewBox="0 0 1000 704.2" enable-background="new 0 0 1000 704.2" xml:space="preserve">
<path fill="#FFFFFF" d="M984.5,660.5c-2.8-0.9-5.6-1.2-8.3-1l-90.3-384.7c5.6-2.5,10.2-7.2,12.2-13.5c3.8-11.8-2.6-24.4-14.4-28.2
	c-8.6-2.8-17.6-0.1-23.3,6.1L527.6,25.2c1.3-10.5-4.9-20.7-15.3-24.1c-11.8-3.8-24.4,2.6-28.2,14.4c-1.4,4.2-1.4,8.6-0.3,12.6
	l-447,377.3c-2.2-1.8-4.7-3.3-7.5-4.2c-11.8-3.8-24.4,2.6-28.2,14.4c-3.8,11.8,2.6,24.4,14.4,28.2c10.9,3.5,22.4-1.8,27.1-11.9
	L955.3,683c0.5,9,6.3,17.1,15.4,20.1c11.8,3.8,24.4-2.6,28.2-14.4C1002.7,677,996.3,664.4,984.5,660.5z M621.9,448.6
	c-3.4-1.1-6.8-1.3-10.1-0.8L519.1,40.1c2.5-2,4.6-4.5,6.1-7.5l331.2,213c-0.3,0.7-0.6,1.3-0.9,2c-3.8,11.8,2.6,24.4,14.4,28.2
	c2.9,0.9,5.9,1.3,8.7,1L969,661.3c-4.3,1.8-8.1,4.9-10.5,9.1L635.8,477.9c0.2-0.4,0.4-0.7,0.5-1.1
	C640.1,465,633.7,452.4,621.9,448.6z M498.5,43.7c4.7,1.5,9.5,1.4,13.8-0.1L604.7,450c-5,2.6-9.1,7.1-11,12.9
	c-0.5,1.6-0.8,3.3-1,4.9l-548-47.2c-0.3-3.4-1.4-6.6-3.1-9.5L487.1,35C489.8,39,493.6,42.1,498.5,43.7z M62.7,429.7l530.7,45.7
	c1.8,7.2,7.2,13.3,14.7,15.8c8.9,2.9,18.2-0.1,23.9-6.8l317.3,189.3L62.7,429.7z"/>
</svg>
