<?xml version="1.0" encoding="utf-8"?>
<!-- Generator: Adobe Illustrator 24.2.3, SVG Export Plug-In . SVG Version: 6.00 Build 0)  -->
<svg version="1.1" id="Calque_1" xmlns="http://www.w3.org/2000/svg" xmlns:xlink="http://www.w3.org/1999/xlink" x="0px" y="0px"
	 viewBox="0 0 1000.2 608.2" enable-background="new 0 0 1000.2 608.2" xml:space="preserve">
<path fill="#DE5A31" d="M1000.2,32.6c0-18-14.6-32.6-32.6-32.6S935,14.6,935,32.6c0,1.7,0.1,3.4,0.4,5.1L62.3,300.1
	C57.1,288.8,45.8,281,32.6,281C14.6,281,0,295.6,0,313.6s14.6,32.6,32.6,32.6c13.5,0,25.1-8.3,30.1-20L916.4,566
	c-0.9,3-1.4,6.3-1.4,9.6c0,18,14.6,32.6,32.6,32.6s32.6-14.6,32.6-32.6c0-16.4-12.1-30-27.9-32.2L970,65.1
	C986.9,63.8,1000.2,49.8,1000.2,32.6z M931.4,547.3l-101-109.6c4.9-5.7,7.8-13.1,7.8-21.1c0-12.2-6.7-22.9-16.7-28.4L958.3,63.8
	c1.2,0.3,2.4,0.6,3.6,0.8l-17.8,478.5C939.5,543.7,935.2,545.1,931.4,547.3z M937.7,45.5c2.7,6.3,7.4,11.6,13.2,15L814,385.1
	c-2.7-0.7-5.5-1.1-8.4-1.1c-15.1,0-27.8,10.2-31.5,24.1L65.2,313.7c0,0,0-0.1,0-0.1c0-1.9-0.2-3.9-0.5-5.7L937.7,45.5z M88.7,325
	L773,416.2c0,0.1,0,0.2,0,0.4c0,18,14.6,32.6,32.6,32.6c7,0,13.5-2.2,18.8-6l100.5,109c-1.9,1.9-3.6,4-5,6.3L88.7,325z"/>
</svg>
