<?xml version="1.0" encoding="utf-8"?>
<!-- Generator: Adobe Illustrator 24.2.3, SVG Export Plug-In . SVG Version: 6.00 Build 0)  -->
<svg version="1.1" id="Calque_1" xmlns="http://www.w3.org/2000/svg" xmlns:xlink="http://www.w3.org/1999/xlink" x="0px" y="0px"
	 viewBox="0 0 934.5 1000" enable-background="new 0 0 934.5 1000" xml:space="preserve">
<path fill="#DE5A31" d="M934.5,340.7c0-18.4-14.9-33.4-33.4-33.4c-10.3,0-19.5,4.7-25.6,12L450.7,47.8c2.1-4.4,3.3-9.3,3.3-14.5
	C454,14.9,439,0,420.6,0c-18.4,0-33.4,14.9-33.4,33.4c0,7.6,2.6,14.7,6.9,20.3L54.4,381.3c-5.7-4.7-13-7.4-21-7.4
	C14.9,373.9,0,388.8,0,407.2c0,18.4,14.9,33.4,33.4,33.4c1.4,0,2.8-0.1,4.2-0.3L94,676.2c-14.4,3.7-25.1,16.8-25.1,32.3
	c0,18.4,14.9,33.4,33.4,33.4c14.4,0,26.7-9.1,31.4-21.9l716.6,238.6c-0.6,2.6-1,5.3-1,8.1c0,18.4,14.9,33.4,33.4,33.4
	c18.4,0,33.4-14.9,33.4-33.4c0-15.4-10.4-28.3-24.6-32.2l13.1-560.5C921.4,372.2,934.5,358,934.5,340.7z M871,326.4
	c-2.1,4.3-3.2,9.2-3.2,14.3c0,6.1,1.6,11.8,4.5,16.7L469.4,663.9c-5.1-5.7-12.2-9.7-20.2-10.8l-22.6-587c7.8-1.4,14.6-5.5,19.5-11.3
	L871,326.4z M60.1,387.3L400,59.6c5.1,4,11.4,6.6,18.3,7L440.8,653c-8.3,0.9-15.7,4.9-21,10.7L63.3,421.9c2.2-4.4,3.4-9.4,3.4-14.6
	C66.7,399.8,64.3,392.9,60.1,387.3z M135.5,711.8c0.1-1.1,0.2-2.1,0.2-3.2c0-18.4-14.9-33.3-33.3-33.4l-56.7-237
	c5.1-2,9.6-5.3,13.1-9.4L415,670.6c-2.5,4.7-3.9,10-3.9,15.6c0,18.4,14.9,33.4,33.4,33.4c10.5,0,19.9-4.9,26-12.5l383.1,243.2
	c-0.1,0.2-0.2,0.3-0.3,0.5L135.5,711.8z M882.6,933.3c-9.5,0-18,3.9-24.1,10.3L474.9,699.9c1.9-4.2,3-8.9,3-13.8
	c0-5.5-1.4-10.7-3.7-15.3l403.2-306.7c5,5.1,11.5,8.5,18.9,9.6l-13.1,559.6C882.9,933.3,882.8,933.3,882.6,933.3z"/>
</svg>
