<svg xmlns="http://www.w3.org/2000/svg" viewBox="0 0 1000 1000"><g id="Calque_2" data-name="Calque 2"><g id="Calque_1-2" data-name="Calque 1"><path d="M565.5,86.6a3.7,3.7,0,0,0-4.2,3L557,117a3.5,3.5,0,0,0,3,4.1h.6a3.6,3.6,0,0,0,3.5-3.1l4.4-27.4A3.7,3.7,0,0,0,565.5,86.6Z" fill="#de5a31"/><path d="M690,127.1a3.5,3.5,0,0,0-4.8,1.6l-12.6,24.7a3.6,3.6,0,0,0,1.6,4.8,2.9,2.9,0,0,0,1.6.4,3.5,3.5,0,0,0,3.2-2l12.6-24.7A3.6,3.6,0,0,0,690,127.1Z" fill="#de5a31"/><path d="M790.9,204l-19.6,19.7a3.3,3.3,0,0,0,0,5,3.4,3.4,0,0,0,5,0L796,209.1a3.6,3.6,0,1,0-5.1-5.1Z" fill="#de5a31"/><path d="M868.1,308.4,843.4,321a3.6,3.6,0,0,0-1.6,4.8,3.5,3.5,0,0,0,3.2,2,2.9,2.9,0,0,0,1.6-.4l24.7-12.6a3.6,3.6,0,0,0-3.2-6.4Z" fill="#de5a31"/><path d="M882.4,443h.6l27.4-4.4a3.5,3.5,0,0,0,3-4.1,3.7,3.7,0,0,0-4.1-3l-27.4,4.4a3.6,3.6,0,0,0,.5,7.1Z" fill="#de5a31"/><path d="M909.8,568.5a3.6,3.6,0,0,0,.6-7.1L883,557a3.6,3.6,0,0,0-4.1,3,3.5,3.5,0,0,0,3,4.1l27.4,4.4Z" fill="#de5a31"/><path d="M871.3,685.2l-24.7-12.6a3.6,3.6,0,1,0-3.2,6.4l24.7,12.6a3.2,3.2,0,0,0,1.6.4,3.6,3.6,0,0,0,1.6-6.8Z" fill="#de5a31"/><path d="M776.3,771.3a3.5,3.5,0,0,0-5,5L790.9,796a3.5,3.5,0,0,0,2.5,1,3.9,3.9,0,0,0,2.6-1,3.6,3.6,0,0,0,0-5.1Z" fill="#de5a31"/><path d="M679,843.4a3.6,3.6,0,0,0-6.4,3.2l12.6,24.7a3.5,3.5,0,0,0,3.2,2,3.2,3.2,0,0,0,1.6-.4,3.5,3.5,0,0,0,1.6-4.8Z" fill="#de5a31"/><path d="M560,878.9a3.5,3.5,0,0,0-3,4.1l4.3,27.4a3.6,3.6,0,0,0,3.6,3h.6a3.7,3.7,0,0,0,3-4.1l-4.4-27.4A3.6,3.6,0,0,0,560,878.9Z" fill="#de5a31"/><path d="M440,878.9a3.6,3.6,0,0,0-4.1,3l-4.4,27.4a3.7,3.7,0,0,0,3,4.1h.6a3.5,3.5,0,0,0,3.5-3L443,883A3.5,3.5,0,0,0,440,878.9Z" fill="#de5a31"/><path d="M325.8,841.8a3.6,3.6,0,0,0-4.8,1.6l-12.6,24.7a3.5,3.5,0,0,0,1.6,4.8,3.2,3.2,0,0,0,1.6.4,3.5,3.5,0,0,0,3.2-2l12.6-24.7A3.6,3.6,0,0,0,325.8,841.8Z" fill="#de5a31"/><path d="M223.7,771.3,204,790.9a3.6,3.6,0,0,0,0,5.1,3.9,3.9,0,0,0,2.6,1,3.5,3.5,0,0,0,2.5-1l19.6-19.7a3.5,3.5,0,0,0-5-5Z" fill="#de5a31"/><path d="M158.2,674.2a3.6,3.6,0,0,0-4.8-1.6l-24.7,12.6a3.6,3.6,0,0,0,1.6,6.8,3.2,3.2,0,0,0,1.6-.4L156.6,679A3.6,3.6,0,0,0,158.2,674.2Z" fill="#de5a31"/><path d="M117,557l-27.4,4.4a3.6,3.6,0,0,0,.6,7.1h.5l27.4-4.4a3.5,3.5,0,0,0,3-4.1A3.6,3.6,0,0,0,117,557Z" fill="#de5a31"/><path d="M118.1,435.9l-27.4-4.4a3.7,3.7,0,0,0-4.1,3,3.5,3.5,0,0,0,3,4.1L117,443h.6a3.6,3.6,0,0,0,.5-7.1Z" fill="#de5a31"/><path d="M128.7,314.8l24.7,12.6a2.9,2.9,0,0,0,1.6.4,3.5,3.5,0,0,0,3.2-2,3.6,3.6,0,0,0-1.6-4.8l-24.7-12.6a3.6,3.6,0,0,0-3.2,6.4Z" fill="#de5a31"/><path d="M209.1,204a3.6,3.6,0,0,0-5.1,5.1l19.7,19.6a3.4,3.4,0,0,0,5,0,3.3,3.3,0,0,0,0-5Z" fill="#de5a31"/><path d="M314.8,128.7a3.6,3.6,0,0,0-6.4,3.2L321,156.6a3.5,3.5,0,0,0,3.2,2,2.9,2.9,0,0,0,1.6-.4,3.6,3.6,0,0,0,1.6-4.8Z" fill="#de5a31"/><path d="M434.5,86.6a3.7,3.7,0,0,0-3,4.1l4.4,27.4a3.6,3.6,0,0,0,3.5,3.1h.6a3.5,3.5,0,0,0,3-4.1l-4.4-27.4A3.5,3.5,0,0,0,434.5,86.6Z" fill="#de5a31"/><path d="M500,0a3.6,3.6,0,0,0-3.6,3.6V17.5a3.6,3.6,0,0,0,7.2,0V3.6A3.6,3.6,0,0,0,500,0Z" fill="#de5a31"/><path d="M500,56.6a3.6,3.6,0,0,0-3.6,3.6V81.6a3.6,3.6,0,0,0,7.2,0V60.2A3.6,3.6,0,0,0,500,56.6Z" fill="#de5a31"/><path d="M654.5,24.5a3.5,3.5,0,0,0-4.5,2.3L645.7,40a3.5,3.5,0,0,0,2.3,4.5l1.1.2a3.6,3.6,0,0,0,3.4-2.5L656.8,29A3.5,3.5,0,0,0,654.5,24.5Z" fill="#de5a31"/><path d="M637,78.3a3.5,3.5,0,0,0-4.5,2.3l-6.6,20.3a3.7,3.7,0,0,0,2.3,4.6h1.1a3.5,3.5,0,0,0,3.4-2.4l6.6-20.4A3.5,3.5,0,0,0,637,78.3Z" fill="#de5a31"/><path d="M783.6,113.2a3.5,3.5,0,0,0,2.9-1.5l8.2-11.2a3.6,3.6,0,1,0-5.8-4.2l-8.2,11.2a3.5,3.5,0,0,0,.8,5A3.3,3.3,0,0,0,783.6,113.2Z" fill="#de5a31"/><path d="M755.6,142.1,743,159.4a3.6,3.6,0,0,0,.8,5,3.5,3.5,0,0,0,2.1.7,3.6,3.6,0,0,0,3-1.5l12.5-17.3a3.6,3.6,0,0,0-5.8-4.2Z" fill="#de5a31"/><path d="M890.4,220a3.3,3.3,0,0,0,2.1-.7l11.2-8.2a3.6,3.6,0,1,0-4.2-5.8l-11.2,8.2a3.5,3.5,0,0,0-.8,5A3.5,3.5,0,0,0,890.4,220Z" fill="#de5a31"/><path d="M838.5,257.7a3.8,3.8,0,0,0,2.1-.7l17.3-12.6a3.6,3.6,0,0,0-4.2-5.8l-17.3,12.5a3.7,3.7,0,0,0-.8,5.1A3.8,3.8,0,0,0,838.5,257.7Z" fill="#de5a31"/><path d="M971,343.2l-13.2,4.3a3.5,3.5,0,0,0-2.3,4.5,3.6,3.6,0,0,0,3.4,2.5l1.1-.2,13.2-4.3a3.6,3.6,0,0,0-2.2-6.8Z" fill="#de5a31"/><path d="M894.5,371.8a3.7,3.7,0,0,0,3.5,2.5l1.1-.2,20.3-6.6a3.5,3.5,0,0,0,2.3-4.5,3.6,3.6,0,0,0-4.5-2.3l-20.4,6.6A3.5,3.5,0,0,0,894.5,371.8Z" fill="#de5a31"/><path d="M996.4,496.4H982.5a3.6,3.6,0,0,0,0,7.2h13.9a3.6,3.6,0,1,0,0-7.2Z" fill="#de5a31"/><path d="M939.8,496.4H918.4a3.6,3.6,0,1,0,0,7.2h21.4a3.6,3.6,0,0,0,0-7.2Z" fill="#de5a31"/><path d="M973.2,650,960,645.7a3.6,3.6,0,1,0-2.2,6.8l13.2,4.3,1.1.2a3.6,3.6,0,0,0,3.4-2.5A3.5,3.5,0,0,0,973.2,650Z" fill="#de5a31"/><path d="M919.4,632.5l-20.3-6.6a3.7,3.7,0,0,0-4.6,2.3,3.5,3.5,0,0,0,2.3,4.5l20.4,6.6a2,2,0,0,0,1.1.2,3.6,3.6,0,0,0,3.4-2.5A3.5,3.5,0,0,0,919.4,632.5Z" fill="#de5a31"/><path d="M892.5,780.7a3.5,3.5,0,0,0-5,.8,3.5,3.5,0,0,0,.8,5l11.2,8.2a3.3,3.3,0,0,0,2.1.7,3.6,3.6,0,0,0,2.1-6.5Z" fill="#de5a31"/><path d="M840.6,743a3.6,3.6,0,0,0-4.2,5.9l17.3,12.5a3.3,3.3,0,0,0,2.1.7,3.5,3.5,0,0,0,2.9-1.5,3.6,3.6,0,0,0-.8-5Z" fill="#de5a31"/><path d="M786.5,888.3a3.6,3.6,0,0,0-5.8,4.2l8.2,11.2a3.5,3.5,0,0,0,2.9,1.5,3.3,3.3,0,0,0,2.1-.7,3.6,3.6,0,0,0,.8-5Z" fill="#de5a31"/><path d="M748.9,836.4a3.6,3.6,0,0,0-5.9,4.2l12.6,17.3a3.5,3.5,0,0,0,2.9,1.5,3.3,3.3,0,0,0,2.1-.7,3.5,3.5,0,0,0,.8-5Z" fill="#de5a31"/><path d="M652.5,957.8a3.6,3.6,0,1,0-6.8,2.2l4.3,13.2a3.6,3.6,0,0,0,3.4,2.5l1.1-.2a3.5,3.5,0,0,0,2.3-4.5Z" fill="#de5a31"/><path d="M632.7,896.8a3.5,3.5,0,0,0-4.5-2.3,3.7,3.7,0,0,0-2.3,4.6l6.6,20.3a3.6,3.6,0,0,0,3.4,2.5l1.1-.2a3.5,3.5,0,0,0,2.3-4.5Z" fill="#de5a31"/><path d="M500,978.9a3.6,3.6,0,0,0-3.6,3.6v13.9a3.6,3.6,0,1,0,7.2,0V982.5A3.6,3.6,0,0,0,500,978.9Z" fill="#de5a31"/><path d="M500,914.8a3.6,3.6,0,0,0-3.6,3.6v21.4a3.6,3.6,0,0,0,7.2,0V918.4A3.6,3.6,0,0,0,500,914.8Z" fill="#de5a31"/><path d="M352,955.5a3.5,3.5,0,0,0-4.5,2.3L343.2,971a3.5,3.5,0,0,0,2.3,4.5l1.1.2a3.6,3.6,0,0,0,3.4-2.5l4.3-13.2A3.5,3.5,0,0,0,352,955.5Z" fill="#de5a31"/><path d="M371.8,894.5a3.5,3.5,0,0,0-4.5,2.3l-6.6,20.4a3.5,3.5,0,0,0,2.3,4.5l1.1.2a3.6,3.6,0,0,0,3.4-2.5l6.6-20.3A3.7,3.7,0,0,0,371.8,894.5Z" fill="#de5a31"/><path d="M213.5,888.3l-8.2,11.2a3.6,3.6,0,0,0,.8,5,3.3,3.3,0,0,0,2.1.7,3.5,3.5,0,0,0,2.9-1.5l8.2-11.2a3.6,3.6,0,0,0-5.8-4.2Z" fill="#de5a31"/><path d="M251.1,836.4l-12.5,17.3a3.5,3.5,0,0,0,.8,5,3.3,3.3,0,0,0,2.1.7,3.5,3.5,0,0,0,2.9-1.5L257,840.6a3.6,3.6,0,0,0-5.9-4.2Z" fill="#de5a31"/><path d="M107.5,780.7l-11.2,8.2a3.6,3.6,0,0,0,2.1,6.5,3.3,3.3,0,0,0,2.1-.7l11.2-8.2a3.5,3.5,0,0,0,.8-5A3.5,3.5,0,0,0,107.5,780.7Z" fill="#de5a31"/><path d="M159.4,743l-17.3,12.6a3.6,3.6,0,0,0-.8,5,3.5,3.5,0,0,0,2.9,1.5,3.3,3.3,0,0,0,2.1-.7l17.3-12.5a3.6,3.6,0,0,0-4.2-5.9Z" fill="#de5a31"/><path d="M40,645.7,26.8,650a3.5,3.5,0,0,0-2.3,4.5,3.6,3.6,0,0,0,3.4,2.5l1.1-.2,13.2-4.3a3.6,3.6,0,1,0-2.2-6.8Z" fill="#de5a31"/><path d="M105.5,628.2a3.7,3.7,0,0,0-4.6-2.3l-20.3,6.6a3.5,3.5,0,0,0-2.3,4.5,3.6,3.6,0,0,0,3.4,2.5,2,2,0,0,0,1.1-.2l20.4-6.6A3.6,3.6,0,0,0,105.5,628.2Z" fill="#de5a31"/><path d="M17.5,496.4H3.6a3.6,3.6,0,0,0,0,7.2H17.5a3.6,3.6,0,0,0,0-7.2Z" fill="#de5a31"/><path d="M85.2,500a3.6,3.6,0,0,0-3.6-3.6H60.2a3.6,3.6,0,1,0,0,7.2H81.6A3.6,3.6,0,0,0,85.2,500Z" fill="#de5a31"/><path d="M42.2,347.5,29,343.2a3.6,3.6,0,1,0-2.2,6.8L40,354.3l1.1.2a3.6,3.6,0,0,0,3.4-2.5A3.5,3.5,0,0,0,42.2,347.5Z" fill="#de5a31"/><path d="M80.6,367.5l20.3,6.6,1.1.2a3.6,3.6,0,0,0,1.2-7l-20.4-6.6a3.6,3.6,0,1,0-2.2,6.8Z" fill="#de5a31"/><path d="M107.5,219.3a3.3,3.3,0,0,0,2.1.7,3.5,3.5,0,0,0,2.9-1.5,3.5,3.5,0,0,0-.8-5l-11.2-8.2a3.6,3.6,0,0,0-4.2,5.8Z" fill="#de5a31"/><path d="M146.3,238.6a3.6,3.6,0,0,0-4.2,5.8L159.4,257a3.5,3.5,0,0,0,5-.8,3.7,3.7,0,0,0-.8-5.1Z" fill="#de5a31"/><path d="M213.5,111.7a3.6,3.6,0,0,0,5.8-4.2l-8.2-11.2a3.6,3.6,0,0,0-5.8,4.2Z" fill="#de5a31"/><path d="M244.4,142.1a3.6,3.6,0,1,0-5.8,4.2l12.5,17.3a3.5,3.5,0,0,0,2.9,1.5,3.6,3.6,0,0,0,2.2-.7,3.6,3.6,0,0,0,.8-5Z" fill="#de5a31"/><path d="M350,26.8a3.6,3.6,0,0,0-6.8,2.2l4.3,13.2a3.6,3.6,0,0,0,3.4,2.5l1.1-.2a3.5,3.5,0,0,0,2.3-4.5Z" fill="#de5a31"/><path d="M367.3,103.2a3.5,3.5,0,0,0,3.4,2.4h1.1a3.7,3.7,0,0,0,2.3-4.6l-6.6-20.3a3.5,3.5,0,0,0-4.5-2.3,3.5,3.5,0,0,0-2.3,4.5Z" fill="#de5a31"/></g></g></svg>