<?xml version="1.0" encoding="utf-8"?>
<!-- Generator: Adobe Illustrator 24.2.3, SVG Export Plug-In . SVG Version: 6.00 Build 0)  -->
<svg version="1.1" id="Calque_1" xmlns="http://www.w3.org/2000/svg" xmlns:xlink="http://www.w3.org/1999/xlink" x="0px" y="0px"
	 viewBox="0 0 1000 1000" enable-background="new 0 0 1000 1000" xml:space="preserve">
<g>
	<path fill="#FFFFFF" d="M565.5,86.6c-1.9-0.3-3.8,1-4.1,3L557,117c-0.3,2,1,3.8,3,4.1c0.2,0,0.4,0,0.6,0c1.7,0,3.3-1.3,3.6-3
		l4.3-27.4C568.8,88.8,567.4,86.9,565.5,86.6z"/>
	<path fill="#FFFFFF" d="M690,127.1c-1.8-0.9-3.9-0.2-4.8,1.6l-12.6,24.7c-0.9,1.8-0.2,3.9,1.6,4.8c0.5,0.3,1.1,0.4,1.6,0.4
		c1.3,0,2.6-0.7,3.2-2l12.6-24.7C692.5,130.2,691.8,128,690,127.1z"/>
	<path fill="#FFFFFF" d="M790.9,204l-19.6,19.6c-1.4,1.4-1.4,3.7,0,5.1c0.7,0.7,1.6,1.1,2.5,1.1c0.9,0,1.8-0.4,2.5-1.1l19.6-19.6
		c1.4-1.4,1.4-3.7,0-5.1C794.5,202.6,792.3,202.6,790.9,204z"/>
	<path fill="#FFFFFF" d="M868.1,308.4L843.4,321c-1.8,0.9-2.5,3.1-1.6,4.8c0.6,1.3,1.9,2,3.2,2c0.5,0,1.1-0.1,1.6-0.4l24.7-12.6
		c1.8-0.9,2.5-3.1,1.6-4.8C872,308.2,869.8,307.5,868.1,308.4z"/>
	<path fill="#FFFFFF" d="M882.4,443c0.2,0,0.4,0,0.6,0l27.4-4.3c2-0.3,3.3-2.2,3-4.1c-0.3-2-2.2-3.3-4.1-3l-27.4,4.3
		c-2,0.3-3.3,2.2-3,4.1C879.2,441.8,880.7,443,882.4,443z"/>
	<path fill="#FFFFFF" d="M909.8,568.5c1.7,0,3.3-1.3,3.6-3c0.3-2-1-3.8-3-4.1L883,557c-1.9-0.3-3.8,1-4.1,3c-0.3,2,1,3.8,3,4.1
		l27.4,4.3C909.5,568.5,909.6,568.5,909.8,568.5z"/>
	<path fill="#FFFFFF" d="M871.3,685.2l-24.7-12.6c-1.8-0.9-3.9-0.2-4.8,1.6c-0.9,1.8-0.2,3.9,1.6,4.8l24.7,12.6
		c0.5,0.3,1.1,0.4,1.6,0.4c1.3,0,2.6-0.7,3.2-2C873.8,688.2,873.1,686.1,871.3,685.2z"/>
	<path fill="#FFFFFF" d="M776.3,771.3c-1.4-1.4-3.7-1.4-5.1,0c-1.4,1.4-1.4,3.7,0,5.1l19.6,19.6c0.7,0.7,1.6,1.1,2.5,1.1
		c0.9,0,1.8-0.4,2.5-1.1c1.4-1.4,1.4-3.7,0-5.1L776.3,771.3z"/>
	<path fill="#FFFFFF" d="M223.7,771.3L204,790.9c-1.4,1.4-1.4,3.7,0,5.1c0.7,0.7,1.6,1.1,2.5,1.1c0.9,0,1.8-0.4,2.5-1.1l19.6-19.6
		c1.4-1.4,1.4-3.7,0-5.1C227.3,769.8,225.1,769.8,223.7,771.3z"/>
	<path fill="#FFFFFF" d="M158.2,674.2c-0.9-1.8-3.1-2.5-4.8-1.6l-24.7,12.6c-1.8,0.9-2.5,3.1-1.6,4.8c0.6,1.3,1.9,2,3.2,2
		c0.6,0,1.1-0.1,1.6-0.4l24.7-12.6C158.4,678.1,159.1,675.9,158.2,674.2z"/>
	<path fill="#FFFFFF" d="M117,557l-27.4,4.3c-2,0.3-3.3,2.2-3,4.1c0.3,1.8,1.8,3,3.6,3c0.2,0,0.4,0,0.6,0l27.4-4.3
		c2-0.3,3.3-2.2,3-4.1C120.8,558,118.9,556.7,117,557z"/>
	<path fill="#FFFFFF" d="M118.1,435.9l-27.4-4.3c-1.9-0.3-3.8,1-4.1,3c-0.3,2,1,3.8,3,4.1L117,443c0.2,0,0.4,0,0.6,0
		c1.7,0,3.3-1.3,3.6-3C121.4,438,120.1,436.2,118.1,435.9z"/>
	<path fill="#FFFFFF" d="M128.7,314.8l24.7,12.6c0.5,0.3,1.1,0.4,1.6,0.4c1.3,0,2.6-0.7,3.2-2c0.9-1.8,0.2-3.9-1.6-4.8l-24.7-12.6
		c-1.8-0.9-3.9-0.2-4.8,1.6C126.2,311.8,126.9,313.9,128.7,314.8z"/>
	<path fill="#FFFFFF" d="M209.1,204c-1.4-1.4-3.7-1.4-5.1,0c-1.4,1.4-1.4,3.7,0,5.1l19.6,19.6c0.7,0.7,1.6,1.1,2.5,1.1
		c0.9,0,1.8-0.4,2.5-1.1c1.4-1.4,1.4-3.7,0-5.1L209.1,204z"/>
	<path fill="#FFFFFF" d="M314.8,128.7c-0.9-1.8-3.1-2.5-4.8-1.6c-1.8,0.9-2.5,3.1-1.6,4.8l12.6,24.7c0.6,1.3,1.9,2,3.2,2
		c0.5,0,1.1-0.1,1.6-0.4c1.8-0.9,2.5-3.1,1.6-4.8L314.8,128.7z"/>
	<path fill="#FFFFFF" d="M434.5,86.6c-2,0.3-3.3,2.2-3,4.1l4.3,27.4c0.3,1.8,1.8,3,3.6,3c0.2,0,0.4,0,0.6,0c2-0.3,3.3-2.2,3-4.1
		l-4.3-27.4C438.3,87.6,436.5,86.3,434.5,86.6z"/>
	<path fill="#FFFFFF" d="M500,0c-2,0-3.6,1.6-3.6,3.6v13.9c0,2,1.6,3.6,3.6,3.6s3.6-1.6,3.6-3.6V3.6C503.6,1.6,502,0,500,0z"/>
	<path fill="#FFFFFF" d="M500,56.6c-2,0-3.6,1.6-3.6,3.6v21.4c0,2,1.6,3.6,3.6,3.6s3.6-1.6,3.6-3.6V60.2
		C503.6,58.2,502,56.6,500,56.6z"/>
	<path fill="#FFFFFF" d="M654.5,24.5c-1.9-0.6-3.9,0.4-4.5,2.3L645.7,40c-0.6,1.9,0.4,3.9,2.3,4.5c0.4,0.1,0.7,0.2,1.1,0.2
		c1.5,0,2.9-1,3.4-2.5l4.3-13.2C657.4,27.1,656.4,25.1,654.5,24.5z"/>
	<path fill="#FFFFFF" d="M637,78.3c-1.9-0.6-3.9,0.4-4.5,2.3l-6.6,20.3c-0.6,1.9,0.4,3.9,2.3,4.5c0.4,0.1,0.7,0.2,1.1,0.2
		c1.5,0,2.9-1,3.4-2.5l6.6-20.3C639.9,80.9,638.9,78.9,637,78.3z"/>
	<path fill="#FFFFFF" d="M783.6,113.2c1.1,0,2.2-0.5,2.9-1.5l8.1-11.2c1.2-1.6,0.8-3.9-0.8-5c-1.6-1.2-3.9-0.8-5,0.8l-8.1,11.2
		c-1.2,1.6-0.8,3.9,0.8,5C782.1,113,782.9,113.2,783.6,113.2z"/>
	<path fill="#FFFFFF" d="M755.6,142.1L743,159.4c-1.2,1.6-0.8,3.9,0.8,5c0.6,0.5,1.4,0.7,2.1,0.7c1.1,0,2.2-0.5,2.9-1.5l12.6-17.3
		c1.2-1.6,0.8-3.9-0.8-5C759,140.1,756.8,140.5,755.6,142.1z"/>
	<path fill="#FFFFFF" d="M890.4,220c0.7,0,1.5-0.2,2.1-0.7l11.2-8.1c1.6-1.2,2-3.4,0.8-5c-1.2-1.6-3.4-2-5-0.8l-11.2,8.1
		c-1.6,1.2-2,3.4-0.8,5C888.2,219.5,889.3,220,890.4,220z"/>
	<path fill="#FFFFFF" d="M838.5,257.7c0.7,0,1.5-0.2,2.1-0.7l17.3-12.6c1.6-1.2,2-3.4,0.8-5c-1.2-1.6-3.4-2-5-0.8l-17.3,12.6
		c-1.6,1.2-2,3.4-0.8,5C836.3,257.1,837.4,257.7,838.5,257.7z"/>
	<path fill="#FFFFFF" d="M971,343.2l-13.2,4.3c-1.9,0.6-2.9,2.6-2.3,4.5c0.5,1.5,1.9,2.5,3.4,2.5c0.4,0,0.7-0.1,1.1-0.2l13.2-4.3
		c1.9-0.6,2.9-2.6,2.3-4.5C974.9,343.6,972.9,342.6,971,343.2z"/>
	<path fill="#FFFFFF" d="M894.5,371.8c0.5,1.5,1.9,2.5,3.4,2.5c0.4,0,0.7-0.1,1.1-0.2l20.3-6.6c1.9-0.6,2.9-2.6,2.3-4.5
		c-0.6-1.9-2.7-2.9-4.5-2.3l-20.3,6.6C894.9,367.9,893.9,369.9,894.5,371.8z"/>
	<path fill="#FFFFFF" d="M996.4,496.4h-13.9c-2,0-3.6,1.6-3.6,3.6c0,2,1.6,3.6,3.6,3.6h13.9c2,0,3.6-1.6,3.6-3.6
		C1000,498,998.4,496.4,996.4,496.4z"/>
	<path fill="#FFFFFF" d="M939.8,496.4h-21.4c-2,0-3.6,1.6-3.6,3.6c0,2,1.6,3.6,3.6,3.6h21.4c2,0,3.6-1.6,3.6-3.6
		C943.4,498,941.8,496.4,939.8,496.4z"/>
	<path fill="#FFFFFF" d="M973.2,650l-13.2-4.3c-1.9-0.6-3.9,0.4-4.5,2.3c-0.6,1.9,0.4,3.9,2.3,4.5l13.2,4.3c0.4,0.1,0.7,0.2,1.1,0.2
		c1.5,0,2.9-1,3.4-2.5C976.1,652.6,975.1,650.6,973.2,650z"/>
	<path fill="#FFFFFF" d="M919.4,632.5l-20.3-6.6c-1.9-0.6-3.9,0.4-4.5,2.3c-0.6,1.9,0.4,3.9,2.3,4.5l20.3,6.6
		c0.4,0.1,0.7,0.2,1.1,0.2c1.5,0,2.9-1,3.4-2.5C922.3,635.1,921.3,633.1,919.4,632.5z"/>
	<path fill="#FFFFFF" d="M892.5,780.7c-1.6-1.2-3.9-0.8-5,0.8c-1.2,1.6-0.8,3.9,0.8,5l11.2,8.1c0.6,0.5,1.4,0.7,2.1,0.7
		c1.1,0,2.2-0.5,2.9-1.5c1.2-1.6,0.8-3.9-0.8-5L892.5,780.7z"/>
	<path fill="#FFFFFF" d="M840.6,743c-1.6-1.2-3.9-0.8-5,0.8c-1.2,1.6-0.8,3.9,0.8,5l17.3,12.6c0.6,0.5,1.4,0.7,2.1,0.7
		c1.1,0,2.2-0.5,2.9-1.5c1.2-1.6,0.8-3.9-0.8-5L840.6,743z"/>
	<path fill="#FFFFFF" d="M107.5,780.7l-11.2,8.1c-1.6,1.2-2,3.4-0.8,5c0.7,1,1.8,1.5,2.9,1.5c0.7,0,1.5-0.2,2.1-0.7l11.2-8.1
		c1.6-1.2,2-3.4,0.8-5C111.4,779.9,109.1,779.5,107.5,780.7z"/>
	<path fill="#FFFFFF" d="M159.4,743l-17.3,12.6c-1.6,1.2-2,3.4-0.8,5c0.7,1,1.8,1.5,2.9,1.5c0.7,0,1.5-0.2,2.1-0.7l17.3-12.6
		c1.6-1.2,2-3.4,0.8-5C163.2,742.2,161,741.9,159.4,743z"/>
	<path fill="#FFFFFF" d="M40,645.7L26.8,650c-1.9,0.6-2.9,2.6-2.3,4.5c0.5,1.5,1.9,2.5,3.4,2.5c0.4,0,0.7-0.1,1.1-0.2l13.2-4.3
		c1.9-0.6,2.9-2.6,2.3-4.5C43.9,646.1,41.9,645.1,40,645.7z"/>
	<path fill="#FFFFFF" d="M105.5,628.2c-0.6-1.9-2.7-2.9-4.5-2.3l-20.3,6.6c-1.9,0.6-2.9,2.6-2.3,4.5c0.5,1.5,1.9,2.5,3.4,2.5
		c0.4,0,0.7-0.1,1.1-0.2l20.3-6.6C105,632.1,106.1,630.1,105.5,628.2z"/>
	<path fill="#FFFFFF" d="M17.5,496.4H3.6c-2,0-3.6,1.6-3.6,3.6c0,2,1.6,3.6,3.6,3.6h13.9c2,0,3.6-1.6,3.6-3.6
		C21.1,498,19.5,496.4,17.5,496.4z"/>
	<path fill="#FFFFFF" d="M85.2,500c0-2-1.6-3.6-3.6-3.6H60.2c-2,0-3.6,1.6-3.6,3.6c0,2,1.6,3.6,3.6,3.6h21.4
		C83.6,503.6,85.2,502,85.2,500z"/>
	<path fill="#FFFFFF" d="M42.2,347.5L29,343.2c-1.9-0.6-3.9,0.4-4.5,2.3c-0.6,1.9,0.4,3.9,2.3,4.5l13.2,4.3c0.4,0.1,0.7,0.2,1.1,0.2
		c1.5,0,2.9-1,3.4-2.5C45.1,350.1,44.1,348.1,42.2,347.5z"/>
	<path fill="#FFFFFF" d="M80.6,367.5l20.3,6.6c0.4,0.1,0.7,0.2,1.1,0.2c1.5,0,2.9-1,3.4-2.5c0.6-1.9-0.4-3.9-2.3-4.5l-20.3-6.6
		c-1.9-0.6-3.9,0.4-4.5,2.3C77.7,364.9,78.7,366.9,80.6,367.5z"/>
	<path fill="#FFFFFF" d="M107.5,219.3c0.6,0.5,1.4,0.7,2.1,0.7c1.1,0,2.2-0.5,2.9-1.5c1.2-1.6,0.8-3.9-0.8-5l-11.2-8.1
		c-1.6-1.2-3.9-0.8-5,0.8c-1.2,1.6-0.8,3.9,0.8,5L107.5,219.3z"/>
	<path fill="#FFFFFF" d="M146.3,238.6c-1.6-1.2-3.9-0.8-5,0.8c-1.2,1.6-0.8,3.9,0.8,5l17.3,12.6c0.6,0.5,1.4,0.7,2.1,0.7
		c1.1,0,2.2-0.5,2.9-1.5c1.2-1.6,0.8-3.9-0.8-5L146.3,238.6z"/>
	<path fill="#FFFFFF" d="M213.5,111.7c0.7,1,1.8,1.5,2.9,1.5c0.7,0,1.5-0.2,2.1-0.7c1.6-1.2,2-3.4,0.8-5l-8.1-11.2
		c-1.2-1.6-3.4-2-5-0.8c-1.6,1.2-2,3.4-0.8,5L213.5,111.7z"/>
	<path fill="#FFFFFF" d="M244.4,142.1c-1.2-1.6-3.4-2-5-0.8c-1.6,1.2-2,3.4-0.8,5l12.6,17.3c0.7,1,1.8,1.5,2.9,1.5
		c0.7,0,1.5-0.2,2.1-0.7c1.6-1.2,2-3.4,0.8-5L244.4,142.1z"/>
	<path fill="#FFFFFF" d="M350,26.8c-0.6-1.9-2.7-2.9-4.5-2.3c-1.9,0.6-2.9,2.6-2.3,4.5l4.3,13.2c0.5,1.5,1.9,2.5,3.4,2.5
		c0.4,0,0.7-0.1,1.1-0.2c1.9-0.6,2.9-2.6,2.3-4.5L350,26.8z"/>
	<path fill="#FFFFFF" d="M367.3,103.2c0.5,1.5,1.9,2.5,3.4,2.5c0.4,0,0.7-0.1,1.1-0.2c1.9-0.6,2.9-2.6,2.3-4.5l-6.6-20.3
		c-0.6-1.9-2.7-2.9-4.5-2.3c-1.9,0.6-2.9,2.6-2.3,4.5L367.3,103.2z"/>
</g>
</svg>
