<svg xmlns="http://www.w3.org/2000/svg" viewBox="0 0 1000 1000"><g id="Calque_2" data-name="Calque 2"><g id="Calque_1-2" data-name="Calque 1"><path d="M565.3,86.6a3.6,3.6,0,0,0-4.2,3L556.8,117a3.6,3.6,0,0,0,3,4.1h.6a3.5,3.5,0,0,0,3.5-3l4.4-27.4A3.6,3.6,0,0,0,565.3,86.6Z"/><path d="M689.8,127a3.5,3.5,0,0,0-4.8,1.6l-12.6,24.7a3.6,3.6,0,0,0,1.6,4.8,3.2,3.2,0,0,0,1.6.4,3.5,3.5,0,0,0,3.2-2l12.6-24.7A3.6,3.6,0,0,0,689.8,127Z"/><path d="M790.7,203.9l-19.6,19.6a3.7,3.7,0,0,0,2.6,6.2,3.6,3.6,0,0,0,2.5-1.1L795.8,209a3.6,3.6,0,1,0-5.1-5.1Z"/><path d="M868,308.2l-24.7,12.6a3.6,3.6,0,0,0-1.6,4.9,3.6,3.6,0,0,0,3.2,1.9,3.5,3.5,0,0,0,1.7-.4l24.7-12.6a3.6,3.6,0,0,0,1.5-4.8A3.5,3.5,0,0,0,868,308.2Z"/><path d="M882.4,442.8h.6l27.4-4.4a3.6,3.6,0,0,0,3-4.1,3.7,3.7,0,0,0-4.2-3l-27.4,4.4a3.6,3.6,0,0,0,.6,7.1Z"/><path d="M909.9,568.3a3.6,3.6,0,0,0,3.5-3,3.7,3.7,0,0,0-3-4.2L883,556.8a3.6,3.6,0,0,0-4.1,3,3.5,3.5,0,0,0,3,4.1l27.4,4.4Z"/><path d="M871.4,685l-24.7-12.6a3.6,3.6,0,1,0-3.2,6.4l24.7,12.6a3.2,3.2,0,0,0,1.6.4,3.6,3.6,0,0,0,1.6-6.8Z"/><path d="M776.5,771.1a3.6,3.6,0,0,0-5.1,5.1L791,795.8a3.6,3.6,0,0,0,2.6,1.1,3.6,3.6,0,0,0,2.5-1.1,3.6,3.6,0,0,0,0-5.1Z"/><path d="M679.2,843.3a3.6,3.6,0,0,0-4.9-1.6,3.7,3.7,0,0,0-1.5,4.9l12.6,24.7a3.6,3.6,0,0,0,3.2,1.9,3.2,3.2,0,0,0,1.6-.4,3.5,3.5,0,0,0,1.6-4.8Z"/><path d="M560.2,878.9a3.5,3.5,0,0,0-3,4.1l4.4,27.4a3.5,3.5,0,0,0,3.5,3h.6a3.7,3.7,0,0,0,3-4.2l-4.4-27.3A3.5,3.5,0,0,0,560.2,878.9Z"/><path d="M440.2,878.9a3.6,3.6,0,0,0-4.1,3l-4.4,27.4a3.6,3.6,0,0,0,3,4.1h.6a3.7,3.7,0,0,0,3.6-3.1l4.3-27.4A3.7,3.7,0,0,0,440.2,878.9Z"/><path d="M326,841.9a3.5,3.5,0,0,0-4.8,1.6l-12.6,24.7a3.6,3.6,0,0,0,1.6,4.8,3.2,3.2,0,0,0,1.6.4,3.5,3.5,0,0,0,3.2-2l12.6-24.7A3.6,3.6,0,0,0,326,841.9Z"/><path d="M223.8,771.4,204.2,791a3.6,3.6,0,0,0,0,5.1,3.6,3.6,0,0,0,2.5,1.1,3.6,3.6,0,0,0,2.6-1.1l19.6-19.6a3.6,3.6,0,0,0-5.1-5.1Z"/><path d="M158.3,674.3a3.7,3.7,0,0,0-4.9-1.5l-24.7,12.6a3.6,3.6,0,0,0-1.5,4.8,3.5,3.5,0,0,0,3.2,2,4.7,4.7,0,0,0,1.6-.4l24.7-12.6A3.6,3.6,0,0,0,158.3,674.3Z"/><path d="M117,557.2l-27.4,4.4a3.6,3.6,0,0,0,.6,7.1h.6l27.4-4.4a3.5,3.5,0,0,0,2.9-4.1A3.5,3.5,0,0,0,117,557.2Z"/><path d="M118.1,436.1l-27.4-4.4a3.6,3.6,0,0,0-1.1,7.2l27.4,4.3h.5a3.6,3.6,0,0,0,.6-7.1Z"/><path d="M128.6,315l24.7,12.6a3.2,3.2,0,0,0,1.6.4,3.6,3.6,0,0,0,1.6-6.8l-24.7-12.6a3.6,3.6,0,0,0-3.2,6.4Z"/><path d="M209,204.2a3.6,3.6,0,1,0-5.1,5.1l19.6,19.6a3.5,3.5,0,0,0,2.6,1,3.5,3.5,0,0,0,2.5-1,3.6,3.6,0,0,0,0-5.1Z"/><path d="M314.6,128.7a3.6,3.6,0,0,0-6.4,3.3l12.6,24.7a3.6,3.6,0,0,0,3.2,2,3.5,3.5,0,0,0,1.7-.4,3.7,3.7,0,0,0,1.5-4.9Z"/><path d="M434.3,86.6a3.7,3.7,0,0,0-3,4.2l4.4,27.4a3.6,3.6,0,0,0,3.5,3h.6a3.5,3.5,0,0,0,3-4.1l-4.4-27.4A3.7,3.7,0,0,0,434.3,86.6Z"/><path d="M499.7,0a3.6,3.6,0,0,0-3.6,3.6V17.5a3.7,3.7,0,0,0,7.3,0V3.6A3.6,3.6,0,0,0,499.7,0Z"/><path d="M499.8,56.6a3.6,3.6,0,0,0-3.6,3.6V81.6a3.6,3.6,0,0,0,3.6,3.6,3.6,3.6,0,0,0,3.6-3.6V60.2A3.6,3.6,0,0,0,499.8,56.6Z"/><path d="M654.3,24.4a3.7,3.7,0,0,0-4.6,2.3l-4.3,13.2a3.6,3.6,0,0,0,2.4,4.5,2,2,0,0,0,1.1.2,3.6,3.6,0,0,0,3.4-2.5l4.3-13.2A3.5,3.5,0,0,0,654.3,24.4Z"/><path d="M636.8,78.2a3.5,3.5,0,0,0-4.5,2.3l-6.6,20.4a3.5,3.5,0,0,0,2.3,4.5l1.1.2a3.6,3.6,0,0,0,3.4-2.5l6.6-20.3A3.7,3.7,0,0,0,636.8,78.2Z"/><path d="M783.4,113.1a3.5,3.5,0,0,0,2.9-1.5l8.2-11.2a3.7,3.7,0,0,0-.8-5.1,3.6,3.6,0,0,0-5,.8l-8.2,11.3a3.6,3.6,0,0,0,.8,5A3.3,3.3,0,0,0,783.4,113.1Z"/><path d="M755.4,141.9l-12.5,17.3a3.7,3.7,0,0,0,.8,5.1,3.5,3.5,0,0,0,5-.8l12.5-17.3a3.6,3.6,0,0,0-.8-5.1A3.6,3.6,0,0,0,755.4,141.9Z"/><path d="M890.2,219.8a3.6,3.6,0,0,0,2.2-.7l11.2-8.2a3.6,3.6,0,0,0,.8-5,3.7,3.7,0,0,0-5.1-.8l-11.2,8.2a3.6,3.6,0,0,0,2.1,6.5Z"/><path d="M838.4,257.5a3.3,3.3,0,0,0,2.1-.7l17.3-12.6a3.6,3.6,0,1,0-4.2-5.8L836.3,251a3.6,3.6,0,0,0,2.1,6.5Z"/><path d="M970.9,342.9l-13.2,4.3a3.6,3.6,0,0,0,1.1,7.1l1.2-.2,13.1-4.3a3.7,3.7,0,0,0,2.4-4.6A3.8,3.8,0,0,0,970.9,342.9Z"/><path d="M894.5,371.6a3.6,3.6,0,0,0,3.4,2.5l1.1-.2,20.3-6.6a3.6,3.6,0,0,0-2.2-6.8l-20.3,6.6A3.5,3.5,0,0,0,894.5,371.6Z"/><path d="M996.4,496.1H982.5a3.7,3.7,0,0,0-3.6,3.7,3.6,3.6,0,0,0,3.6,3.6h13.9a3.6,3.6,0,0,0,3.6-3.6A3.6,3.6,0,0,0,996.4,496.1Z"/><path d="M939.8,496.2H918.4a3.6,3.6,0,0,0-3.6,3.6,3.6,3.6,0,0,0,3.6,3.6h21.4a3.6,3.6,0,1,0,0-7.2Z"/><path d="M973.3,649.7l-13.2-4.3a3.6,3.6,0,0,0-4.5,2.4,3.5,3.5,0,0,0,2.3,4.5l13.2,4.3,1.1.2a3.6,3.6,0,0,0,1.1-7.1Z"/><path d="M919.5,632.3l-20.4-6.6a3.6,3.6,0,1,0-2.2,6.8l20.3,6.6,1.1.2a3.7,3.7,0,0,0,3.5-2.5A3.5,3.5,0,0,0,919.5,632.3Z"/><path d="M892.6,780.5a3.6,3.6,0,0,0-4.2,5.8l11.2,8.2a3.5,3.5,0,0,0,2.1.7,3.6,3.6,0,0,0,3-1.5,3.6,3.6,0,0,0-.8-5Z"/><path d="M840.8,742.9a3.6,3.6,0,1,0-4.3,5.8l17.3,12.5a3.5,3.5,0,0,0,2.1.7,3.6,3.6,0,0,0,3-1.5,3.6,3.6,0,0,0-.8-5Z"/><path d="M786.7,888.1a3.5,3.5,0,0,0-5-.8,3.7,3.7,0,0,0-.8,5.1l8.2,11.2A3.7,3.7,0,0,0,792,905a3.9,3.9,0,0,0,2.1-.6,3.7,3.7,0,0,0,.8-5.1Z"/><path d="M749,836.3a3.6,3.6,0,0,0-5.8,4.2l12.6,17.3a3.5,3.5,0,0,0,2.9,1.5,3.3,3.3,0,0,0,2.1-.7,3.6,3.6,0,0,0,.8-5Z"/><path d="M652.8,957.7a3.6,3.6,0,1,0-6.9,2.3l4.3,13.1a3.5,3.5,0,0,0,3.4,2.5h1.2a3.8,3.8,0,0,0,2.3-4.6Z"/><path d="M632.9,896.8a3.6,3.6,0,1,0-6.8,2.2l6.6,20.3a3.6,3.6,0,0,0,3.4,2.5,2,2,0,0,0,1.1-.2,3.5,3.5,0,0,0,2.3-4.5Z"/><path d="M500.2,978.9a3.6,3.6,0,0,0-3.6,3.6v13.9a3.6,3.6,0,0,0,3.6,3.6,3.6,3.6,0,0,0,3.6-3.6V982.5A3.7,3.7,0,0,0,500.2,978.9Z"/><path d="M500.2,914.8a3.6,3.6,0,0,0-3.6,3.6v21.4a3.6,3.6,0,0,0,7.2,0V918.4A3.6,3.6,0,0,0,500.2,914.8Z"/><path d="M352.2,955.6a3.6,3.6,0,0,0-4.5,2.3l-4.3,13.2a3.5,3.5,0,0,0,2.3,4.5l1.1.2a3.7,3.7,0,0,0,3.5-2.5l4.3-13.2A3.6,3.6,0,0,0,352.2,955.6Z"/><path d="M372,894.6a3.5,3.5,0,0,0-4.5,2.3l-6.6,20.3a3.7,3.7,0,0,0,2.3,4.6l1.1.2a3.6,3.6,0,0,0,3.4-2.5l6.6-20.4A3.5,3.5,0,0,0,372,894.6Z"/><path d="M213.7,888.4l-8.2,11.2a3.7,3.7,0,0,0,.8,5.1,4.2,4.2,0,0,0,2.1.6,3.7,3.7,0,0,0,2.9-1.4l8.2-11.3a3.6,3.6,0,0,0-5.8-4.2Z"/><path d="M251.3,836.5l-12.5,17.3a3.6,3.6,0,0,0,.8,5.1,3.8,3.8,0,0,0,5-.8l12.5-17.3a3.6,3.6,0,1,0-5.8-4.3Z"/><path d="M107.6,780.9l-11.2,8.2a3.6,3.6,0,0,0-.8,5,3.6,3.6,0,0,0,3,1.5,3.5,3.5,0,0,0,2.1-.7l11.2-8.2a3.5,3.5,0,0,0,.8-5A3.7,3.7,0,0,0,107.6,780.9Z"/><path d="M159.5,743.2l-17.3,12.6a3.6,3.6,0,0,0-.8,5,3.5,3.5,0,0,0,2.9,1.5,3.1,3.1,0,0,0,2.1-.7L163.7,749a3.6,3.6,0,1,0-4.2-5.8Z"/><path d="M40,645.9l-13.1,4.3a3.7,3.7,0,0,0-2.4,4.6,3.7,3.7,0,0,0,3.5,2.4h1.1l13.2-4.3a3.6,3.6,0,1,0-2.3-6.9Z"/><path d="M105.5,628.4a3.5,3.5,0,0,0-4.5-2.3l-20.3,6.6a3.6,3.6,0,0,0,1.1,7,2.2,2.2,0,0,0,1.1-.2l20.3-6.6A3.5,3.5,0,0,0,105.5,628.4Z"/><path d="M17.5,496.6H3.6a3.6,3.6,0,0,0,0,7.2H17.5a3.7,3.7,0,0,0,0-7.3Z"/><path d="M85.2,500.2a3.6,3.6,0,0,0-3.6-3.6H60.2a3.6,3.6,0,0,0,0,7.2H81.6A3.6,3.6,0,0,0,85.2,500.2Z"/><path d="M42.1,347.7l-13.2-4.3a3.5,3.5,0,0,0-4.5,2.3,3.7,3.7,0,0,0,2.3,4.6l13.2,4.3H41a3.5,3.5,0,0,0,3.4-2.5A3.5,3.5,0,0,0,42.1,347.7Z"/><path d="M80.5,367.7l20.4,6.6,1.1.2a3.6,3.6,0,0,0,3.4-2.5,3.5,3.5,0,0,0-2.3-4.5l-20.3-6.6a3.7,3.7,0,0,0-4.6,2.3A3.5,3.5,0,0,0,80.5,367.7Z"/><path d="M107.4,219.5a3.1,3.1,0,0,0,2.1.7,3.6,3.6,0,0,0,2.1-6.5l-11.2-8.2a3.7,3.7,0,0,0-5.1.8,3.6,3.6,0,0,0,.8,5Z"/><path d="M146.2,238.8a3.6,3.6,0,0,0-5.1.8,3.6,3.6,0,0,0,.8,5l17.3,12.5a3.5,3.5,0,0,0,2.1.7,3.6,3.6,0,0,0,3-1.5,3.6,3.6,0,0,0-.8-5Z"/><path d="M213.3,111.9a3.5,3.5,0,0,0,2.9,1.5,4,4,0,0,0,2.1-.7,3.6,3.6,0,0,0,.8-5l-8.2-11.3a3.6,3.6,0,0,0-5-.8,3.7,3.7,0,0,0-.8,5.1Z"/><path d="M244.2,142.2a3.6,3.6,0,1,0-5.8,4.2L251,163.7a3.5,3.5,0,0,0,2.9,1.5,3.3,3.3,0,0,0,2.1-.7,3.6,3.6,0,0,0,.8-5Z"/><path d="M349.8,26.9a3.6,3.6,0,0,0-4.6-2.3,3.6,3.6,0,0,0-2.3,4.5l4.3,13.2a3.7,3.7,0,0,0,3.5,2.5l1.1-.2a3.7,3.7,0,0,0,2.3-4.6Z"/><path d="M367.1,103.2a3.6,3.6,0,0,0,3.4,2.5,2.2,2.2,0,0,0,1.1-.2,3.5,3.5,0,0,0,2.3-4.5l-6.6-20.3a3.6,3.6,0,0,0-6.9,2.2Z"/></g></g></svg>