<?xml version="1.0" encoding="utf-8"?>
<!-- Generator: Adobe Illustrator 24.2.2, SVG Export Plug-In . SVG Version: 6.00 Build 0)  -->
<svg version="1.1" id="Calque_1" xmlns="http://www.w3.org/2000/svg" xmlns:xlink="http://www.w3.org/1999/xlink" x="0px" y="0px"
	 viewBox="0 0 1000 1000" enable-background="new 0 0 1000 1000" xml:space="preserve">
<g>
	<path d="M565.3,86.6c-1.9-0.3-3.8,1-4.1,3l-4.3,27.4c-0.3,2,1,3.8,3,4.1c0.2,0,0.4,0,0.6,0c1.7,0,3.3-1.3,3.6-3l4.3-27.4
		C568.6,88.7,567.2,86.9,565.3,86.6z"/>
	<path d="M689.8,127c-1.8-0.9-3.9-0.2-4.8,1.6l-12.6,24.7c-0.9,1.8-0.2,3.9,1.6,4.8c0.5,0.3,1.1,0.4,1.6,0.4c1.3,0,2.6-0.7,3.2-2
		l12.6-24.7C692.3,130.1,691.6,127.9,689.8,127z"/>
	<path d="M790.7,203.9l-19.6,19.6c-1.4,1.4-1.4,3.7,0,5.1c0.7,0.7,1.6,1.1,2.5,1.1c0.9,0,1.8-0.4,2.5-1.1l19.6-19.6
		c1.4-1.4,1.4-3.7,0-5.1C794.4,202.5,792.1,202.5,790.7,203.9z"/>
	<path d="M868,308.2l-24.7,12.6c-1.8,0.9-2.5,3.1-1.6,4.8c0.6,1.3,1.9,2,3.2,2c0.5,0,1.1-0.1,1.6-0.4l24.7-12.6
		c1.8-0.9,2.5-3.1,1.6-4.8C871.9,308,869.8,307.3,868,308.2z"/>
	<path d="M882.4,442.8c0.2,0,0.4,0,0.6,0l27.4-4.4c2-0.3,3.3-2.2,3-4.1c-0.3-2-2.2-3.3-4.1-3l-27.4,4.4c-2,0.3-3.3,2.2-3,4.1
		C879.1,441.6,880.7,442.8,882.4,442.8z"/>
	<path d="M909.9,568.3c1.7,0,3.3-1.3,3.6-3c0.3-2-1-3.8-3-4.1l-27.4-4.3c-1.9-0.3-3.8,1-4.1,3c-0.3,2,1,3.8,3,4.1l27.4,4.3
		C909.5,568.3,909.7,568.3,909.9,568.3z"/>
	<path d="M871.4,685l-24.7-12.6c-1.8-0.9-3.9-0.2-4.8,1.6c-0.9,1.8-0.2,3.9,1.6,4.8l24.7,12.6c0.5,0.3,1.1,0.4,1.6,0.4
		c1.3,0,2.6-0.7,3.2-2C873.9,688,873.2,685.9,871.4,685z"/>
	<path d="M776.5,771.1c-1.4-1.4-3.7-1.4-5.1,0c-1.4,1.4-1.4,3.7,0,5.1l19.6,19.6c0.7,0.7,1.6,1.1,2.5,1.1c0.9,0,1.8-0.4,2.5-1.1
		c1.4-1.4,1.4-3.7,0-5.1L776.5,771.1z"/>
	<path d="M223.8,771.4L204.2,791c-1.4,1.4-1.4,3.7,0,5.1c0.7,0.7,1.6,1.1,2.5,1.1c0.9,0,1.8-0.4,2.5-1.1l19.6-19.6
		c1.4-1.4,1.4-3.7,0-5.1C227.5,770,225.2,770,223.8,771.4z"/>
	<path d="M158.3,674.3c-0.9-1.8-3.1-2.5-4.8-1.6l-24.7,12.6c-1.8,0.9-2.5,3.1-1.6,4.8c0.6,1.3,1.9,2,3.2,2c0.6,0,1.1-0.1,1.6-0.4
		l24.7-12.6C158.5,678.3,159.2,676.1,158.3,674.3z"/>
	<path d="M117,557.2l-27.4,4.4c-2,0.3-3.3,2.2-3,4.1c0.3,1.8,1.8,3,3.6,3c0.2,0,0.4,0,0.6,0l27.4-4.4c2-0.3,3.3-2.2,3-4.1
		C120.8,558.2,119,556.9,117,557.2z"/>
	<path d="M118.1,436.1l-27.4-4.3c-1.9-0.3-3.8,1-4.1,3c-0.3,2,1,3.8,3,4.1l27.4,4.3c0.2,0,0.4,0,0.6,0c1.7,0,3.3-1.3,3.6-3
		C121.4,438.2,120.1,436.4,118.1,436.1z"/>
	<path d="M128.6,315l24.7,12.6c0.5,0.3,1.1,0.4,1.6,0.4c1.3,0,2.6-0.7,3.2-2c0.9-1.8,0.2-3.9-1.6-4.8l-24.7-12.6
		c-1.8-0.9-3.9-0.2-4.8,1.6C126.1,312,126.8,314.1,128.6,315z"/>
	<path d="M209,204.2c-1.4-1.4-3.7-1.4-5.1,0c-1.4,1.4-1.4,3.7,0,5.1l19.6,19.6c0.7,0.7,1.6,1.1,2.5,1.1c0.9,0,1.8-0.4,2.5-1.1
		c1.4-1.4,1.4-3.7,0-5.1L209,204.2z"/>
	<path d="M314.6,128.7c-0.9-1.8-3.1-2.5-4.8-1.6c-1.8,0.9-2.5,3.1-1.6,4.8l12.6,24.7c0.6,1.3,1.9,2,3.2,2c0.5,0,1.1-0.1,1.6-0.4
		c1.8-0.9,2.5-3.1,1.6-4.8L314.6,128.7z"/>
	<path d="M434.3,86.6c-2,0.3-3.3,2.2-3,4.1l4.4,27.4c0.3,1.8,1.8,3,3.6,3c0.2,0,0.4,0,0.6,0c2-0.3,3.3-2.2,3-4.1l-4.4-27.4
		C438.1,87.7,436.2,86.3,434.3,86.6z"/>
	<path d="M499.7,0c-2,0-3.6,1.6-3.6,3.6l0,13.9c0,2,1.6,3.6,3.6,3.6s3.6-1.6,3.6-3.6l0-13.9C503.3,1.6,501.7,0,499.7,0z"/>
	<path d="M499.8,56.6c-2,0-3.6,1.6-3.6,3.6l0,21.4c0,2,1.6,3.6,3.6,3.6c2,0,3.6-1.6,3.6-3.6l0-21.4
		C503.4,58.2,501.8,56.6,499.8,56.6z"/>
	<path d="M654.3,24.4c-1.9-0.6-3.9,0.4-4.5,2.3l-4.3,13.2c-0.6,1.9,0.4,3.9,2.3,4.5c0.4,0.1,0.7,0.2,1.1,0.2c1.5,0,2.9-1,3.4-2.5
		l4.3-13.2C657.2,27,656.2,25,654.3,24.4z"/>
	<path d="M636.8,78.2c-1.9-0.6-3.9,0.4-4.5,2.3l-6.6,20.3c-0.6,1.9,0.4,3.9,2.3,4.5c0.4,0.1,0.7,0.2,1.1,0.2c1.5,0,2.9-1,3.4-2.5
		l6.6-20.3C639.7,80.9,638.7,78.8,636.8,78.2z"/>
	<path d="M783.4,113.1c1.1,0,2.2-0.5,2.9-1.5l8.1-11.2c1.2-1.6,0.8-3.9-0.8-5c-1.6-1.2-3.9-0.8-5,0.8l-8.1,11.2
		c-1.2,1.6-0.8,3.9,0.8,5C781.9,112.9,782.7,113.1,783.4,113.1z"/>
	<path d="M755.4,141.9l-12.5,17.3c-1.2,1.6-0.8,3.9,0.8,5c0.6,0.5,1.4,0.7,2.1,0.7c1.1,0,2.2-0.5,2.9-1.5l12.5-17.3
		c1.2-1.6,0.8-3.9-0.8-5C758.8,140,756.6,140.3,755.4,141.9z"/>
	<path d="M890.2,219.8c0.7,0,1.5-0.2,2.1-0.7l11.2-8.2c1.6-1.2,2-3.4,0.8-5c-1.2-1.6-3.4-2-5-0.8l-11.2,8.2c-1.6,1.2-2,3.4-0.8,5
		C888,219.3,889.1,219.8,890.2,219.8z"/>
	<path d="M838.4,257.5c0.7,0,1.5-0.2,2.1-0.7l17.3-12.6c1.6-1.2,2-3.4,0.8-5c-1.2-1.6-3.4-2-5-0.8L836.3,251c-1.6,1.2-2,3.4-0.8,5
		C836.2,257,837.3,257.5,838.4,257.5z"/>
	<path d="M970.9,342.9l-13.2,4.3c-1.9,0.6-2.9,2.6-2.3,4.5c0.5,1.5,1.9,2.5,3.4,2.5c0.4,0,0.7-0.1,1.1-0.2l13.2-4.3
		c1.9-0.6,2.9-2.6,2.3-4.5C974.8,343.4,972.8,342.3,970.9,342.9z"/>
	<path d="M894.5,371.6c0.5,1.5,1.9,2.5,3.4,2.5c0.4,0,0.7-0.1,1.1-0.2l20.3-6.6c1.9-0.6,2.9-2.6,2.3-4.5c-0.6-1.9-2.7-2.9-4.5-2.3
		l-20.3,6.6C894.9,367.7,893.8,369.7,894.5,371.6z"/>
	<path d="M996.4,496.1l-13.9,0c-2,0-3.6,1.6-3.6,3.6c0,2,1.6,3.6,3.6,3.6l13.9,0c2,0,3.6-1.6,3.6-3.6
		C1000,497.8,998.4,496.1,996.4,496.1z"/>
	<path d="M939.8,496.2l-21.4,0c-2,0-3.6,1.6-3.6,3.6c0,2,1.6,3.6,3.6,3.6l21.4,0c2,0,3.6-1.6,3.6-3.6
		C943.4,497.8,941.8,496.2,939.8,496.2z"/>
	<path d="M973.3,649.7l-13.2-4.3c-1.9-0.6-3.9,0.4-4.5,2.3c-0.6,1.9,0.4,3.9,2.3,4.5l13.2,4.3c0.4,0.1,0.7,0.2,1.1,0.2
		c1.5,0,2.9-1,3.4-2.5C976.2,652.4,975.2,650.3,973.3,649.7z"/>
	<path d="M919.5,632.3l-20.3-6.6c-1.9-0.6-3.9,0.4-4.5,2.3c-0.6,1.9,0.4,3.9,2.3,4.5l20.3,6.6c0.4,0.1,0.7,0.2,1.1,0.2
		c1.5,0,2.9-1,3.4-2.5C922.4,634.9,921.4,632.9,919.5,632.3z"/>
	<path d="M892.6,780.5c-1.6-1.2-3.9-0.8-5,0.8c-1.2,1.6-0.8,3.9,0.8,5l11.2,8.1c0.6,0.5,1.4,0.7,2.1,0.7c1.1,0,2.2-0.5,2.9-1.5
		c1.2-1.6,0.8-3.9-0.8-5L892.6,780.5z"/>
	<path d="M840.8,742.9c-1.6-1.2-3.9-0.8-5,0.8c-1.2,1.6-0.8,3.9,0.8,5l17.3,12.5c0.6,0.5,1.4,0.7,2.1,0.7c1.1,0,2.2-0.5,2.9-1.5
		c1.2-1.6,0.8-3.9-0.8-5L840.8,742.9z"/>
	<path d="M107.6,780.9l-11.2,8.2c-1.6,1.2-2,3.4-0.8,5c0.7,1,1.8,1.5,2.9,1.5c0.7,0,1.5-0.2,2.1-0.7l11.2-8.2c1.6-1.2,2-3.4,0.8-5
		C111.5,780.1,109.3,779.7,107.6,780.9z"/>
	<path d="M159.5,743.2l-17.3,12.6c-1.6,1.2-2,3.4-0.8,5c0.7,1,1.8,1.5,2.9,1.5c0.7,0,1.5-0.2,2.1-0.7l17.3-12.6c1.6-1.2,2-3.4,0.8-5
		C163.4,742.4,161.1,742,159.5,743.2z"/>
	<path d="M40,645.9l-13.2,4.3c-1.9,0.6-2.9,2.6-2.3,4.5c0.5,1.5,1.9,2.5,3.4,2.5c0.4,0,0.7-0.1,1.1-0.2l13.2-4.3
		c1.9-0.6,2.9-2.6,2.3-4.5C44,646.3,41.9,645.3,40,645.9z"/>
	<path d="M105.5,628.4c-0.6-1.9-2.7-2.9-4.5-2.3l-20.3,6.6c-1.9,0.6-2.9,2.6-2.3,4.5c0.5,1.5,1.9,2.5,3.4,2.5c0.4,0,0.7-0.1,1.1-0.2
		l20.3-6.6C105.1,632.3,106.2,630.3,105.5,628.4z"/>
	<path d="M17.5,496.6l-13.9,0c-2,0-3.6,1.6-3.6,3.6c0,2,1.6,3.6,3.6,3.6l13.9,0c2,0,3.6-1.6,3.6-3.6
		C21.1,498.3,19.5,496.6,17.5,496.6z"/>
	<path d="M85.2,500.2c0-2-1.6-3.6-3.6-3.6l-21.4,0c-2,0-3.6,1.6-3.6,3.6c0,2,1.6,3.6,3.6,3.6l21.4,0
		C83.6,503.8,85.2,502.2,85.2,500.2z"/>
	<path d="M42.1,347.7l-13.2-4.3c-1.9-0.6-3.9,0.4-4.5,2.3c-0.6,1.9,0.4,3.9,2.3,4.5l13.2,4.3c0.4,0.1,0.7,0.2,1.1,0.2
		c1.5,0,2.9-1,3.4-2.5C45,350.3,44,348.3,42.1,347.7z"/>
	<path d="M80.5,367.7l20.3,6.6c0.4,0.1,0.7,0.2,1.1,0.2c1.5,0,2.9-1,3.4-2.5c0.6-1.9-0.4-3.9-2.3-4.5l-20.3-6.6
		c-1.9-0.6-3.9,0.4-4.5,2.3C77.6,365.1,78.6,367.1,80.5,367.7z"/>
	<path d="M107.4,219.5c0.6,0.5,1.4,0.7,2.1,0.7c1.1,0,2.2-0.5,2.9-1.5c1.2-1.6,0.8-3.9-0.8-5l-11.2-8.1c-1.6-1.2-3.9-0.8-5,0.8
		c-1.2,1.6-0.8,3.9,0.8,5L107.4,219.5z"/>
	<path d="M146.2,238.8c-1.6-1.2-3.9-0.8-5,0.8c-1.2,1.6-0.8,3.9,0.8,5l17.3,12.5c0.6,0.5,1.4,0.7,2.1,0.7c1.1,0,2.2-0.5,2.9-1.5
		c1.2-1.6,0.8-3.9-0.8-5L146.2,238.8z"/>
	<path d="M213.3,111.9c0.7,1,1.8,1.5,2.9,1.5c0.7,0,1.5-0.2,2.1-0.7c1.6-1.2,2-3.4,0.8-5l-8.2-11.2c-1.2-1.6-3.4-2-5-0.8
		c-1.6,1.2-2,3.4-0.8,5L213.3,111.9z"/>
	<path d="M244.2,142.2c-1.2-1.6-3.4-2-5-0.8c-1.6,1.2-2,3.4-0.8,5l12.6,17.3c0.7,1,1.8,1.5,2.9,1.5c0.7,0,1.5-0.2,2.1-0.7
		c1.6-1.2,2-3.4,0.8-5L244.2,142.2z"/>
	<path d="M349.8,26.9c-0.6-1.9-2.7-2.9-4.5-2.3c-1.9,0.6-2.9,2.6-2.3,4.5l4.3,13.2c0.5,1.5,1.9,2.5,3.4,2.5c0.4,0,0.7-0.1,1.1-0.2
		c1.9-0.6,2.9-2.6,2.3-4.5L349.8,26.9z"/>
	<path d="M367.1,103.2c0.5,1.5,1.9,2.5,3.4,2.5c0.4,0,0.7-0.1,1.1-0.2c1.9-0.6,2.9-2.6,2.3-4.5l-6.6-20.3c-0.6-1.9-2.7-2.9-4.5-2.3
		c-1.9,0.6-2.9,2.6-2.3,4.5L367.1,103.2z"/>
</g>
</svg>
