<svg xmlns="http://www.w3.org/2000/svg" viewBox="0 0 439.25 273.42"><defs><style>.cls-1{fill:#f7d5ba;}.cls-2{fill:#de5a31;}</style></defs><g id="Calque_2" data-name="Calque 2"><g id="Calque_1-2" data-name="Calque 1"><path class="cls-1" d="M237.75,128.64l-21.27,33.7-3.78,6.06-5.33,8.54-12.28,19.7-4.74,7.6-7.83,12.55-.19.31-.34.53-.49.79-7.31,11.73-.06.1-.21.3-.55.21c-.24.09-.48.19-.73.27a100.92,100.92,0,1,1,65.11-102.39Z"/><path class="cls-2" d="M255.71,158.88l-.17.39H265.8l.37-3.8-.5.17a15,15,0,0,1-3.93.41h-2v-7.73a14.26,14.26,0,0,1,.43-3.85l.15-.39h-4.81l.17.39a7.91,7.91,0,0,1,.37,1.86c.06.76.09,1.49.09,2v6.74A13.66,13.66,0,0,1,255.71,158.88Z"/><path class="cls-2" d="M281.25,158.88l-.17.39h12.11l.37-3.8-.47.17a3.27,3.27,0,0,1-.84.19,19.72,19.72,0,0,1-3.09.22h-3.85v-2.76h2.16a14.16,14.16,0,0,1,3.89.43l.45.17v-4.41l-.45.18a14.6,14.6,0,0,1-3.89.41h-2.16v-2.79h3.24a14.72,14.72,0,0,1,3.93.43l.5.2-.37-3.82H281.08l.17.38a13.87,13.87,0,0,1,.45,3.85v6.74A13.7,13.7,0,0,1,281.25,158.88Z"/><path class="cls-2" d="M312,152.83c.93.41,1.79.76,2.46,1.12s.95.67.95,1a1,1,0,0,1-.67.93,3.57,3.57,0,0,1-1.47.28,7,7,0,0,1-4-1.55l-.52-.44v4.17l.16.09a11.75,11.75,0,0,0,4.44.95c2.68,0,5.73-1.28,5.73-4.19,0-4-4.3-4.88-6.22-6-.65-.37-1-.74-1-1.1,0-.85,1.57-1,2.18-1a7.92,7.92,0,0,1,3.45.89l.48.25v-3.69l-.2-.06a11.51,11.51,0,0,0-3.73-.59c-3,0-5.79,1.34-5.79,4.5C308.26,150.82,310.22,152,312,152.83Z"/><path class="cls-2" d="M250,227.29c-.67-.94-1.24-1.89-1.73-2.65a4.49,4.49,0,0,0,3-4.45,4.68,4.68,0,0,0-1.49-3.58,5.81,5.81,0,0,0-3.95-1.32h-6.12l.18.39a14.18,14.18,0,0,1,.45,3.84v6.74a14,14,0,0,1-.45,3.82l-.18.39h4.82l-.15-.39a13.74,13.74,0,0,1-.43-3.82v-1.19h.39c.36.58,1,1.51,1.53,2.44a7,7,0,0,1,1,2.68l0,.28h5.92l-.61-.5A13.76,13.76,0,0,1,250,227.29Zm-4.17-5.44h-1.9v-3.37h1.9a1.64,1.64,0,0,1,1.81,1.71A1.62,1.62,0,0,1,245.83,221.85Z"/><path class="cls-2" d="M277.46,222.74a3.84,3.84,0,0,0,1.4-3.13c0-2.92-1.88-4.32-5-4.32h-6.58l.17.38a13.92,13.92,0,0,1,.45,3.85v6.74a13.66,13.66,0,0,1-.45,3.82l-.17.39H274c3,0,5.18-1.51,5.18-4.45A3.69,3.69,0,0,0,277.46,222.74Zm-5.92-4.26h1.73c1.21,0,2,.35,2,1.41s-.78,1.38-2,1.38h-1.73Zm2,8.77h-2v-2.76h2c1.21,0,2,.34,2,1.38S274.78,227.25,273.57,227.25Z"/><path class="cls-2" d="M306.67,226.17l-2-6.74a13.83,13.83,0,0,1-.71-3.84l0-.3h-6.16l.05.32a13.87,13.87,0,0,1-.71,3.82l-2,6.74a16.69,16.69,0,0,1-1.6,3.85l-.33.45h5.14l0-.32a11.57,11.57,0,0,1,.37-3h4.43a13,13,0,0,1,.38,3l-.06.32h5.16l-.34-.45A15.75,15.75,0,0,1,306.67,226.17ZM299.54,224c.46-1.66.87-3.33,1.36-5,.5,1.66.91,3.33,1.34,5Z"/><path class="cls-2" d="M327.74,215.68l.15-.39h-4.82l.18.39a14.18,14.18,0,0,1,.45,3.84v6.74c0,.49,0,1.23-.09,1.94a7.11,7.11,0,0,1-.36,1.88l-.18.39h4.82l-.15-.39a13.74,13.74,0,0,1-.43-3.82v-6.74A13.8,13.8,0,0,1,327.74,215.68Z"/><path class="cls-2" d="M357.75,215.67l.17-.38h-4.8l.18.38a14.31,14.31,0,0,1,.43,3.85v5.34l-5.49-9.57H342.8l.17.38a13.92,13.92,0,0,1,.46,3.85v6.74a13.66,13.66,0,0,1-.46,3.82l-.17.39h4.82l-.15-.39a13.74,13.74,0,0,1-.44-3.82V220.9l5.47,9.57h5.42l-.17-.39a7.27,7.27,0,0,1-.33-1.88,17.61,17.61,0,0,1-.08-1.94v-6.74A13.83,13.83,0,0,1,357.75,215.67Z"/><path class="cls-2" d="M384,227a20.72,20.72,0,0,1-3.09.21h-3.84v-2.76h2.16a14.09,14.09,0,0,1,3.88.43l.46.17v-4.4l-.46.17a14.49,14.49,0,0,1-3.88.41h-2.16v-2.79h3.24a14.36,14.36,0,0,1,3.93.44l.5.19-.37-3.82H372.84l.17.39a14.18,14.18,0,0,1,.45,3.84v6.74a14,14,0,0,1-.45,3.82l-.17.39H385l.37-3.8-.48.17A3.46,3.46,0,0,1,384,227Z"/><path class="cls-2" d="M404.6,220.47c-.65-.37-1-.73-1-1.1,0-.84,1.58-1,2.18-1a7.93,7.93,0,0,1,3.46.89l.48.26v-3.7l-.2-.06a11.56,11.56,0,0,0-3.74-.58c-3,0-5.78,1.34-5.78,4.49,0,2.4,2,3.6,3.75,4.4.93.41,1.8.76,2.47,1.13s.95.67.95,1a1,1,0,0,1-.67.93,3.42,3.42,0,0,1-1.47.28,7,7,0,0,1-4-1.55l-.52-.43v4.17l.15.08a11.85,11.85,0,0,0,4.45,1c2.68,0,5.73-1.27,5.73-4.19C410.82,222.46,406.52,221.55,404.6,220.47Z"/><path class="cls-2" d="M251.76,195.55l-5-16.78A35,35,0,0,1,245,169.2l.11-.75H229.73l.11.81c.27,2.15-1.08,7.2-1.78,9.51l-5,16.77c-.86,2.74-2.37,7.36-4,9.57l-.81,1.13h12.79l-.1-.8c-.27-1.73.48-5.22.92-7.37h11a31.58,31.58,0,0,1,1,7.37l-.16.8h12.85l-.86-1.13C254,202.86,252.62,198.29,251.76,195.55ZM234,190.11c1.13-4.14,2.16-8.28,3.4-12.42,1.23,4.14,2.25,8.28,3.32,12.42Z"/><path class="cls-2" d="M285.57,187a9.48,9.48,0,0,0,3.5-7.79c0-7.26-4.67-10.75-12.35-10.76h-16.4l.43,1c.86,2.15,1.12,7.1,1.12,9.57v16.77c0,2.47-.28,7.37-1.14,9.51l-.43,1,16.61,0c7.58,0,12.91-3.76,12.92-11.07A9.23,9.23,0,0,0,285.57,187Zm-14.72-10.6h4.3c3,0,5,.86,4.94,3.49s-1.93,3.44-4.94,3.44h-4.3Zm5,21.83h-5.05v-6.88h5.05c3,0,4.95.87,4.95,3.45S278.9,198.25,275.89,198.25Z"/><path class="cls-2" d="M326,195.6l-5-16.78a35,35,0,0,1-1.77-9.57l.11-.75H304l.11.81c.26,2.15-1.09,7.2-1.79,9.51l-5,16.77c-.86,2.74-2.37,7.36-4,9.57l-.81,1.13h12.8l-.11-.8c-.27-1.72.49-5.22.92-7.37h11a31.58,31.58,0,0,1,1,7.37l-.16.8h12.85l-.86-1.13C328.24,202.91,326.85,198.34,326,195.6Zm-17.74-5.44c1.14-4.14,2.16-8.28,3.4-12.42,1.23,4.14,2.25,8.28,3.32,12.42Z"/><path class="cls-2" d="M371.76,169.5l.43-1H360.25l.43,1c.86,2.15,1.07,7.09,1.07,9.57v13.28L348.1,168.52H334.55l.43,1c.86,2.15,1.13,7.1,1.12,9.57v16.77c0,2.47-.27,7.37-1.13,9.52l-.43,1h12l-.37-1c-.86-2.15-1.07-7.09-1.07-9.51V182.49l13.59,23.83h13.49l-.43-1a18.39,18.39,0,0,1-.8-4.68,39.67,39.67,0,0,1-.22-4.83l0-16.78C370.73,176.6,370.89,171.6,371.76,169.5Z"/><path class="cls-2" d="M377.42,205.37l-.43,1h30.16l.92-9.46-1.18.43a8.17,8.17,0,0,1-2.1.48,51,51,0,0,1-7.69.54h-9.57v-6.88h5.37c2.53,0,7.48.22,9.68,1.08l1.13.43V182l-1.12.43c-2.15.86-7.21,1-9.68,1h-5.37V176.5h8.06c2.58,0,7.58.22,9.79,1.08l1.23.49-.91-9.52-28.7,0,.43,1c.86,2.15,1.12,7.09,1.12,9.57v16.77C378.56,198.32,378.28,203.22,377.42,205.37Z"/><path class="cls-2" d="M423.78,181.48c-1.62-.92-2.42-1.83-2.42-2.75,0-2.1,3.92-2.58,5.43-2.58a20,20,0,0,1,8.6,2.21l1.18.65v-9.19l-.49-.16a28.45,28.45,0,0,0-9.3-1.46c-7.42,0-14.41,3.32-14.41,11.17,0,6,4.89,9,9.35,11,2.31,1,4.46,1.89,6.12,2.8s2.37,1.67,2.37,2.59a2.54,2.54,0,0,1-1.67,2.31,8.76,8.76,0,0,1-3.66.69,17.36,17.36,0,0,1-10.05-3.88l-1.29-1.07v10.38l.37.21A29.29,29.29,0,0,0,425,206.74c6.67,0,14.25-3.16,14.26-10.42C439.25,186.43,428.56,184.17,423.78,181.48Z"/><path class="cls-2" d="M219.9,215.78a12.16,12.16,0,0,1,.38,3.74v5.12c0,1.77-.8,2.63-2.46,2.63s-2.45-.84-2.45-2.63v-5.12a12.13,12.13,0,0,1,.38-3.73l.35-.79h-5.69l.35.78a14.13,14.13,0,0,1,.43,3.74v5.12c0,3.9,2.6,6.42,6.63,6.42s6.64-2.52,6.64-6.42v-5.12a13.61,13.61,0,0,1,.41-3.73l.35-.79h-5.67Z"/><path class="cls-2" d="M153,33.61h.2a1.26,1.26,0,0,0,1.25-1.06l1.18-7.48a1.27,1.27,0,0,0-1-1.45,1.28,1.28,0,0,0-1.45,1.06L152,32.16A1.28,1.28,0,0,0,153,33.61Z"/><path class="cls-2" d="M184.1,43.7a1.26,1.26,0,0,0,1.7-.55l3.44-6.74a1.28,1.28,0,0,0-.56-1.71,1.25,1.25,0,0,0-1-.07,1.23,1.23,0,0,0-.73.63L183.55,42a1.19,1.19,0,0,0-.08,1A1.22,1.22,0,0,0,184.1,43.7Z"/><path class="cls-2" d="M211.42,63.27a1.26,1.26,0,0,0,.89-.37l5.35-5.35a1.26,1.26,0,0,0,.37-.9,1.24,1.24,0,0,0-.37-.89,1.26,1.26,0,0,0-1.79,0l-5.35,5.35a1.27,1.27,0,0,0,.9,2.16Z"/><path class="cls-2" d="M229.72,89.32a1.25,1.25,0,0,0,1.13.69,1.23,1.23,0,0,0,.57-.14l6.74-3.43A1.27,1.27,0,0,0,238,84.1a1.3,1.3,0,0,0-1,.08l-6.74,3.43A1.28,1.28,0,0,0,229.72,89.32Z"/><path class="cls-2" d="M241.06,121.45l.2,0,7.47-1.18a1.25,1.25,0,0,0,.83-.51,1.3,1.3,0,0,0,.22-.94,1.26,1.26,0,0,0-1.45-1l-7.47,1.18a1.27,1.27,0,0,0,.2,2.52Z"/><path class="cls-2" d="M153,239.81h0a1.27,1.27,0,0,0-1,1.45l1.18,7.47a1.26,1.26,0,0,0,1.25,1.07l.2,0a1.27,1.27,0,0,0,1-1.45l-1.18-7.47A1.28,1.28,0,0,0,153,239.81Z"/><path class="cls-2" d="M120.38,239.81h0a1.27,1.27,0,0,0-1.45,1.05l-1.18,7.47a1.27,1.27,0,0,0,1.06,1.45l.19,0a1.27,1.27,0,0,0,1.25-1.07l1.18-7.47a1.24,1.24,0,0,0-.22-.95A1.27,1.27,0,0,0,120.38,239.81Z"/><path class="cls-2" d="M89.32,229.71a1.26,1.26,0,0,0-1-.07,1.23,1.23,0,0,0-.73.63L84.18,237a1.26,1.26,0,0,0,.55,1.7,1.3,1.3,0,0,0,.58.14,1.28,1.28,0,0,0,1.13-.69l3.43-6.74A1.28,1.28,0,0,0,89.32,229.71Z"/><path class="cls-2" d="M62,210.15h0a1.24,1.24,0,0,0-.89.37l-5.35,5.35a1.24,1.24,0,0,0-.37.89,1.27,1.27,0,0,0,2.16.9l5.35-5.35a1.27,1.27,0,0,0-.9-2.16Z"/><path class="cls-2" d="M43.7,184.1a1.22,1.22,0,0,0-.74-.63,1.23,1.23,0,0,0-1,.07L35.26,187a1.22,1.22,0,0,0-.63.74,1.23,1.23,0,0,0,.07,1,1.26,1.26,0,0,0,1.13.69,1.29,1.29,0,0,0,.58-.13l6.74-3.44A1.26,1.26,0,0,0,43.7,184.1Z"/><path class="cls-2" d="M32.16,152l-7.47,1.19a1.27,1.27,0,0,0-1.05,1.45,1.25,1.25,0,0,0,1.25,1.07l.2,0,7.47-1.18a1.27,1.27,0,0,0,1-1.45A1.28,1.28,0,0,0,32.16,152Z"/><path class="cls-2" d="M23.64,118.8h0a1.27,1.27,0,0,0,1.05,1.45l7.47,1.18.2,0a1.26,1.26,0,0,0,1-2,1.2,1.2,0,0,0-.82-.51l-7.48-1.18A1.26,1.26,0,0,0,23.64,118.8Z"/><path class="cls-2" d="M35.26,86.44,42,89.87a1.23,1.23,0,0,0,.57.14,1.27,1.27,0,0,0,1.21-1.66,1.26,1.26,0,0,0-.63-.73l-6.74-3.44a1.27,1.27,0,0,0-1.15,2.26Z"/><path class="cls-2" d="M61.11,62.9a1.27,1.27,0,0,0,2.16-.9,1.22,1.22,0,0,0-.37-.89l-5.35-5.35a1.27,1.27,0,0,0-.9-.38,1.28,1.28,0,0,0-1.26,1.27,1.26,1.26,0,0,0,.37.9Z"/><path class="cls-2" d="M87.62,43.15a1.26,1.26,0,0,0,1.13.69,1.23,1.23,0,0,0,.57-.14A1.25,1.25,0,0,0,90,43a1.24,1.24,0,0,0-.08-1l-3.43-6.74a1.27,1.27,0,0,0-1.13-.7,1.3,1.3,0,0,0-.58.14,1.28,1.28,0,0,0-.55,1.71Z"/><path class="cls-2" d="M120.18,33.62h.2a1.25,1.25,0,0,0,.83-.51,1.21,1.21,0,0,0,.22-.94l-1.18-7.47a1.28,1.28,0,0,0-1.45-1.06,1.27,1.27,0,0,0-1,1.45l1.18,7.48A1.26,1.26,0,0,0,120.18,33.62Z"/><path class="cls-2" d="M136.71,6.31A1.26,1.26,0,0,0,138,5.05V1.27a1.27,1.27,0,0,0-2.54,0V5.05A1.26,1.26,0,0,0,136.71,6.31Z"/><path class="cls-2" d="M136.71,23.8A1.26,1.26,0,0,0,138,22.54V16.71a1.27,1.27,0,0,0-2.54,0v5.83A1.26,1.26,0,0,0,136.71,23.8Z"/><path class="cls-2" d="M177,12.7a1.32,1.32,0,0,0,.39.06,1.27,1.27,0,0,0,1.21-.88l1.17-3.59a1.27,1.27,0,0,0-2.41-.79l-1.17,3.6a1.26,1.26,0,0,0,.07,1A1.31,1.31,0,0,0,177,12.7Z"/><path class="cls-2" d="M171.6,29.33a1.23,1.23,0,0,0,.39.06,1.28,1.28,0,0,0,1.21-.87L175,23a1.26,1.26,0,0,0-.82-1.59,1.25,1.25,0,0,0-1.59.81l-1.8,5.54a1.26,1.26,0,0,0,.07,1A1.28,1.28,0,0,0,171.6,29.33Z"/><path class="cls-2" d="M214.1,31.46a1.25,1.25,0,0,0,1-.52l2.23-3.06a1.27,1.27,0,0,0-2-1.49l-2.23,3.06a1.21,1.21,0,0,0-.22.94,1.25,1.25,0,0,0,.5.83A1.26,1.26,0,0,0,214.1,31.46Z"/><path class="cls-2" d="M203.82,45.61a1.25,1.25,0,0,0,1-.52l3.43-4.72a1.26,1.26,0,0,0,.23-.94,1.3,1.3,0,0,0-.51-.83,1.26,1.26,0,0,0-.94-.23,1.3,1.3,0,0,0-.83.51l-3.43,4.72a1.27,1.27,0,0,0,.28,1.77A1.34,1.34,0,0,0,203.82,45.61Z"/><path class="cls-2" d="M243.23,60.59a1.33,1.33,0,0,0,.74-.24L247,58.12a1.27,1.27,0,0,0,.28-1.77,1.25,1.25,0,0,0-.83-.5,1.21,1.21,0,0,0-.94.22l-3.06,2.22a1.29,1.29,0,0,0-.28,1.78A1.27,1.27,0,0,0,243.23,60.59Z"/><path class="cls-2" d="M229.08,70.87a1.24,1.24,0,0,0,.74-.25l4.72-3.42a1.27,1.27,0,0,0,.28-1.77,1.26,1.26,0,0,0-1.77-.28l-4.72,3.42a1.33,1.33,0,0,0-.51.83,1.28,1.28,0,0,0,1.26,1.47Z"/><path class="cls-2" d="M261.93,97.29a1.32,1.32,0,0,0,.39-.06l3.6-1.17a1.28,1.28,0,0,0,.81-1.6h0a1.28,1.28,0,0,0-1.6-.81l-3.6,1.17a1.27,1.27,0,0,0,.4,2.47Z"/><path class="cls-2" d="M244.09,101.82a1.26,1.26,0,0,0,1.2.87,1.32,1.32,0,0,0,.39-.06l5.55-1.8a1.23,1.23,0,0,0,.73-.63,1.21,1.21,0,0,0,.08-1,1.27,1.27,0,0,0-1.59-.81l-5.55,1.8A1.27,1.27,0,0,0,244.09,101.82Z"/><path class="cls-2" d="M178.6,261.53a1.27,1.27,0,0,0-1.21-.87,1.32,1.32,0,0,0-.39.06,1.23,1.23,0,0,0-.73.63,1.19,1.19,0,0,0-.08,1l1.17,3.6a1.25,1.25,0,0,0,1.2.88,1.27,1.27,0,0,0,.39-.06,1.25,1.25,0,0,0,.74-.63,1.31,1.31,0,0,0,.08-1Z"/><path class="cls-2" d="M173.19,244.9A1.27,1.27,0,0,0,172,244a1.28,1.28,0,0,0-.39.07,1.26,1.26,0,0,0-.74.62,1.31,1.31,0,0,0-.08,1l1.81,5.55a1.26,1.26,0,0,0,1.2.87,1.32,1.32,0,0,0,.39-.06,1.28,1.28,0,0,0,.82-1.6Z"/><path class="cls-2" d="M136.71,267.1a1.27,1.27,0,0,0-1.27,1.27v3.78a1.27,1.27,0,0,0,2.54,0v-3.78A1.27,1.27,0,0,0,136.71,267.1Z"/><path class="cls-2" d="M136.71,249.61a1.27,1.27,0,0,0-1.27,1.27v5.83a1.27,1.27,0,0,0,2.54,0v-5.83A1.27,1.27,0,0,0,136.71,249.61Z"/><path class="cls-2" d="M96.41,260.72a1.26,1.26,0,0,0-1.59.81l-1.17,3.6a1.28,1.28,0,0,0,.81,1.6,1.37,1.37,0,0,0,.39.06,1.27,1.27,0,0,0,1.21-.88l1.17-3.6a1.24,1.24,0,0,0-.08-1A1.22,1.22,0,0,0,96.41,260.72Z"/><path class="cls-2" d="M101.82,244.09a1.27,1.27,0,0,0-1.6.81l-1.8,5.54a1.26,1.26,0,0,0,.08,1,1.23,1.23,0,0,0,.73.63,1.34,1.34,0,0,0,.4.06,1.26,1.26,0,0,0,1.2-.87l1.8-5.55a1.25,1.25,0,0,0-.81-1.59Z"/><path class="cls-2" d="M59.12,242a1.26,1.26,0,0,0-.82.51l-2.23,3.06a1.26,1.26,0,0,0,1,2,1.27,1.27,0,0,0,1-.52L60.35,244a1.24,1.24,0,0,0,.22-.95,1.25,1.25,0,0,0-.5-.82A1.3,1.3,0,0,0,59.12,242Z"/><path class="cls-2" d="M69.4,227.82a1.28,1.28,0,0,0-.82.51l-3.43,4.72a1.25,1.25,0,0,0-.23.94,1.33,1.33,0,0,0,.51.83,1.27,1.27,0,0,0,1.77-.28l3.43-4.72a1.3,1.3,0,0,0,.22-.94,1.23,1.23,0,0,0-.51-.83A1.25,1.25,0,0,0,69.4,227.82Z"/><path class="cls-2" d="M30.39,212.84a1.26,1.26,0,0,0-.94.23l-3.06,2.22a1.27,1.27,0,0,0-.51.83,1.27,1.27,0,0,0,2,1.22l3.06-2.22a1.27,1.27,0,0,0,.28-1.77A1.3,1.3,0,0,0,30.39,212.84Z"/><path class="cls-2" d="M44.54,202.56a1.26,1.26,0,0,0-.94.23l-4.72,3.43a1.25,1.25,0,0,0-.5.82,1.24,1.24,0,0,0,.22,1,1.29,1.29,0,0,0,1,.52,1.21,1.21,0,0,0,.74-.24l4.72-3.43a1.27,1.27,0,0,0,.28-1.77A1.3,1.3,0,0,0,44.54,202.56Z"/><path class="cls-2" d="M11.1,176.19l-3.59,1.17a1.19,1.19,0,0,0-.74.63,1.24,1.24,0,0,0-.08,1,1.26,1.26,0,0,0,1.21.88,1.32,1.32,0,0,0,.39-.06l3.59-1.17a1.27,1.27,0,1,0-.78-2.41Z"/><path class="cls-2" d="M29.33,171.6h0a1.27,1.27,0,0,0-1.6-.82l-5.54,1.8a1.27,1.27,0,0,0-.81,1.6,1.25,1.25,0,0,0,1.2.88A1,1,0,0,0,23,175l5.55-1.8A1.26,1.26,0,0,0,29.33,171.6Z"/><path class="cls-2" d="M5.05,135.44H1.27a1.27,1.27,0,1,0,0,2.54H5.05a1.27,1.27,0,0,0,0-2.54Z"/><path class="cls-2" d="M23.8,136.71a1.26,1.26,0,0,0-1.26-1.27H16.71a1.27,1.27,0,1,0,0,2.53h5.83A1.25,1.25,0,0,0,23.8,136.71Z"/><path class="cls-2" d="M7.5,96.06l3.6,1.17a1.32,1.32,0,0,0,.39.06,1.26,1.26,0,0,0,.39-2.47L8.29,93.65a1.27,1.27,0,0,0-.79,2.41Z"/><path class="cls-2" d="M22.19,100.83l5.55,1.8a1.32,1.32,0,0,0,.39.06,1.27,1.27,0,0,0,.39-2.47L23,98.42a1.28,1.28,0,0,0-1.59.81,1.25,1.25,0,0,0,.07,1A1.28,1.28,0,0,0,22.19,100.83Z"/><path class="cls-2" d="M29.45,60.34a1.24,1.24,0,0,0,.74.25,1.27,1.27,0,0,0,.75-2.3l-3.06-2.22a1.26,1.26,0,0,0-.75-.24,1.29,1.29,0,0,0-1,.52,1.26,1.26,0,0,0-.23.94,1.23,1.23,0,0,0,.51.83Z"/><path class="cls-2" d="M43.6,70.62a1.24,1.24,0,0,0,.74.25,1.27,1.27,0,0,0,.75-2.3l-4.72-3.42a1.23,1.23,0,0,0-.74-.24,1.27,1.27,0,0,0-1,.52,1.21,1.21,0,0,0-.22.94,1.25,1.25,0,0,0,.5.83Z"/><path class="cls-2" d="M58.3,30.94a1.25,1.25,0,0,0,1,.52,1.27,1.27,0,0,0,1-2l-2.23-3.06a1.25,1.25,0,0,0-1-.52,1.26,1.26,0,0,0-.75.24,1.25,1.25,0,0,0-.5.83,1.27,1.27,0,0,0,.22.94Z"/><path class="cls-2" d="M68.58,45.08a1.24,1.24,0,0,0,1,.53,1.28,1.28,0,0,0,.74-.24,1.25,1.25,0,0,0,.51-.83,1.3,1.3,0,0,0-.22-.94L67.2,38.88a1.27,1.27,0,0,0-1.77-.28,1.3,1.3,0,0,0-.51.83,1.26,1.26,0,0,0,.23.94Z"/><path class="cls-2" d="M94.82,11.88a1.25,1.25,0,0,0,1.2.88,1.39,1.39,0,0,0,.4-.06,1.28,1.28,0,0,0,.81-1.6L96.06,7.5a1.27,1.27,0,0,0-1.21-.87,1.32,1.32,0,0,0-.39.06,1.23,1.23,0,0,0-.73.63,1.26,1.26,0,0,0-.08,1Z"/><path class="cls-2" d="M100.22,28.52a1.27,1.27,0,0,0,1.21.87,1.26,1.26,0,0,0,1.13-.69,1.25,1.25,0,0,0,.07-1l-1.8-5.54a1.27,1.27,0,0,0-1.21-.88,1,1,0,0,0-.38.07,1.21,1.21,0,0,0-.74.62,1.26,1.26,0,0,0-.08,1Z"/><path class="cls-2" d="M154.54,97.45a1.83,1.83,0,0,0,.62-.1,1.2,1.2,0,0,0,.28-.13l12.9,17.45a2.31,2.31,0,0,0-.39,1.25l-22.58,7.71a1.88,1.88,0,0,0-.34-.35l9.17-25.86Zm-28.24,19,26.23-19-8.95,25.26h0a2.38,2.38,0,0,0-.7.11,2.24,2.24,0,0,0-1,.68l-15.47-6.34a1.36,1.36,0,0,0,0-.29A1.79,1.79,0,0,0,126.3,116.42Zm6.89-23.76a2.21,2.21,0,0,0-.38.43l-33.66-8.7,25.28-10.15a2.05,2.05,0,0,0,1.64.79h.16Zm-5.25-17.54L152.1,94.26l-15.2-.57a2.24,2.24,0,0,0-1.37-1.49,2,2,0,0,0-.74-.13h-.16Zm4.46,19.47a2.29,2.29,0,0,0,.68,1.44l-8.79,18.74a1.73,1.73,0,0,0-.36,0h0a2.48,2.48,0,0,0-.64.15l-24.42-29Zm2.09,2.09h.24a2.3,2.3,0,0,0,2.15-1.44l15.28.57-26.11,18.86ZM145.83,52a1.92,1.92,0,0,0,.55.11l7,40.93-.15.08L128.36,73.47a2.27,2.27,0,0,0-.18-1.85Zm-38.4,10.31,36.91-11L127.05,70.55l-.07,0a2.28,2.28,0,0,0-.81-.15,2.33,2.33,0,0,0-1.63.67L107.4,62.5Zm-2.36,2.18h.06a2.33,2.33,0,0,0,1.59-.63l17.15,8.54a1.45,1.45,0,0,0,0,.36L98.38,83a2.28,2.28,0,0,0-.22-.22Zm-9.62,22a2,2,0,0,0,.38.22,2.42,2.42,0,0,0,1.65,0l23.59,28L84.56,96.64a2.49,2.49,0,0,0,0-.72,1.87,1.87,0,0,0-.16-.52Zm26.32,30.28c0,.06,0,.11,0,.17l-16.5,5.09a2.33,2.33,0,0,0-2.24-1.74h-.18a2.21,2.21,0,0,0-1,.34L84.74,98.46ZM82.56,98.57h0a.65.65,0,0,0,.21-.06l18,23.39a2.44,2.44,0,0,0-.15.72L81,121.43a2,2,0,0,0,0-.43,2.3,2.3,0,0,0-1.17-1.82Zm13.93,47-.19,0h0a2,2,0,0,0-.86.26L80.23,122.94l21.08,1.28a2.32,2.32,0,0,0,.64.51Zm1.55.19,5.47-20.8a2.34,2.34,0,0,0,1.53-1.16l16.65-5.14Zm25.19-26.5a2.36,2.36,0,0,0,.87.19h.15a2.22,2.22,0,0,0,1.54-.78L141.26,125a1.76,1.76,0,0,0,0,.39L99.64,146.27Zm0,32.56-1.61-6.87,16.31-3,.53,10.71ZM101.66,147,142,126.75a2.26,2.26,0,0,0,1.59.62h.14l4.13,9.85a2.26,2.26,0,0,0-.71,1.42Zm46.23,1.82-2.62-8.26,2.2-.4a2.31,2.31,0,0,0,1.95,1.09,2,2,0,0,0,.69-.11,2.27,2.27,0,0,0,1.37-1.15,2.3,2.3,0,0,0,.15-1.78,1.19,1.19,0,0,0-.15-.32l3.67-4.07.1,10.61Zm2.47-12a2.17,2.17,0,0,0-.92-.19h-.19l-4.11-9.83a2.29,2.29,0,0,0,.73-1.68l21.78-7.44ZM187.23,153l-1.07-5a2.32,2.32,0,0,0,1.07-1.48l5.68-.79Zm6.49-8.93L187,145a2.32,2.32,0,0,0-1.75-1.23l-2-9.41,8.17,1.33Zm-10,.06a2.27,2.27,0,0,0-.78.76l-14.06-2.77a2,2,0,0,0,0-.43l12.83-7.09ZM185,126.31a1.76,1.76,0,0,0,.49-.07l.09,0,4.84,7.79-7.23-1.18Zm-17.25,13.9L171.9,130l11-4.65a2.34,2.34,0,0,0,.56.57l-1.95,7L168,140.39Zm7.85,14.64-7.54-10.92a2.2,2.2,0,0,0,.3-.31l14.28,2.82a1.68,1.68,0,0,0,.06.37,2.35,2.35,0,0,0,1.93,1.59l1.23,5.69Zm37.5,40A17.81,17.81,0,0,1,202,199a10,10,0,0,1-6.94-2.31c-2.34-2.1-3.33-5.46-3.32-9.36,0-6,2.86-11.61,9.95-11.61a14.34,14.34,0,0,1,5.65,1.27,11.49,11.49,0,0,1,3.92,2.72l1.4,1.5V168.31l-1.08.44a3.71,3.71,0,0,1-1.34.16,4.26,4.26,0,0,1-1.51-.22,25.55,25.55,0,0,0-7-1c-12.8,0-19.31,9.08-19.32,19.61a22.5,22.5,0,0,0,3.23,12.43L173,196.77l-10.8-18.05,15.79-11a.79.79,0,0,0,.29-.38l4.07-11.42,4.57-.33a.82.82,0,0,0,.56-.3l7.88-10.06a.75.75,0,0,0,.14-.69l-2.71-9.72a.66.66,0,0,0-.09-.19l-5.87-9.45a2.25,2.25,0,0,0,.24-1.87,2.32,2.32,0,0,0-2.23-1.63,2.37,2.37,0,0,0-.7.1,2.32,2.32,0,0,0-1.6,2.09L171,128.71a.72.72,0,0,0-.42.42l-4.38,10.78a1.1,1.1,0,0,0-.35.05,2.34,2.34,0,0,0-1.52,2.94,2.3,2.3,0,0,0,2.22,1.59h0l7.83,11.34-1.23,6.74-14.76,7.32-7.2-13.14L162.53,149a.78.78,0,0,0,.33-.77l-3.12-19.54,9.61-10.62a2.3,2.3,0,0,0,.9.18,2.38,2.38,0,0,0,.7-.11,2.34,2.34,0,0,0-.71-4.57,2.25,2.25,0,0,0-.68.11l-13-17.61a2.26,2.26,0,0,0,.12-1.69,2.29,2.29,0,0,0-1.76-1.58l-7-41.06a2.28,2.28,0,0,0,.92-1.12,2.33,2.33,0,0,0-1.36-3,2.29,2.29,0,0,0-.82-.15A2.35,2.35,0,0,0,144.44,49a2,2,0,0,0-.14.74L107,60.86a2.22,2.22,0,0,0-1-.82,2.29,2.29,0,0,0-.82-.15,2.34,2.34,0,0,0-2.19,1.51,2.29,2.29,0,0,0,.69,2.57L96.7,82.25h-.06a2.28,2.28,0,0,0-2.18,3.07l-11.08,8.9a2.34,2.34,0,0,0-1.14-.3l-.33,0a2.35,2.35,0,0,0-2,2.66A2.25,2.25,0,0,0,81,98.21l-2.68,20.66a2.32,2.32,0,0,0-1.41.78,2.34,2.34,0,0,0,1.77,3.87h0L94.32,147a2.2,2.2,0,0,0-.21,1.07,2.35,2.35,0,0,0,2.33,2.16h.18a2.31,2.31,0,0,0,1.7-1L112,146.67l4.89,12.15a.76.76,0,0,0,.53.47l24.64,6,6.41,11.63,3.82,35.1a.78.78,0,0,0,.25.49l19.27,17.7.26.25.61.56c.25-.08.49-.18.73-.27l.55-.21.21-.3-.95-.85-19.41-17.83-3.81-35a.75.75,0,0,0-.09-.29l-6.65-12.07a.8.8,0,0,0-.5-.38l-24.58-6-4.61-11.48,6.51-1.2,1.77,7.51a.79.79,0,0,0,.71.6l16.72.92a.77.77,0,0,0,.77-.81l-.58-11.79,1.48-.27,2,13.24a.79.79,0,0,0,.1.27l11.5,20.06,6.59,28.42a.77.77,0,0,0,.3.45l20.1,14.63.49-.79.34-.53-19.78-14.39L156,174.5a.58.58,0,0,0-.08-.22l-11.5-20.06-2-13.15,1.29-.24,3,9.39a.81.81,0,0,0,.47.49.69.69,0,0,0,.28,0,.74.74,0,0,0,.39-.11l8.59-5.13a.8.8,0,0,0,.38-.68l-.12-12.73,1.71-1.9L161.25,148l-11.51,7.83a.78.78,0,0,0-.25,1l7.91,14.41a.79.79,0,0,0,.68.41.73.73,0,0,0,.35-.09l15.77-7.82a.78.78,0,0,0,.42-.56l1.25-6.84,4.73-.35-3.75,10.54-16.19,11.28a.78.78,0,0,0-.22,1l11.34,18.95a.83.83,0,0,0,.5.36l14.91,3.44a14.53,14.53,0,0,0,3.16,2.59A20.41,20.41,0,0,0,201.27,207a33.3,33.3,0,0,0,9.89-1.55,21.75,21.75,0,0,0,3-1.23l.38-.17V193.59Z"/></g></g></svg>